%TF.GenerationSoftware,KiCad,Pcbnew,10.0.2*%
%TF.CreationDate,2026-07-27T19:33:38-07:00*%
%TF.ProjectId,wsl-phase8b-revD,77736c2d-7068-4617-9365-38622d726576,D*%
%TF.SameCoordinates,Original*%
%TF.FileFunction,Soldermask,Bot*%
%TF.FilePolarity,Negative*%
%FSLAX46Y46*%
G04 Gerber Fmt 4.6, Leading zero omitted, Abs format (unit mm)*
G04 Created by KiCad (PCBNEW 10.0.2) date 2026-07-27 19:33:38*
%MOMM*%
%LPD*%
G01*
G04 APERTURE LIST*
G04 Aperture macros list*
%AMRoundRect*
0 Rectangle with rounded corners*
0 $1 Rounding radius*
0 $2 $3 $4 $5 $6 $7 $8 $9 X,Y pos of 4 corners*
0 Add a 4 corners polygon primitive as box body*
4,1,4,$2,$3,$4,$5,$6,$7,$8,$9,$2,$3,0*
0 Add four circle primitives for the rounded corners*
1,1,$1+$1,$2,$3*
1,1,$1+$1,$4,$5*
1,1,$1+$1,$6,$7*
1,1,$1+$1,$8,$9*
0 Add four rect primitives between the rounded corners*
20,1,$1+$1,$2,$3,$4,$5,0*
20,1,$1+$1,$4,$5,$6,$7,0*
20,1,$1+$1,$6,$7,$8,$9,0*
20,1,$1+$1,$8,$9,$2,$3,0*%
G04 Aperture macros list end*
%ADD10RoundRect,0.250000X-0.550000X-0.550000X0.550000X-0.550000X0.550000X0.550000X-0.550000X0.550000X0*%
%ADD11C,1.600000*%
%ADD12C,3.200000*%
%ADD13RoundRect,0.250000X-1.050000X-1.050000X1.050000X-1.050000X1.050000X1.050000X-1.050000X1.050000X0*%
%ADD14C,2.600000*%
%ADD15R,2.500000X2.500000*%
%ADD16O,2.500000X2.500000*%
%ADD17RoundRect,0.277778X1.522222X-0.722222X1.522222X0.722222X-1.522222X0.722222X-1.522222X-0.722222X0*%
%ADD18O,3.600000X2.000000*%
%ADD19RoundRect,0.250000X-1.050000X1.050000X-1.050000X-1.050000X1.050000X-1.050000X1.050000X1.050000X0*%
%ADD20RoundRect,0.277778X-0.722222X-1.522222X0.722222X-1.522222X0.722222X1.522222X-0.722222X1.522222X0*%
%ADD21O,2.000000X3.600000*%
%ADD22RoundRect,0.250001X-0.499999X0.499999X-0.499999X-0.499999X0.499999X-0.499999X0.499999X0.499999X0*%
%ADD23C,1.500000*%
%ADD24RoundRect,0.250000X0.600000X-0.600000X0.600000X0.600000X-0.600000X0.600000X-0.600000X-0.600000X0*%
%ADD25C,1.700000*%
G04 APERTURE END LIST*
D10*
%TO.C,U29*%
X74000000Y-155500000D03*
D11*
X74000000Y-158040000D03*
X81620000Y-158040000D03*
X81620000Y-155500000D03*
%TD*%
D10*
%TO.C,U9*%
X74000000Y-41500000D03*
D11*
X74000000Y-44040000D03*
X81620000Y-44040000D03*
X81620000Y-41500000D03*
%TD*%
D10*
%TO.C,U7*%
X74000000Y-30100000D03*
D11*
X74000000Y-32640000D03*
X81620000Y-32640000D03*
X81620000Y-30100000D03*
%TD*%
D10*
%TO.C,U36*%
X74000000Y-195400000D03*
D11*
X74000000Y-197940000D03*
X81620000Y-197940000D03*
X81620000Y-195400000D03*
%TD*%
D12*
%TO.C,MK1*%
X4000000Y-4000000D03*
%TD*%
D13*
%TO.C,J2*%
X116000000Y-10000000D03*
D14*
X121080000Y-10000000D03*
X126160000Y-10000000D03*
%TD*%
D10*
%TO.C,U6*%
X74000000Y-24400000D03*
D11*
X74000000Y-26940000D03*
X81620000Y-26940000D03*
X81620000Y-24400000D03*
%TD*%
D15*
%TO.C,K3*%
X176000000Y-116000000D03*
D16*
X178000000Y-122000000D03*
X190200000Y-122000000D03*
X190200000Y-110000000D03*
X178000000Y-110000000D03*
%TD*%
D10*
%TO.C,U24*%
X74000000Y-127000000D03*
D11*
X74000000Y-129540000D03*
X81620000Y-129540000D03*
X81620000Y-127000000D03*
%TD*%
D15*
%TO.C,K2*%
X176000000Y-94000000D03*
D16*
X178000000Y-100000000D03*
X190200000Y-100000000D03*
X190200000Y-88000000D03*
X178000000Y-88000000D03*
%TD*%
D10*
%TO.C,U31*%
X74000000Y-166900000D03*
D11*
X74000000Y-169440000D03*
X81620000Y-169440000D03*
X81620000Y-166900000D03*
%TD*%
D15*
%TO.C,K1*%
X176000000Y-72000000D03*
D16*
X178000000Y-78000000D03*
X190200000Y-78000000D03*
X190200000Y-66000000D03*
X178000000Y-66000000D03*
%TD*%
D10*
%TO.C,U33*%
X74000000Y-178300000D03*
D11*
X74000000Y-180840000D03*
X81620000Y-180840000D03*
X81620000Y-178300000D03*
%TD*%
D10*
%TO.C,U32*%
X74000000Y-172600000D03*
D11*
X74000000Y-175140000D03*
X81620000Y-175140000D03*
X81620000Y-172600000D03*
%TD*%
D12*
%TO.C,MK3*%
X4000000Y-236000000D03*
%TD*%
D10*
%TO.C,U37*%
X74000000Y-201100000D03*
D11*
X74000000Y-203640000D03*
X81620000Y-203640000D03*
X81620000Y-201100000D03*
%TD*%
D17*
%TO.C,J15*%
X9000000Y-222000000D03*
D18*
X9000000Y-218500000D03*
X9000000Y-215000000D03*
X9000000Y-211500000D03*
X9000000Y-208000000D03*
X9000000Y-204500000D03*
X9000000Y-201000000D03*
X9000000Y-197500000D03*
X9000000Y-194000000D03*
X9000000Y-190500000D03*
%TD*%
D10*
%TO.C,U28*%
X74000000Y-149800000D03*
D11*
X74000000Y-152340000D03*
X81620000Y-152340000D03*
X81620000Y-149800000D03*
%TD*%
D19*
%TO.C,J12*%
X242000000Y-200000000D03*
D14*
X242000000Y-205080000D03*
%TD*%
D10*
%TO.C,U17*%
X74000000Y-87100000D03*
D11*
X74000000Y-89640000D03*
X81620000Y-89640000D03*
X81620000Y-87100000D03*
%TD*%
D10*
%TO.C,U4*%
X74000000Y-13000000D03*
D11*
X74000000Y-15540000D03*
X81620000Y-15540000D03*
X81620000Y-13000000D03*
%TD*%
D10*
%TO.C,U34*%
X74000000Y-184000000D03*
D11*
X74000000Y-186540000D03*
X81620000Y-186540000D03*
X81620000Y-184000000D03*
%TD*%
D10*
%TO.C,U16*%
X74000000Y-81400000D03*
D11*
X74000000Y-83940000D03*
X81620000Y-83940000D03*
X81620000Y-81400000D03*
%TD*%
D17*
%TO.C,J5*%
X9000000Y-168000000D03*
D18*
X9000000Y-164500000D03*
X9000000Y-161000000D03*
X9000000Y-157500000D03*
X9000000Y-154000000D03*
X9000000Y-150500000D03*
X9000000Y-147000000D03*
X9000000Y-143500000D03*
X9000000Y-140000000D03*
X9000000Y-136500000D03*
X9000000Y-133000000D03*
X9000000Y-129500000D03*
%TD*%
D10*
%TO.C,U42*%
X74000000Y-229600000D03*
D11*
X74000000Y-232140000D03*
X81620000Y-232140000D03*
X81620000Y-229600000D03*
%TD*%
D10*
%TO.C,U8*%
X74000000Y-35800000D03*
D11*
X74000000Y-38340000D03*
X81620000Y-38340000D03*
X81620000Y-35800000D03*
%TD*%
D10*
%TO.C,U40*%
X74000000Y-218200000D03*
D11*
X74000000Y-220740000D03*
X81620000Y-220740000D03*
X81620000Y-218200000D03*
%TD*%
D19*
%TO.C,J6*%
X242000000Y-68000000D03*
D14*
X242000000Y-73080000D03*
%TD*%
D15*
%TO.C,K6*%
X176000000Y-182000000D03*
D16*
X178000000Y-188000000D03*
X190200000Y-188000000D03*
X190200000Y-176000000D03*
X178000000Y-176000000D03*
%TD*%
D17*
%TO.C,J4*%
X9000000Y-103000000D03*
D18*
X9000000Y-99500000D03*
X9000000Y-96000000D03*
X9000000Y-92500000D03*
X9000000Y-89000000D03*
X9000000Y-85500000D03*
X9000000Y-82000000D03*
X9000000Y-78500000D03*
X9000000Y-75000000D03*
X9000000Y-71500000D03*
X9000000Y-68000000D03*
X9000000Y-64500000D03*
X9000000Y-61000000D03*
X9000000Y-57500000D03*
%TD*%
D20*
%TO.C,J14*%
X167000000Y-10000000D03*
D21*
X170500000Y-10000000D03*
X174000000Y-10000000D03*
X177500000Y-10000000D03*
%TD*%
D10*
%TO.C,U43*%
X74000000Y-235300000D03*
D11*
X74000000Y-237840000D03*
X81620000Y-237840000D03*
X81620000Y-235300000D03*
%TD*%
D19*
%TO.C,J9*%
X242000000Y-134000000D03*
D14*
X242000000Y-139080000D03*
%TD*%
D10*
%TO.C,U18*%
X74000000Y-92800000D03*
D11*
X74000000Y-95340000D03*
X81620000Y-95340000D03*
X81620000Y-92800000D03*
%TD*%
D12*
%TO.C,MK4*%
X246000000Y-236000000D03*
%TD*%
D15*
%TO.C,K7*%
X176000000Y-204000000D03*
D16*
X178000000Y-210000000D03*
X190200000Y-210000000D03*
X190200000Y-198000000D03*
X178000000Y-198000000D03*
%TD*%
D10*
%TO.C,U25*%
X74000000Y-132699999D03*
D11*
X74000000Y-135239999D03*
X81620000Y-135239999D03*
X81620000Y-132699999D03*
%TD*%
D19*
%TO.C,J8*%
X242000000Y-112000000D03*
D14*
X242000000Y-117080000D03*
%TD*%
D10*
%TO.C,U35*%
X74000000Y-189700000D03*
D11*
X74000000Y-192240000D03*
X81620000Y-192240000D03*
X81620000Y-189700000D03*
%TD*%
D10*
%TO.C,U10*%
X74000000Y-47200000D03*
D11*
X74000000Y-49740000D03*
X81620000Y-49740000D03*
X81620000Y-47200000D03*
%TD*%
D10*
%TO.C,U19*%
X74000000Y-98500000D03*
D11*
X74000000Y-101040000D03*
X81620000Y-101040000D03*
X81620000Y-98500000D03*
%TD*%
D10*
%TO.C,U12*%
X74000000Y-58600000D03*
D11*
X74000000Y-61140000D03*
X81620000Y-61140000D03*
X81620000Y-58600000D03*
%TD*%
D15*
%TO.C,K5*%
X176000000Y-160000000D03*
D16*
X178000000Y-166000000D03*
X190200000Y-166000000D03*
X190200000Y-154000000D03*
X178000000Y-154000000D03*
%TD*%
D10*
%TO.C,U23*%
X74000000Y-121300000D03*
D11*
X74000000Y-123840000D03*
X81620000Y-123840000D03*
X81620000Y-121300000D03*
%TD*%
D10*
%TO.C,U38*%
X74000000Y-206800000D03*
D11*
X74000000Y-209340000D03*
X81620000Y-209340000D03*
X81620000Y-206800000D03*
%TD*%
D19*
%TO.C,J7*%
X242000000Y-90000000D03*
D14*
X242000000Y-95080000D03*
%TD*%
D10*
%TO.C,U26*%
X74000000Y-138400000D03*
D11*
X74000000Y-140940000D03*
X81620000Y-140940000D03*
X81620000Y-138400000D03*
%TD*%
D12*
%TO.C,MK2*%
X246000000Y-4000000D03*
%TD*%
D19*
%TO.C,J10*%
X242000000Y-156000000D03*
D14*
X242000000Y-161080000D03*
%TD*%
D20*
%TO.C,J13*%
X104000000Y-206000000D03*
D21*
X107500000Y-206000000D03*
X111000000Y-206000000D03*
X114500000Y-206000000D03*
X118000000Y-206000000D03*
X121500000Y-206000000D03*
%TD*%
D17*
%TO.C,J3*%
X9000000Y-42000000D03*
D18*
X9000000Y-38500000D03*
X9000000Y-35000000D03*
X9000000Y-31500000D03*
X9000000Y-28000000D03*
X9000000Y-24500000D03*
X9000000Y-21000000D03*
X9000000Y-17500000D03*
X9000000Y-14000000D03*
X9000000Y-10500000D03*
%TD*%
D10*
%TO.C,U5*%
X74000000Y-18700000D03*
D11*
X74000000Y-21240000D03*
X81620000Y-21240000D03*
X81620000Y-18700000D03*
%TD*%
D10*
%TO.C,U14*%
X74000000Y-70000000D03*
D11*
X74000000Y-72540000D03*
X81620000Y-72540000D03*
X81620000Y-70000000D03*
%TD*%
D19*
%TO.C,J11*%
X242000000Y-178000000D03*
D14*
X242000000Y-183080000D03*
%TD*%
D10*
%TO.C,U41*%
X74000000Y-223900000D03*
D11*
X74000000Y-226440000D03*
X81620000Y-226440000D03*
X81620000Y-223900000D03*
%TD*%
D10*
%TO.C,U13*%
X74000000Y-64300000D03*
D11*
X74000000Y-66840000D03*
X81620000Y-66840000D03*
X81620000Y-64300000D03*
%TD*%
D10*
%TO.C,U21*%
X74000000Y-109900000D03*
D11*
X74000000Y-112440000D03*
X81620000Y-112440000D03*
X81620000Y-109900000D03*
%TD*%
D10*
%TO.C,U30*%
X74000000Y-161200000D03*
D11*
X74000000Y-163740000D03*
X81620000Y-163740000D03*
X81620000Y-161200000D03*
%TD*%
D10*
%TO.C,U27*%
X74000000Y-144100000D03*
D11*
X74000000Y-146640000D03*
X81620000Y-146640000D03*
X81620000Y-144100000D03*
%TD*%
D10*
%TO.C,U20*%
X74000000Y-104200000D03*
D11*
X74000000Y-106740000D03*
X81620000Y-106740000D03*
X81620000Y-104200000D03*
%TD*%
D22*
%TO.C,U45*%
X85000000Y-5700000D03*
D23*
X82460000Y-5700000D03*
X77380000Y-5700000D03*
X72300000Y-5700000D03*
%TD*%
D15*
%TO.C,K4*%
X176000000Y-138000000D03*
D16*
X178000000Y-144000000D03*
X190200000Y-144000000D03*
X190200000Y-132000000D03*
X178000000Y-132000000D03*
%TD*%
D20*
%TO.C,J16*%
X128000000Y-206000000D03*
D21*
X131500000Y-206000000D03*
X135000000Y-206000000D03*
X138500000Y-206000000D03*
X142000000Y-206000000D03*
X145500000Y-206000000D03*
%TD*%
D10*
%TO.C,U15*%
X74000000Y-75700000D03*
D11*
X74000000Y-78240000D03*
X81620000Y-78240000D03*
X81620000Y-75700000D03*
%TD*%
D24*
%TO.C,J1*%
X135500000Y-10000000D03*
D25*
X135500000Y-7460000D03*
X138040000Y-10000000D03*
X138040000Y-7460000D03*
X140580000Y-10000000D03*
X140580000Y-7460000D03*
X143120000Y-10000000D03*
X143120000Y-7460000D03*
X145660000Y-10000000D03*
X145660000Y-7460000D03*
X148200000Y-10000000D03*
X148200000Y-7460000D03*
X150740000Y-10000000D03*
X150740000Y-7460000D03*
X153280000Y-10000000D03*
X153280000Y-7460000D03*
X155820000Y-10000000D03*
X155820000Y-7460000D03*
X158360000Y-10000000D03*
X158360000Y-7460000D03*
%TD*%
D10*
%TO.C,U39*%
X74000000Y-212500000D03*
D11*
X74000000Y-215040000D03*
X81620000Y-215040000D03*
X81620000Y-212500000D03*
%TD*%
D10*
%TO.C,U22*%
X74000000Y-115600000D03*
D11*
X74000000Y-118140000D03*
X81620000Y-118140000D03*
X81620000Y-115600000D03*
%TD*%
D10*
%TO.C,U11*%
X74000000Y-52900000D03*
D11*
X74000000Y-55440000D03*
X81620000Y-55440000D03*
X81620000Y-52900000D03*
%TD*%
M02*
