M48
; DRILL file KiCad 10.0.2 date 2026-06-26T17:31:51
; FORMAT={-:-/ absolute / metric / decimal}
; #@! TF.CreationDate,2026-06-26T17:31:51-07:00
; #@! TF.GenerationSoftware,Kicad,Pcbnew,10.0.2
; #@! TF.FileFunction,Plated,1,4,PTH
FMAT,2
METRIC
; #@! TA.AperFunction,Plated,PTH,ViaDrill
T1C0.300
; #@! TA.AperFunction,Plated,PTH,ViaDrill
T2C0.350
; #@! TA.AperFunction,Plated,PTH,ViaDrill
T3C0.400
; #@! TA.AperFunction,Plated,PTH,ViaDrill
T4C0.500
; #@! TA.AperFunction,Plated,PTH,ComponentDrill
T5C0.800
; #@! TA.AperFunction,Plated,PTH,ComponentDrill
T6C1.000
; #@! TA.AperFunction,Plated,PTH,ComponentDrill
T7C1.200
; #@! TA.AperFunction,Plated,PTH,ComponentDrill
T8C1.300
%
G90
G05
T1
X90.0Y-219.5
X94.8Y-166.8
X94.8Y-169.8
X95.0Y-174.8
X95.0Y-193.8
X95.8Y-168.8
X95.8Y-175.8
X96.8Y-170.8
X96.8Y-181.8
X97.0Y-121.8
X97.8Y-172.8
X97.8Y-187.8
X98.2Y-127.8
X99.0Y-199.8
X99.4Y-133.8
X99.5Y-85.087
X100.0Y-205.8
X100.6Y-139.8
X101.0Y-82.0
X101.0Y-85.8
X101.0Y-211.8
X101.087Y-182.0
X101.8Y-145.8
X103.0Y-151.8
X103.6Y-67.8
X104.0Y-218.8
X104.2Y-157.8
X104.8Y-61.8
X105.4Y-163.8
X105.5Y-190.912
X106.0Y-55.8
X106.0Y-72.3
X106.0Y-75.0
X106.2Y-112.0
X106.912Y-182.0
X106.912Y-198.0
X107.0Y-77.0
X107.0Y-79.8
X107.2Y-49.8
X108.4Y-43.8
X109.0Y-80.0
X109.0Y-90.5
X109.6Y-37.8
X110.0Y-84.0
X110.0Y-94.5
X110.8Y-31.8
X110.8Y-151.715
X111.0Y-86.0
X111.0Y-106.8
X112.0Y-25.8
X112.0Y-88.0
X112.0Y-109.8
X112.11Y-51.19
X112.11Y-53.73
X112.11Y-56.27
X112.11Y-58.81
X112.11Y-63.89
X112.11Y-66.43
X112.11Y-68.97
X112.11Y-71.51
X112.2Y-85.087
X113.0Y-152.985
X113.087Y-182.0
X114.0Y-190.912
X115.15Y-95.745
X115.15Y-97.015
X115.15Y-98.285
X115.15Y-99.555
X115.15Y-100.825
X115.15Y-102.095
X115.15Y-103.365
X115.15Y-104.635
X116.0Y-220.5
X116.51Y-30.87
X116.51Y-33.41
X116.8Y-38.49
X118.0Y-90.0
X118.0Y-114.8
X118.912Y-182.0
X118.912Y-198.0
X119.0Y-75.0
X119.0Y-104.635
X119.0Y-146.635
X119.0Y-166.8
X119.55Y-109.715
X119.55Y-110.985
X120.0Y-77.0
X120.0Y-103.365
X120.0Y-145.365
X120.0Y-168.8
X121.0Y-84.0
X121.0Y-99.555
X121.0Y-144.095
X121.0Y-170.8
X122.0Y-142.825
X122.0Y-172.8
X124.0Y-82.0
X124.0Y-102.095
X125.0Y-21.0
X125.0Y-86.0
X125.0Y-98.285
X125.087Y-182.0
X126.0Y-88.0
X126.0Y-97.015
X126.0Y-140.285
X126.0Y-141.555
X126.0Y-174.8
X126.0Y-190.912
X126.0Y-216.2
X127.0Y-90.0
X127.0Y-95.745
X127.0Y-139.015
X127.5Y-137.745
X128.0Y-80.0
X128.0Y-100.825
X128.0Y-219.5
X128.6Y-115.5
X128.6Y-122.4
X130.2Y-103.745
X130.2Y-115.5
X130.9Y-17.0
X130.9Y-105.905
X130.912Y-182.0
X130.912Y-198.0
X132.9Y-90.912
X133.15Y-117.715
X134.2Y-105.015
X134.2Y-121.4
X136.5Y-106.285
X136.5Y-121.5
X137.088Y-182.0
X137.55Y-120.485
X138.0Y-190.912
X138.0Y-216.5
X139.5Y-218.0
X140.0Y-4.0
X140.3Y-147.905
X141.0Y-47.912
X142.7Y-103.745
X142.7Y-112.0
X142.8Y-77.087
X142.912Y-182.0
X142.912Y-198.0
X144.0Y-71.912
X144.0Y-112.635
X144.8Y-58.0
X145.5Y-107.555
X145.5Y-153.912
X146.3Y-50.635
X147.0Y-49.365
X147.0Y-93.912
X147.0Y-111.365
X148.0Y-223.0
X148.2Y-108.825
X148.2Y-131.912
X149.0Y-35.0
X149.0Y-38.49
X149.0Y-211.5
X149.2Y-106.285
X149.2Y-175.912
X150.2Y-105.015
X150.2Y-197.912
X154.8Y-50.0
X156.0Y-53.0
X162.0Y-96.95
X162.2Y-35.0
X163.0Y-47.912
X163.6Y-58.0
X164.8Y-46.087
X164.8Y-57.05
X164.8Y-70.912
X170.0Y-90.912
T2
X5.5Y-8.0
X5.5Y-211.5
X12.5Y-26.54
X12.5Y-42.0
X13.75Y-32.54
X13.75Y-38.5
X15.0Y-35.0
X15.0Y-38.54
X16.25Y-31.5
X16.25Y-44.54
X17.5Y-28.0
X17.5Y-50.54
X18.0Y-68.0
X18.0Y-134.54
X18.75Y-24.5
X18.75Y-56.54
X20.0Y-21.0
X20.0Y-62.54
X20.0Y-75.0
X20.0Y-122.54
X20.0Y-147.0
X20.0Y-188.54
X23.75Y-80.54
X23.75Y-99.5
X25.0Y-86.54
X25.0Y-96.0
X27.5Y-89.0
X27.5Y-98.54
X28.75Y-85.5
X28.75Y-104.54
X30.0Y-82.0
X30.0Y-110.54
X30.0Y-140.0
X30.0Y-200.54
X31.25Y-78.5
X31.25Y-116.54
X33.75Y-71.5
X33.75Y-128.54
X36.25Y-64.5
X36.25Y-140.54
X38.75Y-152.54
X38.75Y-168.0
X40.0Y-158.54
X40.0Y-164.5
X41.25Y-161.0
X41.25Y-164.54
X42.0Y-17.5
X42.0Y-68.54
X42.0Y-74.54
X42.0Y-103.0
X42.5Y-157.5
X42.5Y-170.54
X43.75Y-154.0
X43.75Y-176.54
X45.0Y-150.5
X45.0Y-182.54
X47.5Y-143.5
X47.5Y-194.54
X50.0Y-136.5
X50.0Y-206.54
X51.25Y-133.0
X51.25Y-212.54
X53.5Y-61.0
X53.5Y-146.54
X55.3Y-22.2
X55.3Y-28.2
X55.3Y-34.2
X55.3Y-40.2
X55.3Y-46.2
X55.3Y-52.2
X55.3Y-58.2
X55.3Y-64.2
X55.3Y-70.2
X55.3Y-76.2
X55.3Y-82.2
X55.3Y-88.2
X55.3Y-94.2
X55.3Y-100.2
X55.3Y-106.2
X55.3Y-112.2
X55.3Y-118.2
X55.3Y-124.2
X55.3Y-130.2
X55.3Y-136.2
X55.3Y-142.2
X55.3Y-148.2
X55.3Y-154.2
X55.3Y-160.2
X55.3Y-166.2
X55.3Y-172.2
X55.3Y-178.2
X55.3Y-184.2
X55.3Y-190.2
X55.3Y-196.2
X55.3Y-202.2
X55.3Y-208.2
X55.3Y-217.0
T3
X88.6Y-22.0
X88.6Y-25.8
X88.6Y-31.8
X88.6Y-37.8
X88.6Y-43.8
X88.6Y-49.8
X88.6Y-55.8
X88.6Y-61.8
X88.6Y-67.8
X88.6Y-73.8
X88.6Y-79.8
X88.6Y-85.8
X88.6Y-91.8
X88.6Y-97.8
X88.6Y-103.8
X88.6Y-109.8
X88.6Y-115.8
X88.6Y-121.8
X88.6Y-127.8
X88.6Y-133.8
X88.6Y-139.8
X88.6Y-145.8
X88.6Y-151.8
X88.6Y-157.8
X88.6Y-163.8
X88.6Y-169.8
X88.6Y-175.8
X88.6Y-181.8
X88.6Y-187.8
X88.6Y-193.8
X88.6Y-199.8
X88.6Y-205.8
X88.6Y-211.8
X88.6Y-217.5
X90.0Y-214.0
X91.0Y-20.0
X96.8Y-24.0
X101.0Y-86.912
X105.2Y-24.0
X108.0Y-86.912
X110.05Y-130.0
X113.05Y-92.0
X115.35Y-105.905
X115.35Y-147.905
X124.65Y-108.445
X124.65Y-150.445
X124.65Y-154.255
X131.69Y-41.03
X133.35Y-113.905
X135.89Y-33.41
X137.05Y-78.0
X137.05Y-96.0
X142.65Y-116.445
X142.65Y-118.985
X147.2Y-78.912
X148.2Y-40.913
X150.725Y-51.905
X151.275Y-48.095
X151.5Y-2.5
X152.5Y-218.3
X153.4Y-83.1
X153.8Y-67.95
X160.0Y-78.0
X160.0Y-82.0
X160.0Y-100.0
X160.0Y-122.0
X160.0Y-144.0
X160.0Y-166.0
X160.0Y-188.0
X160.0Y-210.0
X160.0Y-221.0
X166.8Y-67.0
X166.8Y-78.0
X166.8Y-89.0
X166.8Y-100.0
X166.8Y-111.0
X166.8Y-122.0
X166.8Y-133.0
X166.8Y-144.0
X166.8Y-155.0
X166.8Y-166.0
X166.8Y-177.0
X166.8Y-188.0
X166.8Y-199.0
X166.8Y-210.0
T4
X216.0Y-68.112
X216.0Y-79.6
X216.0Y-90.112
X216.0Y-101.6
X216.0Y-112.112
X216.0Y-123.6
X216.0Y-134.112
X216.0Y-145.6
X216.0Y-156.112
X216.0Y-167.6
X216.0Y-178.112
X216.0Y-189.6
X216.0Y-200.112
X216.0Y-211.6
X228.0Y-68.85
X228.0Y-75.6
X228.0Y-90.85
X228.0Y-97.6
X228.0Y-112.85
X228.0Y-119.6
X228.0Y-134.85
X228.0Y-141.6
X228.0Y-156.85
X228.0Y-163.6
X228.0Y-178.85
X228.0Y-185.6
X228.0Y-200.85
X228.0Y-207.6
T5
X74.0Y-24.0
X74.0Y-26.54
X74.0Y-30.0
X74.0Y-32.54
X74.0Y-36.0
X74.0Y-38.54
X74.0Y-42.0
X74.0Y-44.54
X74.0Y-48.0
X74.0Y-50.54
X74.0Y-54.0
X74.0Y-56.54
X74.0Y-60.0
X74.0Y-62.54
X74.0Y-66.0
X74.0Y-68.54
X74.0Y-72.0
X74.0Y-74.54
X74.0Y-78.0
X74.0Y-80.54
X74.0Y-84.0
X74.0Y-86.54
X74.0Y-90.0
X74.0Y-92.54
X74.0Y-96.0
X74.0Y-98.54
X74.0Y-102.0
X74.0Y-104.54
X74.0Y-108.0
X74.0Y-110.54
X74.0Y-114.0
X74.0Y-116.54
X74.0Y-120.0
X74.0Y-122.54
X74.0Y-126.0
X74.0Y-128.54
X74.0Y-132.0
X74.0Y-134.54
X74.0Y-138.0
X74.0Y-140.54
X74.0Y-144.0
X74.0Y-146.54
X74.0Y-150.0
X74.0Y-152.54
X74.0Y-156.0
X74.0Y-158.54
X74.0Y-162.0
X74.0Y-164.54
X74.0Y-168.0
X74.0Y-170.54
X74.0Y-174.0
X74.0Y-176.54
X74.0Y-180.0
X74.0Y-182.54
X74.0Y-186.0
X74.0Y-188.54
X74.0Y-192.0
X74.0Y-194.54
X74.0Y-198.0
X74.0Y-200.54
X74.0Y-204.0
X74.0Y-206.54
X74.0Y-210.0
X74.0Y-212.54
X81.62Y-24.0
X81.62Y-26.54
X81.62Y-30.0
X81.62Y-32.54
X81.62Y-36.0
X81.62Y-38.54
X81.62Y-42.0
X81.62Y-44.54
X81.62Y-48.0
X81.62Y-50.54
X81.62Y-54.0
X81.62Y-56.54
X81.62Y-60.0
X81.62Y-62.54
X81.62Y-66.0
X81.62Y-68.54
X81.62Y-72.0
X81.62Y-74.54
X81.62Y-78.0
X81.62Y-80.54
X81.62Y-84.0
X81.62Y-86.54
X81.62Y-90.0
X81.62Y-92.54
X81.62Y-96.0
X81.62Y-98.54
X81.62Y-102.0
X81.62Y-104.54
X81.62Y-108.0
X81.62Y-110.54
X81.62Y-114.0
X81.62Y-116.54
X81.62Y-120.0
X81.62Y-122.54
X81.62Y-126.0
X81.62Y-128.54
X81.62Y-132.0
X81.62Y-134.54
X81.62Y-138.0
X81.62Y-140.54
X81.62Y-144.0
X81.62Y-146.54
X81.62Y-150.0
X81.62Y-152.54
X81.62Y-156.0
X81.62Y-158.54
X81.62Y-162.0
X81.62Y-164.54
X81.62Y-168.0
X81.62Y-170.54
X81.62Y-174.0
X81.62Y-176.54
X81.62Y-180.0
X81.62Y-182.54
X81.62Y-186.0
X81.62Y-188.54
X81.62Y-192.0
X81.62Y-194.54
X81.62Y-198.0
X81.62Y-200.54
X81.62Y-204.0
X81.62Y-206.54
X81.62Y-210.0
X81.62Y-212.54
T6
X73.9Y-13.0
X76.44Y-13.0
X81.52Y-13.0
X86.6Y-13.0
X126.0Y-7.46
X126.0Y-10.0
X128.54Y-7.46
X128.54Y-10.0
X131.08Y-7.46
X131.08Y-10.0
X133.62Y-7.46
X133.62Y-10.0
X136.16Y-7.46
X136.16Y-10.0
X138.7Y-7.46
X138.7Y-10.0
X141.24Y-7.46
X141.24Y-10.0
X143.78Y-7.46
X143.78Y-10.0
X146.32Y-7.46
X146.32Y-10.0
X148.86Y-7.46
X148.86Y-10.0
T7
X9.0Y-10.5
X9.0Y-14.0
X9.0Y-17.5
X9.0Y-21.0
X9.0Y-24.5
X9.0Y-28.0
X9.0Y-31.5
X9.0Y-35.0
X9.0Y-38.5
X9.0Y-42.0
X9.0Y-57.5
X9.0Y-61.0
X9.0Y-64.5
X9.0Y-68.0
X9.0Y-71.5
X9.0Y-75.0
X9.0Y-78.5
X9.0Y-82.0
X9.0Y-85.5
X9.0Y-89.0
X9.0Y-92.5
X9.0Y-96.0
X9.0Y-99.5
X9.0Y-103.0
X9.0Y-129.5
X9.0Y-133.0
X9.0Y-136.5
X9.0Y-140.0
X9.0Y-143.5
X9.0Y-147.0
X9.0Y-150.5
X9.0Y-154.0
X9.0Y-157.5
X9.0Y-161.0
X9.0Y-164.5
X9.0Y-168.0
X104.0Y-206.0
X107.5Y-206.0
X111.0Y-206.0
X114.5Y-206.0
X118.0Y-206.0
X121.5Y-206.0
X160.0Y-10.0
X163.5Y-10.0
X167.0Y-10.0
X170.5Y-10.0
T8
X104.0Y-10.0
X109.08Y-10.0
X114.16Y-10.0
X176.0Y-72.0
X176.0Y-94.0
X176.0Y-116.0
X176.0Y-138.0
X176.0Y-160.0
X176.0Y-182.0
X176.0Y-204.0
X178.0Y-66.0
X178.0Y-78.0
X178.0Y-88.0
X178.0Y-100.0
X178.0Y-110.0
X178.0Y-122.0
X178.0Y-132.0
X178.0Y-144.0
X178.0Y-154.0
X178.0Y-166.0
X178.0Y-176.0
X178.0Y-188.0
X178.0Y-198.0
X178.0Y-210.0
X190.2Y-66.0
X190.2Y-78.0
X190.2Y-88.0
X190.2Y-100.0
X190.2Y-110.0
X190.2Y-122.0
X190.2Y-132.0
X190.2Y-144.0
X190.2Y-154.0
X190.2Y-166.0
X190.2Y-176.0
X190.2Y-188.0
X190.2Y-198.0
X190.2Y-210.0
X242.0Y-68.0
X242.0Y-73.08
X242.0Y-90.0
X242.0Y-95.08
X242.0Y-112.0
X242.0Y-117.08
X242.0Y-134.0
X242.0Y-139.08
X242.0Y-156.0
X242.0Y-161.08
X242.0Y-178.0
X242.0Y-183.08
X242.0Y-200.0
X242.0Y-205.08
M30
