%TF.GenerationSoftware,KiCad,Pcbnew,10.0.2*%
%TF.CreationDate,2026-06-26T17:31:50-07:00*%
%TF.ProjectId,wsl-phase8b.routed-manual,77736c2d-7068-4617-9365-38622e726f75,rev?*%
%TF.SameCoordinates,Original*%
%TF.FileFunction,Soldermask,Top*%
%TF.FilePolarity,Negative*%
%FSLAX46Y46*%
G04 Gerber Fmt 4.6, Leading zero omitted, Abs format (unit mm)*
G04 Created by KiCad (PCBNEW 10.0.2) date 2026-06-26 17:31:50*
%MOMM*%
%LPD*%
G01*
G04 APERTURE LIST*
G04 Aperture macros list*
%AMRoundRect*
0 Rectangle with rounded corners*
0 $1 Rounding radius*
0 $2 $3 $4 $5 $6 $7 $8 $9 X,Y pos of 4 corners*
0 Add a 4 corners polygon primitive as box body*
4,1,4,$2,$3,$4,$5,$6,$7,$8,$9,$2,$3,0*
0 Add four circle primitives for the rounded corners*
1,1,$1+$1,$2,$3*
1,1,$1+$1,$4,$5*
1,1,$1+$1,$6,$7*
1,1,$1+$1,$8,$9*
0 Add four rect primitives between the rounded corners*
20,1,$1+$1,$2,$3,$4,$5,0*
20,1,$1+$1,$4,$5,$6,$7,0*
20,1,$1+$1,$6,$7,$8,$9,0*
20,1,$1+$1,$8,$9,$2,$3,0*%
%AMFreePoly0*
4,1,37,0.800000,0.796148,0.878414,0.796148,1.032228,0.765552,1.177117,0.705537,1.307515,0.618408,1.418408,0.507515,1.505537,0.377117,1.565552,0.232228,1.596148,0.078414,1.596148,-0.078414,1.565552,-0.232228,1.505537,-0.377117,1.418408,-0.507515,1.307515,-0.618408,1.177117,-0.705537,1.032228,-0.765552,0.878414,-0.796148,0.800000,-0.796148,0.800000,-0.800000,-1.400000,-0.800000,
-1.403843,-0.796157,-1.439018,-0.796157,-1.511114,-0.766294,-1.566294,-0.711114,-1.596157,-0.639018,-1.596157,-0.603843,-1.600000,-0.600000,-1.600000,0.600000,-1.596157,0.603843,-1.596157,0.639018,-1.566294,0.711114,-1.511114,0.766294,-1.439018,0.796157,-1.403843,0.796157,-1.400000,0.800000,0.800000,0.800000,0.800000,0.796148,0.800000,0.796148,$1*%
%AMFreePoly1*
4,1,37,1.403843,0.796157,1.439018,0.796157,1.511114,0.766294,1.566294,0.711114,1.596157,0.639018,1.596157,0.603843,1.600000,0.600000,1.600000,-0.600000,1.596157,-0.603843,1.596157,-0.639018,1.566294,-0.711114,1.511114,-0.766294,1.439018,-0.796157,1.403843,-0.796157,1.400000,-0.800000,-0.800000,-0.800000,-0.800000,-0.796148,-0.878414,-0.796148,-1.032228,-0.765552,-1.177117,-0.705537,
-1.307515,-0.618408,-1.418408,-0.507515,-1.505537,-0.377117,-1.565552,-0.232228,-1.596148,-0.078414,-1.596148,0.078414,-1.565552,0.232228,-1.505537,0.377117,-1.418408,0.507515,-1.307515,0.618408,-1.177117,0.705537,-1.032228,0.765552,-0.878414,0.796148,-0.800000,0.796148,-0.800000,0.800000,1.400000,0.800000,1.403843,0.796157,1.403843,0.796157,$1*%
%AMFreePoly2*
4,1,37,1.600000,0.796148,1.678414,0.796148,1.832228,0.765552,1.977117,0.705537,2.107515,0.618408,2.218408,0.507515,2.305537,0.377117,2.365552,0.232228,2.396148,0.078414,2.396148,-0.078414,2.365552,-0.232228,2.305537,-0.377117,2.218408,-0.507515,2.107515,-0.618408,1.977117,-0.705537,1.832228,-0.765552,1.678414,-0.796148,1.600000,-0.796148,1.600000,-0.800000,-0.600000,-0.800000,
-0.603843,-0.796157,-0.639018,-0.796157,-0.711114,-0.766294,-0.766294,-0.711114,-0.796157,-0.639018,-0.796157,-0.603843,-0.800000,-0.600000,-0.800000,0.600000,-0.796157,0.603843,-0.796157,0.639018,-0.766294,0.711114,-0.711114,0.766294,-0.639018,0.796157,-0.603843,0.796157,-0.600000,0.800000,1.600000,0.800000,1.600000,0.796148,1.600000,0.796148,$1*%
G04 Aperture macros list end*
%ADD10RoundRect,0.250000X0.450000X-0.262500X0.450000X0.262500X-0.450000X0.262500X-0.450000X-0.262500X0*%
%ADD11RoundRect,0.250000X-0.250000X-0.475000X0.250000X-0.475000X0.250000X0.475000X-0.250000X0.475000X0*%
%ADD12RoundRect,0.250000X0.475000X-0.250000X0.475000X0.250000X-0.475000X0.250000X-0.475000X-0.250000X0*%
%ADD13RoundRect,0.250000X-0.550000X-0.550000X0.550000X-0.550000X0.550000X0.550000X-0.550000X0.550000X0*%
%ADD14C,1.600000*%
%ADD15RoundRect,0.250000X-0.262500X-0.450000X0.262500X-0.450000X0.262500X0.450000X-0.262500X0.450000X0*%
%ADD16RoundRect,0.250000X-1.050000X1.050000X-1.050000X-1.050000X1.050000X-1.050000X1.050000X1.050000X0*%
%ADD17C,2.600000*%
%ADD18R,1.500000X1.500000*%
%ADD19RoundRect,0.112500X-0.187500X-0.112500X0.187500X-0.112500X0.187500X0.112500X-0.187500X0.112500X0*%
%ADD20RoundRect,0.150000X-0.587500X-0.150000X0.587500X-0.150000X0.587500X0.150000X-0.587500X0.150000X0*%
%ADD21RoundRect,0.250000X0.650000X-1.000000X0.650000X1.000000X-0.650000X1.000000X-0.650000X-1.000000X0*%
%ADD22R,2.500000X2.500000*%
%ADD23O,2.500000X2.500000*%
%ADD24RoundRect,0.250000X-1.050000X-1.050000X1.050000X-1.050000X1.050000X1.050000X-1.050000X1.050000X0*%
%ADD25RoundRect,0.250000X1.550000X-0.650000X1.550000X0.650000X-1.550000X0.650000X-1.550000X-0.650000X0*%
%ADD26O,3.600000X1.800000*%
%ADD27C,3.200000*%
%ADD28RoundRect,0.250000X-1.000000X-0.650000X1.000000X-0.650000X1.000000X0.650000X-1.000000X0.650000X0*%
%ADD29RoundRect,0.150000X-0.875000X-0.150000X0.875000X-0.150000X0.875000X0.150000X-0.875000X0.150000X0*%
%ADD30O,1.100000X1.800000*%
%ADD31O,1.050000X1.450000*%
%ADD32FreePoly0,0.000000*%
%ADD33RoundRect,0.800000X-0.800000X-0.000010X0.800000X-0.000010X0.800000X0.000010X-0.800000X0.000010X0*%
%ADD34FreePoly1,0.000000*%
%ADD35RoundRect,0.800000X0.000010X-0.800000X0.000010X0.800000X-0.000010X0.800000X-0.000010X-0.800000X0*%
%ADD36FreePoly2,270.000000*%
%ADD37RoundRect,0.300000X-0.450000X-0.450000X0.450000X-0.450000X0.450000X0.450000X-0.450000X0.450000X0*%
%ADD38RoundRect,0.250000X0.550000X-1.500000X0.550000X1.500000X-0.550000X1.500000X-0.550000X-1.500000X0*%
%ADD39RoundRect,0.250001X0.499999X-0.499999X0.499999X0.499999X-0.499999X0.499999X-0.499999X-0.499999X0*%
%ADD40C,1.500000*%
%ADD41RoundRect,0.250000X-0.650000X-1.550000X0.650000X-1.550000X0.650000X1.550000X-0.650000X1.550000X0*%
%ADD42O,1.800000X3.600000*%
%ADD43RoundRect,0.150000X-0.825000X-0.150000X0.825000X-0.150000X0.825000X0.150000X-0.825000X0.150000X0*%
%ADD44RoundRect,0.250000X0.600000X-0.600000X0.600000X0.600000X-0.600000X0.600000X-0.600000X-0.600000X0*%
%ADD45C,1.700000*%
G04 APERTURE END LIST*
D10*
%TO.C,R74*%
X150000000Y-115912500D03*
X150000000Y-114087500D03*
%TD*%
%TO.C,R80*%
X150000000Y-159912500D03*
X150000000Y-158087500D03*
%TD*%
D11*
%TO.C,C14*%
X139050000Y-78000000D03*
X140950000Y-78000000D03*
%TD*%
D12*
%TO.C,C4*%
X230000000Y-72950000D03*
X230000000Y-71050000D03*
%TD*%
D10*
%TO.C,R71*%
X150000000Y-93912500D03*
X150000000Y-92087500D03*
%TD*%
D13*
%TO.C,U14*%
X74000000Y-84000000D03*
D14*
X74000000Y-86540000D03*
X81620000Y-86540000D03*
X81620000Y-84000000D03*
%TD*%
D10*
%TO.C,R1*%
X103000000Y-86912500D03*
X103000000Y-85087500D03*
%TD*%
D15*
%TO.C,R35*%
X57087500Y-118200000D03*
X58912500Y-118200000D03*
%TD*%
D16*
%TO.C,J9*%
X242000000Y-134000000D03*
D17*
X242000000Y-139080000D03*
%TD*%
D15*
%TO.C,R53*%
X57087500Y-172200000D03*
X58912500Y-172200000D03*
%TD*%
D13*
%TO.C,U19*%
X74000000Y-114000000D03*
D14*
X74000000Y-116540000D03*
X81620000Y-116540000D03*
X81620000Y-114000000D03*
%TD*%
D18*
%TO.C,TP10*%
X104000000Y-221000000D03*
%TD*%
%TO.C,TP15*%
X156000000Y-221000000D03*
%TD*%
D15*
%TO.C,R90*%
X103087500Y-182000000D03*
X104912500Y-182000000D03*
%TD*%
D13*
%TO.C,U10*%
X74000000Y-60000000D03*
D14*
X74000000Y-62540000D03*
X81620000Y-62540000D03*
X81620000Y-60000000D03*
%TD*%
D13*
%TO.C,U26*%
X74000000Y-156000000D03*
D14*
X74000000Y-158540000D03*
X81620000Y-158540000D03*
X81620000Y-156000000D03*
%TD*%
D19*
%TO.C,D15*%
X150950000Y-35000000D03*
X153050000Y-35000000D03*
%TD*%
D10*
%TO.C,R79*%
X150000000Y-153912500D03*
X150000000Y-152087500D03*
%TD*%
%TO.C,R68*%
X150000000Y-71912500D03*
X150000000Y-70087500D03*
%TD*%
D11*
%TO.C,C3*%
X139050000Y-96000000D03*
X140950000Y-96000000D03*
%TD*%
D18*
%TO.C,TP5*%
X34000000Y-214000000D03*
%TD*%
%TO.C,TP14*%
X148000000Y-221000000D03*
%TD*%
D20*
%TO.C,Q16*%
X159062500Y-95050000D03*
X159062500Y-96950000D03*
X160937500Y-96000000D03*
%TD*%
D12*
%TO.C,C9*%
X230000000Y-182950000D03*
X230000000Y-181050000D03*
%TD*%
D10*
%TO.C,R84*%
X222000000Y-175912500D03*
X222000000Y-174087500D03*
%TD*%
D21*
%TO.C,D10*%
X222000000Y-170000000D03*
X222000000Y-166000000D03*
%TD*%
D10*
%TO.C,R98*%
X143000000Y-190912500D03*
X143000000Y-189087500D03*
%TD*%
D13*
%TO.C,U35*%
X74000000Y-210000000D03*
D14*
X74000000Y-212540000D03*
X81620000Y-212540000D03*
X81620000Y-210000000D03*
%TD*%
D12*
%TO.C,C5*%
X230000000Y-94950000D03*
X230000000Y-93050000D03*
%TD*%
D15*
%TO.C,R14*%
X91087500Y-55800000D03*
X92912500Y-55800000D03*
%TD*%
%TO.C,R15*%
X57087500Y-58200000D03*
X58912500Y-58200000D03*
%TD*%
D13*
%TO.C,U4*%
X74000000Y-24000000D03*
D14*
X74000000Y-26540000D03*
X81620000Y-26540000D03*
X81620000Y-24000000D03*
%TD*%
D15*
%TO.C,R47*%
X57087500Y-154200000D03*
X58912500Y-154200000D03*
%TD*%
D10*
%TO.C,R83*%
X150000000Y-181912500D03*
X150000000Y-180087500D03*
%TD*%
%TO.C,R72*%
X222000000Y-87912500D03*
X222000000Y-86087500D03*
%TD*%
D22*
%TO.C,K6*%
X176000000Y-182000000D03*
D23*
X178000000Y-188000000D03*
X190200000Y-188000000D03*
X190200000Y-176000000D03*
X178000000Y-176000000D03*
%TD*%
D20*
%TO.C,Q9*%
X115062500Y-197050000D03*
X115062500Y-198950000D03*
X116937500Y-198000000D03*
%TD*%
D10*
%TO.C,R87*%
X222000000Y-197912500D03*
X222000000Y-196087500D03*
%TD*%
D24*
%TO.C,J2*%
X104000000Y-10000000D03*
D17*
X109080000Y-10000000D03*
X114160000Y-10000000D03*
%TD*%
D18*
%TO.C,TP3*%
X116000000Y-214000000D03*
%TD*%
D21*
%TO.C,D6*%
X222000000Y-126000000D03*
X222000000Y-122000000D03*
%TD*%
D15*
%TO.C,R17*%
X57087500Y-64200000D03*
X58912500Y-64200000D03*
%TD*%
D22*
%TO.C,K1*%
X176000000Y-72000000D03*
D23*
X178000000Y-78000000D03*
X190200000Y-78000000D03*
X190200000Y-66000000D03*
X178000000Y-66000000D03*
%TD*%
D10*
%TO.C,R102*%
X142000000Y-47912500D03*
X142000000Y-46087500D03*
%TD*%
D25*
%TO.C,J5*%
X9000000Y-168000000D03*
D26*
X9000000Y-164500000D03*
X9000000Y-161000000D03*
X9000000Y-157500000D03*
X9000000Y-154000000D03*
X9000000Y-150500000D03*
X9000000Y-147000000D03*
X9000000Y-143500000D03*
X9000000Y-140000000D03*
X9000000Y-136500000D03*
X9000000Y-133000000D03*
X9000000Y-129500000D03*
%TD*%
D13*
%TO.C,U5*%
X74000000Y-30000000D03*
D14*
X74000000Y-32540000D03*
X81620000Y-32540000D03*
X81620000Y-30000000D03*
%TD*%
D10*
%TO.C,R100*%
X146000000Y-40912500D03*
X146000000Y-39087500D03*
%TD*%
D15*
%TO.C,R6*%
X91087500Y-31800000D03*
X92912500Y-31800000D03*
%TD*%
D13*
%TO.C,U27*%
X74000000Y-162000000D03*
D14*
X74000000Y-164540000D03*
X81620000Y-164540000D03*
X81620000Y-162000000D03*
%TD*%
D13*
%TO.C,U29*%
X74000000Y-174000000D03*
D14*
X74000000Y-176540000D03*
X81620000Y-176540000D03*
X81620000Y-174000000D03*
%TD*%
D15*
%TO.C,R11*%
X57087500Y-46200000D03*
X58912500Y-46200000D03*
%TD*%
%TO.C,R59*%
X57087500Y-190200000D03*
X58912500Y-190200000D03*
%TD*%
D27*
%TO.C,MK2*%
X246000000Y-4000000D03*
%TD*%
D10*
%TO.C,R108*%
X133000000Y-98912500D03*
X133000000Y-97087500D03*
%TD*%
D27*
%TO.C,MK1*%
X4000000Y-4000000D03*
%TD*%
D15*
%TO.C,R54*%
X91087500Y-175800000D03*
X92912500Y-175800000D03*
%TD*%
%TO.C,R4*%
X91087500Y-25800000D03*
X92912500Y-25800000D03*
%TD*%
%TO.C,R16*%
X91087500Y-61800000D03*
X92912500Y-61800000D03*
%TD*%
%TO.C,R20*%
X91087500Y-73800000D03*
X92912500Y-73800000D03*
%TD*%
D28*
%TO.C,D17*%
X99000000Y-24000000D03*
X103000000Y-24000000D03*
%TD*%
D15*
%TO.C,R7*%
X57087500Y-34200000D03*
X58912500Y-34200000D03*
%TD*%
D19*
%TO.C,D5*%
X162950000Y-122000000D03*
X165050000Y-122000000D03*
%TD*%
D13*
%TO.C,U33*%
X74000000Y-198000000D03*
D14*
X74000000Y-200540000D03*
X81620000Y-200540000D03*
X81620000Y-198000000D03*
%TD*%
D10*
%TO.C,R76*%
X150000000Y-131912500D03*
X150000000Y-130087500D03*
%TD*%
D25*
%TO.C,J4*%
X9000000Y-103000000D03*
D26*
X9000000Y-99500000D03*
X9000000Y-96000000D03*
X9000000Y-92500000D03*
X9000000Y-89000000D03*
X9000000Y-85500000D03*
X9000000Y-82000000D03*
X9000000Y-78500000D03*
X9000000Y-75000000D03*
X9000000Y-71500000D03*
X9000000Y-68000000D03*
X9000000Y-64500000D03*
X9000000Y-61000000D03*
X9000000Y-57500000D03*
%TD*%
D15*
%TO.C,R10*%
X91087500Y-43800000D03*
X92912500Y-43800000D03*
%TD*%
D22*
%TO.C,K5*%
X176000000Y-160000000D03*
D23*
X178000000Y-166000000D03*
X190200000Y-166000000D03*
X190200000Y-154000000D03*
X178000000Y-154000000D03*
%TD*%
D15*
%TO.C,R34*%
X91087500Y-115800000D03*
X92912500Y-115800000D03*
%TD*%
D12*
%TO.C,C13*%
X166000000Y-42950000D03*
X166000000Y-41050000D03*
%TD*%
D16*
%TO.C,J8*%
X242000000Y-112000000D03*
D17*
X242000000Y-117080000D03*
%TD*%
D15*
%TO.C,R45*%
X57087500Y-148200000D03*
X58912500Y-148200000D03*
%TD*%
D29*
%TO.C,U1*%
X117350000Y-95745000D03*
X117350000Y-97015000D03*
X117350000Y-98285000D03*
X117350000Y-99555000D03*
X117350000Y-100825000D03*
X117350000Y-102095000D03*
X117350000Y-103365000D03*
X117350000Y-104635000D03*
X117350000Y-105905000D03*
X117350000Y-107175000D03*
X117350000Y-108445000D03*
X117350000Y-109715000D03*
X117350000Y-110985000D03*
X117350000Y-112255000D03*
X126650000Y-112255000D03*
X126650000Y-110985000D03*
X126650000Y-109715000D03*
X126650000Y-108445000D03*
X126650000Y-107175000D03*
X126650000Y-105905000D03*
X126650000Y-104635000D03*
X126650000Y-103365000D03*
X126650000Y-102095000D03*
X126650000Y-100825000D03*
X126650000Y-99555000D03*
X126650000Y-98285000D03*
X126650000Y-97015000D03*
X126650000Y-95745000D03*
%TD*%
D15*
%TO.C,R12*%
X91087500Y-49800000D03*
X92912500Y-49800000D03*
%TD*%
%TO.C,R32*%
X91087500Y-109800000D03*
X92912500Y-109800000D03*
%TD*%
%TO.C,R40*%
X91087500Y-133800000D03*
X92912500Y-133800000D03*
%TD*%
%TO.C,R21*%
X57087500Y-76200000D03*
X58912500Y-76200000D03*
%TD*%
%TO.C,R28*%
X91087500Y-97800000D03*
X92912500Y-97800000D03*
%TD*%
%TO.C,R49*%
X57087500Y-160200000D03*
X58912500Y-160200000D03*
%TD*%
D21*
%TO.C,D14*%
X222000000Y-214000000D03*
X222000000Y-210000000D03*
%TD*%
D15*
%TO.C,R30*%
X91087500Y-103800000D03*
X92912500Y-103800000D03*
%TD*%
D16*
%TO.C,J11*%
X242000000Y-178000000D03*
D17*
X242000000Y-183080000D03*
%TD*%
D10*
%TO.C,R82*%
X150000000Y-175912500D03*
X150000000Y-174087500D03*
%TD*%
D15*
%TO.C,R50*%
X91087500Y-163800000D03*
X92912500Y-163800000D03*
%TD*%
D12*
%TO.C,C8*%
X230000000Y-160950000D03*
X230000000Y-159050000D03*
%TD*%
D13*
%TO.C,U34*%
X74000000Y-204000000D03*
D14*
X74000000Y-206540000D03*
X81620000Y-206540000D03*
X81620000Y-204000000D03*
%TD*%
D13*
%TO.C,U7*%
X74000000Y-42000000D03*
D14*
X74000000Y-44540000D03*
X81620000Y-44540000D03*
X81620000Y-42000000D03*
%TD*%
D15*
%TO.C,R56*%
X91087500Y-181800000D03*
X92912500Y-181800000D03*
%TD*%
D22*
%TO.C,K2*%
X176000000Y-94000000D03*
D23*
X178000000Y-100000000D03*
X190200000Y-100000000D03*
X190200000Y-88000000D03*
X178000000Y-88000000D03*
%TD*%
D30*
%TO.C,A1*%
X121275000Y-31000000D03*
D31*
X121575000Y-34030000D03*
X126425000Y-34030000D03*
D30*
X126725000Y-31000000D03*
D32*
X114310000Y-30870000D03*
D33*
X114310000Y-33410000D03*
D34*
X114310000Y-35950000D03*
D33*
X114310000Y-38490000D03*
X114310000Y-41030000D03*
X114310000Y-43570000D03*
X114310000Y-46110000D03*
D34*
X114310000Y-48650000D03*
D33*
X114310000Y-51190000D03*
X114310000Y-53730000D03*
X114310000Y-56270000D03*
X114310000Y-58810000D03*
D34*
X114310000Y-61350000D03*
D33*
X114310000Y-63890000D03*
X114310000Y-66430000D03*
X114310000Y-68970000D03*
X114310000Y-71510000D03*
D34*
X114310000Y-74050000D03*
D33*
X114310000Y-76590000D03*
X114310000Y-79130000D03*
X133690000Y-79130000D03*
X133690000Y-76590000D03*
D32*
X133690000Y-74050000D03*
D33*
X133690000Y-71510000D03*
X133690000Y-68970000D03*
X133690000Y-66430000D03*
X133690000Y-63890000D03*
D32*
X133690000Y-61350000D03*
D33*
X133690000Y-58810000D03*
X133690000Y-56270000D03*
X133690000Y-53730000D03*
X133690000Y-51190000D03*
D32*
X133690000Y-48650000D03*
D33*
X133690000Y-46110000D03*
X133690000Y-43570000D03*
X133690000Y-41030000D03*
X133690000Y-38490000D03*
D32*
X133690000Y-35950000D03*
D33*
X133690000Y-33410000D03*
X133690000Y-30870000D03*
D35*
X121460000Y-79700000D03*
D36*
X124000000Y-78900000D03*
D35*
X126540000Y-79700000D03*
D37*
X124000000Y-34000000D03*
X125000000Y-30700000D03*
X123000000Y-30700000D03*
X121500000Y-37500000D03*
X121500000Y-40000000D03*
X121500000Y-42500000D03*
%TD*%
D20*
%TO.C,Q4*%
X159062500Y-132050000D03*
X159062500Y-133950000D03*
X160937500Y-133000000D03*
%TD*%
D10*
%TO.C,R105*%
X162000000Y-70912500D03*
X162000000Y-69087500D03*
%TD*%
D20*
%TO.C,Q14*%
X157062500Y-81050000D03*
X157062500Y-82950000D03*
X158937500Y-82000000D03*
%TD*%
D15*
%TO.C,R38*%
X91087500Y-127800000D03*
X92912500Y-127800000D03*
%TD*%
%TO.C,R65*%
X57087500Y-208200000D03*
X58912500Y-208200000D03*
%TD*%
%TO.C,R57*%
X57087500Y-184200000D03*
X58912500Y-184200000D03*
%TD*%
D13*
%TO.C,U12*%
X74000000Y-72000000D03*
D14*
X74000000Y-74540000D03*
X81620000Y-74540000D03*
X81620000Y-72000000D03*
%TD*%
D13*
%TO.C,U20*%
X74000000Y-120000000D03*
D14*
X74000000Y-122540000D03*
X81620000Y-122540000D03*
X81620000Y-120000000D03*
%TD*%
D38*
%TO.C,C11*%
X156000000Y-44800000D03*
X156000000Y-39200000D03*
%TD*%
D39*
%TO.C,U37*%
X73900000Y-13000000D03*
D40*
X76440000Y-13000000D03*
X81520000Y-13000000D03*
X86600000Y-13000000D03*
%TD*%
D18*
%TO.C,TP6*%
X128000000Y-214000000D03*
%TD*%
%TO.C,TP1*%
X92000000Y-214000000D03*
%TD*%
D15*
%TO.C,R27*%
X57087500Y-94200000D03*
X58912500Y-94200000D03*
%TD*%
D13*
%TO.C,U22*%
X74000000Y-132000000D03*
D14*
X74000000Y-134540000D03*
X81620000Y-134540000D03*
X81620000Y-132000000D03*
%TD*%
D13*
%TO.C,U24*%
X74000000Y-144000000D03*
D14*
X74000000Y-146540000D03*
X81620000Y-146540000D03*
X81620000Y-144000000D03*
%TD*%
D20*
%TO.C,Q6*%
X159062500Y-176050000D03*
X159062500Y-177950000D03*
X160937500Y-177000000D03*
%TD*%
D10*
%TO.C,R2*%
X110000000Y-86912500D03*
X110000000Y-85087500D03*
%TD*%
D15*
%TO.C,R46*%
X91087500Y-151800000D03*
X92912500Y-151800000D03*
%TD*%
D18*
%TO.C,TP2*%
X104000000Y-214000000D03*
%TD*%
D13*
%TO.C,U30*%
X74000000Y-180000000D03*
D14*
X74000000Y-182540000D03*
X81620000Y-182540000D03*
X81620000Y-180000000D03*
%TD*%
D10*
%TO.C,R106*%
X148000000Y-82912500D03*
X148000000Y-81087500D03*
%TD*%
D41*
%TO.C,J14*%
X160000000Y-10000000D03*
D42*
X163500000Y-10000000D03*
X167000000Y-10000000D03*
X170500000Y-10000000D03*
%TD*%
D13*
%TO.C,U6*%
X74000000Y-36000000D03*
D14*
X74000000Y-38540000D03*
X81620000Y-38540000D03*
X81620000Y-36000000D03*
%TD*%
D19*
%TO.C,D9*%
X162950000Y-166000000D03*
X165050000Y-166000000D03*
%TD*%
D13*
%TO.C,U13*%
X74000000Y-78000000D03*
D14*
X74000000Y-80540000D03*
X81620000Y-80540000D03*
X81620000Y-78000000D03*
%TD*%
D20*
%TO.C,Q1*%
X159062500Y-66050000D03*
X159062500Y-67950000D03*
X160937500Y-67000000D03*
%TD*%
D15*
%TO.C,R33*%
X57087500Y-112200000D03*
X58912500Y-112200000D03*
%TD*%
%TO.C,R99*%
X139087500Y-182000000D03*
X140912500Y-182000000D03*
%TD*%
D10*
%TO.C,R103*%
X142000000Y-70912500D03*
X142000000Y-69087500D03*
%TD*%
%TO.C,R69*%
X222000000Y-65912500D03*
X222000000Y-64087500D03*
%TD*%
D13*
%TO.C,U9*%
X74000000Y-54000000D03*
D14*
X74000000Y-56540000D03*
X81620000Y-56540000D03*
X81620000Y-54000000D03*
%TD*%
D15*
%TO.C,R52*%
X91087500Y-169800000D03*
X92912500Y-169800000D03*
%TD*%
D18*
%TO.C,TP12*%
X128000000Y-221000000D03*
%TD*%
D15*
%TO.C,R55*%
X57087500Y-178200000D03*
X58912500Y-178200000D03*
%TD*%
D13*
%TO.C,U18*%
X74000000Y-108000000D03*
D14*
X74000000Y-110540000D03*
X81620000Y-110540000D03*
X81620000Y-108000000D03*
%TD*%
D10*
%TO.C,R67*%
X150000000Y-65912500D03*
X150000000Y-64087500D03*
%TD*%
D15*
%TO.C,R62*%
X91087500Y-199800000D03*
X92912500Y-199800000D03*
%TD*%
%TO.C,R5*%
X57087500Y-28200000D03*
X58912500Y-28200000D03*
%TD*%
D13*
%TO.C,U11*%
X74000000Y-66000000D03*
D14*
X74000000Y-68540000D03*
X81620000Y-68540000D03*
X81620000Y-66000000D03*
%TD*%
D10*
%TO.C,R110*%
X170000000Y-98912500D03*
X170000000Y-97087500D03*
%TD*%
D19*
%TO.C,D11*%
X162950000Y-188000000D03*
X165050000Y-188000000D03*
%TD*%
D10*
%TO.C,R88*%
X101000000Y-190912500D03*
X101000000Y-189087500D03*
%TD*%
D12*
%TO.C,C7*%
X230000000Y-138950000D03*
X230000000Y-137050000D03*
%TD*%
D15*
%TO.C,R29*%
X57087500Y-100200000D03*
X58912500Y-100200000D03*
%TD*%
D10*
%TO.C,R109*%
X170000000Y-90912500D03*
X170000000Y-89087500D03*
%TD*%
D15*
%TO.C,R9*%
X57087500Y-40200000D03*
X58912500Y-40200000D03*
%TD*%
%TO.C,R60*%
X91087500Y-193800000D03*
X92912500Y-193800000D03*
%TD*%
D10*
%TO.C,R85*%
X150000000Y-197912500D03*
X150000000Y-196087500D03*
%TD*%
D20*
%TO.C,Q13*%
X161062500Y-57050000D03*
X161062500Y-58950000D03*
X162937500Y-58000000D03*
%TD*%
D15*
%TO.C,R63*%
X57087500Y-202200000D03*
X58912500Y-202200000D03*
%TD*%
D10*
%TO.C,R107*%
X133000000Y-90912500D03*
X133000000Y-89087500D03*
%TD*%
D12*
%TO.C,C6*%
X230000000Y-116950000D03*
X230000000Y-115050000D03*
%TD*%
D16*
%TO.C,J10*%
X242000000Y-156000000D03*
D17*
X242000000Y-161080000D03*
%TD*%
D20*
%TO.C,Q10*%
X127062500Y-197050000D03*
X127062500Y-198950000D03*
X128937500Y-198000000D03*
%TD*%
D21*
%TO.C,D4*%
X222000000Y-104000000D03*
X222000000Y-100000000D03*
%TD*%
%TO.C,D8*%
X222000000Y-148000000D03*
X222000000Y-144000000D03*
%TD*%
D18*
%TO.C,TP7*%
X140000000Y-214000000D03*
%TD*%
D19*
%TO.C,D1*%
X162950000Y-78000000D03*
X165050000Y-78000000D03*
%TD*%
D13*
%TO.C,U32*%
X74000000Y-192000000D03*
D14*
X74000000Y-194540000D03*
X81620000Y-194540000D03*
X81620000Y-192000000D03*
%TD*%
D15*
%TO.C,R13*%
X57087500Y-52200000D03*
X58912500Y-52200000D03*
%TD*%
%TO.C,R58*%
X91087500Y-187800000D03*
X92912500Y-187800000D03*
%TD*%
D20*
%TO.C,Q11*%
X139062500Y-197050000D03*
X139062500Y-198950000D03*
X140937500Y-198000000D03*
%TD*%
D10*
%TO.C,R92*%
X119000000Y-190912500D03*
X119000000Y-189087500D03*
%TD*%
D27*
%TO.C,MK3*%
X4000000Y-221000000D03*
%TD*%
D15*
%TO.C,R24*%
X91087500Y-85800000D03*
X92912500Y-85800000D03*
%TD*%
D10*
%TO.C,R94*%
X125000000Y-190912500D03*
X125000000Y-189087500D03*
%TD*%
D29*
%TO.C,U2*%
X117350000Y-137745000D03*
X117350000Y-139015000D03*
X117350000Y-140285000D03*
X117350000Y-141555000D03*
X117350000Y-142825000D03*
X117350000Y-144095000D03*
X117350000Y-145365000D03*
X117350000Y-146635000D03*
X117350000Y-147905000D03*
X117350000Y-149175000D03*
X117350000Y-150445000D03*
X117350000Y-151715000D03*
X117350000Y-152985000D03*
X117350000Y-154255000D03*
X126650000Y-154255000D03*
X126650000Y-152985000D03*
X126650000Y-151715000D03*
X126650000Y-150445000D03*
X126650000Y-149175000D03*
X126650000Y-147905000D03*
X126650000Y-146635000D03*
X126650000Y-145365000D03*
X126650000Y-144095000D03*
X126650000Y-142825000D03*
X126650000Y-141555000D03*
X126650000Y-140285000D03*
X126650000Y-139015000D03*
X126650000Y-137745000D03*
%TD*%
D13*
%TO.C,U23*%
X74000000Y-138000000D03*
D14*
X74000000Y-140540000D03*
X81620000Y-140540000D03*
X81620000Y-138000000D03*
%TD*%
D15*
%TO.C,R39*%
X57087500Y-130199999D03*
X58912500Y-130199999D03*
%TD*%
D10*
%TO.C,R70*%
X150000000Y-87912500D03*
X150000000Y-86087500D03*
%TD*%
D15*
%TO.C,R19*%
X57087500Y-70200000D03*
X58912500Y-70200000D03*
%TD*%
D10*
%TO.C,R78*%
X222000000Y-131912500D03*
X222000000Y-130087500D03*
%TD*%
%TO.C,R97*%
X137000000Y-190912500D03*
X137000000Y-189087500D03*
%TD*%
D43*
%TO.C,U36*%
X148525000Y-48095000D03*
X148525000Y-49365000D03*
X148525000Y-50635000D03*
X148525000Y-51905000D03*
X153475000Y-51905000D03*
X153475000Y-50635000D03*
X153475000Y-49365000D03*
X153475000Y-48095000D03*
%TD*%
D15*
%TO.C,R43*%
X57087500Y-142200000D03*
X58912500Y-142200000D03*
%TD*%
%TO.C,R64*%
X91087500Y-205800000D03*
X92912500Y-205800000D03*
%TD*%
%TO.C,R26*%
X91087500Y-91800000D03*
X92912500Y-91800000D03*
%TD*%
D25*
%TO.C,J3*%
X9000000Y-42000000D03*
D26*
X9000000Y-38500000D03*
X9000000Y-35000000D03*
X9000000Y-31500000D03*
X9000000Y-28000000D03*
X9000000Y-24500000D03*
X9000000Y-21000000D03*
X9000000Y-17500000D03*
X9000000Y-14000000D03*
X9000000Y-10500000D03*
%TD*%
D20*
%TO.C,Q12*%
X141062500Y-57050000D03*
X141062500Y-58950000D03*
X142937500Y-58000000D03*
%TD*%
D15*
%TO.C,R96*%
X127087500Y-182000000D03*
X128912500Y-182000000D03*
%TD*%
D13*
%TO.C,U15*%
X74000000Y-90000000D03*
D14*
X74000000Y-92540000D03*
X81620000Y-92540000D03*
X81620000Y-90000000D03*
%TD*%
D15*
%TO.C,R23*%
X57087500Y-82200000D03*
X58912500Y-82200000D03*
%TD*%
D16*
%TO.C,J7*%
X242000000Y-90000000D03*
D17*
X242000000Y-95080000D03*
%TD*%
D19*
%TO.C,D16*%
X157950000Y-35000000D03*
X160050000Y-35000000D03*
%TD*%
D22*
%TO.C,K7*%
X176000000Y-204000000D03*
D23*
X178000000Y-210000000D03*
X190200000Y-210000000D03*
X190200000Y-198000000D03*
X178000000Y-198000000D03*
%TD*%
D13*
%TO.C,U31*%
X74000000Y-186000000D03*
D14*
X74000000Y-188540000D03*
X81620000Y-188540000D03*
X81620000Y-186000000D03*
%TD*%
D15*
%TO.C,R31*%
X57087500Y-106200000D03*
X58912500Y-106200000D03*
%TD*%
%TO.C,R3*%
X57087500Y-22200000D03*
X58912500Y-22200000D03*
%TD*%
D10*
%TO.C,R77*%
X150000000Y-137912500D03*
X150000000Y-136087500D03*
%TD*%
%TO.C,R101*%
X145000000Y-78912500D03*
X145000000Y-77087500D03*
%TD*%
%TO.C,R89*%
X107000000Y-190912500D03*
X107000000Y-189087500D03*
%TD*%
D19*
%TO.C,D7*%
X162950000Y-144000000D03*
X165050000Y-144000000D03*
%TD*%
D20*
%TO.C,Q8*%
X103062500Y-197050000D03*
X103062500Y-198950000D03*
X104937500Y-198000000D03*
%TD*%
%TO.C,Q3*%
X159062500Y-110050000D03*
X159062500Y-111950000D03*
X160937500Y-111000000D03*
%TD*%
%TO.C,Q15*%
X142062500Y-91050000D03*
X142062500Y-92950000D03*
X143937500Y-92000000D03*
%TD*%
D16*
%TO.C,J6*%
X242000000Y-68000000D03*
D17*
X242000000Y-73080000D03*
%TD*%
D15*
%TO.C,R66*%
X91087500Y-211800000D03*
X92912500Y-211800000D03*
%TD*%
D18*
%TO.C,TP8*%
X150000000Y-214000000D03*
%TD*%
D27*
%TO.C,MK4*%
X246000000Y-221000000D03*
%TD*%
D13*
%TO.C,U28*%
X74000000Y-168000000D03*
D14*
X74000000Y-170540000D03*
X81620000Y-170540000D03*
X81620000Y-168000000D03*
%TD*%
D15*
%TO.C,R8*%
X91087500Y-37800000D03*
X92912500Y-37800000D03*
%TD*%
D20*
%TO.C,Q2*%
X159062500Y-88050000D03*
X159062500Y-89950000D03*
X160937500Y-89000000D03*
%TD*%
D10*
%TO.C,R91*%
X113000000Y-190912500D03*
X113000000Y-189087500D03*
%TD*%
D16*
%TO.C,J12*%
X242000000Y-200000000D03*
D17*
X242000000Y-205080000D03*
%TD*%
D15*
%TO.C,R42*%
X91087500Y-139800000D03*
X92912500Y-139800000D03*
%TD*%
D10*
%TO.C,R81*%
X222000000Y-153912500D03*
X222000000Y-152087500D03*
%TD*%
D13*
%TO.C,U21*%
X74000000Y-126000000D03*
D14*
X74000000Y-128540000D03*
X81620000Y-128540000D03*
X81620000Y-126000000D03*
%TD*%
D21*
%TO.C,D12*%
X222000000Y-192000000D03*
X222000000Y-188000000D03*
%TD*%
D18*
%TO.C,TP9*%
X92000000Y-221000000D03*
%TD*%
%TO.C,TP13*%
X136000000Y-221000000D03*
%TD*%
D15*
%TO.C,R41*%
X57087500Y-136200000D03*
X58912500Y-136200000D03*
%TD*%
D18*
%TO.C,TP4*%
X22000000Y-214000000D03*
%TD*%
D22*
%TO.C,K3*%
X176000000Y-116000000D03*
D23*
X178000000Y-122000000D03*
X190200000Y-122000000D03*
X190200000Y-110000000D03*
X178000000Y-110000000D03*
%TD*%
D12*
%TO.C,C10*%
X230000000Y-204950000D03*
X230000000Y-203050000D03*
%TD*%
D15*
%TO.C,R36*%
X91087500Y-121800000D03*
X92912500Y-121800000D03*
%TD*%
D10*
%TO.C,R104*%
X162000000Y-47912500D03*
X162000000Y-46087500D03*
%TD*%
D15*
%TO.C,R61*%
X57087500Y-196200000D03*
X58912500Y-196200000D03*
%TD*%
%TO.C,R18*%
X91087500Y-67800000D03*
X92912500Y-67800000D03*
%TD*%
D10*
%TO.C,R86*%
X150000000Y-203912500D03*
X150000000Y-202087500D03*
%TD*%
D15*
%TO.C,R22*%
X91087500Y-79800000D03*
X92912500Y-79800000D03*
%TD*%
D22*
%TO.C,K4*%
X176000000Y-138000000D03*
D23*
X178000000Y-144000000D03*
X190200000Y-144000000D03*
X190200000Y-132000000D03*
X178000000Y-132000000D03*
%TD*%
D18*
%TO.C,TP16*%
X164000000Y-221000000D03*
%TD*%
D13*
%TO.C,U25*%
X74000000Y-150000000D03*
D14*
X74000000Y-152540000D03*
X81620000Y-152540000D03*
X81620000Y-150000000D03*
%TD*%
D12*
%TO.C,C12*%
X156000000Y-67950000D03*
X156000000Y-66050000D03*
%TD*%
D41*
%TO.C,J13*%
X104000000Y-206000000D03*
D42*
X107500000Y-206000000D03*
X111000000Y-206000000D03*
X114500000Y-206000000D03*
X118000000Y-206000000D03*
X121500000Y-206000000D03*
%TD*%
D19*
%TO.C,D13*%
X162950000Y-210000000D03*
X165050000Y-210000000D03*
%TD*%
D15*
%TO.C,R37*%
X57087500Y-124200000D03*
X58912500Y-124200000D03*
%TD*%
D20*
%TO.C,Q5*%
X159062500Y-154050000D03*
X159062500Y-155950000D03*
X160937500Y-155000000D03*
%TD*%
D15*
%TO.C,R44*%
X91087500Y-145800000D03*
X92912500Y-145800000D03*
%TD*%
%TO.C,R25*%
X57087500Y-88200000D03*
X58912500Y-88200000D03*
%TD*%
D18*
%TO.C,TP11*%
X116000000Y-221000000D03*
%TD*%
D13*
%TO.C,U8*%
X74000000Y-48000000D03*
D14*
X74000000Y-50540000D03*
X81620000Y-50540000D03*
X81620000Y-48000000D03*
%TD*%
D13*
%TO.C,U17*%
X74000000Y-102000000D03*
D14*
X74000000Y-104540000D03*
X81620000Y-104540000D03*
X81620000Y-102000000D03*
%TD*%
D11*
%TO.C,C1*%
X115050000Y-92000000D03*
X116950000Y-92000000D03*
%TD*%
D19*
%TO.C,D3*%
X162950000Y-100000000D03*
X165050000Y-100000000D03*
%TD*%
D15*
%TO.C,R48*%
X91087500Y-157800000D03*
X92912500Y-157800000D03*
%TD*%
D20*
%TO.C,Q7*%
X159062500Y-198050000D03*
X159062500Y-199950000D03*
X160937500Y-199000000D03*
%TD*%
D15*
%TO.C,R51*%
X57087500Y-166200000D03*
X58912500Y-166200000D03*
%TD*%
D10*
%TO.C,R95*%
X131000000Y-190912500D03*
X131000000Y-189087500D03*
%TD*%
%TO.C,R73*%
X150000000Y-109912500D03*
X150000000Y-108087500D03*
%TD*%
D11*
%TO.C,C2*%
X112050000Y-130000000D03*
X113950000Y-130000000D03*
%TD*%
D29*
%TO.C,U3*%
X135350000Y-103745000D03*
X135350000Y-105015000D03*
X135350000Y-106285000D03*
X135350000Y-107555000D03*
X135350000Y-108825000D03*
X135350000Y-110095000D03*
X135350000Y-111365000D03*
X135350000Y-112635000D03*
X135350000Y-113905000D03*
X135350000Y-115175000D03*
X135350000Y-116445000D03*
X135350000Y-117715000D03*
X135350000Y-118985000D03*
X135350000Y-120255000D03*
X144650000Y-120255000D03*
X144650000Y-118985000D03*
X144650000Y-117715000D03*
X144650000Y-116445000D03*
X144650000Y-115175000D03*
X144650000Y-113905000D03*
X144650000Y-112635000D03*
X144650000Y-111365000D03*
X144650000Y-110095000D03*
X144650000Y-108825000D03*
X144650000Y-107555000D03*
X144650000Y-106285000D03*
X144650000Y-105015000D03*
X144650000Y-103745000D03*
%TD*%
D10*
%TO.C,R75*%
X222000000Y-109912500D03*
X222000000Y-108087500D03*
%TD*%
D13*
%TO.C,U16*%
X74000000Y-96000000D03*
D14*
X74000000Y-98540000D03*
X81620000Y-98540000D03*
X81620000Y-96000000D03*
%TD*%
D15*
%TO.C,R93*%
X115087500Y-182000000D03*
X116912500Y-182000000D03*
%TD*%
D21*
%TO.C,D2*%
X222000000Y-82000000D03*
X222000000Y-78000000D03*
%TD*%
D44*
%TO.C,J1*%
X126000000Y-10000000D03*
D45*
X126000000Y-7460000D03*
X128540000Y-10000000D03*
X128540000Y-7460000D03*
X131080000Y-10000000D03*
X131080000Y-7460000D03*
X133620000Y-10000000D03*
X133620000Y-7460000D03*
X136160000Y-10000000D03*
X136160000Y-7460000D03*
X138700000Y-10000000D03*
X138700000Y-7460000D03*
X141240000Y-10000000D03*
X141240000Y-7460000D03*
X143780000Y-10000000D03*
X143780000Y-7460000D03*
X146320000Y-10000000D03*
X146320000Y-7460000D03*
X148860000Y-10000000D03*
X148860000Y-7460000D03*
%TD*%
M02*
