%TF.GenerationSoftware,KiCad,Pcbnew,10.0.2*%
%TF.CreationDate,2026-06-26T17:31:50-07:00*%
%TF.ProjectId,wsl-phase8b.routed-manual,77736c2d-7068-4617-9365-38622e726f75,rev?*%
%TF.SameCoordinates,Original*%
%TF.FileFunction,Soldermask,Bot*%
%TF.FilePolarity,Negative*%
%FSLAX46Y46*%
G04 Gerber Fmt 4.6, Leading zero omitted, Abs format (unit mm)*
G04 Created by KiCad (PCBNEW 10.0.2) date 2026-06-26 17:31:50*
%MOMM*%
%LPD*%
G01*
G04 APERTURE LIST*
G04 Aperture macros list*
%AMRoundRect*
0 Rectangle with rounded corners*
0 $1 Rounding radius*
0 $2 $3 $4 $5 $6 $7 $8 $9 X,Y pos of 4 corners*
0 Add a 4 corners polygon primitive as box body*
4,1,4,$2,$3,$4,$5,$6,$7,$8,$9,$2,$3,0*
0 Add four circle primitives for the rounded corners*
1,1,$1+$1,$2,$3*
1,1,$1+$1,$4,$5*
1,1,$1+$1,$6,$7*
1,1,$1+$1,$8,$9*
0 Add four rect primitives between the rounded corners*
20,1,$1+$1,$2,$3,$4,$5,0*
20,1,$1+$1,$4,$5,$6,$7,0*
20,1,$1+$1,$6,$7,$8,$9,0*
20,1,$1+$1,$8,$9,$2,$3,0*%
G04 Aperture macros list end*
%ADD10RoundRect,0.250000X-0.550000X-0.550000X0.550000X-0.550000X0.550000X0.550000X-0.550000X0.550000X0*%
%ADD11C,1.600000*%
%ADD12RoundRect,0.250000X-1.050000X1.050000X-1.050000X-1.050000X1.050000X-1.050000X1.050000X1.050000X0*%
%ADD13C,2.600000*%
%ADD14R,2.500000X2.500000*%
%ADD15O,2.500000X2.500000*%
%ADD16RoundRect,0.250000X-1.050000X-1.050000X1.050000X-1.050000X1.050000X1.050000X-1.050000X1.050000X0*%
%ADD17RoundRect,0.250000X1.550000X-0.650000X1.550000X0.650000X-1.550000X0.650000X-1.550000X-0.650000X0*%
%ADD18O,3.600000X1.800000*%
%ADD19C,3.200000*%
%ADD20RoundRect,0.250001X0.499999X-0.499999X0.499999X0.499999X-0.499999X0.499999X-0.499999X-0.499999X0*%
%ADD21C,1.500000*%
%ADD22RoundRect,0.250000X-0.650000X-1.550000X0.650000X-1.550000X0.650000X1.550000X-0.650000X1.550000X0*%
%ADD23O,1.800000X3.600000*%
%ADD24RoundRect,0.250000X0.600000X-0.600000X0.600000X0.600000X-0.600000X0.600000X-0.600000X-0.600000X0*%
%ADD25C,1.700000*%
G04 APERTURE END LIST*
D10*
%TO.C,U14*%
X74000000Y-84000000D03*
D11*
X74000000Y-86540000D03*
X81620000Y-86540000D03*
X81620000Y-84000000D03*
%TD*%
D12*
%TO.C,J9*%
X242000000Y-134000000D03*
D13*
X242000000Y-139080000D03*
%TD*%
D10*
%TO.C,U19*%
X74000000Y-114000000D03*
D11*
X74000000Y-116540000D03*
X81620000Y-116540000D03*
X81620000Y-114000000D03*
%TD*%
D10*
%TO.C,U10*%
X74000000Y-60000000D03*
D11*
X74000000Y-62540000D03*
X81620000Y-62540000D03*
X81620000Y-60000000D03*
%TD*%
D10*
%TO.C,U26*%
X74000000Y-156000000D03*
D11*
X74000000Y-158540000D03*
X81620000Y-158540000D03*
X81620000Y-156000000D03*
%TD*%
D10*
%TO.C,U35*%
X74000000Y-210000000D03*
D11*
X74000000Y-212540000D03*
X81620000Y-212540000D03*
X81620000Y-210000000D03*
%TD*%
D10*
%TO.C,U4*%
X74000000Y-24000000D03*
D11*
X74000000Y-26540000D03*
X81620000Y-26540000D03*
X81620000Y-24000000D03*
%TD*%
D14*
%TO.C,K6*%
X176000000Y-182000000D03*
D15*
X178000000Y-188000000D03*
X190200000Y-188000000D03*
X190200000Y-176000000D03*
X178000000Y-176000000D03*
%TD*%
D16*
%TO.C,J2*%
X104000000Y-10000000D03*
D13*
X109080000Y-10000000D03*
X114160000Y-10000000D03*
%TD*%
D14*
%TO.C,K1*%
X176000000Y-72000000D03*
D15*
X178000000Y-78000000D03*
X190200000Y-78000000D03*
X190200000Y-66000000D03*
X178000000Y-66000000D03*
%TD*%
D17*
%TO.C,J5*%
X9000000Y-168000000D03*
D18*
X9000000Y-164500000D03*
X9000000Y-161000000D03*
X9000000Y-157500000D03*
X9000000Y-154000000D03*
X9000000Y-150500000D03*
X9000000Y-147000000D03*
X9000000Y-143500000D03*
X9000000Y-140000000D03*
X9000000Y-136500000D03*
X9000000Y-133000000D03*
X9000000Y-129500000D03*
%TD*%
D10*
%TO.C,U5*%
X74000000Y-30000000D03*
D11*
X74000000Y-32540000D03*
X81620000Y-32540000D03*
X81620000Y-30000000D03*
%TD*%
D10*
%TO.C,U27*%
X74000000Y-162000000D03*
D11*
X74000000Y-164540000D03*
X81620000Y-164540000D03*
X81620000Y-162000000D03*
%TD*%
D10*
%TO.C,U29*%
X74000000Y-174000000D03*
D11*
X74000000Y-176540000D03*
X81620000Y-176540000D03*
X81620000Y-174000000D03*
%TD*%
D19*
%TO.C,MK2*%
X246000000Y-4000000D03*
%TD*%
%TO.C,MK1*%
X4000000Y-4000000D03*
%TD*%
D10*
%TO.C,U33*%
X74000000Y-198000000D03*
D11*
X74000000Y-200540000D03*
X81620000Y-200540000D03*
X81620000Y-198000000D03*
%TD*%
D17*
%TO.C,J4*%
X9000000Y-103000000D03*
D18*
X9000000Y-99500000D03*
X9000000Y-96000000D03*
X9000000Y-92500000D03*
X9000000Y-89000000D03*
X9000000Y-85500000D03*
X9000000Y-82000000D03*
X9000000Y-78500000D03*
X9000000Y-75000000D03*
X9000000Y-71500000D03*
X9000000Y-68000000D03*
X9000000Y-64500000D03*
X9000000Y-61000000D03*
X9000000Y-57500000D03*
%TD*%
D14*
%TO.C,K5*%
X176000000Y-160000000D03*
D15*
X178000000Y-166000000D03*
X190200000Y-166000000D03*
X190200000Y-154000000D03*
X178000000Y-154000000D03*
%TD*%
D12*
%TO.C,J8*%
X242000000Y-112000000D03*
D13*
X242000000Y-117080000D03*
%TD*%
D12*
%TO.C,J11*%
X242000000Y-178000000D03*
D13*
X242000000Y-183080000D03*
%TD*%
D10*
%TO.C,U34*%
X74000000Y-204000000D03*
D11*
X74000000Y-206540000D03*
X81620000Y-206540000D03*
X81620000Y-204000000D03*
%TD*%
D10*
%TO.C,U7*%
X74000000Y-42000000D03*
D11*
X74000000Y-44540000D03*
X81620000Y-44540000D03*
X81620000Y-42000000D03*
%TD*%
D14*
%TO.C,K2*%
X176000000Y-94000000D03*
D15*
X178000000Y-100000000D03*
X190200000Y-100000000D03*
X190200000Y-88000000D03*
X178000000Y-88000000D03*
%TD*%
D10*
%TO.C,U12*%
X74000000Y-72000000D03*
D11*
X74000000Y-74540000D03*
X81620000Y-74540000D03*
X81620000Y-72000000D03*
%TD*%
D10*
%TO.C,U20*%
X74000000Y-120000000D03*
D11*
X74000000Y-122540000D03*
X81620000Y-122540000D03*
X81620000Y-120000000D03*
%TD*%
D20*
%TO.C,U37*%
X73900000Y-13000000D03*
D21*
X76440000Y-13000000D03*
X81520000Y-13000000D03*
X86600000Y-13000000D03*
%TD*%
D10*
%TO.C,U22*%
X74000000Y-132000000D03*
D11*
X74000000Y-134540000D03*
X81620000Y-134540000D03*
X81620000Y-132000000D03*
%TD*%
D10*
%TO.C,U24*%
X74000000Y-144000000D03*
D11*
X74000000Y-146540000D03*
X81620000Y-146540000D03*
X81620000Y-144000000D03*
%TD*%
D10*
%TO.C,U30*%
X74000000Y-180000000D03*
D11*
X74000000Y-182540000D03*
X81620000Y-182540000D03*
X81620000Y-180000000D03*
%TD*%
D22*
%TO.C,J14*%
X160000000Y-10000000D03*
D23*
X163500000Y-10000000D03*
X167000000Y-10000000D03*
X170500000Y-10000000D03*
%TD*%
D10*
%TO.C,U6*%
X74000000Y-36000000D03*
D11*
X74000000Y-38540000D03*
X81620000Y-38540000D03*
X81620000Y-36000000D03*
%TD*%
D10*
%TO.C,U13*%
X74000000Y-78000000D03*
D11*
X74000000Y-80540000D03*
X81620000Y-80540000D03*
X81620000Y-78000000D03*
%TD*%
D10*
%TO.C,U9*%
X74000000Y-54000000D03*
D11*
X74000000Y-56540000D03*
X81620000Y-56540000D03*
X81620000Y-54000000D03*
%TD*%
D10*
%TO.C,U18*%
X74000000Y-108000000D03*
D11*
X74000000Y-110540000D03*
X81620000Y-110540000D03*
X81620000Y-108000000D03*
%TD*%
D10*
%TO.C,U11*%
X74000000Y-66000000D03*
D11*
X74000000Y-68540000D03*
X81620000Y-68540000D03*
X81620000Y-66000000D03*
%TD*%
D12*
%TO.C,J10*%
X242000000Y-156000000D03*
D13*
X242000000Y-161080000D03*
%TD*%
D10*
%TO.C,U32*%
X74000000Y-192000000D03*
D11*
X74000000Y-194540000D03*
X81620000Y-194540000D03*
X81620000Y-192000000D03*
%TD*%
D19*
%TO.C,MK3*%
X4000000Y-221000000D03*
%TD*%
D10*
%TO.C,U23*%
X74000000Y-138000000D03*
D11*
X74000000Y-140540000D03*
X81620000Y-140540000D03*
X81620000Y-138000000D03*
%TD*%
D17*
%TO.C,J3*%
X9000000Y-42000000D03*
D18*
X9000000Y-38500000D03*
X9000000Y-35000000D03*
X9000000Y-31500000D03*
X9000000Y-28000000D03*
X9000000Y-24500000D03*
X9000000Y-21000000D03*
X9000000Y-17500000D03*
X9000000Y-14000000D03*
X9000000Y-10500000D03*
%TD*%
D10*
%TO.C,U15*%
X74000000Y-90000000D03*
D11*
X74000000Y-92540000D03*
X81620000Y-92540000D03*
X81620000Y-90000000D03*
%TD*%
D12*
%TO.C,J7*%
X242000000Y-90000000D03*
D13*
X242000000Y-95080000D03*
%TD*%
D14*
%TO.C,K7*%
X176000000Y-204000000D03*
D15*
X178000000Y-210000000D03*
X190200000Y-210000000D03*
X190200000Y-198000000D03*
X178000000Y-198000000D03*
%TD*%
D10*
%TO.C,U31*%
X74000000Y-186000000D03*
D11*
X74000000Y-188540000D03*
X81620000Y-188540000D03*
X81620000Y-186000000D03*
%TD*%
D12*
%TO.C,J6*%
X242000000Y-68000000D03*
D13*
X242000000Y-73080000D03*
%TD*%
D19*
%TO.C,MK4*%
X246000000Y-221000000D03*
%TD*%
D10*
%TO.C,U28*%
X74000000Y-168000000D03*
D11*
X74000000Y-170540000D03*
X81620000Y-170540000D03*
X81620000Y-168000000D03*
%TD*%
D12*
%TO.C,J12*%
X242000000Y-200000000D03*
D13*
X242000000Y-205080000D03*
%TD*%
D10*
%TO.C,U21*%
X74000000Y-126000000D03*
D11*
X74000000Y-128540000D03*
X81620000Y-128540000D03*
X81620000Y-126000000D03*
%TD*%
D14*
%TO.C,K3*%
X176000000Y-116000000D03*
D15*
X178000000Y-122000000D03*
X190200000Y-122000000D03*
X190200000Y-110000000D03*
X178000000Y-110000000D03*
%TD*%
D14*
%TO.C,K4*%
X176000000Y-138000000D03*
D15*
X178000000Y-144000000D03*
X190200000Y-144000000D03*
X190200000Y-132000000D03*
X178000000Y-132000000D03*
%TD*%
D10*
%TO.C,U25*%
X74000000Y-150000000D03*
D11*
X74000000Y-152540000D03*
X81620000Y-152540000D03*
X81620000Y-150000000D03*
%TD*%
D22*
%TO.C,J13*%
X104000000Y-206000000D03*
D23*
X107500000Y-206000000D03*
X111000000Y-206000000D03*
X114500000Y-206000000D03*
X118000000Y-206000000D03*
X121500000Y-206000000D03*
%TD*%
D10*
%TO.C,U8*%
X74000000Y-48000000D03*
D11*
X74000000Y-50540000D03*
X81620000Y-50540000D03*
X81620000Y-48000000D03*
%TD*%
D10*
%TO.C,U17*%
X74000000Y-102000000D03*
D11*
X74000000Y-104540000D03*
X81620000Y-104540000D03*
X81620000Y-102000000D03*
%TD*%
D10*
%TO.C,U16*%
X74000000Y-96000000D03*
D11*
X74000000Y-98540000D03*
X81620000Y-98540000D03*
X81620000Y-96000000D03*
%TD*%
D24*
%TO.C,J1*%
X126000000Y-10000000D03*
D25*
X126000000Y-7460000D03*
X128540000Y-10000000D03*
X128540000Y-7460000D03*
X131080000Y-10000000D03*
X131080000Y-7460000D03*
X133620000Y-10000000D03*
X133620000Y-7460000D03*
X136160000Y-10000000D03*
X136160000Y-7460000D03*
X138700000Y-10000000D03*
X138700000Y-7460000D03*
X141240000Y-10000000D03*
X141240000Y-7460000D03*
X143780000Y-10000000D03*
X143780000Y-7460000D03*
X146320000Y-10000000D03*
X146320000Y-7460000D03*
X148860000Y-10000000D03*
X148860000Y-7460000D03*
%TD*%
M02*
