%TF.GenerationSoftware,KiCad,Pcbnew,10.0.2*%
%TF.CreationDate,2026-06-26T17:31:50-07:00*%
%TF.ProjectId,wsl-phase8b.routed-manual,77736c2d-7068-4617-9365-38622e726f75,rev?*%
%TF.SameCoordinates,Original*%
%TF.FileFunction,Copper,L4,Bot*%
%TF.FilePolarity,Positive*%
%FSLAX46Y46*%
G04 Gerber Fmt 4.6, Leading zero omitted, Abs format (unit mm)*
G04 Created by KiCad (PCBNEW 10.0.2) date 2026-06-26 17:31:50*
%MOMM*%
%LPD*%
G01*
G04 APERTURE LIST*
G04 Aperture macros list*
%AMRoundRect*
0 Rectangle with rounded corners*
0 $1 Rounding radius*
0 $2 $3 $4 $5 $6 $7 $8 $9 X,Y pos of 4 corners*
0 Add a 4 corners polygon primitive as box body*
4,1,4,$2,$3,$4,$5,$6,$7,$8,$9,$2,$3,0*
0 Add four circle primitives for the rounded corners*
1,1,$1+$1,$2,$3*
1,1,$1+$1,$4,$5*
1,1,$1+$1,$6,$7*
1,1,$1+$1,$8,$9*
0 Add four rect primitives between the rounded corners*
20,1,$1+$1,$2,$3,$4,$5,0*
20,1,$1+$1,$4,$5,$6,$7,0*
20,1,$1+$1,$6,$7,$8,$9,0*
20,1,$1+$1,$8,$9,$2,$3,0*%
G04 Aperture macros list end*
%TA.AperFunction,ComponentPad*%
%ADD10RoundRect,0.250000X-0.550000X-0.550000X0.550000X-0.550000X0.550000X0.550000X-0.550000X0.550000X0*%
%TD*%
%TA.AperFunction,ComponentPad*%
%ADD11C,1.600000*%
%TD*%
%TA.AperFunction,ComponentPad*%
%ADD12RoundRect,0.250000X-1.050000X1.050000X-1.050000X-1.050000X1.050000X-1.050000X1.050000X1.050000X0*%
%TD*%
%TA.AperFunction,ComponentPad*%
%ADD13C,2.600000*%
%TD*%
%TA.AperFunction,ComponentPad*%
%ADD14R,2.500000X2.500000*%
%TD*%
%TA.AperFunction,ComponentPad*%
%ADD15O,2.500000X2.500000*%
%TD*%
%TA.AperFunction,ComponentPad*%
%ADD16RoundRect,0.250000X-1.050000X-1.050000X1.050000X-1.050000X1.050000X1.050000X-1.050000X1.050000X0*%
%TD*%
%TA.AperFunction,ComponentPad*%
%ADD17RoundRect,0.250000X1.550000X-0.650000X1.550000X0.650000X-1.550000X0.650000X-1.550000X-0.650000X0*%
%TD*%
%TA.AperFunction,ComponentPad*%
%ADD18O,3.600000X1.800000*%
%TD*%
%TA.AperFunction,ComponentPad*%
%ADD19RoundRect,0.250001X0.499999X-0.499999X0.499999X0.499999X-0.499999X0.499999X-0.499999X-0.499999X0*%
%TD*%
%TA.AperFunction,ComponentPad*%
%ADD20C,1.500000*%
%TD*%
%TA.AperFunction,ComponentPad*%
%ADD21RoundRect,0.250000X-0.650000X-1.550000X0.650000X-1.550000X0.650000X1.550000X-0.650000X1.550000X0*%
%TD*%
%TA.AperFunction,ComponentPad*%
%ADD22O,1.800000X3.600000*%
%TD*%
%TA.AperFunction,ComponentPad*%
%ADD23RoundRect,0.250000X0.600000X-0.600000X0.600000X0.600000X-0.600000X0.600000X-0.600000X-0.600000X0*%
%TD*%
%TA.AperFunction,ComponentPad*%
%ADD24C,1.700000*%
%TD*%
%TA.AperFunction,ViaPad*%
%ADD25C,0.800000*%
%TD*%
%TA.AperFunction,ViaPad*%
%ADD26C,0.600000*%
%TD*%
%TA.AperFunction,ViaPad*%
%ADD27C,1.000000*%
%TD*%
%TA.AperFunction,ViaPad*%
%ADD28C,0.700000*%
%TD*%
%TA.AperFunction,Conductor*%
%ADD29C,0.500000*%
%TD*%
%TA.AperFunction,Conductor*%
%ADD30C,0.300000*%
%TD*%
%TA.AperFunction,Conductor*%
%ADD31C,0.250000*%
%TD*%
%TA.AperFunction,Conductor*%
%ADD32C,0.600000*%
%TD*%
G04 APERTURE END LIST*
D10*
%TO.P,U14,1*%
%TO.N,FIELD_LED_GS3*%
X74000000Y-84000000D03*
D11*
%TO.P,U14,2*%
%TO.N,FIELD_SLOW_GS3*%
X74000000Y-86540000D03*
%TO.P,U14,3*%
%TO.N,GND*%
X81620000Y-86540000D03*
%TO.P,U14,4*%
%TO.N,SLOW_GS3*%
X81620000Y-84000000D03*
%TD*%
D12*
%TO.P,J9,1*%
%TO.N,OUT_BE_B*%
X242000000Y-134000000D03*
D13*
%TO.P,J9,2*%
%TO.N,OUT_BE_A*%
X242000000Y-139080000D03*
%TD*%
D10*
%TO.P,U19,1*%
%TO.N,FIELD_LED_GS8*%
X74000000Y-114000000D03*
D11*
%TO.P,U19,2*%
%TO.N,FIELD_SLOW_GS8*%
X74000000Y-116540000D03*
%TO.P,U19,3*%
%TO.N,GND*%
X81620000Y-116540000D03*
%TO.P,U19,4*%
%TO.N,SLOW_GS8*%
X81620000Y-114000000D03*
%TD*%
D10*
%TO.P,U10,1*%
%TO.N,FIELD_LED_DIELL_L*%
X74000000Y-60000000D03*
D11*
%TO.P,U10,2*%
%TO.N,FIELD_FAST_DIELL_L*%
X74000000Y-62540000D03*
%TO.P,U10,3*%
%TO.N,GND*%
X81620000Y-62540000D03*
%TO.P,U10,4*%
%TO.N,FAST_DIELL_L*%
X81620000Y-60000000D03*
%TD*%
D10*
%TO.P,U26,1*%
%TO.N,FIELD_LED_PBC*%
X74000000Y-156000000D03*
D11*
%TO.P,U26,2*%
%TO.N,FIELD_SLOW_PBC*%
X74000000Y-158540000D03*
%TO.P,U26,3*%
%TO.N,GND*%
X81620000Y-158540000D03*
%TO.P,U26,4*%
%TO.N,SLOW_PBC*%
X81620000Y-156000000D03*
%TD*%
D10*
%TO.P,U35,1*%
%TO.N,FIELD_LED_AUX3*%
X74000000Y-210000000D03*
D11*
%TO.P,U35,2*%
%TO.N,FIELD_SLOW_AUX3*%
X74000000Y-212540000D03*
%TO.P,U35,3*%
%TO.N,GND*%
X81620000Y-212540000D03*
%TO.P,U35,4*%
%TO.N,SLOW_AUX3*%
X81620000Y-210000000D03*
%TD*%
D10*
%TO.P,U4,1*%
%TO.N,FIELD_LED_SA*%
X74000000Y-24000000D03*
D11*
%TO.P,U4,2*%
%TO.N,FIELD_FAST_SA*%
X74000000Y-26540000D03*
%TO.P,U4,3*%
%TO.N,GND*%
X81620000Y-26540000D03*
%TO.P,U4,4*%
%TO.N,FAST_SA*%
X81620000Y-24000000D03*
%TD*%
D14*
%TO.P,K6,1*%
%TO.N,OUT_M2_A*%
X176000000Y-182000000D03*
D15*
%TO.P,K6,2*%
%TO.N,RELAY_ENABLE_RAIL*%
X178000000Y-188000000D03*
%TO.P,K6,3*%
%TO.N,OUT_M2_B*%
X190200000Y-188000000D03*
%TO.P,K6,4*%
%TO.N,N/C*%
X190200000Y-176000000D03*
%TO.P,K6,5*%
%TO.N,COIL_LO_M2*%
X178000000Y-176000000D03*
%TD*%
D16*
%TO.P,J2,1*%
%TO.N,VCC_5V_RAW*%
X104000000Y-10000000D03*
D13*
%TO.P,J2,2*%
%TO.N,GND*%
X109080000Y-10000000D03*
%TO.P,J2,3*%
X114160000Y-10000000D03*
%TD*%
D14*
%TO.P,K1,1*%
%TO.N,OUT_S_A*%
X176000000Y-72000000D03*
D15*
%TO.P,K1,2*%
%TO.N,RELAY_ENABLE_RAIL*%
X178000000Y-78000000D03*
%TO.P,K1,3*%
%TO.N,OUT_S_B*%
X190200000Y-78000000D03*
%TO.P,K1,4*%
%TO.N,N/C*%
X190200000Y-66000000D03*
%TO.P,K1,5*%
%TO.N,COIL_LO_S*%
X178000000Y-66000000D03*
%TD*%
D17*
%TO.P,J5,1*%
%TO.N,FIELD_SLOW_PBZ*%
X9000000Y-168000000D03*
D18*
%TO.P,J5,2*%
%TO.N,FIELD_SLOW_PBC*%
X9000000Y-164500000D03*
%TO.P,J5,3*%
%TO.N,FIELD_SLOW_FOUL*%
X9000000Y-161000000D03*
%TO.P,J5,4*%
%TO.N,FIELD_SLOW_TENTH*%
X9000000Y-157500000D03*
%TO.P,J5,5*%
%TO.N,FIELD_SLOW_MAN_T*%
X9000000Y-154000000D03*
%TO.P,J5,6*%
%TO.N,FIELD_SLOW_MAN_S*%
X9000000Y-150500000D03*
%TO.P,J5,7*%
%TO.N,FIELD_SLOW_MAN_SWS*%
X9000000Y-147000000D03*
%TO.P,J5,8*%
%TO.N,FIELD_SLOW_MAN_SWSR*%
X9000000Y-143500000D03*
%TO.P,J5,9*%
%TO.N,FIELD_SLOW_AUX1*%
X9000000Y-140000000D03*
%TO.P,J5,10*%
%TO.N,FIELD_SLOW_AUX2*%
X9000000Y-136500000D03*
%TO.P,J5,11*%
%TO.N,FIELD_SLOW_AUX3*%
X9000000Y-133000000D03*
%TO.P,J5,12*%
%TO.N,FIELD_GND*%
X9000000Y-129500000D03*
%TD*%
D10*
%TO.P,U5,1*%
%TO.N,FIELD_LED_SB*%
X74000000Y-30000000D03*
D11*
%TO.P,U5,2*%
%TO.N,FIELD_FAST_SB*%
X74000000Y-32540000D03*
%TO.P,U5,3*%
%TO.N,GND*%
X81620000Y-32540000D03*
%TO.P,U5,4*%
%TO.N,FAST_SB*%
X81620000Y-30000000D03*
%TD*%
D10*
%TO.P,U27,1*%
%TO.N,FIELD_LED_FOUL*%
X74000000Y-162000000D03*
D11*
%TO.P,U27,2*%
%TO.N,FIELD_SLOW_FOUL*%
X74000000Y-164540000D03*
%TO.P,U27,3*%
%TO.N,GND*%
X81620000Y-164540000D03*
%TO.P,U27,4*%
%TO.N,SLOW_FOUL*%
X81620000Y-162000000D03*
%TD*%
D10*
%TO.P,U29,1*%
%TO.N,FIELD_LED_MAN_T*%
X74000000Y-174000000D03*
D11*
%TO.P,U29,2*%
%TO.N,FIELD_SLOW_MAN_T*%
X74000000Y-176540000D03*
%TO.P,U29,3*%
%TO.N,GND*%
X81620000Y-176540000D03*
%TO.P,U29,4*%
%TO.N,SLOW_MAN_T*%
X81620000Y-174000000D03*
%TD*%
D10*
%TO.P,U33,1*%
%TO.N,FIELD_LED_AUX1*%
X74000000Y-198000000D03*
D11*
%TO.P,U33,2*%
%TO.N,FIELD_SLOW_AUX1*%
X74000000Y-200540000D03*
%TO.P,U33,3*%
%TO.N,GND*%
X81620000Y-200540000D03*
%TO.P,U33,4*%
%TO.N,SLOW_AUX1*%
X81620000Y-198000000D03*
%TD*%
D17*
%TO.P,J4,1*%
%TO.N,FIELD_SLOW_GS1*%
X9000000Y-103000000D03*
D18*
%TO.P,J4,2*%
%TO.N,FIELD_SLOW_GS2*%
X9000000Y-99500000D03*
%TO.P,J4,3*%
%TO.N,FIELD_SLOW_GS3*%
X9000000Y-96000000D03*
%TO.P,J4,4*%
%TO.N,FIELD_SLOW_GS4*%
X9000000Y-92500000D03*
%TO.P,J4,5*%
%TO.N,FIELD_SLOW_GS5*%
X9000000Y-89000000D03*
%TO.P,J4,6*%
%TO.N,FIELD_SLOW_GS6*%
X9000000Y-85500000D03*
%TO.P,J4,7*%
%TO.N,FIELD_SLOW_GS7*%
X9000000Y-82000000D03*
%TO.P,J4,8*%
%TO.N,FIELD_SLOW_GS8*%
X9000000Y-78500000D03*
%TO.P,J4,9*%
%TO.N,FIELD_SLOW_GS9*%
X9000000Y-75000000D03*
%TO.P,J4,10*%
%TO.N,FIELD_SLOW_GS10*%
X9000000Y-71500000D03*
%TO.P,J4,11*%
%TO.N,FIELD_SLOW_GP*%
X9000000Y-68000000D03*
%TO.P,J4,12*%
%TO.N,FIELD_SLOW_OS*%
X9000000Y-64500000D03*
%TO.P,J4,13*%
%TO.N,FIELD_SLOW_BS*%
X9000000Y-61000000D03*
%TO.P,J4,14*%
%TO.N,FIELD_GND*%
X9000000Y-57500000D03*
%TD*%
D14*
%TO.P,K5,1*%
%TO.N,OUT_M_A*%
X176000000Y-160000000D03*
D15*
%TO.P,K5,2*%
%TO.N,RELAY_ENABLE_RAIL*%
X178000000Y-166000000D03*
%TO.P,K5,3*%
%TO.N,OUT_M_B*%
X190200000Y-166000000D03*
%TO.P,K5,4*%
%TO.N,N/C*%
X190200000Y-154000000D03*
%TO.P,K5,5*%
%TO.N,COIL_LO_M*%
X178000000Y-154000000D03*
%TD*%
D12*
%TO.P,J8,1*%
%TO.N,OUT_SP_B*%
X242000000Y-112000000D03*
D13*
%TO.P,J8,2*%
%TO.N,OUT_SP_A*%
X242000000Y-117080000D03*
%TD*%
D12*
%TO.P,J11,1*%
%TO.N,OUT_M2_B*%
X242000000Y-178000000D03*
D13*
%TO.P,J11,2*%
%TO.N,OUT_M2_A*%
X242000000Y-183080000D03*
%TD*%
D10*
%TO.P,U34,1*%
%TO.N,FIELD_LED_AUX2*%
X74000000Y-204000000D03*
D11*
%TO.P,U34,2*%
%TO.N,FIELD_SLOW_AUX2*%
X74000000Y-206540000D03*
%TO.P,U34,3*%
%TO.N,GND*%
X81620000Y-206540000D03*
%TO.P,U34,4*%
%TO.N,SLOW_AUX2*%
X81620000Y-204000000D03*
%TD*%
D10*
%TO.P,U7,1*%
%TO.N,FIELD_LED_TA1*%
X74000000Y-42000000D03*
D11*
%TO.P,U7,2*%
%TO.N,FIELD_FAST_TA1*%
X74000000Y-44540000D03*
%TO.P,U7,3*%
%TO.N,GND*%
X81620000Y-44540000D03*
%TO.P,U7,4*%
%TO.N,FAST_TA1*%
X81620000Y-42000000D03*
%TD*%
D14*
%TO.P,K2,1*%
%TO.N,OUT_T_A*%
X176000000Y-94000000D03*
D15*
%TO.P,K2,2*%
%TO.N,RELAY_ENABLE_RAIL*%
X178000000Y-100000000D03*
%TO.P,K2,3*%
%TO.N,OUT_T_B*%
X190200000Y-100000000D03*
%TO.P,K2,4*%
%TO.N,N/C*%
X190200000Y-88000000D03*
%TO.P,K2,5*%
%TO.N,COIL_LO_T*%
X178000000Y-88000000D03*
%TD*%
D10*
%TO.P,U12,1*%
%TO.N,FIELD_LED_GS1*%
X74000000Y-72000000D03*
D11*
%TO.P,U12,2*%
%TO.N,FIELD_SLOW_GS1*%
X74000000Y-74540000D03*
%TO.P,U12,3*%
%TO.N,GND*%
X81620000Y-74540000D03*
%TO.P,U12,4*%
%TO.N,SLOW_GS1*%
X81620000Y-72000000D03*
%TD*%
D10*
%TO.P,U20,1*%
%TO.N,FIELD_LED_GS9*%
X74000000Y-120000000D03*
D11*
%TO.P,U20,2*%
%TO.N,FIELD_SLOW_GS9*%
X74000000Y-122540000D03*
%TO.P,U20,3*%
%TO.N,GND*%
X81620000Y-122540000D03*
%TO.P,U20,4*%
%TO.N,SLOW_GS9*%
X81620000Y-120000000D03*
%TD*%
D19*
%TO.P,U37,1*%
%TO.N,VCC_5V*%
X73900000Y-13000000D03*
D20*
%TO.P,U37,2*%
%TO.N,GND*%
X76440000Y-13000000D03*
%TO.P,U37,4*%
%TO.N,FIELD_GND*%
X81520000Y-13000000D03*
%TO.P,U37,6*%
%TO.N,FIELD_WET_V*%
X86600000Y-13000000D03*
%TD*%
D10*
%TO.P,U22,1*%
%TO.N,FIELD_LED_GP*%
X74000000Y-132000000D03*
D11*
%TO.P,U22,2*%
%TO.N,FIELD_SLOW_GP*%
X74000000Y-134540000D03*
%TO.P,U22,3*%
%TO.N,GND*%
X81620000Y-134540000D03*
%TO.P,U22,4*%
%TO.N,SLOW_GP*%
X81620000Y-132000000D03*
%TD*%
D10*
%TO.P,U24,1*%
%TO.N,FIELD_LED_BS*%
X74000000Y-144000000D03*
D11*
%TO.P,U24,2*%
%TO.N,FIELD_SLOW_BS*%
X74000000Y-146540000D03*
%TO.P,U24,3*%
%TO.N,GND*%
X81620000Y-146540000D03*
%TO.P,U24,4*%
%TO.N,SLOW_BS*%
X81620000Y-144000000D03*
%TD*%
D10*
%TO.P,U30,1*%
%TO.N,FIELD_LED_MAN_S*%
X74000000Y-180000000D03*
D11*
%TO.P,U30,2*%
%TO.N,FIELD_SLOW_MAN_S*%
X74000000Y-182540000D03*
%TO.P,U30,3*%
%TO.N,GND*%
X81620000Y-182540000D03*
%TO.P,U30,4*%
%TO.N,SLOW_MAN_S*%
X81620000Y-180000000D03*
%TD*%
D21*
%TO.P,J14,1*%
%TO.N,VCC_5V*%
X160000000Y-10000000D03*
D22*
%TO.P,J14,2*%
%TO.N,SAFE_TBSC_RETURN*%
X163500000Y-10000000D03*
%TO.P,J14,3*%
X167000000Y-10000000D03*
%TO.P,J14,4*%
%TO.N,SAFE_STOP_RETURN*%
X170500000Y-10000000D03*
%TD*%
D10*
%TO.P,U6,1*%
%TO.N,FIELD_LED_SC*%
X74000000Y-36000000D03*
D11*
%TO.P,U6,2*%
%TO.N,FIELD_FAST_SC*%
X74000000Y-38540000D03*
%TO.P,U6,3*%
%TO.N,GND*%
X81620000Y-38540000D03*
%TO.P,U6,4*%
%TO.N,FAST_SC*%
X81620000Y-36000000D03*
%TD*%
D10*
%TO.P,U13,1*%
%TO.N,FIELD_LED_GS2*%
X74000000Y-78000000D03*
D11*
%TO.P,U13,2*%
%TO.N,FIELD_SLOW_GS2*%
X74000000Y-80540000D03*
%TO.P,U13,3*%
%TO.N,GND*%
X81620000Y-80540000D03*
%TO.P,U13,4*%
%TO.N,SLOW_GS2*%
X81620000Y-78000000D03*
%TD*%
D10*
%TO.P,U9,1*%
%TO.N,FIELD_LED_TB*%
X74000000Y-54000000D03*
D11*
%TO.P,U9,2*%
%TO.N,FIELD_FAST_TB*%
X74000000Y-56540000D03*
%TO.P,U9,3*%
%TO.N,GND*%
X81620000Y-56540000D03*
%TO.P,U9,4*%
%TO.N,FAST_TB*%
X81620000Y-54000000D03*
%TD*%
D10*
%TO.P,U18,1*%
%TO.N,FIELD_LED_GS7*%
X74000000Y-108000000D03*
D11*
%TO.P,U18,2*%
%TO.N,FIELD_SLOW_GS7*%
X74000000Y-110540000D03*
%TO.P,U18,3*%
%TO.N,GND*%
X81620000Y-110540000D03*
%TO.P,U18,4*%
%TO.N,SLOW_GS7*%
X81620000Y-108000000D03*
%TD*%
D10*
%TO.P,U11,1*%
%TO.N,FIELD_LED_DIELL_R*%
X74000000Y-66000000D03*
D11*
%TO.P,U11,2*%
%TO.N,FIELD_FAST_DIELL_R*%
X74000000Y-68540000D03*
%TO.P,U11,3*%
%TO.N,GND*%
X81620000Y-68540000D03*
%TO.P,U11,4*%
%TO.N,FAST_DIELL_R*%
X81620000Y-66000000D03*
%TD*%
D12*
%TO.P,J10,1*%
%TO.N,OUT_M_B*%
X242000000Y-156000000D03*
D13*
%TO.P,J10,2*%
%TO.N,OUT_M_A*%
X242000000Y-161080000D03*
%TD*%
D10*
%TO.P,U32,1*%
%TO.N,FIELD_LED_MAN_SWSR*%
X74000000Y-192000000D03*
D11*
%TO.P,U32,2*%
%TO.N,FIELD_SLOW_MAN_SWSR*%
X74000000Y-194540000D03*
%TO.P,U32,3*%
%TO.N,GND*%
X81620000Y-194540000D03*
%TO.P,U32,4*%
%TO.N,SLOW_MAN_SWSR*%
X81620000Y-192000000D03*
%TD*%
D10*
%TO.P,U23,1*%
%TO.N,FIELD_LED_OS*%
X74000000Y-138000000D03*
D11*
%TO.P,U23,2*%
%TO.N,FIELD_SLOW_OS*%
X74000000Y-140540000D03*
%TO.P,U23,3*%
%TO.N,GND*%
X81620000Y-140540000D03*
%TO.P,U23,4*%
%TO.N,SLOW_OS*%
X81620000Y-138000000D03*
%TD*%
D17*
%TO.P,J3,1*%
%TO.N,FIELD_FAST_SA*%
X9000000Y-42000000D03*
D18*
%TO.P,J3,2*%
%TO.N,FIELD_FAST_SB*%
X9000000Y-38500000D03*
%TO.P,J3,3*%
%TO.N,FIELD_FAST_SC*%
X9000000Y-35000000D03*
%TO.P,J3,4*%
%TO.N,FIELD_FAST_TA1*%
X9000000Y-31500000D03*
%TO.P,J3,5*%
%TO.N,FIELD_FAST_TA2*%
X9000000Y-28000000D03*
%TO.P,J3,6*%
%TO.N,FIELD_FAST_TB*%
X9000000Y-24500000D03*
%TO.P,J3,7*%
%TO.N,FIELD_FAST_DIELL_L*%
X9000000Y-21000000D03*
%TO.P,J3,8*%
%TO.N,FIELD_FAST_DIELL_R*%
X9000000Y-17500000D03*
%TO.P,J3,9*%
%TO.N,FIELD_GND*%
X9000000Y-14000000D03*
%TO.P,J3,10*%
X9000000Y-10500000D03*
%TD*%
D10*
%TO.P,U15,1*%
%TO.N,FIELD_LED_GS4*%
X74000000Y-90000000D03*
D11*
%TO.P,U15,2*%
%TO.N,FIELD_SLOW_GS4*%
X74000000Y-92540000D03*
%TO.P,U15,3*%
%TO.N,GND*%
X81620000Y-92540000D03*
%TO.P,U15,4*%
%TO.N,SLOW_GS4*%
X81620000Y-90000000D03*
%TD*%
D12*
%TO.P,J7,1*%
%TO.N,OUT_T_B*%
X242000000Y-90000000D03*
D13*
%TO.P,J7,2*%
%TO.N,OUT_T_A*%
X242000000Y-95080000D03*
%TD*%
D14*
%TO.P,K7,1*%
%TO.N,OUT_M1_A*%
X176000000Y-204000000D03*
D15*
%TO.P,K7,2*%
%TO.N,RELAY_ENABLE_RAIL*%
X178000000Y-210000000D03*
%TO.P,K7,3*%
%TO.N,OUT_M1_B*%
X190200000Y-210000000D03*
%TO.P,K7,4*%
%TO.N,N/C*%
X190200000Y-198000000D03*
%TO.P,K7,5*%
%TO.N,COIL_LO_M1*%
X178000000Y-198000000D03*
%TD*%
D10*
%TO.P,U31,1*%
%TO.N,FIELD_LED_MAN_SWS*%
X74000000Y-186000000D03*
D11*
%TO.P,U31,2*%
%TO.N,FIELD_SLOW_MAN_SWS*%
X74000000Y-188540000D03*
%TO.P,U31,3*%
%TO.N,GND*%
X81620000Y-188540000D03*
%TO.P,U31,4*%
%TO.N,SLOW_MAN_SWS*%
X81620000Y-186000000D03*
%TD*%
D12*
%TO.P,J6,1*%
%TO.N,OUT_S_B*%
X242000000Y-68000000D03*
D13*
%TO.P,J6,2*%
%TO.N,OUT_S_A*%
X242000000Y-73080000D03*
%TD*%
D10*
%TO.P,U28,1*%
%TO.N,FIELD_LED_TENTH*%
X74000000Y-168000000D03*
D11*
%TO.P,U28,2*%
%TO.N,FIELD_SLOW_TENTH*%
X74000000Y-170540000D03*
%TO.P,U28,3*%
%TO.N,GND*%
X81620000Y-170540000D03*
%TO.P,U28,4*%
%TO.N,SLOW_TENTH*%
X81620000Y-168000000D03*
%TD*%
D12*
%TO.P,J12,1*%
%TO.N,OUT_M1_B*%
X242000000Y-200000000D03*
D13*
%TO.P,J12,2*%
%TO.N,OUT_M1_A*%
X242000000Y-205080000D03*
%TD*%
D10*
%TO.P,U21,1*%
%TO.N,FIELD_LED_GS10*%
X74000000Y-126000000D03*
D11*
%TO.P,U21,2*%
%TO.N,FIELD_SLOW_GS10*%
X74000000Y-128540000D03*
%TO.P,U21,3*%
%TO.N,GND*%
X81620000Y-128540000D03*
%TO.P,U21,4*%
%TO.N,SLOW_GS10*%
X81620000Y-126000000D03*
%TD*%
D14*
%TO.P,K3,1*%
%TO.N,OUT_SP_A*%
X176000000Y-116000000D03*
D15*
%TO.P,K3,2*%
%TO.N,RELAY_ENABLE_RAIL*%
X178000000Y-122000000D03*
%TO.P,K3,3*%
%TO.N,OUT_SP_B*%
X190200000Y-122000000D03*
%TO.P,K3,4*%
%TO.N,N/C*%
X190200000Y-110000000D03*
%TO.P,K3,5*%
%TO.N,COIL_LO_SP*%
X178000000Y-110000000D03*
%TD*%
D14*
%TO.P,K4,1*%
%TO.N,OUT_BE_A*%
X176000000Y-138000000D03*
D15*
%TO.P,K4,2*%
%TO.N,RELAY_ENABLE_RAIL*%
X178000000Y-144000000D03*
%TO.P,K4,3*%
%TO.N,OUT_BE_B*%
X190200000Y-144000000D03*
%TO.P,K4,4*%
%TO.N,N/C*%
X190200000Y-132000000D03*
%TO.P,K4,5*%
%TO.N,COIL_LO_BE*%
X178000000Y-132000000D03*
%TD*%
D10*
%TO.P,U25,1*%
%TO.N,FIELD_LED_PBZ*%
X74000000Y-150000000D03*
D11*
%TO.P,U25,2*%
%TO.N,FIELD_SLOW_PBZ*%
X74000000Y-152540000D03*
%TO.P,U25,3*%
%TO.N,GND*%
X81620000Y-152540000D03*
%TO.P,U25,4*%
%TO.N,SLOW_PBZ*%
X81620000Y-150000000D03*
%TD*%
D21*
%TO.P,J13,1*%
%TO.N,VCC_5V*%
X104000000Y-206000000D03*
D22*
%TO.P,J13,2*%
%TO.N,GND*%
X107500000Y-206000000D03*
%TO.P,J13,3*%
%TO.N,LED_L_FIRST_RETURN*%
X111000000Y-206000000D03*
%TO.P,J13,4*%
%TO.N,LED_L_SECOND_RETURN*%
X114500000Y-206000000D03*
%TO.P,J13,5*%
%TO.N,LED_L_STRIKE_RETURN*%
X118000000Y-206000000D03*
%TO.P,J13,6*%
%TO.N,LED_L_FOUL_RETURN*%
X121500000Y-206000000D03*
%TD*%
D10*
%TO.P,U8,1*%
%TO.N,FIELD_LED_TA2*%
X74000000Y-48000000D03*
D11*
%TO.P,U8,2*%
%TO.N,FIELD_FAST_TA2*%
X74000000Y-50540000D03*
%TO.P,U8,3*%
%TO.N,GND*%
X81620000Y-50540000D03*
%TO.P,U8,4*%
%TO.N,FAST_TA2*%
X81620000Y-48000000D03*
%TD*%
D10*
%TO.P,U17,1*%
%TO.N,FIELD_LED_GS6*%
X74000000Y-102000000D03*
D11*
%TO.P,U17,2*%
%TO.N,FIELD_SLOW_GS6*%
X74000000Y-104540000D03*
%TO.P,U17,3*%
%TO.N,GND*%
X81620000Y-104540000D03*
%TO.P,U17,4*%
%TO.N,SLOW_GS6*%
X81620000Y-102000000D03*
%TD*%
D10*
%TO.P,U16,1*%
%TO.N,FIELD_LED_GS5*%
X74000000Y-96000000D03*
D11*
%TO.P,U16,2*%
%TO.N,FIELD_SLOW_GS5*%
X74000000Y-98540000D03*
%TO.P,U16,3*%
%TO.N,GND*%
X81620000Y-98540000D03*
%TO.P,U16,4*%
%TO.N,SLOW_GS5*%
X81620000Y-96000000D03*
%TD*%
D23*
%TO.P,J1,1*%
%TO.N,VCC_5V*%
X126000000Y-10000000D03*
D24*
%TO.P,J1,2*%
%TO.N,GND*%
X126000000Y-7460000D03*
%TO.P,J1,3*%
%TO.N,I2C_SDA*%
X128540000Y-10000000D03*
%TO.P,J1,4*%
%TO.N,I2C_SCL*%
X128540000Y-7460000D03*
%TO.P,J1,5*%
%TO.N,PI_UART_TX*%
X131080000Y-10000000D03*
%TO.P,J1,6*%
%TO.N,PI_UART_RX*%
X131080000Y-7460000D03*
%TO.P,J1,7*%
%TO.N,WDOG_KICK*%
X133620000Y-10000000D03*
%TO.P,J1,8*%
%TO.N,ARM_PERMIT*%
X133620000Y-7460000D03*
%TO.P,J1,9*%
%TO.N,MCP_INT_A*%
X136160000Y-10000000D03*
%TO.P,J1,10*%
%TO.N,MCP_INT_B*%
X136160000Y-7460000D03*
%TO.P,J1,11*%
%TO.N,VCC_3V3*%
X138700000Y-10000000D03*
%TO.P,J1,12*%
%TO.N,GND*%
X138700000Y-7460000D03*
%TO.P,J1,13*%
%TO.N,RP2040_OK*%
X141240000Y-10000000D03*
%TO.P,J1,14*%
%TO.N,N/C*%
X141240000Y-7460000D03*
%TO.P,J1,15*%
X143780000Y-10000000D03*
%TO.P,J1,16*%
X143780000Y-7460000D03*
%TO.P,J1,17*%
X146320000Y-10000000D03*
%TO.P,J1,18*%
X146320000Y-7460000D03*
%TO.P,J1,19*%
X148860000Y-10000000D03*
%TO.P,J1,20*%
X148860000Y-7460000D03*
%TD*%
D25*
%TO.N,GND*%
X91000000Y-20000000D03*
D26*
%TO.N,DRV_M*%
X145500000Y-153912500D03*
X145500000Y-107555000D03*
D25*
%TO.N,VCC_3V3*%
X115350000Y-105905000D03*
X88600000Y-175800000D03*
X88600000Y-205800000D03*
X137050000Y-96000000D03*
X88600000Y-67800000D03*
X88600000Y-121800000D03*
X108000000Y-86912500D03*
X113050000Y-92000000D03*
X124650000Y-108445000D03*
X88600000Y-193800000D03*
X88600000Y-163800000D03*
X142650000Y-118985000D03*
X88600000Y-91800000D03*
X88600000Y-85800000D03*
X88600000Y-151800000D03*
X88600000Y-73800000D03*
X88600000Y-199800000D03*
X88600000Y-181800000D03*
X88600000Y-169800000D03*
X137050000Y-78000000D03*
X142650000Y-116445000D03*
X88600000Y-43800000D03*
X124650000Y-150445000D03*
X88600000Y-109800000D03*
X88600000Y-49800000D03*
X88600000Y-25800000D03*
X88600000Y-115800000D03*
X131690000Y-41030000D03*
X88600000Y-157800000D03*
X88600000Y-103800000D03*
X124650000Y-154255000D03*
X88600000Y-55800000D03*
X110050000Y-130000000D03*
X88600000Y-211800000D03*
X88600000Y-145800000D03*
X88600000Y-97800000D03*
X88600000Y-31800000D03*
X88600000Y-22000000D03*
X88600000Y-37800000D03*
X88600000Y-187800000D03*
X88600000Y-217500000D03*
X88600000Y-61800000D03*
X101000000Y-86912500D03*
X88600000Y-127800000D03*
X115350000Y-147905000D03*
X88600000Y-133800000D03*
X88600000Y-79800000D03*
X88600000Y-139800000D03*
X133350000Y-113905000D03*
D27*
%TO.N,OUT_S_B*%
X228000000Y-68850000D03*
X228000000Y-75600000D03*
D26*
%TO.N,DRV_T*%
X147000000Y-111365000D03*
X147000000Y-93912500D03*
D28*
%TO.N,FIELD_SLOW_GS3*%
X25000000Y-96000000D03*
X25000000Y-86540000D03*
D26*
%TO.N,SLOW_GS3*%
X101000000Y-82000000D03*
X124000000Y-102095000D03*
X101000000Y-85800000D03*
X124000000Y-82000000D03*
%TO.N,I2C_SDA*%
X99500000Y-85087500D03*
X137549999Y-120485000D03*
X119550000Y-110985000D03*
X113000000Y-152985000D03*
X126000000Y-216200000D03*
D28*
%TO.N,FIELD_WET_V*%
X55300000Y-130199998D03*
X55300000Y-82200000D03*
X55300000Y-94200000D03*
X55300000Y-34200000D03*
X55300000Y-76200000D03*
X55300000Y-160200000D03*
X55300000Y-112200000D03*
X55300000Y-52200000D03*
X55300000Y-58200000D03*
X55300000Y-178200000D03*
X55300000Y-196200000D03*
X55300000Y-217000000D03*
X55300000Y-124200000D03*
X55300000Y-172200000D03*
X55300000Y-208200000D03*
X55300000Y-118200000D03*
X55300000Y-88200000D03*
X55300000Y-64200000D03*
X55300000Y-100200000D03*
X55300000Y-142200000D03*
X55300000Y-166200000D03*
X55300000Y-154200000D03*
X55300000Y-202200000D03*
X55300000Y-70200000D03*
X55300000Y-28200000D03*
X55300000Y-136200000D03*
X55300000Y-46200000D03*
X55300000Y-40200000D03*
X55300000Y-22200000D03*
X55300000Y-190200000D03*
X55300000Y-184200000D03*
X55300000Y-106200000D03*
X55300000Y-148200000D03*
D27*
%TO.N,OUT_BE_B*%
X228000000Y-141600000D03*
X228000000Y-134850000D03*
%TO.N,OUT_BE_A*%
X216000000Y-145600000D03*
X216000000Y-134112499D03*
D28*
%TO.N,FIELD_SLOW_GS8*%
X31250000Y-78500000D03*
X31250000Y-116540000D03*
D26*
%TO.N,SLOW_GS8*%
X127000000Y-95745000D03*
X127000000Y-90000000D03*
X118000000Y-90000000D03*
X118000000Y-114800000D03*
%TO.N,NE555_TRIG*%
X147000000Y-49365000D03*
X142800000Y-77087500D03*
X104000000Y-218800000D03*
X162200000Y-35000000D03*
D25*
%TO.N,SAFE_STOP_RETURN*%
X153400000Y-83100000D03*
X152500000Y-218300000D03*
D26*
%TO.N,LED_L_FIRST_RETURN*%
X101087500Y-182000000D03*
%TO.N,LED_SINK_L_FIRST*%
X106912500Y-198000000D03*
X106912500Y-182000000D03*
D28*
%TO.N,FIELD_FAST_DIELL_L*%
X20000000Y-62540000D03*
X20000000Y-21000000D03*
D26*
%TO.N,FAST_DIELL_L*%
X104800000Y-61800000D03*
X112110000Y-68970000D03*
D28*
%TO.N,FIELD_SLOW_PBC*%
X40000000Y-164500000D03*
X40000000Y-158540000D03*
D26*
%TO.N,SLOW_PBC*%
X115149999Y-103365000D03*
X104200000Y-157800000D03*
%TO.N,WDOG_KICK_DRAIN*%
X149000000Y-35000000D03*
X144800000Y-58000000D03*
%TO.N,WDOG_TIMING_NODE*%
X154800000Y-50000000D03*
X90000000Y-219500000D03*
%TO.N,DRV_S*%
X144000000Y-71912500D03*
X144000000Y-112635000D03*
D28*
%TO.N,FIELD_GND*%
X5500000Y-211500000D03*
X5500000Y-8000000D03*
D26*
%TO.N,RP2040_OK*%
X170000000Y-90912500D03*
X116800000Y-38490000D03*
X148000000Y-223000000D03*
X149000000Y-38490000D03*
%TO.N,WDOG_OK_PULLDOWN*%
X128000000Y-219500000D03*
X163600000Y-58000000D03*
X162000000Y-96950000D03*
D27*
%TO.N,OUT_M2_B*%
X228000000Y-185600000D03*
X228000000Y-178850000D03*
%TO.N,OUT_M2_A*%
X216000000Y-189600000D03*
X216000000Y-178112499D03*
%TO.N,OUT_M_A*%
X216000000Y-167600000D03*
X216000000Y-156112499D03*
%TO.N,OUT_M_B*%
X228000000Y-163600000D03*
X228000000Y-156850000D03*
D28*
%TO.N,FIELD_SLOW_AUX3*%
X51250000Y-212540000D03*
X51250000Y-133000000D03*
D26*
%TO.N,SLOW_AUX3*%
X101000000Y-211800000D03*
X127500000Y-137745000D03*
D27*
%TO.N,OUT_T_B*%
X228000000Y-90850000D03*
X228000000Y-97600000D03*
D26*
%TO.N,FAST_TB*%
X106000000Y-55800000D03*
X112110000Y-66430000D03*
D28*
%TO.N,FIELD_FAST_SA*%
X12500000Y-42000000D03*
X12500000Y-26540000D03*
D26*
%TO.N,FAST_SA*%
X112110000Y-51190000D03*
X112000000Y-25800000D03*
%TO.N,DRV_M2*%
X149200000Y-106285000D03*
X149200000Y-175912500D03*
D27*
%TO.N,OUT_T_A*%
X216000000Y-90112500D03*
X216000000Y-101600000D03*
D25*
%TO.N,RELAY_ENABLE_RAIL*%
X160000000Y-78000000D03*
X160000000Y-221000000D03*
X160000000Y-188000000D03*
X160000000Y-166000000D03*
X160000000Y-100000000D03*
X160000000Y-82000000D03*
X160000000Y-144000000D03*
X160000000Y-210000000D03*
X160000000Y-122000000D03*
%TO.N,COIL_LO_M2*%
X166800000Y-177000000D03*
X166800000Y-188000000D03*
D26*
%TO.N,LED_SINK_L_SECOND*%
X118912500Y-198000000D03*
X118912500Y-182000000D03*
D27*
%TO.N,OUT_M1_A*%
X216000000Y-200112499D03*
X216000000Y-211600000D03*
D25*
%TO.N,VCC_5V_RAW*%
X105200000Y-24000000D03*
D27*
%TO.N,OUT_SP_A*%
X216000000Y-112112500D03*
X216000000Y-123600000D03*
%TO.N,OUT_SP_B*%
X228000000Y-119600000D03*
X228000000Y-112850000D03*
%TO.N,OUT_S_A*%
X216000000Y-79600000D03*
X216000000Y-68112500D03*
D25*
%TO.N,COIL_LO_S*%
X166800000Y-67000000D03*
X166800000Y-78000000D03*
D26*
%TO.N,WDOG_KICK*%
X149000000Y-211500000D03*
X141000000Y-47912500D03*
D28*
%TO.N,FIELD_SLOW_PBZ*%
X38750000Y-152540000D03*
X38750000Y-168000000D03*
%TO.N,FIELD_SLOW_FOUL*%
X41250000Y-164540000D03*
X41250000Y-161000000D03*
%TO.N,FIELD_SLOW_TENTH*%
X42500000Y-157500000D03*
X42500000Y-170540000D03*
%TO.N,FIELD_SLOW_MAN_T*%
X43750000Y-176540000D03*
X43750000Y-154000000D03*
%TO.N,FIELD_SLOW_MAN_S*%
X45000000Y-150500000D03*
X45000000Y-182540000D03*
%TO.N,FIELD_SLOW_MAN_SWS*%
X20000000Y-147000000D03*
X20000000Y-188540000D03*
%TO.N,FIELD_SLOW_MAN_SWSR*%
X47500000Y-194540000D03*
X47500000Y-143500000D03*
%TO.N,FIELD_SLOW_AUX1*%
X30000000Y-140000000D03*
X30000000Y-200540000D03*
%TO.N,FIELD_SLOW_AUX2*%
X50000000Y-136500000D03*
X50000000Y-206540000D03*
%TO.N,FIELD_FAST_SB*%
X13750000Y-38500000D03*
X13750000Y-32540000D03*
D26*
%TO.N,FAST_SB*%
X112110000Y-53730000D03*
X110800000Y-31800000D03*
D25*
%TO.N,VCC_5V*%
X150725000Y-51905000D03*
X151275000Y-48095000D03*
X153800000Y-67950000D03*
X135890000Y-33409999D03*
X151500000Y-2500000D03*
X96800000Y-24000000D03*
X148200000Y-40912500D03*
X147200000Y-78912500D03*
X90000000Y-214000000D03*
D26*
%TO.N,SLOW_FOUL*%
X115149999Y-104635000D03*
X105400000Y-163800000D03*
%TO.N,SLOW_MAN_T*%
X95800000Y-175800000D03*
X120000000Y-145365000D03*
X120000000Y-168800000D03*
X95800000Y-168800000D03*
%TO.N,SLOW_GS1*%
X106000000Y-75000000D03*
X119000000Y-75000000D03*
X119000000Y-104635000D03*
X106000000Y-72300000D03*
D25*
%TO.N,COIL_LO_SP*%
X166800000Y-122000000D03*
X166800000Y-111000000D03*
D26*
%TO.N,SLOW_AUX1*%
X99000000Y-199800000D03*
X126000000Y-140285000D03*
%TO.N,DRV_BE*%
X148200000Y-131912500D03*
X148200000Y-108825000D03*
D28*
%TO.N,FIELD_SLOW_GS1*%
X42000000Y-74540000D03*
X42000000Y-103000000D03*
%TO.N,FIELD_SLOW_GS2*%
X23750000Y-99500000D03*
X23750000Y-80540000D03*
%TO.N,FIELD_SLOW_GS5*%
X27500000Y-89000000D03*
X27500000Y-98540000D03*
%TO.N,FIELD_SLOW_GS6*%
X28750000Y-104540000D03*
X28750000Y-85500000D03*
%TO.N,FIELD_SLOW_GS7*%
X30000000Y-110540000D03*
X30000000Y-82000000D03*
%TO.N,FIELD_SLOW_GS9*%
X20000000Y-75000000D03*
X20000000Y-122540000D03*
%TO.N,FIELD_SLOW_GS10*%
X33750000Y-128539999D03*
X33750000Y-71500000D03*
%TO.N,FIELD_SLOW_GP*%
X18000000Y-68000000D03*
X18000000Y-134540000D03*
%TO.N,FIELD_SLOW_OS*%
X36250000Y-140540000D03*
X36250000Y-64500000D03*
%TO.N,FIELD_SLOW_BS*%
X53500000Y-61000000D03*
X53500000Y-146540000D03*
D26*
%TO.N,FAST_TA1*%
X112110000Y-58810000D03*
X108400000Y-43800000D03*
D25*
%TO.N,COIL_LO_M*%
X166800000Y-155000000D03*
X166800000Y-166000000D03*
D26*
%TO.N,SLOW_GS9*%
X115149999Y-95745000D03*
X97000000Y-121800000D03*
%TO.N,SLOW_GS10*%
X115149999Y-97015000D03*
X98200000Y-127800000D03*
%TO.N,SLOW_GP*%
X115149999Y-98285000D03*
X99400000Y-133800000D03*
%TO.N,SLOW_OS*%
X115149999Y-99555000D03*
X100600000Y-139800000D03*
%TO.N,SLOW_BS*%
X101800000Y-145800000D03*
X115149999Y-100825000D03*
%TO.N,SLOW_PBZ*%
X103000000Y-151800000D03*
X115149999Y-102095000D03*
%TO.N,I2C_SCL*%
X138000000Y-216500000D03*
X110800000Y-151715000D03*
X119550000Y-109715000D03*
X133150000Y-117715000D03*
X112200000Y-85087500D03*
%TO.N,MCP_INT_A*%
X130900000Y-17000000D03*
X130900000Y-105905000D03*
%TO.N,SLOW_GS2*%
X107000000Y-77000000D03*
X107000000Y-79800000D03*
X120000000Y-103365000D03*
X120000000Y-77000000D03*
%TO.N,SLOW_GS4*%
X128000000Y-100825000D03*
X109000000Y-90500000D03*
X128000000Y-80000000D03*
X109000000Y-80000000D03*
%TO.N,SLOW_GS5*%
X110000000Y-94500000D03*
X110000000Y-84000000D03*
X121000000Y-84000000D03*
X121000000Y-99555000D03*
%TO.N,SLOW_GS6*%
X125000000Y-98285000D03*
X111000000Y-86000000D03*
X125000000Y-86000000D03*
X111000000Y-106800000D03*
%TO.N,SLOW_GS7*%
X126000000Y-88000000D03*
X112000000Y-88000000D03*
X112000000Y-109800000D03*
X126000000Y-97015000D03*
%TO.N,FAST_TA2*%
X112110000Y-63890000D03*
X107200000Y-49800000D03*
D27*
%TO.N,OUT_M1_B*%
X228000000Y-207600000D03*
X228000000Y-200850000D03*
D26*
%TO.N,SLOW_AUX2*%
X100000000Y-205800000D03*
X127000000Y-139015000D03*
D28*
%TO.N,FIELD_FAST_TA1*%
X16250000Y-44540000D03*
X16250000Y-31500000D03*
D26*
%TO.N,SLOW_MAN_S*%
X121000000Y-144095000D03*
X96800000Y-170800000D03*
X121000000Y-170800000D03*
X96800000Y-181800000D03*
D25*
%TO.N,COIL_LO_T*%
X166800000Y-100000000D03*
X166800000Y-89000000D03*
D26*
%TO.N,PI_UART_RX*%
X116510000Y-30870000D03*
%TO.N,PI_UART_TX*%
X116510000Y-33409999D03*
X125000000Y-21000000D03*
%TO.N,FAST_SC*%
X109600000Y-37800000D03*
X112110000Y-56270000D03*
%TO.N,FAST_DIELL_R*%
X103600000Y-67800000D03*
X112110000Y-71510000D03*
D25*
%TO.N,COIL_LO_BE*%
X166800000Y-144000000D03*
X166800000Y-133000000D03*
D26*
%TO.N,WDOG_OK_GATE*%
X164800000Y-70912500D03*
X164800000Y-57050000D03*
X164800000Y-46087500D03*
D28*
%TO.N,FIELD_FAST_SC*%
X15000000Y-35000000D03*
X15000000Y-38540000D03*
D26*
%TO.N,LED_L_FOUL_RETURN*%
X137087500Y-182000000D03*
%TO.N,LED_SINK_L_FOUL*%
X142912500Y-198000000D03*
X142912500Y-182000000D03*
D28*
%TO.N,FIELD_FAST_TB*%
X18750000Y-24500000D03*
X18750000Y-56540000D03*
D26*
%TO.N,SLOW_TENTH*%
X94800000Y-169800000D03*
X119000000Y-146635000D03*
X94800000Y-166800000D03*
X119000000Y-166800000D03*
D28*
%TO.N,FIELD_FAST_DIELL_R*%
X42000000Y-68540000D03*
X42000000Y-17500000D03*
D26*
%TO.N,DRV_L_FIRST*%
X142700000Y-103745000D03*
X105500000Y-190912500D03*
X142700000Y-112000000D03*
X106200000Y-112000000D03*
%TO.N,SLOW_MAN_SWSR*%
X95000000Y-193800000D03*
X126000000Y-141555000D03*
X126000000Y-174800000D03*
X95000000Y-174800000D03*
%TO.N,DRV_M1*%
X150200000Y-197912500D03*
X150200000Y-105015000D03*
%TO.N,ARM_PERMIT*%
X139500000Y-218000000D03*
X132900000Y-90912500D03*
%TO.N,LED_SINK_L_STRIKE*%
X130912500Y-182000000D03*
X130912500Y-198000000D03*
%TO.N,SLOW_MAN_SWS*%
X97800000Y-172800000D03*
X122000000Y-172800000D03*
X97800000Y-187800000D03*
X122000000Y-142825000D03*
%TO.N,DRV_L_STRIKE*%
X134199999Y-121400000D03*
X134199999Y-105015000D03*
X126000000Y-190912500D03*
%TO.N,MCP_INT_B*%
X140300000Y-147905000D03*
X140000000Y-4000000D03*
%TO.N,DRV_L_FOUL*%
X136500000Y-121500000D03*
X136500000Y-106285000D03*
X138000000Y-190912500D03*
%TO.N,NE555_OUT*%
X163000000Y-47912500D03*
X156000000Y-53000000D03*
X146300000Y-50635000D03*
X116000000Y-220500000D03*
D28*
%TO.N,FIELD_FAST_TA2*%
X17500000Y-50540000D03*
X17500000Y-28000000D03*
D26*
%TO.N,LED_L_STRIKE_RETURN*%
X125087500Y-182000000D03*
D25*
%TO.N,COIL_LO_M1*%
X166800000Y-210000000D03*
X166800000Y-199000000D03*
D26*
%TO.N,DRV_L_SECOND*%
X128600000Y-115500000D03*
X130199999Y-103745000D03*
X128600000Y-122400000D03*
X114000000Y-190912500D03*
X130199999Y-115500000D03*
%TO.N,LED_L_SECOND_RETURN*%
X113087500Y-182000000D03*
%TD*%
%TO.N,GND*%
D29*
X109080000Y-20000000D02*
X84600000Y-20000000D01*
X81620000Y-212540000D02*
X84600000Y-212540000D01*
X109080000Y-10000000D02*
X109080000Y-20000000D01*
X81620000Y-188540000D02*
X84600000Y-188540000D01*
X84600000Y-20000000D02*
X84600000Y-26540000D01*
X81620000Y-152540000D02*
X84600000Y-152540000D01*
X81620000Y-194540000D02*
X84600000Y-194540000D01*
X81620000Y-56540000D02*
X84600000Y-56540000D01*
X81620000Y-50540000D02*
X84600000Y-50540000D01*
X81620000Y-38540000D02*
X84600000Y-38540000D01*
X81620000Y-128539999D02*
X84600000Y-128539999D01*
X81620000Y-86540000D02*
X84600000Y-86540000D01*
X84600000Y-26540000D02*
X84600000Y-212540000D01*
X81620000Y-140540000D02*
X84600000Y-140540000D01*
X81620000Y-98540000D02*
X84600000Y-98540000D01*
X81620000Y-182540000D02*
X84600000Y-182540000D01*
X81620000Y-110540000D02*
X84600000Y-110540000D01*
X81620000Y-158540000D02*
X84600000Y-158540000D01*
X81620000Y-26540000D02*
X84600000Y-26540000D01*
X81620000Y-116540000D02*
X84600000Y-116540000D01*
X81620000Y-74540000D02*
X84600000Y-74540000D01*
X81620000Y-176540000D02*
X84600000Y-176540000D01*
X81620000Y-62540000D02*
X84600000Y-62540000D01*
X81620000Y-32540000D02*
X84600000Y-32540000D01*
X81620000Y-134540000D02*
X84600000Y-134540000D01*
X81620000Y-44540000D02*
X84600000Y-44540000D01*
X81620000Y-200540000D02*
X84600000Y-200540000D01*
X81620000Y-68540000D02*
X84600000Y-68540000D01*
X81620000Y-206540000D02*
X84600000Y-206540000D01*
X81620000Y-164540000D02*
X84600000Y-164540000D01*
X81620000Y-80540000D02*
X84600000Y-80540000D01*
X81620000Y-170540000D02*
X84600000Y-170540000D01*
X81620000Y-92540000D02*
X84600000Y-92540000D01*
X81620000Y-104540000D02*
X84600000Y-104540000D01*
X81620000Y-146540000D02*
X84600000Y-146540000D01*
X81620000Y-122540000D02*
X84600000Y-122540000D01*
%TO.N,VCC_3V3*%
X142650000Y-116445000D02*
X88600000Y-116445000D01*
X88600000Y-211800000D02*
X88600000Y-217500000D01*
X108000000Y-86912500D02*
X88600000Y-86912500D01*
X133350000Y-113905000D02*
X88600000Y-113905000D01*
X124650000Y-108445000D02*
X88600000Y-108445000D01*
X131690000Y-41030000D02*
X88600000Y-41030000D01*
X113050000Y-92000000D02*
X88600000Y-92000000D01*
X142650000Y-118985000D02*
X88600000Y-118985000D01*
X124650000Y-154255000D02*
X88600000Y-154255000D01*
X115350000Y-147905000D02*
X88600000Y-147905000D01*
X88600000Y-22000000D02*
X88600000Y-25800000D01*
X115350000Y-105905000D02*
X88600000Y-105905000D01*
X137050000Y-78000000D02*
X88600000Y-78000000D01*
X88600000Y-25800000D02*
X88600000Y-211800000D01*
X124650000Y-150445000D02*
X88600000Y-150445000D01*
X110050000Y-130000000D02*
X88600000Y-130000000D01*
X137050000Y-93500000D02*
X88600000Y-93500000D01*
X101000000Y-86912500D02*
X88600000Y-86912500D01*
X137050000Y-96000000D02*
X137050000Y-93500000D01*
%TO.N,FIELD_SLOW_GS3*%
D30*
X25000000Y-96000000D02*
X25000000Y-86540000D01*
%TO.N,FIELD_WET_V*%
X86600000Y-13000000D02*
X86600000Y-9000000D01*
X55300000Y-9000000D02*
X55300000Y-217000000D01*
X86600000Y-9000000D02*
X55300000Y-9000000D01*
%TO.N,OUT_BE_A*%
D29*
X216000000Y-138654545D02*
X242000000Y-139080000D01*
X216000000Y-145600000D02*
X216000000Y-138654545D01*
X176000000Y-138000000D02*
X216000000Y-138654545D01*
X216000000Y-134112499D02*
X216000000Y-138654545D01*
%TO.N,FIELD_SLOW_GS8*%
D30*
X31250000Y-78500000D02*
X31250000Y-116540000D01*
%TO.N,LED_L_FIRST_RETURN*%
D31*
X111000000Y-201500000D02*
X111000000Y-206000000D01*
X101087500Y-201500000D02*
X111000000Y-201500000D01*
X101087500Y-182000000D02*
X101087500Y-201500000D01*
%TO.N,LED_SINK_L_FIRST*%
X106912500Y-182000000D02*
X106912500Y-198000000D01*
%TO.N,FIELD_FAST_DIELL_L*%
D30*
X20000000Y-21000000D02*
X20000000Y-62540000D01*
%TO.N,FIELD_SLOW_PBC*%
X40000000Y-164500000D02*
X40000000Y-158540000D01*
%TO.N,FIELD_GND*%
X5500000Y-8000000D02*
X5500000Y-10500000D01*
X9000000Y-57500000D02*
X5500000Y-57500000D01*
X5500000Y-10500000D02*
X5500000Y-211500000D01*
X9000000Y-14000000D02*
X5500000Y-14000000D01*
X9000000Y-129500000D02*
X5500000Y-129500000D01*
X9000000Y-10500000D02*
X5500000Y-10500000D01*
%TO.N,RP2040_OK*%
D31*
X116800000Y-38490000D02*
X149000000Y-38490000D01*
%TO.N,OUT_M2_A*%
D29*
X216000000Y-178112499D02*
X216000000Y-182654545D01*
X216000000Y-182654545D02*
X242000000Y-183080000D01*
X176000000Y-182000000D02*
X216000000Y-182654545D01*
X216000000Y-189600000D02*
X216000000Y-182654545D01*
%TO.N,OUT_M_A*%
X176000000Y-160000000D02*
X216000000Y-160654545D01*
X216000000Y-167600000D02*
X216000000Y-160654545D01*
X216000000Y-156112499D02*
X216000000Y-160654545D01*
X216000000Y-160654545D02*
X242000000Y-161080000D01*
%TO.N,FIELD_SLOW_AUX3*%
D30*
X51250000Y-133000000D02*
X51250000Y-212540000D01*
%TO.N,FIELD_FAST_SA*%
X12500000Y-42000000D02*
X12500000Y-26540000D01*
%TO.N,OUT_T_A*%
D29*
X216000000Y-90112500D02*
X216000000Y-94654545D01*
X176000000Y-94000000D02*
X216000000Y-94654545D01*
X216000000Y-101600000D02*
X216000000Y-94654545D01*
X216000000Y-94654545D02*
X242000000Y-95080000D01*
%TO.N,RELAY_ENABLE_RAIL*%
D32*
X160000000Y-125000000D02*
X178000000Y-125000000D01*
X178000000Y-169000000D02*
X178000000Y-166000000D01*
X160000000Y-213000000D02*
X178000000Y-213000000D01*
X178000000Y-125000000D02*
X178000000Y-122000000D01*
X160000000Y-78000000D02*
X160000000Y-81000000D01*
X160000000Y-122000000D02*
X160000000Y-125000000D01*
X160000000Y-166000000D02*
X160000000Y-169000000D01*
X178000000Y-103000000D02*
X178000000Y-100000000D01*
X160000000Y-100000000D02*
X160000000Y-103000000D01*
X178000000Y-147000000D02*
X178000000Y-144000000D01*
X160000000Y-191000000D02*
X178000000Y-191000000D01*
X160000000Y-78000000D02*
X160000000Y-221000000D01*
X160000000Y-169000000D02*
X178000000Y-169000000D01*
X178000000Y-191000000D02*
X178000000Y-188000000D01*
X160000000Y-144000000D02*
X160000000Y-147000000D01*
X178000000Y-213000000D02*
X178000000Y-210000000D01*
X178000000Y-81000000D02*
X178000000Y-78000000D01*
X160000000Y-188000000D02*
X160000000Y-191000000D01*
X160000000Y-147000000D02*
X178000000Y-147000000D01*
X160000000Y-81000000D02*
X178000000Y-81000000D01*
X160000000Y-103000000D02*
X178000000Y-103000000D01*
X160000000Y-210000000D02*
X160000000Y-213000000D01*
%TO.N,LED_SINK_L_SECOND*%
D31*
X118912500Y-182000000D02*
X118912500Y-198000000D01*
%TO.N,OUT_M1_A*%
D29*
X216000000Y-211600000D02*
X216000000Y-204654545D01*
X176000000Y-204000000D02*
X216000000Y-204654545D01*
X216000000Y-204654545D02*
X242000000Y-205080000D01*
X216000000Y-200112499D02*
X216000000Y-204654545D01*
%TO.N,OUT_SP_A*%
X216000000Y-116654545D02*
X242000000Y-117080000D01*
X216000000Y-123600000D02*
X216000000Y-116654545D01*
X216000000Y-112112500D02*
X216000000Y-116654545D01*
X176000000Y-116000000D02*
X216000000Y-116654545D01*
%TO.N,OUT_S_A*%
X216000000Y-72654545D02*
X242000000Y-73080000D01*
X216000000Y-68112500D02*
X216000000Y-72654545D01*
X216000000Y-79600000D02*
X216000000Y-72654545D01*
X176000000Y-72000000D02*
X216000000Y-72654545D01*
%TO.N,FIELD_SLOW_PBZ*%
D30*
X38750000Y-168000000D02*
X38750000Y-152540000D01*
%TO.N,FIELD_SLOW_FOUL*%
X41250000Y-161000000D02*
X41250000Y-164540000D01*
%TO.N,FIELD_SLOW_TENTH*%
X42500000Y-157500000D02*
X42500000Y-170540000D01*
%TO.N,FIELD_SLOW_MAN_T*%
X43750000Y-154000000D02*
X43750000Y-176540000D01*
%TO.N,FIELD_SLOW_MAN_S*%
X45000000Y-150500000D02*
X45000000Y-182540000D01*
%TO.N,FIELD_SLOW_MAN_SWS*%
X20000000Y-147000000D02*
X20000000Y-188540000D01*
%TO.N,FIELD_SLOW_MAN_SWSR*%
X47500000Y-143500000D02*
X47500000Y-194540000D01*
%TO.N,FIELD_SLOW_AUX1*%
X30000000Y-140000000D02*
X30000000Y-200540000D01*
%TO.N,FIELD_SLOW_AUX2*%
X50000000Y-136500000D02*
X50000000Y-206540000D01*
%TO.N,FIELD_FAST_SB*%
X13750000Y-38500000D02*
X13750000Y-32540000D01*
%TO.N,VCC_5V*%
D29*
X96800000Y-27400000D02*
X151500000Y-27400000D01*
X126000000Y-15000000D02*
X151500000Y-15000000D01*
X151275000Y-48095000D02*
X151500000Y-48095000D01*
X150725000Y-51905000D02*
X151500000Y-51905000D01*
X135890000Y-33409999D02*
X151500000Y-33409999D01*
X126000000Y-10000000D02*
X126000000Y-15000000D01*
X96800000Y-24000000D02*
X96800000Y-27400000D01*
X160000000Y-15000000D02*
X151500000Y-15000000D01*
X160000000Y-10000000D02*
X160000000Y-15000000D01*
X151500000Y-2500000D02*
X151500000Y-214000000D01*
X153800000Y-67950000D02*
X151500000Y-67950000D01*
X148200000Y-40912500D02*
X151500000Y-40912500D01*
X147200000Y-78912500D02*
X151500000Y-78912500D01*
X104000000Y-206000000D02*
X104000000Y-209000000D01*
X90000000Y-214000000D02*
X151500000Y-214000000D01*
X104000000Y-209000000D02*
X151500000Y-209000000D01*
%TO.N,FIELD_SLOW_GS1*%
D30*
X42000000Y-103000000D02*
X42000000Y-74540000D01*
%TO.N,FIELD_SLOW_GS2*%
X23750000Y-99500000D02*
X23750000Y-80540000D01*
%TO.N,FIELD_SLOW_GS5*%
X27500000Y-89000000D02*
X27500000Y-98540000D01*
%TO.N,FIELD_SLOW_GS6*%
X28750000Y-85500000D02*
X28750000Y-104540000D01*
%TO.N,FIELD_SLOW_GS7*%
X30000000Y-82000000D02*
X30000000Y-110540000D01*
%TO.N,FIELD_SLOW_GS9*%
X20000000Y-75000000D02*
X20000000Y-122540000D01*
%TO.N,FIELD_SLOW_GS10*%
X33750000Y-71500000D02*
X33750000Y-128539999D01*
%TO.N,FIELD_SLOW_GP*%
X18000000Y-68000000D02*
X18000000Y-134540000D01*
%TO.N,FIELD_SLOW_OS*%
X36250000Y-64500000D02*
X36250000Y-140540000D01*
%TO.N,FIELD_SLOW_BS*%
X53500000Y-61000000D02*
X53500000Y-146540000D01*
%TO.N,FIELD_FAST_TA1*%
X16250000Y-31500000D02*
X16250000Y-44540000D01*
%TO.N,FIELD_FAST_SC*%
X15000000Y-35000000D02*
X15000000Y-38540000D01*
%TO.N,LED_L_FOUL_RETURN*%
D31*
X137087500Y-182000000D02*
X137087500Y-203750000D01*
X137087500Y-203750000D02*
X121500000Y-203750000D01*
X121500000Y-203750000D02*
X121500000Y-206000000D01*
%TO.N,LED_SINK_L_FOUL*%
X142912500Y-182000000D02*
X142912500Y-198000000D01*
%TO.N,FIELD_FAST_TB*%
D30*
X18750000Y-24500000D02*
X18750000Y-56540000D01*
%TO.N,FIELD_FAST_DIELL_R*%
X42000000Y-17500000D02*
X42000000Y-68540000D01*
%TO.N,DRV_L_FIRST*%
D31*
X142700000Y-112000000D02*
X106200000Y-112000000D01*
%TO.N,LED_SINK_L_STRIKE*%
X130912500Y-182000000D02*
X130912500Y-198000000D01*
%TO.N,DRV_L_STRIKE*%
X134199999Y-179500000D02*
X126000000Y-179500000D01*
X134199999Y-121400000D02*
X134199999Y-179500000D01*
X126000000Y-179500000D02*
X126000000Y-190912500D01*
%TO.N,DRV_L_FOUL*%
X136500000Y-121500000D02*
X136500000Y-180600000D01*
X136500000Y-180600000D02*
X138000000Y-180600000D01*
X138000000Y-180600000D02*
X138000000Y-190912500D01*
%TO.N,NE555_OUT*%
X156000000Y-53000000D02*
X156000000Y-220500000D01*
X156000000Y-220500000D02*
X116000000Y-220500000D01*
%TO.N,FIELD_FAST_TA2*%
D30*
X17500000Y-28000000D02*
X17500000Y-50540000D01*
%TO.N,LED_L_STRIKE_RETURN*%
D31*
X118000000Y-203000000D02*
X118000000Y-206000000D01*
X125087500Y-182000000D02*
X125087500Y-203000000D01*
X125087500Y-203000000D02*
X118000000Y-203000000D01*
%TO.N,DRV_L_SECOND*%
X114000000Y-178400000D02*
X114000000Y-190912500D01*
X128600000Y-122400000D02*
X128600000Y-178400000D01*
X128600000Y-178400000D02*
X114000000Y-178400000D01*
%TO.N,LED_L_SECOND_RETURN*%
X113087500Y-202250000D02*
X114500000Y-202250000D01*
X114500000Y-202250000D02*
X114500000Y-206000000D01*
X113087500Y-182000000D02*
X113087500Y-202250000D01*
%TD*%
M02*
