%TF.GenerationSoftware,KiCad,Pcbnew,10.0.2*%
%TF.CreationDate,2026-06-26T17:31:50-07:00*%
%TF.ProjectId,wsl-phase8b.routed-manual,77736c2d-7068-4617-9365-38622e726f75,rev?*%
%TF.SameCoordinates,Original*%
%TF.FileFunction,Legend,Top*%
%TF.FilePolarity,Positive*%
%FSLAX46Y46*%
G04 Gerber Fmt 4.6, Leading zero omitted, Abs format (unit mm)*
G04 Created by KiCad (PCBNEW 10.0.2) date 2026-06-26 17:31:50*
%MOMM*%
%LPD*%
G01*
G04 APERTURE LIST*
G04 Aperture macros list*
%AMRoundRect*
0 Rectangle with rounded corners*
0 $1 Rounding radius*
0 $2 $3 $4 $5 $6 $7 $8 $9 X,Y pos of 4 corners*
0 Add a 4 corners polygon primitive as box body*
4,1,4,$2,$3,$4,$5,$6,$7,$8,$9,$2,$3,0*
0 Add four circle primitives for the rounded corners*
1,1,$1+$1,$2,$3*
1,1,$1+$1,$4,$5*
1,1,$1+$1,$6,$7*
1,1,$1+$1,$8,$9*
0 Add four rect primitives between the rounded corners*
20,1,$1+$1,$2,$3,$4,$5,0*
20,1,$1+$1,$4,$5,$6,$7,0*
20,1,$1+$1,$6,$7,$8,$9,0*
20,1,$1+$1,$8,$9,$2,$3,0*%
%AMFreePoly0*
4,1,37,0.800000,0.796148,0.878414,0.796148,1.032228,0.765552,1.177117,0.705537,1.307515,0.618408,1.418408,0.507515,1.505537,0.377117,1.565552,0.232228,1.596148,0.078414,1.596148,-0.078414,1.565552,-0.232228,1.505537,-0.377117,1.418408,-0.507515,1.307515,-0.618408,1.177117,-0.705537,1.032228,-0.765552,0.878414,-0.796148,0.800000,-0.796148,0.800000,-0.800000,-1.400000,-0.800000,
-1.403843,-0.796157,-1.439018,-0.796157,-1.511114,-0.766294,-1.566294,-0.711114,-1.596157,-0.639018,-1.596157,-0.603843,-1.600000,-0.600000,-1.600000,0.600000,-1.596157,0.603843,-1.596157,0.639018,-1.566294,0.711114,-1.511114,0.766294,-1.439018,0.796157,-1.403843,0.796157,-1.400000,0.800000,0.800000,0.800000,0.800000,0.796148,0.800000,0.796148,$1*%
%AMFreePoly1*
4,1,37,1.403843,0.796157,1.439018,0.796157,1.511114,0.766294,1.566294,0.711114,1.596157,0.639018,1.596157,0.603843,1.600000,0.600000,1.600000,-0.600000,1.596157,-0.603843,1.596157,-0.639018,1.566294,-0.711114,1.511114,-0.766294,1.439018,-0.796157,1.403843,-0.796157,1.400000,-0.800000,-0.800000,-0.800000,-0.800000,-0.796148,-0.878414,-0.796148,-1.032228,-0.765552,-1.177117,-0.705537,
-1.307515,-0.618408,-1.418408,-0.507515,-1.505537,-0.377117,-1.565552,-0.232228,-1.596148,-0.078414,-1.596148,0.078414,-1.565552,0.232228,-1.505537,0.377117,-1.418408,0.507515,-1.307515,0.618408,-1.177117,0.705537,-1.032228,0.765552,-0.878414,0.796148,-0.800000,0.796148,-0.800000,0.800000,1.400000,0.800000,1.403843,0.796157,1.403843,0.796157,$1*%
%AMFreePoly2*
4,1,37,1.600000,0.796148,1.678414,0.796148,1.832228,0.765552,1.977117,0.705537,2.107515,0.618408,2.218408,0.507515,2.305537,0.377117,2.365552,0.232228,2.396148,0.078414,2.396148,-0.078414,2.365552,-0.232228,2.305537,-0.377117,2.218408,-0.507515,2.107515,-0.618408,1.977117,-0.705537,1.832228,-0.765552,1.678414,-0.796148,1.600000,-0.796148,1.600000,-0.800000,-0.600000,-0.800000,
-0.603843,-0.796157,-0.639018,-0.796157,-0.711114,-0.766294,-0.766294,-0.711114,-0.796157,-0.639018,-0.796157,-0.603843,-0.800000,-0.600000,-0.800000,0.600000,-0.796157,0.603843,-0.796157,0.639018,-0.766294,0.711114,-0.711114,0.766294,-0.639018,0.796157,-0.603843,0.796157,-0.600000,0.800000,1.600000,0.800000,1.600000,0.796148,1.600000,0.796148,$1*%
G04 Aperture macros list end*
%ADD10C,0.150000*%
%ADD11C,0.120000*%
%ADD12RoundRect,0.250000X0.450000X-0.262500X0.450000X0.262500X-0.450000X0.262500X-0.450000X-0.262500X0*%
%ADD13RoundRect,0.250000X-0.250000X-0.475000X0.250000X-0.475000X0.250000X0.475000X-0.250000X0.475000X0*%
%ADD14RoundRect,0.250000X0.475000X-0.250000X0.475000X0.250000X-0.475000X0.250000X-0.475000X-0.250000X0*%
%ADD15RoundRect,0.250000X-0.550000X-0.550000X0.550000X-0.550000X0.550000X0.550000X-0.550000X0.550000X0*%
%ADD16C,1.600000*%
%ADD17RoundRect,0.250000X-0.262500X-0.450000X0.262500X-0.450000X0.262500X0.450000X-0.262500X0.450000X0*%
%ADD18RoundRect,0.250000X-1.050000X1.050000X-1.050000X-1.050000X1.050000X-1.050000X1.050000X1.050000X0*%
%ADD19C,2.600000*%
%ADD20R,1.500000X1.500000*%
%ADD21RoundRect,0.112500X-0.187500X-0.112500X0.187500X-0.112500X0.187500X0.112500X-0.187500X0.112500X0*%
%ADD22RoundRect,0.150000X-0.587500X-0.150000X0.587500X-0.150000X0.587500X0.150000X-0.587500X0.150000X0*%
%ADD23RoundRect,0.250000X0.650000X-1.000000X0.650000X1.000000X-0.650000X1.000000X-0.650000X-1.000000X0*%
%ADD24R,2.500000X2.500000*%
%ADD25O,2.500000X2.500000*%
%ADD26RoundRect,0.250000X-1.050000X-1.050000X1.050000X-1.050000X1.050000X1.050000X-1.050000X1.050000X0*%
%ADD27RoundRect,0.250000X1.550000X-0.650000X1.550000X0.650000X-1.550000X0.650000X-1.550000X-0.650000X0*%
%ADD28O,3.600000X1.800000*%
%ADD29C,3.200000*%
%ADD30RoundRect,0.250000X-1.000000X-0.650000X1.000000X-0.650000X1.000000X0.650000X-1.000000X0.650000X0*%
%ADD31RoundRect,0.150000X-0.875000X-0.150000X0.875000X-0.150000X0.875000X0.150000X-0.875000X0.150000X0*%
%ADD32O,1.100000X1.800000*%
%ADD33O,1.050000X1.450000*%
%ADD34FreePoly0,0.000000*%
%ADD35RoundRect,0.800000X-0.800000X-0.000010X0.800000X-0.000010X0.800000X0.000010X-0.800000X0.000010X0*%
%ADD36FreePoly1,0.000000*%
%ADD37RoundRect,0.800000X0.000010X-0.800000X0.000010X0.800000X-0.000010X0.800000X-0.000010X-0.800000X0*%
%ADD38FreePoly2,270.000000*%
%ADD39RoundRect,0.300000X-0.450000X-0.450000X0.450000X-0.450000X0.450000X0.450000X-0.450000X0.450000X0*%
%ADD40RoundRect,0.250000X0.550000X-1.500000X0.550000X1.500000X-0.550000X1.500000X-0.550000X-1.500000X0*%
%ADD41RoundRect,0.250001X0.499999X-0.499999X0.499999X0.499999X-0.499999X0.499999X-0.499999X-0.499999X0*%
%ADD42C,1.500000*%
%ADD43RoundRect,0.250000X-0.650000X-1.550000X0.650000X-1.550000X0.650000X1.550000X-0.650000X1.550000X0*%
%ADD44O,1.800000X3.600000*%
%ADD45RoundRect,0.150000X-0.825000X-0.150000X0.825000X-0.150000X0.825000X0.150000X-0.825000X0.150000X0*%
%ADD46RoundRect,0.250000X0.600000X-0.600000X0.600000X0.600000X-0.600000X0.600000X-0.600000X-0.600000X0*%
%ADD47C,1.700000*%
G04 APERTURE END LIST*
D10*
X24419047Y-27943247D02*
X24152381Y-27943247D01*
X24152381Y-28362295D02*
X24152381Y-27562295D01*
X24152381Y-27562295D02*
X24533333Y-27562295D01*
X24838095Y-28362295D02*
X24838095Y-27562295D01*
X25219047Y-27943247D02*
X25485713Y-27943247D01*
X25599999Y-28362295D02*
X25219047Y-28362295D01*
X25219047Y-28362295D02*
X25219047Y-27562295D01*
X25219047Y-27562295D02*
X25599999Y-27562295D01*
X26323809Y-28362295D02*
X25942857Y-28362295D01*
X25942857Y-28362295D02*
X25942857Y-27562295D01*
X26590476Y-28362295D02*
X26590476Y-27562295D01*
X26590476Y-27562295D02*
X26780952Y-27562295D01*
X26780952Y-27562295D02*
X26895238Y-27600390D01*
X26895238Y-27600390D02*
X26971428Y-27676580D01*
X26971428Y-27676580D02*
X27009523Y-27752771D01*
X27009523Y-27752771D02*
X27047619Y-27905152D01*
X27047619Y-27905152D02*
X27047619Y-28019438D01*
X27047619Y-28019438D02*
X27009523Y-28171819D01*
X27009523Y-28171819D02*
X26971428Y-28248009D01*
X26971428Y-28248009D02*
X26895238Y-28324200D01*
X26895238Y-28324200D02*
X26780952Y-28362295D01*
X26780952Y-28362295D02*
X26590476Y-28362295D01*
X28000000Y-28362295D02*
X28000000Y-27562295D01*
X28380952Y-28362295D02*
X28380952Y-27562295D01*
X28380952Y-27562295D02*
X28838095Y-28362295D01*
X28838095Y-28362295D02*
X28838095Y-27562295D01*
X29219047Y-28362295D02*
X29219047Y-27562295D01*
X29219047Y-27562295D02*
X29523809Y-27562295D01*
X29523809Y-27562295D02*
X29599999Y-27600390D01*
X29599999Y-27600390D02*
X29638094Y-27638485D01*
X29638094Y-27638485D02*
X29676190Y-27714676D01*
X29676190Y-27714676D02*
X29676190Y-27828961D01*
X29676190Y-27828961D02*
X29638094Y-27905152D01*
X29638094Y-27905152D02*
X29599999Y-27943247D01*
X29599999Y-27943247D02*
X29523809Y-27981342D01*
X29523809Y-27981342D02*
X29219047Y-27981342D01*
X30019047Y-27562295D02*
X30019047Y-28209914D01*
X30019047Y-28209914D02*
X30057142Y-28286104D01*
X30057142Y-28286104D02*
X30095237Y-28324200D01*
X30095237Y-28324200D02*
X30171428Y-28362295D01*
X30171428Y-28362295D02*
X30323809Y-28362295D01*
X30323809Y-28362295D02*
X30399999Y-28324200D01*
X30399999Y-28324200D02*
X30438094Y-28286104D01*
X30438094Y-28286104D02*
X30476190Y-28209914D01*
X30476190Y-28209914D02*
X30476190Y-27562295D01*
X30742856Y-27562295D02*
X31199999Y-27562295D01*
X30971427Y-28362295D02*
X30971427Y-27562295D01*
X31428570Y-28324200D02*
X31542856Y-28362295D01*
X31542856Y-28362295D02*
X31733332Y-28362295D01*
X31733332Y-28362295D02*
X31809523Y-28324200D01*
X31809523Y-28324200D02*
X31847618Y-28286104D01*
X31847618Y-28286104D02*
X31885713Y-28209914D01*
X31885713Y-28209914D02*
X31885713Y-28133723D01*
X31885713Y-28133723D02*
X31847618Y-28057533D01*
X31847618Y-28057533D02*
X31809523Y-28019438D01*
X31809523Y-28019438D02*
X31733332Y-27981342D01*
X31733332Y-27981342D02*
X31580951Y-27943247D01*
X31580951Y-27943247D02*
X31504761Y-27905152D01*
X31504761Y-27905152D02*
X31466666Y-27867057D01*
X31466666Y-27867057D02*
X31428570Y-27790866D01*
X31428570Y-27790866D02*
X31428570Y-27714676D01*
X31428570Y-27714676D02*
X31466666Y-27638485D01*
X31466666Y-27638485D02*
X31504761Y-27600390D01*
X31504761Y-27600390D02*
X31580951Y-27562295D01*
X31580951Y-27562295D02*
X31771428Y-27562295D01*
X31771428Y-27562295D02*
X31885713Y-27600390D01*
X85790476Y-18562295D02*
X85790476Y-19133723D01*
X85790476Y-19133723D02*
X85752381Y-19248009D01*
X85752381Y-19248009D02*
X85676190Y-19324200D01*
X85676190Y-19324200D02*
X85561905Y-19362295D01*
X85561905Y-19362295D02*
X85485714Y-19362295D01*
X86133333Y-18638485D02*
X86171429Y-18600390D01*
X86171429Y-18600390D02*
X86247619Y-18562295D01*
X86247619Y-18562295D02*
X86438095Y-18562295D01*
X86438095Y-18562295D02*
X86514286Y-18600390D01*
X86514286Y-18600390D02*
X86552381Y-18638485D01*
X86552381Y-18638485D02*
X86590476Y-18714676D01*
X86590476Y-18714676D02*
X86590476Y-18790866D01*
X86590476Y-18790866D02*
X86552381Y-18905152D01*
X86552381Y-18905152D02*
X86095238Y-19362295D01*
X86095238Y-19362295D02*
X86590476Y-19362295D01*
X87923810Y-18562295D02*
X87542858Y-18562295D01*
X87542858Y-18562295D02*
X87504762Y-18943247D01*
X87504762Y-18943247D02*
X87542858Y-18905152D01*
X87542858Y-18905152D02*
X87619048Y-18867057D01*
X87619048Y-18867057D02*
X87809524Y-18867057D01*
X87809524Y-18867057D02*
X87885715Y-18905152D01*
X87885715Y-18905152D02*
X87923810Y-18943247D01*
X87923810Y-18943247D02*
X87961905Y-19019438D01*
X87961905Y-19019438D02*
X87961905Y-19209914D01*
X87961905Y-19209914D02*
X87923810Y-19286104D01*
X87923810Y-19286104D02*
X87885715Y-19324200D01*
X87885715Y-19324200D02*
X87809524Y-19362295D01*
X87809524Y-19362295D02*
X87619048Y-19362295D01*
X87619048Y-19362295D02*
X87542858Y-19324200D01*
X87542858Y-19324200D02*
X87504762Y-19286104D01*
X88190477Y-18562295D02*
X88457144Y-19362295D01*
X88457144Y-19362295D02*
X88723810Y-18562295D01*
X89600001Y-19362295D02*
X89600001Y-18562295D01*
X89980953Y-19362295D02*
X89980953Y-18562295D01*
X89980953Y-18562295D02*
X90438096Y-19362295D01*
X90438096Y-19362295D02*
X90438096Y-18562295D01*
X118838095Y-18562295D02*
X118838095Y-19133723D01*
X118838095Y-19133723D02*
X118800000Y-19248009D01*
X118800000Y-19248009D02*
X118723809Y-19324200D01*
X118723809Y-19324200D02*
X118609524Y-19362295D01*
X118609524Y-19362295D02*
X118533333Y-19362295D01*
X119638095Y-19362295D02*
X119180952Y-19362295D01*
X119409524Y-19362295D02*
X119409524Y-18562295D01*
X119409524Y-18562295D02*
X119333333Y-18676580D01*
X119333333Y-18676580D02*
X119257143Y-18752771D01*
X119257143Y-18752771D02*
X119180952Y-18790866D01*
X120590477Y-19362295D02*
X120590477Y-18562295D01*
X120590477Y-18562295D02*
X120895239Y-18562295D01*
X120895239Y-18562295D02*
X120971429Y-18600390D01*
X120971429Y-18600390D02*
X121009524Y-18638485D01*
X121009524Y-18638485D02*
X121047620Y-18714676D01*
X121047620Y-18714676D02*
X121047620Y-18828961D01*
X121047620Y-18828961D02*
X121009524Y-18905152D01*
X121009524Y-18905152D02*
X120971429Y-18943247D01*
X120971429Y-18943247D02*
X120895239Y-18981342D01*
X120895239Y-18981342D02*
X120590477Y-18981342D01*
X121390477Y-19362295D02*
X121390477Y-18562295D01*
X119733333Y-24362295D02*
X119352381Y-24362295D01*
X119352381Y-24362295D02*
X119352381Y-23562295D01*
X120152381Y-23562295D02*
X120304762Y-23562295D01*
X120304762Y-23562295D02*
X120380952Y-23600390D01*
X120380952Y-23600390D02*
X120457143Y-23676580D01*
X120457143Y-23676580D02*
X120495238Y-23828961D01*
X120495238Y-23828961D02*
X120495238Y-24095628D01*
X120495238Y-24095628D02*
X120457143Y-24248009D01*
X120457143Y-24248009D02*
X120380952Y-24324200D01*
X120380952Y-24324200D02*
X120304762Y-24362295D01*
X120304762Y-24362295D02*
X120152381Y-24362295D01*
X120152381Y-24362295D02*
X120076190Y-24324200D01*
X120076190Y-24324200D02*
X120000000Y-24248009D01*
X120000000Y-24248009D02*
X119961904Y-24095628D01*
X119961904Y-24095628D02*
X119961904Y-23828961D01*
X119961904Y-23828961D02*
X120000000Y-23676580D01*
X120000000Y-23676580D02*
X120076190Y-23600390D01*
X120076190Y-23600390D02*
X120152381Y-23562295D01*
X121257142Y-23600390D02*
X121180952Y-23562295D01*
X121180952Y-23562295D02*
X121066666Y-23562295D01*
X121066666Y-23562295D02*
X120952380Y-23600390D01*
X120952380Y-23600390D02*
X120876190Y-23676580D01*
X120876190Y-23676580D02*
X120838095Y-23752771D01*
X120838095Y-23752771D02*
X120799999Y-23905152D01*
X120799999Y-23905152D02*
X120799999Y-24019438D01*
X120799999Y-24019438D02*
X120838095Y-24171819D01*
X120838095Y-24171819D02*
X120876190Y-24248009D01*
X120876190Y-24248009D02*
X120952380Y-24324200D01*
X120952380Y-24324200D02*
X121066666Y-24362295D01*
X121066666Y-24362295D02*
X121142857Y-24362295D01*
X121142857Y-24362295D02*
X121257142Y-24324200D01*
X121257142Y-24324200D02*
X121295238Y-24286104D01*
X121295238Y-24286104D02*
X121295238Y-24019438D01*
X121295238Y-24019438D02*
X121142857Y-24019438D01*
X121638095Y-24362295D02*
X121638095Y-23562295D01*
X122476190Y-24286104D02*
X122438094Y-24324200D01*
X122438094Y-24324200D02*
X122323809Y-24362295D01*
X122323809Y-24362295D02*
X122247618Y-24362295D01*
X122247618Y-24362295D02*
X122133332Y-24324200D01*
X122133332Y-24324200D02*
X122057142Y-24248009D01*
X122057142Y-24248009D02*
X122019047Y-24171819D01*
X122019047Y-24171819D02*
X121980951Y-24019438D01*
X121980951Y-24019438D02*
X121980951Y-23905152D01*
X121980951Y-23905152D02*
X122019047Y-23752771D01*
X122019047Y-23752771D02*
X122057142Y-23676580D01*
X122057142Y-23676580D02*
X122133332Y-23600390D01*
X122133332Y-23600390D02*
X122247618Y-23562295D01*
X122247618Y-23562295D02*
X122323809Y-23562295D01*
X122323809Y-23562295D02*
X122438094Y-23600390D01*
X122438094Y-23600390D02*
X122476190Y-23638485D01*
X123999999Y-23524200D02*
X123314285Y-24552771D01*
X124838094Y-24324200D02*
X124952380Y-24362295D01*
X124952380Y-24362295D02*
X125142856Y-24362295D01*
X125142856Y-24362295D02*
X125219047Y-24324200D01*
X125219047Y-24324200D02*
X125257142Y-24286104D01*
X125257142Y-24286104D02*
X125295237Y-24209914D01*
X125295237Y-24209914D02*
X125295237Y-24133723D01*
X125295237Y-24133723D02*
X125257142Y-24057533D01*
X125257142Y-24057533D02*
X125219047Y-24019438D01*
X125219047Y-24019438D02*
X125142856Y-23981342D01*
X125142856Y-23981342D02*
X124990475Y-23943247D01*
X124990475Y-23943247D02*
X124914285Y-23905152D01*
X124914285Y-23905152D02*
X124876190Y-23867057D01*
X124876190Y-23867057D02*
X124838094Y-23790866D01*
X124838094Y-23790866D02*
X124838094Y-23714676D01*
X124838094Y-23714676D02*
X124876190Y-23638485D01*
X124876190Y-23638485D02*
X124914285Y-23600390D01*
X124914285Y-23600390D02*
X124990475Y-23562295D01*
X124990475Y-23562295D02*
X125180952Y-23562295D01*
X125180952Y-23562295D02*
X125295237Y-23600390D01*
X125599999Y-24133723D02*
X125980952Y-24133723D01*
X125523809Y-24362295D02*
X125790476Y-23562295D01*
X125790476Y-23562295D02*
X126057142Y-24362295D01*
X126590475Y-23943247D02*
X126323809Y-23943247D01*
X126323809Y-24362295D02*
X126323809Y-23562295D01*
X126323809Y-23562295D02*
X126704761Y-23562295D01*
X127009523Y-23943247D02*
X127276189Y-23943247D01*
X127390475Y-24362295D02*
X127009523Y-24362295D01*
X127009523Y-24362295D02*
X127009523Y-23562295D01*
X127009523Y-23562295D02*
X127390475Y-23562295D01*
X127619047Y-23562295D02*
X128076190Y-23562295D01*
X127847618Y-24362295D02*
X127847618Y-23562295D01*
X128495238Y-23981342D02*
X128495238Y-24362295D01*
X128228571Y-23562295D02*
X128495238Y-23981342D01*
X128495238Y-23981342D02*
X128761904Y-23562295D01*
X119752380Y-192562295D02*
X119752380Y-193133723D01*
X119752380Y-193133723D02*
X119714285Y-193248009D01*
X119714285Y-193248009D02*
X119638094Y-193324200D01*
X119638094Y-193324200D02*
X119523809Y-193362295D01*
X119523809Y-193362295D02*
X119447618Y-193362295D01*
X120552380Y-193362295D02*
X120095237Y-193362295D01*
X120323809Y-193362295D02*
X120323809Y-192562295D01*
X120323809Y-192562295D02*
X120247618Y-192676580D01*
X120247618Y-192676580D02*
X120171428Y-192752771D01*
X120171428Y-192752771D02*
X120095237Y-192790866D01*
X120819047Y-192562295D02*
X121314285Y-192562295D01*
X121314285Y-192562295D02*
X121047619Y-192867057D01*
X121047619Y-192867057D02*
X121161904Y-192867057D01*
X121161904Y-192867057D02*
X121238095Y-192905152D01*
X121238095Y-192905152D02*
X121276190Y-192943247D01*
X121276190Y-192943247D02*
X121314285Y-193019438D01*
X121314285Y-193019438D02*
X121314285Y-193209914D01*
X121314285Y-193209914D02*
X121276190Y-193286104D01*
X121276190Y-193286104D02*
X121238095Y-193324200D01*
X121238095Y-193324200D02*
X121161904Y-193362295D01*
X121161904Y-193362295D02*
X120933333Y-193362295D01*
X120933333Y-193362295D02*
X120857142Y-193324200D01*
X120857142Y-193324200D02*
X120819047Y-193286104D01*
X122647619Y-193362295D02*
X122266667Y-193362295D01*
X122266667Y-193362295D02*
X122266667Y-192562295D01*
X122914286Y-192943247D02*
X123180952Y-192943247D01*
X123295238Y-193362295D02*
X122914286Y-193362295D01*
X122914286Y-193362295D02*
X122914286Y-192562295D01*
X122914286Y-192562295D02*
X123295238Y-192562295D01*
X123638096Y-193362295D02*
X123638096Y-192562295D01*
X123638096Y-192562295D02*
X123828572Y-192562295D01*
X123828572Y-192562295D02*
X123942858Y-192600390D01*
X123942858Y-192600390D02*
X124019048Y-192676580D01*
X124019048Y-192676580D02*
X124057143Y-192752771D01*
X124057143Y-192752771D02*
X124095239Y-192905152D01*
X124095239Y-192905152D02*
X124095239Y-193019438D01*
X124095239Y-193019438D02*
X124057143Y-193171819D01*
X124057143Y-193171819D02*
X124019048Y-193248009D01*
X124019048Y-193248009D02*
X123942858Y-193324200D01*
X123942858Y-193324200D02*
X123828572Y-193362295D01*
X123828572Y-193362295D02*
X123638096Y-193362295D01*
X125428572Y-193362295D02*
X125047620Y-193362295D01*
X125047620Y-193362295D02*
X125047620Y-192562295D01*
X125657143Y-193133723D02*
X126038096Y-193133723D01*
X125580953Y-193362295D02*
X125847620Y-192562295D01*
X125847620Y-192562295D02*
X126114286Y-193362295D01*
X126380953Y-193362295D02*
X126380953Y-192562295D01*
X126380953Y-192562295D02*
X126647619Y-193133723D01*
X126647619Y-193133723D02*
X126914286Y-192562295D01*
X126914286Y-192562295D02*
X126914286Y-193362295D01*
X127295239Y-193362295D02*
X127295239Y-192562295D01*
X127295239Y-192562295D02*
X127600001Y-192562295D01*
X127600001Y-192562295D02*
X127676191Y-192600390D01*
X127676191Y-192600390D02*
X127714286Y-192638485D01*
X127714286Y-192638485D02*
X127752382Y-192714676D01*
X127752382Y-192714676D02*
X127752382Y-192828961D01*
X127752382Y-192828961D02*
X127714286Y-192905152D01*
X127714286Y-192905152D02*
X127676191Y-192943247D01*
X127676191Y-192943247D02*
X127600001Y-192981342D01*
X127600001Y-192981342D02*
X127295239Y-192981342D01*
X128057143Y-193324200D02*
X128171429Y-193362295D01*
X128171429Y-193362295D02*
X128361905Y-193362295D01*
X128361905Y-193362295D02*
X128438096Y-193324200D01*
X128438096Y-193324200D02*
X128476191Y-193286104D01*
X128476191Y-193286104D02*
X128514286Y-193209914D01*
X128514286Y-193209914D02*
X128514286Y-193133723D01*
X128514286Y-193133723D02*
X128476191Y-193057533D01*
X128476191Y-193057533D02*
X128438096Y-193019438D01*
X128438096Y-193019438D02*
X128361905Y-192981342D01*
X128361905Y-192981342D02*
X128209524Y-192943247D01*
X128209524Y-192943247D02*
X128133334Y-192905152D01*
X128133334Y-192905152D02*
X128095239Y-192867057D01*
X128095239Y-192867057D02*
X128057143Y-192790866D01*
X128057143Y-192790866D02*
X128057143Y-192714676D01*
X128057143Y-192714676D02*
X128095239Y-192638485D01*
X128095239Y-192638485D02*
X128133334Y-192600390D01*
X128133334Y-192600390D02*
X128209524Y-192562295D01*
X128209524Y-192562295D02*
X128400001Y-192562295D01*
X128400001Y-192562295D02*
X128514286Y-192600390D01*
X143604761Y-18562295D02*
X143604761Y-19133723D01*
X143604761Y-19133723D02*
X143566666Y-19248009D01*
X143566666Y-19248009D02*
X143490475Y-19324200D01*
X143490475Y-19324200D02*
X143376190Y-19362295D01*
X143376190Y-19362295D02*
X143299999Y-19362295D01*
X144404761Y-19362295D02*
X143947618Y-19362295D01*
X144176190Y-19362295D02*
X144176190Y-18562295D01*
X144176190Y-18562295D02*
X144099999Y-18676580D01*
X144099999Y-18676580D02*
X144023809Y-18752771D01*
X144023809Y-18752771D02*
X143947618Y-18790866D01*
X145090476Y-18828961D02*
X145090476Y-19362295D01*
X144900000Y-18524200D02*
X144709523Y-19095628D01*
X144709523Y-19095628D02*
X145204762Y-19095628D01*
X146080952Y-19324200D02*
X146195238Y-19362295D01*
X146195238Y-19362295D02*
X146385714Y-19362295D01*
X146385714Y-19362295D02*
X146461905Y-19324200D01*
X146461905Y-19324200D02*
X146500000Y-19286104D01*
X146500000Y-19286104D02*
X146538095Y-19209914D01*
X146538095Y-19209914D02*
X146538095Y-19133723D01*
X146538095Y-19133723D02*
X146500000Y-19057533D01*
X146500000Y-19057533D02*
X146461905Y-19019438D01*
X146461905Y-19019438D02*
X146385714Y-18981342D01*
X146385714Y-18981342D02*
X146233333Y-18943247D01*
X146233333Y-18943247D02*
X146157143Y-18905152D01*
X146157143Y-18905152D02*
X146119048Y-18867057D01*
X146119048Y-18867057D02*
X146080952Y-18790866D01*
X146080952Y-18790866D02*
X146080952Y-18714676D01*
X146080952Y-18714676D02*
X146119048Y-18638485D01*
X146119048Y-18638485D02*
X146157143Y-18600390D01*
X146157143Y-18600390D02*
X146233333Y-18562295D01*
X146233333Y-18562295D02*
X146423810Y-18562295D01*
X146423810Y-18562295D02*
X146538095Y-18600390D01*
X146842857Y-19133723D02*
X147223810Y-19133723D01*
X146766667Y-19362295D02*
X147033334Y-18562295D01*
X147033334Y-18562295D02*
X147300000Y-19362295D01*
X147833333Y-18943247D02*
X147566667Y-18943247D01*
X147566667Y-19362295D02*
X147566667Y-18562295D01*
X147566667Y-18562295D02*
X147947619Y-18562295D01*
X148252381Y-18943247D02*
X148519047Y-18943247D01*
X148633333Y-19362295D02*
X148252381Y-19362295D01*
X148252381Y-19362295D02*
X148252381Y-18562295D01*
X148252381Y-18562295D02*
X148633333Y-18562295D01*
X148861905Y-18562295D02*
X149319048Y-18562295D01*
X149090476Y-19362295D02*
X149090476Y-18562295D01*
X149738096Y-18981342D02*
X149738096Y-19362295D01*
X149471429Y-18562295D02*
X149738096Y-18981342D01*
X149738096Y-18981342D02*
X150004762Y-18562295D01*
X151261905Y-19362295D02*
X150880953Y-19362295D01*
X150880953Y-19362295D02*
X150880953Y-18562295D01*
X151680953Y-18562295D02*
X151833334Y-18562295D01*
X151833334Y-18562295D02*
X151909524Y-18600390D01*
X151909524Y-18600390D02*
X151985715Y-18676580D01*
X151985715Y-18676580D02*
X152023810Y-18828961D01*
X152023810Y-18828961D02*
X152023810Y-19095628D01*
X152023810Y-19095628D02*
X151985715Y-19248009D01*
X151985715Y-19248009D02*
X151909524Y-19324200D01*
X151909524Y-19324200D02*
X151833334Y-19362295D01*
X151833334Y-19362295D02*
X151680953Y-19362295D01*
X151680953Y-19362295D02*
X151604762Y-19324200D01*
X151604762Y-19324200D02*
X151528572Y-19248009D01*
X151528572Y-19248009D02*
X151490476Y-19095628D01*
X151490476Y-19095628D02*
X151490476Y-18828961D01*
X151490476Y-18828961D02*
X151528572Y-18676580D01*
X151528572Y-18676580D02*
X151604762Y-18600390D01*
X151604762Y-18600390D02*
X151680953Y-18562295D01*
X152519048Y-18562295D02*
X152671429Y-18562295D01*
X152671429Y-18562295D02*
X152747619Y-18600390D01*
X152747619Y-18600390D02*
X152823810Y-18676580D01*
X152823810Y-18676580D02*
X152861905Y-18828961D01*
X152861905Y-18828961D02*
X152861905Y-19095628D01*
X152861905Y-19095628D02*
X152823810Y-19248009D01*
X152823810Y-19248009D02*
X152747619Y-19324200D01*
X152747619Y-19324200D02*
X152671429Y-19362295D01*
X152671429Y-19362295D02*
X152519048Y-19362295D01*
X152519048Y-19362295D02*
X152442857Y-19324200D01*
X152442857Y-19324200D02*
X152366667Y-19248009D01*
X152366667Y-19248009D02*
X152328571Y-19095628D01*
X152328571Y-19095628D02*
X152328571Y-18828961D01*
X152328571Y-18828961D02*
X152366667Y-18676580D01*
X152366667Y-18676580D02*
X152442857Y-18600390D01*
X152442857Y-18600390D02*
X152519048Y-18562295D01*
X153204762Y-19362295D02*
X153204762Y-18562295D01*
X153204762Y-18562295D02*
X153509524Y-18562295D01*
X153509524Y-18562295D02*
X153585714Y-18600390D01*
X153585714Y-18600390D02*
X153623809Y-18638485D01*
X153623809Y-18638485D02*
X153661905Y-18714676D01*
X153661905Y-18714676D02*
X153661905Y-18828961D01*
X153661905Y-18828961D02*
X153623809Y-18905152D01*
X153623809Y-18905152D02*
X153585714Y-18943247D01*
X153585714Y-18943247D02*
X153509524Y-18981342D01*
X153509524Y-18981342D02*
X153204762Y-18981342D01*
X182323810Y-28362295D02*
X182323810Y-27562295D01*
X182323810Y-27562295D02*
X182590476Y-28133723D01*
X182590476Y-28133723D02*
X182857143Y-27562295D01*
X182857143Y-27562295D02*
X182857143Y-28362295D01*
X183200000Y-28133723D02*
X183580953Y-28133723D01*
X183123810Y-28362295D02*
X183390477Y-27562295D01*
X183390477Y-27562295D02*
X183657143Y-28362295D01*
X184380953Y-28286104D02*
X184342857Y-28324200D01*
X184342857Y-28324200D02*
X184228572Y-28362295D01*
X184228572Y-28362295D02*
X184152381Y-28362295D01*
X184152381Y-28362295D02*
X184038095Y-28324200D01*
X184038095Y-28324200D02*
X183961905Y-28248009D01*
X183961905Y-28248009D02*
X183923810Y-28171819D01*
X183923810Y-28171819D02*
X183885714Y-28019438D01*
X183885714Y-28019438D02*
X183885714Y-27905152D01*
X183885714Y-27905152D02*
X183923810Y-27752771D01*
X183923810Y-27752771D02*
X183961905Y-27676580D01*
X183961905Y-27676580D02*
X184038095Y-27600390D01*
X184038095Y-27600390D02*
X184152381Y-27562295D01*
X184152381Y-27562295D02*
X184228572Y-27562295D01*
X184228572Y-27562295D02*
X184342857Y-27600390D01*
X184342857Y-27600390D02*
X184380953Y-27638485D01*
X184723810Y-28362295D02*
X184723810Y-27562295D01*
X184723810Y-27943247D02*
X185180953Y-27943247D01*
X185180953Y-28362295D02*
X185180953Y-27562295D01*
X185561905Y-28362295D02*
X185561905Y-27562295D01*
X185942857Y-28362295D02*
X185942857Y-27562295D01*
X185942857Y-27562295D02*
X186400000Y-28362295D01*
X186400000Y-28362295D02*
X186400000Y-27562295D01*
X186780952Y-27943247D02*
X187047618Y-27943247D01*
X187161904Y-28362295D02*
X186780952Y-28362295D01*
X186780952Y-28362295D02*
X186780952Y-27562295D01*
X186780952Y-27562295D02*
X187161904Y-27562295D01*
X188571429Y-28286104D02*
X188533333Y-28324200D01*
X188533333Y-28324200D02*
X188419048Y-28362295D01*
X188419048Y-28362295D02*
X188342857Y-28362295D01*
X188342857Y-28362295D02*
X188228571Y-28324200D01*
X188228571Y-28324200D02*
X188152381Y-28248009D01*
X188152381Y-28248009D02*
X188114286Y-28171819D01*
X188114286Y-28171819D02*
X188076190Y-28019438D01*
X188076190Y-28019438D02*
X188076190Y-27905152D01*
X188076190Y-27905152D02*
X188114286Y-27752771D01*
X188114286Y-27752771D02*
X188152381Y-27676580D01*
X188152381Y-27676580D02*
X188228571Y-27600390D01*
X188228571Y-27600390D02*
X188342857Y-27562295D01*
X188342857Y-27562295D02*
X188419048Y-27562295D01*
X188419048Y-27562295D02*
X188533333Y-27600390D01*
X188533333Y-27600390D02*
X188571429Y-27638485D01*
X189066667Y-27562295D02*
X189219048Y-27562295D01*
X189219048Y-27562295D02*
X189295238Y-27600390D01*
X189295238Y-27600390D02*
X189371429Y-27676580D01*
X189371429Y-27676580D02*
X189409524Y-27828961D01*
X189409524Y-27828961D02*
X189409524Y-28095628D01*
X189409524Y-28095628D02*
X189371429Y-28248009D01*
X189371429Y-28248009D02*
X189295238Y-28324200D01*
X189295238Y-28324200D02*
X189219048Y-28362295D01*
X189219048Y-28362295D02*
X189066667Y-28362295D01*
X189066667Y-28362295D02*
X188990476Y-28324200D01*
X188990476Y-28324200D02*
X188914286Y-28248009D01*
X188914286Y-28248009D02*
X188876190Y-28095628D01*
X188876190Y-28095628D02*
X188876190Y-27828961D01*
X188876190Y-27828961D02*
X188914286Y-27676580D01*
X188914286Y-27676580D02*
X188990476Y-27600390D01*
X188990476Y-27600390D02*
X189066667Y-27562295D01*
X189752381Y-28362295D02*
X189752381Y-27562295D01*
X189752381Y-27562295D02*
X190209524Y-28362295D01*
X190209524Y-28362295D02*
X190209524Y-27562295D01*
X190476190Y-27562295D02*
X190933333Y-27562295D01*
X190704761Y-28362295D02*
X190704761Y-27562295D01*
X191161904Y-28133723D02*
X191542857Y-28133723D01*
X191085714Y-28362295D02*
X191352381Y-27562295D01*
X191352381Y-27562295D02*
X191619047Y-28362295D01*
X192342857Y-28286104D02*
X192304761Y-28324200D01*
X192304761Y-28324200D02*
X192190476Y-28362295D01*
X192190476Y-28362295D02*
X192114285Y-28362295D01*
X192114285Y-28362295D02*
X191999999Y-28324200D01*
X191999999Y-28324200D02*
X191923809Y-28248009D01*
X191923809Y-28248009D02*
X191885714Y-28171819D01*
X191885714Y-28171819D02*
X191847618Y-28019438D01*
X191847618Y-28019438D02*
X191847618Y-27905152D01*
X191847618Y-27905152D02*
X191885714Y-27752771D01*
X191885714Y-27752771D02*
X191923809Y-27676580D01*
X191923809Y-27676580D02*
X191999999Y-27600390D01*
X191999999Y-27600390D02*
X192114285Y-27562295D01*
X192114285Y-27562295D02*
X192190476Y-27562295D01*
X192190476Y-27562295D02*
X192304761Y-27600390D01*
X192304761Y-27600390D02*
X192342857Y-27638485D01*
X192571428Y-27562295D02*
X193028571Y-27562295D01*
X192799999Y-28362295D02*
X192799999Y-27562295D01*
X193257142Y-28324200D02*
X193371428Y-28362295D01*
X193371428Y-28362295D02*
X193561904Y-28362295D01*
X193561904Y-28362295D02*
X193638095Y-28324200D01*
X193638095Y-28324200D02*
X193676190Y-28286104D01*
X193676190Y-28286104D02*
X193714285Y-28209914D01*
X193714285Y-28209914D02*
X193714285Y-28133723D01*
X193714285Y-28133723D02*
X193676190Y-28057533D01*
X193676190Y-28057533D02*
X193638095Y-28019438D01*
X193638095Y-28019438D02*
X193561904Y-27981342D01*
X193561904Y-27981342D02*
X193409523Y-27943247D01*
X193409523Y-27943247D02*
X193333333Y-27905152D01*
X193333333Y-27905152D02*
X193295238Y-27867057D01*
X193295238Y-27867057D02*
X193257142Y-27790866D01*
X193257142Y-27790866D02*
X193257142Y-27714676D01*
X193257142Y-27714676D02*
X193295238Y-27638485D01*
X193295238Y-27638485D02*
X193333333Y-27600390D01*
X193333333Y-27600390D02*
X193409523Y-27562295D01*
X193409523Y-27562295D02*
X193600000Y-27562295D01*
X193600000Y-27562295D02*
X193714285Y-27600390D01*
X197276189Y-45228961D02*
X197276189Y-45762295D01*
X197085713Y-44924200D02*
X196895236Y-45495628D01*
X196895236Y-45495628D02*
X197390475Y-45495628D01*
X198076189Y-45762295D02*
X197695237Y-45762295D01*
X197695237Y-45762295D02*
X197695237Y-44962295D01*
X198914284Y-45038485D02*
X198952380Y-45000390D01*
X198952380Y-45000390D02*
X199028570Y-44962295D01*
X199028570Y-44962295D02*
X199219046Y-44962295D01*
X199219046Y-44962295D02*
X199295237Y-45000390D01*
X199295237Y-45000390D02*
X199333332Y-45038485D01*
X199333332Y-45038485D02*
X199371427Y-45114676D01*
X199371427Y-45114676D02*
X199371427Y-45190866D01*
X199371427Y-45190866D02*
X199333332Y-45305152D01*
X199333332Y-45305152D02*
X198876189Y-45762295D01*
X198876189Y-45762295D02*
X199371427Y-45762295D01*
X200095237Y-44962295D02*
X199714285Y-44962295D01*
X199714285Y-44962295D02*
X199676189Y-45343247D01*
X199676189Y-45343247D02*
X199714285Y-45305152D01*
X199714285Y-45305152D02*
X199790475Y-45267057D01*
X199790475Y-45267057D02*
X199980951Y-45267057D01*
X199980951Y-45267057D02*
X200057142Y-45305152D01*
X200057142Y-45305152D02*
X200095237Y-45343247D01*
X200095237Y-45343247D02*
X200133332Y-45419438D01*
X200133332Y-45419438D02*
X200133332Y-45609914D01*
X200133332Y-45609914D02*
X200095237Y-45686104D01*
X200095237Y-45686104D02*
X200057142Y-45724200D01*
X200057142Y-45724200D02*
X199980951Y-45762295D01*
X199980951Y-45762295D02*
X199790475Y-45762295D01*
X199790475Y-45762295D02*
X199714285Y-45724200D01*
X199714285Y-45724200D02*
X199676189Y-45686104D01*
X200628571Y-44962295D02*
X200704761Y-44962295D01*
X200704761Y-44962295D02*
X200780952Y-45000390D01*
X200780952Y-45000390D02*
X200819047Y-45038485D01*
X200819047Y-45038485D02*
X200857142Y-45114676D01*
X200857142Y-45114676D02*
X200895237Y-45267057D01*
X200895237Y-45267057D02*
X200895237Y-45457533D01*
X200895237Y-45457533D02*
X200857142Y-45609914D01*
X200857142Y-45609914D02*
X200819047Y-45686104D01*
X200819047Y-45686104D02*
X200780952Y-45724200D01*
X200780952Y-45724200D02*
X200704761Y-45762295D01*
X200704761Y-45762295D02*
X200628571Y-45762295D01*
X200628571Y-45762295D02*
X200552380Y-45724200D01*
X200552380Y-45724200D02*
X200514285Y-45686104D01*
X200514285Y-45686104D02*
X200476190Y-45609914D01*
X200476190Y-45609914D02*
X200438094Y-45457533D01*
X200438094Y-45457533D02*
X200438094Y-45267057D01*
X200438094Y-45267057D02*
X200476190Y-45114676D01*
X200476190Y-45114676D02*
X200514285Y-45038485D01*
X200514285Y-45038485D02*
X200552380Y-45000390D01*
X200552380Y-45000390D02*
X200628571Y-44962295D01*
X201161904Y-45762295D02*
X201580952Y-45228961D01*
X201161904Y-45228961D02*
X201580952Y-45762295D01*
X201847618Y-45038485D02*
X201885714Y-45000390D01*
X201885714Y-45000390D02*
X201961904Y-44962295D01*
X201961904Y-44962295D02*
X202152380Y-44962295D01*
X202152380Y-44962295D02*
X202228571Y-45000390D01*
X202228571Y-45000390D02*
X202266666Y-45038485D01*
X202266666Y-45038485D02*
X202304761Y-45114676D01*
X202304761Y-45114676D02*
X202304761Y-45190866D01*
X202304761Y-45190866D02*
X202266666Y-45305152D01*
X202266666Y-45305152D02*
X201809523Y-45762295D01*
X201809523Y-45762295D02*
X202304761Y-45762295D01*
X202609523Y-45038485D02*
X202647619Y-45000390D01*
X202647619Y-45000390D02*
X202723809Y-44962295D01*
X202723809Y-44962295D02*
X202914285Y-44962295D01*
X202914285Y-44962295D02*
X202990476Y-45000390D01*
X202990476Y-45000390D02*
X203028571Y-45038485D01*
X203028571Y-45038485D02*
X203066666Y-45114676D01*
X203066666Y-45114676D02*
X203066666Y-45190866D01*
X203066666Y-45190866D02*
X203028571Y-45305152D01*
X203028571Y-45305152D02*
X202571428Y-45762295D01*
X202571428Y-45762295D02*
X203066666Y-45762295D01*
X203790476Y-44962295D02*
X203409524Y-44962295D01*
X203409524Y-44962295D02*
X203371428Y-45343247D01*
X203371428Y-45343247D02*
X203409524Y-45305152D01*
X203409524Y-45305152D02*
X203485714Y-45267057D01*
X203485714Y-45267057D02*
X203676190Y-45267057D01*
X203676190Y-45267057D02*
X203752381Y-45305152D01*
X203752381Y-45305152D02*
X203790476Y-45343247D01*
X203790476Y-45343247D02*
X203828571Y-45419438D01*
X203828571Y-45419438D02*
X203828571Y-45609914D01*
X203828571Y-45609914D02*
X203790476Y-45686104D01*
X203790476Y-45686104D02*
X203752381Y-45724200D01*
X203752381Y-45724200D02*
X203676190Y-45762295D01*
X203676190Y-45762295D02*
X203485714Y-45762295D01*
X203485714Y-45762295D02*
X203409524Y-45724200D01*
X203409524Y-45724200D02*
X203371428Y-45686104D01*
X205390477Y-45762295D02*
X205390477Y-44962295D01*
X205771429Y-45762295D02*
X205771429Y-44962295D01*
X205771429Y-44962295D02*
X206228572Y-45762295D01*
X206228572Y-45762295D02*
X206228572Y-44962295D01*
X206609524Y-45762295D02*
X206609524Y-44962295D01*
X206609524Y-44962295D02*
X206914286Y-44962295D01*
X206914286Y-44962295D02*
X206990476Y-45000390D01*
X206990476Y-45000390D02*
X207028571Y-45038485D01*
X207028571Y-45038485D02*
X207066667Y-45114676D01*
X207066667Y-45114676D02*
X207066667Y-45228961D01*
X207066667Y-45228961D02*
X207028571Y-45305152D01*
X207028571Y-45305152D02*
X206990476Y-45343247D01*
X206990476Y-45343247D02*
X206914286Y-45381342D01*
X206914286Y-45381342D02*
X206609524Y-45381342D01*
X207409524Y-44962295D02*
X207409524Y-45609914D01*
X207409524Y-45609914D02*
X207447619Y-45686104D01*
X207447619Y-45686104D02*
X207485714Y-45724200D01*
X207485714Y-45724200D02*
X207561905Y-45762295D01*
X207561905Y-45762295D02*
X207714286Y-45762295D01*
X207714286Y-45762295D02*
X207790476Y-45724200D01*
X207790476Y-45724200D02*
X207828571Y-45686104D01*
X207828571Y-45686104D02*
X207866667Y-45609914D01*
X207866667Y-45609914D02*
X207866667Y-44962295D01*
X208133333Y-44962295D02*
X208590476Y-44962295D01*
X208361904Y-45762295D02*
X208361904Y-44962295D01*
X208819047Y-45724200D02*
X208933333Y-45762295D01*
X208933333Y-45762295D02*
X209123809Y-45762295D01*
X209123809Y-45762295D02*
X209200000Y-45724200D01*
X209200000Y-45724200D02*
X209238095Y-45686104D01*
X209238095Y-45686104D02*
X209276190Y-45609914D01*
X209276190Y-45609914D02*
X209276190Y-45533723D01*
X209276190Y-45533723D02*
X209238095Y-45457533D01*
X209238095Y-45457533D02*
X209200000Y-45419438D01*
X209200000Y-45419438D02*
X209123809Y-45381342D01*
X209123809Y-45381342D02*
X208971428Y-45343247D01*
X208971428Y-45343247D02*
X208895238Y-45305152D01*
X208895238Y-45305152D02*
X208857143Y-45267057D01*
X208857143Y-45267057D02*
X208819047Y-45190866D01*
X208819047Y-45190866D02*
X208819047Y-45114676D01*
X208819047Y-45114676D02*
X208857143Y-45038485D01*
X208857143Y-45038485D02*
X208895238Y-45000390D01*
X208895238Y-45000390D02*
X208971428Y-44962295D01*
X208971428Y-44962295D02*
X209161905Y-44962295D01*
X209161905Y-44962295D02*
X209276190Y-45000390D01*
X210609524Y-45762295D02*
X210228572Y-45762295D01*
X210228572Y-45762295D02*
X210228572Y-44962295D01*
X210876191Y-45343247D02*
X211142857Y-45343247D01*
X211257143Y-45762295D02*
X210876191Y-45762295D01*
X210876191Y-45762295D02*
X210876191Y-44962295D01*
X210876191Y-44962295D02*
X211257143Y-44962295D01*
X211866667Y-45343247D02*
X211600001Y-45343247D01*
X211600001Y-45762295D02*
X211600001Y-44962295D01*
X211600001Y-44962295D02*
X211980953Y-44962295D01*
X212171429Y-44962295D02*
X212628572Y-44962295D01*
X212400000Y-45762295D02*
X212400000Y-44962295D01*
X214266668Y-44962295D02*
X214419049Y-44962295D01*
X214419049Y-44962295D02*
X214495239Y-45000390D01*
X214495239Y-45000390D02*
X214571430Y-45076580D01*
X214571430Y-45076580D02*
X214609525Y-45228961D01*
X214609525Y-45228961D02*
X214609525Y-45495628D01*
X214609525Y-45495628D02*
X214571430Y-45648009D01*
X214571430Y-45648009D02*
X214495239Y-45724200D01*
X214495239Y-45724200D02*
X214419049Y-45762295D01*
X214419049Y-45762295D02*
X214266668Y-45762295D01*
X214266668Y-45762295D02*
X214190477Y-45724200D01*
X214190477Y-45724200D02*
X214114287Y-45648009D01*
X214114287Y-45648009D02*
X214076191Y-45495628D01*
X214076191Y-45495628D02*
X214076191Y-45228961D01*
X214076191Y-45228961D02*
X214114287Y-45076580D01*
X214114287Y-45076580D02*
X214190477Y-45000390D01*
X214190477Y-45000390D02*
X214266668Y-44962295D01*
X214952382Y-44962295D02*
X214952382Y-45609914D01*
X214952382Y-45609914D02*
X214990477Y-45686104D01*
X214990477Y-45686104D02*
X215028572Y-45724200D01*
X215028572Y-45724200D02*
X215104763Y-45762295D01*
X215104763Y-45762295D02*
X215257144Y-45762295D01*
X215257144Y-45762295D02*
X215333334Y-45724200D01*
X215333334Y-45724200D02*
X215371429Y-45686104D01*
X215371429Y-45686104D02*
X215409525Y-45609914D01*
X215409525Y-45609914D02*
X215409525Y-44962295D01*
X215676191Y-44962295D02*
X216133334Y-44962295D01*
X215904762Y-45762295D02*
X215904762Y-44962295D01*
X216400001Y-45762295D02*
X216400001Y-44962295D01*
X216400001Y-44962295D02*
X216704763Y-44962295D01*
X216704763Y-44962295D02*
X216780953Y-45000390D01*
X216780953Y-45000390D02*
X216819048Y-45038485D01*
X216819048Y-45038485D02*
X216857144Y-45114676D01*
X216857144Y-45114676D02*
X216857144Y-45228961D01*
X216857144Y-45228961D02*
X216819048Y-45305152D01*
X216819048Y-45305152D02*
X216780953Y-45343247D01*
X216780953Y-45343247D02*
X216704763Y-45381342D01*
X216704763Y-45381342D02*
X216400001Y-45381342D01*
X217200001Y-44962295D02*
X217200001Y-45609914D01*
X217200001Y-45609914D02*
X217238096Y-45686104D01*
X217238096Y-45686104D02*
X217276191Y-45724200D01*
X217276191Y-45724200D02*
X217352382Y-45762295D01*
X217352382Y-45762295D02*
X217504763Y-45762295D01*
X217504763Y-45762295D02*
X217580953Y-45724200D01*
X217580953Y-45724200D02*
X217619048Y-45686104D01*
X217619048Y-45686104D02*
X217657144Y-45609914D01*
X217657144Y-45609914D02*
X217657144Y-44962295D01*
X217923810Y-44962295D02*
X218380953Y-44962295D01*
X218152381Y-45762295D02*
X218152381Y-44962295D01*
X218609524Y-45724200D02*
X218723810Y-45762295D01*
X218723810Y-45762295D02*
X218914286Y-45762295D01*
X218914286Y-45762295D02*
X218990477Y-45724200D01*
X218990477Y-45724200D02*
X219028572Y-45686104D01*
X219028572Y-45686104D02*
X219066667Y-45609914D01*
X219066667Y-45609914D02*
X219066667Y-45533723D01*
X219066667Y-45533723D02*
X219028572Y-45457533D01*
X219028572Y-45457533D02*
X218990477Y-45419438D01*
X218990477Y-45419438D02*
X218914286Y-45381342D01*
X218914286Y-45381342D02*
X218761905Y-45343247D01*
X218761905Y-45343247D02*
X218685715Y-45305152D01*
X218685715Y-45305152D02*
X218647620Y-45267057D01*
X218647620Y-45267057D02*
X218609524Y-45190866D01*
X218609524Y-45190866D02*
X218609524Y-45114676D01*
X218609524Y-45114676D02*
X218647620Y-45038485D01*
X218647620Y-45038485D02*
X218685715Y-45000390D01*
X218685715Y-45000390D02*
X218761905Y-44962295D01*
X218761905Y-44962295D02*
X218952382Y-44962295D01*
X218952382Y-44962295D02*
X219066667Y-45000390D01*
X220476192Y-45762295D02*
X220209525Y-45381342D01*
X220019049Y-45762295D02*
X220019049Y-44962295D01*
X220019049Y-44962295D02*
X220323811Y-44962295D01*
X220323811Y-44962295D02*
X220400001Y-45000390D01*
X220400001Y-45000390D02*
X220438096Y-45038485D01*
X220438096Y-45038485D02*
X220476192Y-45114676D01*
X220476192Y-45114676D02*
X220476192Y-45228961D01*
X220476192Y-45228961D02*
X220438096Y-45305152D01*
X220438096Y-45305152D02*
X220400001Y-45343247D01*
X220400001Y-45343247D02*
X220323811Y-45381342D01*
X220323811Y-45381342D02*
X220019049Y-45381342D01*
X220819049Y-45762295D02*
X220819049Y-44962295D01*
X221619048Y-45000390D02*
X221542858Y-44962295D01*
X221542858Y-44962295D02*
X221428572Y-44962295D01*
X221428572Y-44962295D02*
X221314286Y-45000390D01*
X221314286Y-45000390D02*
X221238096Y-45076580D01*
X221238096Y-45076580D02*
X221200001Y-45152771D01*
X221200001Y-45152771D02*
X221161905Y-45305152D01*
X221161905Y-45305152D02*
X221161905Y-45419438D01*
X221161905Y-45419438D02*
X221200001Y-45571819D01*
X221200001Y-45571819D02*
X221238096Y-45648009D01*
X221238096Y-45648009D02*
X221314286Y-45724200D01*
X221314286Y-45724200D02*
X221428572Y-45762295D01*
X221428572Y-45762295D02*
X221504763Y-45762295D01*
X221504763Y-45762295D02*
X221619048Y-45724200D01*
X221619048Y-45724200D02*
X221657144Y-45686104D01*
X221657144Y-45686104D02*
X221657144Y-45419438D01*
X221657144Y-45419438D02*
X221504763Y-45419438D01*
X222000001Y-45762295D02*
X222000001Y-44962295D01*
X222000001Y-45343247D02*
X222457144Y-45343247D01*
X222457144Y-45762295D02*
X222457144Y-44962295D01*
X222723810Y-44962295D02*
X223180953Y-44962295D01*
X222952381Y-45762295D02*
X222952381Y-44962295D01*
X220685713Y-198562295D02*
X220685713Y-199133723D01*
X220685713Y-199133723D02*
X220647618Y-199248009D01*
X220647618Y-199248009D02*
X220571427Y-199324200D01*
X220571427Y-199324200D02*
X220457142Y-199362295D01*
X220457142Y-199362295D02*
X220380951Y-199362295D01*
X221485713Y-199362295D02*
X221028570Y-199362295D01*
X221257142Y-199362295D02*
X221257142Y-198562295D01*
X221257142Y-198562295D02*
X221180951Y-198676580D01*
X221180951Y-198676580D02*
X221104761Y-198752771D01*
X221104761Y-198752771D02*
X221028570Y-198790866D01*
X221790475Y-198638485D02*
X221828571Y-198600390D01*
X221828571Y-198600390D02*
X221904761Y-198562295D01*
X221904761Y-198562295D02*
X222095237Y-198562295D01*
X222095237Y-198562295D02*
X222171428Y-198600390D01*
X222171428Y-198600390D02*
X222209523Y-198638485D01*
X222209523Y-198638485D02*
X222247618Y-198714676D01*
X222247618Y-198714676D02*
X222247618Y-198790866D01*
X222247618Y-198790866D02*
X222209523Y-198905152D01*
X222209523Y-198905152D02*
X221752380Y-199362295D01*
X221752380Y-199362295D02*
X222247618Y-199362295D01*
X223200000Y-199362295D02*
X223200000Y-198562295D01*
X223200000Y-198562295D02*
X223466666Y-199133723D01*
X223466666Y-199133723D02*
X223733333Y-198562295D01*
X223733333Y-198562295D02*
X223733333Y-199362295D01*
X224533333Y-199362295D02*
X224076190Y-199362295D01*
X224304762Y-199362295D02*
X224304762Y-198562295D01*
X224304762Y-198562295D02*
X224228571Y-198676580D01*
X224228571Y-198676580D02*
X224152381Y-198752771D01*
X224152381Y-198752771D02*
X224076190Y-198790866D01*
X225485715Y-199362295D02*
X225485715Y-198562295D01*
X225485715Y-198562295D02*
X225676191Y-198562295D01*
X225676191Y-198562295D02*
X225790477Y-198600390D01*
X225790477Y-198600390D02*
X225866667Y-198676580D01*
X225866667Y-198676580D02*
X225904762Y-198752771D01*
X225904762Y-198752771D02*
X225942858Y-198905152D01*
X225942858Y-198905152D02*
X225942858Y-199019438D01*
X225942858Y-199019438D02*
X225904762Y-199171819D01*
X225904762Y-199171819D02*
X225866667Y-199248009D01*
X225866667Y-199248009D02*
X225790477Y-199324200D01*
X225790477Y-199324200D02*
X225676191Y-199362295D01*
X225676191Y-199362295D02*
X225485715Y-199362295D01*
X226285715Y-199362295D02*
X226285715Y-198562295D01*
X226285715Y-198562295D02*
X226742858Y-199362295D01*
X226742858Y-199362295D02*
X226742858Y-198562295D01*
X227123810Y-199362295D02*
X227123810Y-198562295D01*
X227123810Y-198562295D02*
X227428572Y-198562295D01*
X227428572Y-198562295D02*
X227504762Y-198600390D01*
X227504762Y-198600390D02*
X227542857Y-198638485D01*
X227542857Y-198638485D02*
X227580953Y-198714676D01*
X227580953Y-198714676D02*
X227580953Y-198828961D01*
X227580953Y-198828961D02*
X227542857Y-198905152D01*
X227542857Y-198905152D02*
X227504762Y-198943247D01*
X227504762Y-198943247D02*
X227428572Y-198981342D01*
X227428572Y-198981342D02*
X227123810Y-198981342D01*
X225209523Y-176562295D02*
X225209523Y-177133723D01*
X225209523Y-177133723D02*
X225171428Y-177248009D01*
X225171428Y-177248009D02*
X225095237Y-177324200D01*
X225095237Y-177324200D02*
X224980952Y-177362295D01*
X224980952Y-177362295D02*
X224904761Y-177362295D01*
X226009523Y-177362295D02*
X225552380Y-177362295D01*
X225780952Y-177362295D02*
X225780952Y-176562295D01*
X225780952Y-176562295D02*
X225704761Y-176676580D01*
X225704761Y-176676580D02*
X225628571Y-176752771D01*
X225628571Y-176752771D02*
X225552380Y-176790866D01*
X226771428Y-177362295D02*
X226314285Y-177362295D01*
X226542857Y-177362295D02*
X226542857Y-176562295D01*
X226542857Y-176562295D02*
X226466666Y-176676580D01*
X226466666Y-176676580D02*
X226390476Y-176752771D01*
X226390476Y-176752771D02*
X226314285Y-176790866D01*
X227723810Y-177362295D02*
X227723810Y-176562295D01*
X227723810Y-176562295D02*
X227990476Y-177133723D01*
X227990476Y-177133723D02*
X228257143Y-176562295D01*
X228257143Y-176562295D02*
X228257143Y-177362295D01*
X228600000Y-176638485D02*
X228638096Y-176600390D01*
X228638096Y-176600390D02*
X228714286Y-176562295D01*
X228714286Y-176562295D02*
X228904762Y-176562295D01*
X228904762Y-176562295D02*
X228980953Y-176600390D01*
X228980953Y-176600390D02*
X229019048Y-176638485D01*
X229019048Y-176638485D02*
X229057143Y-176714676D01*
X229057143Y-176714676D02*
X229057143Y-176790866D01*
X229057143Y-176790866D02*
X229019048Y-176905152D01*
X229019048Y-176905152D02*
X228561905Y-177362295D01*
X228561905Y-177362295D02*
X229057143Y-177362295D01*
X226590475Y-154562295D02*
X226590475Y-155133723D01*
X226590475Y-155133723D02*
X226552380Y-155248009D01*
X226552380Y-155248009D02*
X226476189Y-155324200D01*
X226476189Y-155324200D02*
X226361904Y-155362295D01*
X226361904Y-155362295D02*
X226285713Y-155362295D01*
X227390475Y-155362295D02*
X226933332Y-155362295D01*
X227161904Y-155362295D02*
X227161904Y-154562295D01*
X227161904Y-154562295D02*
X227085713Y-154676580D01*
X227085713Y-154676580D02*
X227009523Y-154752771D01*
X227009523Y-154752771D02*
X226933332Y-154790866D01*
X227885714Y-154562295D02*
X227961904Y-154562295D01*
X227961904Y-154562295D02*
X228038095Y-154600390D01*
X228038095Y-154600390D02*
X228076190Y-154638485D01*
X228076190Y-154638485D02*
X228114285Y-154714676D01*
X228114285Y-154714676D02*
X228152380Y-154867057D01*
X228152380Y-154867057D02*
X228152380Y-155057533D01*
X228152380Y-155057533D02*
X228114285Y-155209914D01*
X228114285Y-155209914D02*
X228076190Y-155286104D01*
X228076190Y-155286104D02*
X228038095Y-155324200D01*
X228038095Y-155324200D02*
X227961904Y-155362295D01*
X227961904Y-155362295D02*
X227885714Y-155362295D01*
X227885714Y-155362295D02*
X227809523Y-155324200D01*
X227809523Y-155324200D02*
X227771428Y-155286104D01*
X227771428Y-155286104D02*
X227733333Y-155209914D01*
X227733333Y-155209914D02*
X227695237Y-155057533D01*
X227695237Y-155057533D02*
X227695237Y-154867057D01*
X227695237Y-154867057D02*
X227733333Y-154714676D01*
X227733333Y-154714676D02*
X227771428Y-154638485D01*
X227771428Y-154638485D02*
X227809523Y-154600390D01*
X227809523Y-154600390D02*
X227885714Y-154562295D01*
X229104762Y-155362295D02*
X229104762Y-154562295D01*
X229104762Y-154562295D02*
X229371428Y-155133723D01*
X229371428Y-155133723D02*
X229638095Y-154562295D01*
X229638095Y-154562295D02*
X229638095Y-155362295D01*
X227647618Y-110562295D02*
X227647618Y-111133723D01*
X227647618Y-111133723D02*
X227609523Y-111248009D01*
X227609523Y-111248009D02*
X227533332Y-111324200D01*
X227533332Y-111324200D02*
X227419047Y-111362295D01*
X227419047Y-111362295D02*
X227342856Y-111362295D01*
X228142856Y-110905152D02*
X228066666Y-110867057D01*
X228066666Y-110867057D02*
X228028571Y-110828961D01*
X228028571Y-110828961D02*
X227990475Y-110752771D01*
X227990475Y-110752771D02*
X227990475Y-110714676D01*
X227990475Y-110714676D02*
X228028571Y-110638485D01*
X228028571Y-110638485D02*
X228066666Y-110600390D01*
X228066666Y-110600390D02*
X228142856Y-110562295D01*
X228142856Y-110562295D02*
X228295237Y-110562295D01*
X228295237Y-110562295D02*
X228371428Y-110600390D01*
X228371428Y-110600390D02*
X228409523Y-110638485D01*
X228409523Y-110638485D02*
X228447618Y-110714676D01*
X228447618Y-110714676D02*
X228447618Y-110752771D01*
X228447618Y-110752771D02*
X228409523Y-110828961D01*
X228409523Y-110828961D02*
X228371428Y-110867057D01*
X228371428Y-110867057D02*
X228295237Y-110905152D01*
X228295237Y-110905152D02*
X228142856Y-110905152D01*
X228142856Y-110905152D02*
X228066666Y-110943247D01*
X228066666Y-110943247D02*
X228028571Y-110981342D01*
X228028571Y-110981342D02*
X227990475Y-111057533D01*
X227990475Y-111057533D02*
X227990475Y-111209914D01*
X227990475Y-111209914D02*
X228028571Y-111286104D01*
X228028571Y-111286104D02*
X228066666Y-111324200D01*
X228066666Y-111324200D02*
X228142856Y-111362295D01*
X228142856Y-111362295D02*
X228295237Y-111362295D01*
X228295237Y-111362295D02*
X228371428Y-111324200D01*
X228371428Y-111324200D02*
X228409523Y-111286104D01*
X228409523Y-111286104D02*
X228447618Y-111209914D01*
X228447618Y-111209914D02*
X228447618Y-111057533D01*
X228447618Y-111057533D02*
X228409523Y-110981342D01*
X228409523Y-110981342D02*
X228371428Y-110943247D01*
X228371428Y-110943247D02*
X228295237Y-110905152D01*
X229361904Y-111324200D02*
X229476190Y-111362295D01*
X229476190Y-111362295D02*
X229666666Y-111362295D01*
X229666666Y-111362295D02*
X229742857Y-111324200D01*
X229742857Y-111324200D02*
X229780952Y-111286104D01*
X229780952Y-111286104D02*
X229819047Y-111209914D01*
X229819047Y-111209914D02*
X229819047Y-111133723D01*
X229819047Y-111133723D02*
X229780952Y-111057533D01*
X229780952Y-111057533D02*
X229742857Y-111019438D01*
X229742857Y-111019438D02*
X229666666Y-110981342D01*
X229666666Y-110981342D02*
X229514285Y-110943247D01*
X229514285Y-110943247D02*
X229438095Y-110905152D01*
X229438095Y-110905152D02*
X229400000Y-110867057D01*
X229400000Y-110867057D02*
X229361904Y-110790866D01*
X229361904Y-110790866D02*
X229361904Y-110714676D01*
X229361904Y-110714676D02*
X229400000Y-110638485D01*
X229400000Y-110638485D02*
X229438095Y-110600390D01*
X229438095Y-110600390D02*
X229514285Y-110562295D01*
X229514285Y-110562295D02*
X229704762Y-110562295D01*
X229704762Y-110562295D02*
X229819047Y-110600390D01*
X230161905Y-111362295D02*
X230161905Y-110562295D01*
X230161905Y-110562295D02*
X230466667Y-110562295D01*
X230466667Y-110562295D02*
X230542857Y-110600390D01*
X230542857Y-110600390D02*
X230580952Y-110638485D01*
X230580952Y-110638485D02*
X230619048Y-110714676D01*
X230619048Y-110714676D02*
X230619048Y-110828961D01*
X230619048Y-110828961D02*
X230580952Y-110905152D01*
X230580952Y-110905152D02*
X230542857Y-110943247D01*
X230542857Y-110943247D02*
X230466667Y-110981342D01*
X230466667Y-110981342D02*
X230161905Y-110981342D01*
X227666666Y-132562295D02*
X227666666Y-133133723D01*
X227666666Y-133133723D02*
X227628571Y-133248009D01*
X227628571Y-133248009D02*
X227552380Y-133324200D01*
X227552380Y-133324200D02*
X227438095Y-133362295D01*
X227438095Y-133362295D02*
X227361904Y-133362295D01*
X228085714Y-133362295D02*
X228238095Y-133362295D01*
X228238095Y-133362295D02*
X228314285Y-133324200D01*
X228314285Y-133324200D02*
X228352381Y-133286104D01*
X228352381Y-133286104D02*
X228428571Y-133171819D01*
X228428571Y-133171819D02*
X228466666Y-133019438D01*
X228466666Y-133019438D02*
X228466666Y-132714676D01*
X228466666Y-132714676D02*
X228428571Y-132638485D01*
X228428571Y-132638485D02*
X228390476Y-132600390D01*
X228390476Y-132600390D02*
X228314285Y-132562295D01*
X228314285Y-132562295D02*
X228161904Y-132562295D01*
X228161904Y-132562295D02*
X228085714Y-132600390D01*
X228085714Y-132600390D02*
X228047619Y-132638485D01*
X228047619Y-132638485D02*
X228009523Y-132714676D01*
X228009523Y-132714676D02*
X228009523Y-132905152D01*
X228009523Y-132905152D02*
X228047619Y-132981342D01*
X228047619Y-132981342D02*
X228085714Y-133019438D01*
X228085714Y-133019438D02*
X228161904Y-133057533D01*
X228161904Y-133057533D02*
X228314285Y-133057533D01*
X228314285Y-133057533D02*
X228390476Y-133019438D01*
X228390476Y-133019438D02*
X228428571Y-132981342D01*
X228428571Y-132981342D02*
X228466666Y-132905152D01*
X229685714Y-132943247D02*
X229800000Y-132981342D01*
X229800000Y-132981342D02*
X229838095Y-133019438D01*
X229838095Y-133019438D02*
X229876191Y-133095628D01*
X229876191Y-133095628D02*
X229876191Y-133209914D01*
X229876191Y-133209914D02*
X229838095Y-133286104D01*
X229838095Y-133286104D02*
X229800000Y-133324200D01*
X229800000Y-133324200D02*
X229723810Y-133362295D01*
X229723810Y-133362295D02*
X229419048Y-133362295D01*
X229419048Y-133362295D02*
X229419048Y-132562295D01*
X229419048Y-132562295D02*
X229685714Y-132562295D01*
X229685714Y-132562295D02*
X229761905Y-132600390D01*
X229761905Y-132600390D02*
X229800000Y-132638485D01*
X229800000Y-132638485D02*
X229838095Y-132714676D01*
X229838095Y-132714676D02*
X229838095Y-132790866D01*
X229838095Y-132790866D02*
X229800000Y-132867057D01*
X229800000Y-132867057D02*
X229761905Y-132905152D01*
X229761905Y-132905152D02*
X229685714Y-132943247D01*
X229685714Y-132943247D02*
X229419048Y-132943247D01*
X230219048Y-132943247D02*
X230485714Y-132943247D01*
X230600000Y-133362295D02*
X230219048Y-133362295D01*
X230219048Y-133362295D02*
X230219048Y-132562295D01*
X230219048Y-132562295D02*
X230600000Y-132562295D01*
X229047618Y-66562295D02*
X229047618Y-67133723D01*
X229047618Y-67133723D02*
X229009523Y-67248009D01*
X229009523Y-67248009D02*
X228933332Y-67324200D01*
X228933332Y-67324200D02*
X228819047Y-67362295D01*
X228819047Y-67362295D02*
X228742856Y-67362295D01*
X229771428Y-66562295D02*
X229619047Y-66562295D01*
X229619047Y-66562295D02*
X229542856Y-66600390D01*
X229542856Y-66600390D02*
X229504761Y-66638485D01*
X229504761Y-66638485D02*
X229428571Y-66752771D01*
X229428571Y-66752771D02*
X229390475Y-66905152D01*
X229390475Y-66905152D02*
X229390475Y-67209914D01*
X229390475Y-67209914D02*
X229428571Y-67286104D01*
X229428571Y-67286104D02*
X229466666Y-67324200D01*
X229466666Y-67324200D02*
X229542856Y-67362295D01*
X229542856Y-67362295D02*
X229695237Y-67362295D01*
X229695237Y-67362295D02*
X229771428Y-67324200D01*
X229771428Y-67324200D02*
X229809523Y-67286104D01*
X229809523Y-67286104D02*
X229847618Y-67209914D01*
X229847618Y-67209914D02*
X229847618Y-67019438D01*
X229847618Y-67019438D02*
X229809523Y-66943247D01*
X229809523Y-66943247D02*
X229771428Y-66905152D01*
X229771428Y-66905152D02*
X229695237Y-66867057D01*
X229695237Y-66867057D02*
X229542856Y-66867057D01*
X229542856Y-66867057D02*
X229466666Y-66905152D01*
X229466666Y-66905152D02*
X229428571Y-66943247D01*
X229428571Y-66943247D02*
X229390475Y-67019438D01*
X230761904Y-67324200D02*
X230876190Y-67362295D01*
X230876190Y-67362295D02*
X231066666Y-67362295D01*
X231066666Y-67362295D02*
X231142857Y-67324200D01*
X231142857Y-67324200D02*
X231180952Y-67286104D01*
X231180952Y-67286104D02*
X231219047Y-67209914D01*
X231219047Y-67209914D02*
X231219047Y-67133723D01*
X231219047Y-67133723D02*
X231180952Y-67057533D01*
X231180952Y-67057533D02*
X231142857Y-67019438D01*
X231142857Y-67019438D02*
X231066666Y-66981342D01*
X231066666Y-66981342D02*
X230914285Y-66943247D01*
X230914285Y-66943247D02*
X230838095Y-66905152D01*
X230838095Y-66905152D02*
X230800000Y-66867057D01*
X230800000Y-66867057D02*
X230761904Y-66790866D01*
X230761904Y-66790866D02*
X230761904Y-66714676D01*
X230761904Y-66714676D02*
X230800000Y-66638485D01*
X230800000Y-66638485D02*
X230838095Y-66600390D01*
X230838095Y-66600390D02*
X230914285Y-66562295D01*
X230914285Y-66562295D02*
X231104762Y-66562295D01*
X231104762Y-66562295D02*
X231219047Y-66600390D01*
X229123809Y-88562295D02*
X229123809Y-89133723D01*
X229123809Y-89133723D02*
X229085714Y-89248009D01*
X229085714Y-89248009D02*
X229009523Y-89324200D01*
X229009523Y-89324200D02*
X228895238Y-89362295D01*
X228895238Y-89362295D02*
X228819047Y-89362295D01*
X229428571Y-88562295D02*
X229961905Y-88562295D01*
X229961905Y-88562295D02*
X229619047Y-89362295D01*
X230761905Y-88562295D02*
X231219048Y-88562295D01*
X230990476Y-89362295D02*
X230990476Y-88562295D01*
X20562295Y-34942857D02*
X21133723Y-34942857D01*
X21133723Y-34942857D02*
X21248009Y-34980952D01*
X21248009Y-34980952D02*
X21324200Y-35057143D01*
X21324200Y-35057143D02*
X21362295Y-35171428D01*
X21362295Y-35171428D02*
X21362295Y-35247619D01*
X20562295Y-34638095D02*
X20562295Y-34142857D01*
X20562295Y-34142857D02*
X20867057Y-34409523D01*
X20867057Y-34409523D02*
X20867057Y-34295238D01*
X20867057Y-34295238D02*
X20905152Y-34219047D01*
X20905152Y-34219047D02*
X20943247Y-34180952D01*
X20943247Y-34180952D02*
X21019438Y-34142857D01*
X21019438Y-34142857D02*
X21209914Y-34142857D01*
X21209914Y-34142857D02*
X21286104Y-34180952D01*
X21286104Y-34180952D02*
X21324200Y-34219047D01*
X21324200Y-34219047D02*
X21362295Y-34295238D01*
X21362295Y-34295238D02*
X21362295Y-34523809D01*
X21362295Y-34523809D02*
X21324200Y-34600000D01*
X21324200Y-34600000D02*
X21286104Y-34638095D01*
X20943247Y-32923809D02*
X20943247Y-33190475D01*
X21362295Y-33190475D02*
X20562295Y-33190475D01*
X20562295Y-33190475D02*
X20562295Y-32809523D01*
X21133723Y-32542857D02*
X21133723Y-32161904D01*
X21362295Y-32619047D02*
X20562295Y-32352380D01*
X20562295Y-32352380D02*
X21362295Y-32085714D01*
X21324200Y-31857143D02*
X21362295Y-31742857D01*
X21362295Y-31742857D02*
X21362295Y-31552381D01*
X21362295Y-31552381D02*
X21324200Y-31476190D01*
X21324200Y-31476190D02*
X21286104Y-31438095D01*
X21286104Y-31438095D02*
X21209914Y-31400000D01*
X21209914Y-31400000D02*
X21133723Y-31400000D01*
X21133723Y-31400000D02*
X21057533Y-31438095D01*
X21057533Y-31438095D02*
X21019438Y-31476190D01*
X21019438Y-31476190D02*
X20981342Y-31552381D01*
X20981342Y-31552381D02*
X20943247Y-31704762D01*
X20943247Y-31704762D02*
X20905152Y-31780952D01*
X20905152Y-31780952D02*
X20867057Y-31819047D01*
X20867057Y-31819047D02*
X20790866Y-31857143D01*
X20790866Y-31857143D02*
X20714676Y-31857143D01*
X20714676Y-31857143D02*
X20638485Y-31819047D01*
X20638485Y-31819047D02*
X20600390Y-31780952D01*
X20600390Y-31780952D02*
X20562295Y-31704762D01*
X20562295Y-31704762D02*
X20562295Y-31514285D01*
X20562295Y-31514285D02*
X20600390Y-31400000D01*
X20562295Y-31171428D02*
X20562295Y-30714285D01*
X21362295Y-30942857D02*
X20562295Y-30942857D01*
X20562295Y-94800000D02*
X21133723Y-94800000D01*
X21133723Y-94800000D02*
X21248009Y-94838095D01*
X21248009Y-94838095D02*
X21324200Y-94914286D01*
X21324200Y-94914286D02*
X21362295Y-95028571D01*
X21362295Y-95028571D02*
X21362295Y-95104762D01*
X20828961Y-94076190D02*
X21362295Y-94076190D01*
X20524200Y-94266666D02*
X21095628Y-94457143D01*
X21095628Y-94457143D02*
X21095628Y-93961904D01*
X21324200Y-93085714D02*
X21362295Y-92971428D01*
X21362295Y-92971428D02*
X21362295Y-92780952D01*
X21362295Y-92780952D02*
X21324200Y-92704761D01*
X21324200Y-92704761D02*
X21286104Y-92666666D01*
X21286104Y-92666666D02*
X21209914Y-92628571D01*
X21209914Y-92628571D02*
X21133723Y-92628571D01*
X21133723Y-92628571D02*
X21057533Y-92666666D01*
X21057533Y-92666666D02*
X21019438Y-92704761D01*
X21019438Y-92704761D02*
X20981342Y-92780952D01*
X20981342Y-92780952D02*
X20943247Y-92933333D01*
X20943247Y-92933333D02*
X20905152Y-93009523D01*
X20905152Y-93009523D02*
X20867057Y-93047618D01*
X20867057Y-93047618D02*
X20790866Y-93085714D01*
X20790866Y-93085714D02*
X20714676Y-93085714D01*
X20714676Y-93085714D02*
X20638485Y-93047618D01*
X20638485Y-93047618D02*
X20600390Y-93009523D01*
X20600390Y-93009523D02*
X20562295Y-92933333D01*
X20562295Y-92933333D02*
X20562295Y-92742856D01*
X20562295Y-92742856D02*
X20600390Y-92628571D01*
X21362295Y-91904761D02*
X21362295Y-92285713D01*
X21362295Y-92285713D02*
X20562295Y-92285713D01*
X20562295Y-91485713D02*
X20562295Y-91333332D01*
X20562295Y-91333332D02*
X20600390Y-91257142D01*
X20600390Y-91257142D02*
X20676580Y-91180951D01*
X20676580Y-91180951D02*
X20828961Y-91142856D01*
X20828961Y-91142856D02*
X21095628Y-91142856D01*
X21095628Y-91142856D02*
X21248009Y-91180951D01*
X21248009Y-91180951D02*
X21324200Y-91257142D01*
X21324200Y-91257142D02*
X21362295Y-91333332D01*
X21362295Y-91333332D02*
X21362295Y-91485713D01*
X21362295Y-91485713D02*
X21324200Y-91561904D01*
X21324200Y-91561904D02*
X21248009Y-91638094D01*
X21248009Y-91638094D02*
X21095628Y-91676190D01*
X21095628Y-91676190D02*
X20828961Y-91676190D01*
X20828961Y-91676190D02*
X20676580Y-91638094D01*
X20676580Y-91638094D02*
X20600390Y-91561904D01*
X20600390Y-91561904D02*
X20562295Y-91485713D01*
X20562295Y-90876190D02*
X21362295Y-90685714D01*
X21362295Y-90685714D02*
X20790866Y-90533333D01*
X20790866Y-90533333D02*
X21362295Y-90380952D01*
X21362295Y-90380952D02*
X20562295Y-90190476D01*
X21133723Y-89314285D02*
X21133723Y-88933332D01*
X21362295Y-89390475D02*
X20562295Y-89123808D01*
X20562295Y-89123808D02*
X21362295Y-88857142D01*
X20562295Y-159857143D02*
X21133723Y-159857143D01*
X21133723Y-159857143D02*
X21248009Y-159895238D01*
X21248009Y-159895238D02*
X21324200Y-159971429D01*
X21324200Y-159971429D02*
X21362295Y-160085714D01*
X21362295Y-160085714D02*
X21362295Y-160161905D01*
X20562295Y-159095238D02*
X20562295Y-159476190D01*
X20562295Y-159476190D02*
X20943247Y-159514286D01*
X20943247Y-159514286D02*
X20905152Y-159476190D01*
X20905152Y-159476190D02*
X20867057Y-159400000D01*
X20867057Y-159400000D02*
X20867057Y-159209524D01*
X20867057Y-159209524D02*
X20905152Y-159133333D01*
X20905152Y-159133333D02*
X20943247Y-159095238D01*
X20943247Y-159095238D02*
X21019438Y-159057143D01*
X21019438Y-159057143D02*
X21209914Y-159057143D01*
X21209914Y-159057143D02*
X21286104Y-159095238D01*
X21286104Y-159095238D02*
X21324200Y-159133333D01*
X21324200Y-159133333D02*
X21362295Y-159209524D01*
X21362295Y-159209524D02*
X21362295Y-159400000D01*
X21362295Y-159400000D02*
X21324200Y-159476190D01*
X21324200Y-159476190D02*
X21286104Y-159514286D01*
X21324200Y-158142857D02*
X21362295Y-158028571D01*
X21362295Y-158028571D02*
X21362295Y-157838095D01*
X21362295Y-157838095D02*
X21324200Y-157761904D01*
X21324200Y-157761904D02*
X21286104Y-157723809D01*
X21286104Y-157723809D02*
X21209914Y-157685714D01*
X21209914Y-157685714D02*
X21133723Y-157685714D01*
X21133723Y-157685714D02*
X21057533Y-157723809D01*
X21057533Y-157723809D02*
X21019438Y-157761904D01*
X21019438Y-157761904D02*
X20981342Y-157838095D01*
X20981342Y-157838095D02*
X20943247Y-157990476D01*
X20943247Y-157990476D02*
X20905152Y-158066666D01*
X20905152Y-158066666D02*
X20867057Y-158104761D01*
X20867057Y-158104761D02*
X20790866Y-158142857D01*
X20790866Y-158142857D02*
X20714676Y-158142857D01*
X20714676Y-158142857D02*
X20638485Y-158104761D01*
X20638485Y-158104761D02*
X20600390Y-158066666D01*
X20600390Y-158066666D02*
X20562295Y-157990476D01*
X20562295Y-157990476D02*
X20562295Y-157799999D01*
X20562295Y-157799999D02*
X20600390Y-157685714D01*
X21362295Y-156961904D02*
X21362295Y-157342856D01*
X21362295Y-157342856D02*
X20562295Y-157342856D01*
X20562295Y-156542856D02*
X20562295Y-156390475D01*
X20562295Y-156390475D02*
X20600390Y-156314285D01*
X20600390Y-156314285D02*
X20676580Y-156238094D01*
X20676580Y-156238094D02*
X20828961Y-156199999D01*
X20828961Y-156199999D02*
X21095628Y-156199999D01*
X21095628Y-156199999D02*
X21248009Y-156238094D01*
X21248009Y-156238094D02*
X21324200Y-156314285D01*
X21324200Y-156314285D02*
X21362295Y-156390475D01*
X21362295Y-156390475D02*
X21362295Y-156542856D01*
X21362295Y-156542856D02*
X21324200Y-156619047D01*
X21324200Y-156619047D02*
X21248009Y-156695237D01*
X21248009Y-156695237D02*
X21095628Y-156733333D01*
X21095628Y-156733333D02*
X20828961Y-156733333D01*
X20828961Y-156733333D02*
X20676580Y-156695237D01*
X20676580Y-156695237D02*
X20600390Y-156619047D01*
X20600390Y-156619047D02*
X20562295Y-156542856D01*
X20562295Y-155933333D02*
X21362295Y-155742857D01*
X21362295Y-155742857D02*
X20790866Y-155590476D01*
X20790866Y-155590476D02*
X21362295Y-155438095D01*
X21362295Y-155438095D02*
X20562295Y-155247619D01*
X20943247Y-154066666D02*
X20981342Y-153952380D01*
X20981342Y-153952380D02*
X21019438Y-153914285D01*
X21019438Y-153914285D02*
X21095628Y-153876189D01*
X21095628Y-153876189D02*
X21209914Y-153876189D01*
X21209914Y-153876189D02*
X21286104Y-153914285D01*
X21286104Y-153914285D02*
X21324200Y-153952380D01*
X21324200Y-153952380D02*
X21362295Y-154028570D01*
X21362295Y-154028570D02*
X21362295Y-154333332D01*
X21362295Y-154333332D02*
X20562295Y-154333332D01*
X20562295Y-154333332D02*
X20562295Y-154066666D01*
X20562295Y-154066666D02*
X20600390Y-153990475D01*
X20600390Y-153990475D02*
X20638485Y-153952380D01*
X20638485Y-153952380D02*
X20714676Y-153914285D01*
X20714676Y-153914285D02*
X20790866Y-153914285D01*
X20790866Y-153914285D02*
X20867057Y-153952380D01*
X20867057Y-153952380D02*
X20905152Y-153990475D01*
X20905152Y-153990475D02*
X20943247Y-154066666D01*
X20943247Y-154066666D02*
X20943247Y-154333332D01*
X197119047Y-41454819D02*
X197357142Y-42454819D01*
X197357142Y-42454819D02*
X197547618Y-41740533D01*
X197547618Y-41740533D02*
X197738094Y-42454819D01*
X197738094Y-42454819D02*
X197976190Y-41454819D01*
X198309523Y-42407200D02*
X198452380Y-42454819D01*
X198452380Y-42454819D02*
X198690475Y-42454819D01*
X198690475Y-42454819D02*
X198785713Y-42407200D01*
X198785713Y-42407200D02*
X198833332Y-42359580D01*
X198833332Y-42359580D02*
X198880951Y-42264342D01*
X198880951Y-42264342D02*
X198880951Y-42169104D01*
X198880951Y-42169104D02*
X198833332Y-42073866D01*
X198833332Y-42073866D02*
X198785713Y-42026247D01*
X198785713Y-42026247D02*
X198690475Y-41978628D01*
X198690475Y-41978628D02*
X198499999Y-41931009D01*
X198499999Y-41931009D02*
X198404761Y-41883390D01*
X198404761Y-41883390D02*
X198357142Y-41835771D01*
X198357142Y-41835771D02*
X198309523Y-41740533D01*
X198309523Y-41740533D02*
X198309523Y-41645295D01*
X198309523Y-41645295D02*
X198357142Y-41550057D01*
X198357142Y-41550057D02*
X198404761Y-41502438D01*
X198404761Y-41502438D02*
X198499999Y-41454819D01*
X198499999Y-41454819D02*
X198738094Y-41454819D01*
X198738094Y-41454819D02*
X198880951Y-41502438D01*
X199785713Y-42454819D02*
X199309523Y-42454819D01*
X199309523Y-42454819D02*
X199309523Y-41454819D01*
X201357142Y-42454819D02*
X200880952Y-42454819D01*
X200880952Y-42454819D02*
X200880952Y-41454819D01*
X201642857Y-42169104D02*
X202119047Y-42169104D01*
X201547619Y-42454819D02*
X201880952Y-41454819D01*
X201880952Y-41454819D02*
X202214285Y-42454819D01*
X202547619Y-42454819D02*
X202547619Y-41454819D01*
X202547619Y-41454819D02*
X203119047Y-42454819D01*
X203119047Y-42454819D02*
X203119047Y-41454819D01*
X203595238Y-41931009D02*
X203928571Y-41931009D01*
X204071428Y-42454819D02*
X203595238Y-42454819D01*
X203595238Y-42454819D02*
X203595238Y-41454819D01*
X203595238Y-41454819D02*
X204071428Y-41454819D01*
X205261905Y-42454819D02*
X205261905Y-41454819D01*
X205261905Y-41454819D02*
X205833333Y-42454819D01*
X205833333Y-42454819D02*
X205833333Y-41454819D01*
X206500000Y-41454819D02*
X206690476Y-41454819D01*
X206690476Y-41454819D02*
X206785714Y-41502438D01*
X206785714Y-41502438D02*
X206880952Y-41597676D01*
X206880952Y-41597676D02*
X206928571Y-41788152D01*
X206928571Y-41788152D02*
X206928571Y-42121485D01*
X206928571Y-42121485D02*
X206880952Y-42311961D01*
X206880952Y-42311961D02*
X206785714Y-42407200D01*
X206785714Y-42407200D02*
X206690476Y-42454819D01*
X206690476Y-42454819D02*
X206500000Y-42454819D01*
X206500000Y-42454819D02*
X206404762Y-42407200D01*
X206404762Y-42407200D02*
X206309524Y-42311961D01*
X206309524Y-42311961D02*
X206261905Y-42121485D01*
X206261905Y-42121485D02*
X206261905Y-41788152D01*
X206261905Y-41788152D02*
X206309524Y-41597676D01*
X206309524Y-41597676D02*
X206404762Y-41502438D01*
X206404762Y-41502438D02*
X206500000Y-41454819D01*
X207357143Y-42454819D02*
X207357143Y-41454819D01*
X207357143Y-41454819D02*
X207595238Y-41454819D01*
X207595238Y-41454819D02*
X207738095Y-41502438D01*
X207738095Y-41502438D02*
X207833333Y-41597676D01*
X207833333Y-41597676D02*
X207880952Y-41692914D01*
X207880952Y-41692914D02*
X207928571Y-41883390D01*
X207928571Y-41883390D02*
X207928571Y-42026247D01*
X207928571Y-42026247D02*
X207880952Y-42216723D01*
X207880952Y-42216723D02*
X207833333Y-42311961D01*
X207833333Y-42311961D02*
X207738095Y-42407200D01*
X207738095Y-42407200D02*
X207595238Y-42454819D01*
X207595238Y-42454819D02*
X207357143Y-42454819D01*
X208357143Y-41931009D02*
X208690476Y-41931009D01*
X208833333Y-42454819D02*
X208357143Y-42454819D01*
X208357143Y-42454819D02*
X208357143Y-41454819D01*
X208357143Y-41454819D02*
X208833333Y-41454819D01*
X210023810Y-42454819D02*
X210023810Y-41454819D01*
X210023810Y-41454819D02*
X210404762Y-41454819D01*
X210404762Y-41454819D02*
X210500000Y-41502438D01*
X210500000Y-41502438D02*
X210547619Y-41550057D01*
X210547619Y-41550057D02*
X210595238Y-41645295D01*
X210595238Y-41645295D02*
X210595238Y-41788152D01*
X210595238Y-41788152D02*
X210547619Y-41883390D01*
X210547619Y-41883390D02*
X210500000Y-41931009D01*
X210500000Y-41931009D02*
X210404762Y-41978628D01*
X210404762Y-41978628D02*
X210023810Y-41978628D01*
X211023810Y-42454819D02*
X211023810Y-41454819D01*
X211023810Y-41931009D02*
X211595238Y-41931009D01*
X211595238Y-42454819D02*
X211595238Y-41454819D01*
X212023810Y-42169104D02*
X212500000Y-42169104D01*
X211928572Y-42454819D02*
X212261905Y-41454819D01*
X212261905Y-41454819D02*
X212595238Y-42454819D01*
X212880953Y-42407200D02*
X213023810Y-42454819D01*
X213023810Y-42454819D02*
X213261905Y-42454819D01*
X213261905Y-42454819D02*
X213357143Y-42407200D01*
X213357143Y-42407200D02*
X213404762Y-42359580D01*
X213404762Y-42359580D02*
X213452381Y-42264342D01*
X213452381Y-42264342D02*
X213452381Y-42169104D01*
X213452381Y-42169104D02*
X213404762Y-42073866D01*
X213404762Y-42073866D02*
X213357143Y-42026247D01*
X213357143Y-42026247D02*
X213261905Y-41978628D01*
X213261905Y-41978628D02*
X213071429Y-41931009D01*
X213071429Y-41931009D02*
X212976191Y-41883390D01*
X212976191Y-41883390D02*
X212928572Y-41835771D01*
X212928572Y-41835771D02*
X212880953Y-41740533D01*
X212880953Y-41740533D02*
X212880953Y-41645295D01*
X212880953Y-41645295D02*
X212928572Y-41550057D01*
X212928572Y-41550057D02*
X212976191Y-41502438D01*
X212976191Y-41502438D02*
X213071429Y-41454819D01*
X213071429Y-41454819D02*
X213309524Y-41454819D01*
X213309524Y-41454819D02*
X213452381Y-41502438D01*
X213880953Y-41931009D02*
X214214286Y-41931009D01*
X214357143Y-42454819D02*
X213880953Y-42454819D01*
X213880953Y-42454819D02*
X213880953Y-41454819D01*
X213880953Y-41454819D02*
X214357143Y-41454819D01*
X215690477Y-41883390D02*
X215595239Y-41835771D01*
X215595239Y-41835771D02*
X215547620Y-41788152D01*
X215547620Y-41788152D02*
X215500001Y-41692914D01*
X215500001Y-41692914D02*
X215500001Y-41645295D01*
X215500001Y-41645295D02*
X215547620Y-41550057D01*
X215547620Y-41550057D02*
X215595239Y-41502438D01*
X215595239Y-41502438D02*
X215690477Y-41454819D01*
X215690477Y-41454819D02*
X215880953Y-41454819D01*
X215880953Y-41454819D02*
X215976191Y-41502438D01*
X215976191Y-41502438D02*
X216023810Y-41550057D01*
X216023810Y-41550057D02*
X216071429Y-41645295D01*
X216071429Y-41645295D02*
X216071429Y-41692914D01*
X216071429Y-41692914D02*
X216023810Y-41788152D01*
X216023810Y-41788152D02*
X215976191Y-41835771D01*
X215976191Y-41835771D02*
X215880953Y-41883390D01*
X215880953Y-41883390D02*
X215690477Y-41883390D01*
X215690477Y-41883390D02*
X215595239Y-41931009D01*
X215595239Y-41931009D02*
X215547620Y-41978628D01*
X215547620Y-41978628D02*
X215500001Y-42073866D01*
X215500001Y-42073866D02*
X215500001Y-42264342D01*
X215500001Y-42264342D02*
X215547620Y-42359580D01*
X215547620Y-42359580D02*
X215595239Y-42407200D01*
X215595239Y-42407200D02*
X215690477Y-42454819D01*
X215690477Y-42454819D02*
X215880953Y-42454819D01*
X215880953Y-42454819D02*
X215976191Y-42407200D01*
X215976191Y-42407200D02*
X216023810Y-42359580D01*
X216023810Y-42359580D02*
X216071429Y-42264342D01*
X216071429Y-42264342D02*
X216071429Y-42073866D01*
X216071429Y-42073866D02*
X216023810Y-41978628D01*
X216023810Y-41978628D02*
X215976191Y-41931009D01*
X215976191Y-41931009D02*
X215880953Y-41883390D01*
X216833334Y-41931009D02*
X216976191Y-41978628D01*
X216976191Y-41978628D02*
X217023810Y-42026247D01*
X217023810Y-42026247D02*
X217071429Y-42121485D01*
X217071429Y-42121485D02*
X217071429Y-42264342D01*
X217071429Y-42264342D02*
X217023810Y-42359580D01*
X217023810Y-42359580D02*
X216976191Y-42407200D01*
X216976191Y-42407200D02*
X216880953Y-42454819D01*
X216880953Y-42454819D02*
X216500001Y-42454819D01*
X216500001Y-42454819D02*
X216500001Y-41454819D01*
X216500001Y-41454819D02*
X216833334Y-41454819D01*
X216833334Y-41454819D02*
X216928572Y-41502438D01*
X216928572Y-41502438D02*
X216976191Y-41550057D01*
X216976191Y-41550057D02*
X217023810Y-41645295D01*
X217023810Y-41645295D02*
X217023810Y-41740533D01*
X217023810Y-41740533D02*
X216976191Y-41835771D01*
X216976191Y-41835771D02*
X216928572Y-41883390D01*
X216928572Y-41883390D02*
X216833334Y-41931009D01*
X216833334Y-41931009D02*
X216500001Y-41931009D01*
X218833334Y-42454819D02*
X218500001Y-41978628D01*
X218261906Y-42454819D02*
X218261906Y-41454819D01*
X218261906Y-41454819D02*
X218642858Y-41454819D01*
X218642858Y-41454819D02*
X218738096Y-41502438D01*
X218738096Y-41502438D02*
X218785715Y-41550057D01*
X218785715Y-41550057D02*
X218833334Y-41645295D01*
X218833334Y-41645295D02*
X218833334Y-41788152D01*
X218833334Y-41788152D02*
X218785715Y-41883390D01*
X218785715Y-41883390D02*
X218738096Y-41931009D01*
X218738096Y-41931009D02*
X218642858Y-41978628D01*
X218642858Y-41978628D02*
X218261906Y-41978628D01*
X219261906Y-41931009D02*
X219595239Y-41931009D01*
X219738096Y-42454819D02*
X219261906Y-42454819D01*
X219261906Y-42454819D02*
X219261906Y-41454819D01*
X219261906Y-41454819D02*
X219738096Y-41454819D01*
X220023811Y-41454819D02*
X220357144Y-42454819D01*
X220357144Y-42454819D02*
X220690477Y-41454819D01*
X221023811Y-42073866D02*
X221785716Y-42073866D01*
X222833334Y-42359580D02*
X222785715Y-42407200D01*
X222785715Y-42407200D02*
X222642858Y-42454819D01*
X222642858Y-42454819D02*
X222547620Y-42454819D01*
X222547620Y-42454819D02*
X222404763Y-42407200D01*
X222404763Y-42407200D02*
X222309525Y-42311961D01*
X222309525Y-42311961D02*
X222261906Y-42216723D01*
X222261906Y-42216723D02*
X222214287Y-42026247D01*
X222214287Y-42026247D02*
X222214287Y-41883390D01*
X222214287Y-41883390D02*
X222261906Y-41692914D01*
X222261906Y-41692914D02*
X222309525Y-41597676D01*
X222309525Y-41597676D02*
X222404763Y-41502438D01*
X222404763Y-41502438D02*
X222547620Y-41454819D01*
X222547620Y-41454819D02*
X222642858Y-41454819D01*
X222642858Y-41454819D02*
X222785715Y-41502438D01*
X222785715Y-41502438D02*
X222833334Y-41550057D01*
%TO.C,R74*%
D11*
X149265000Y-115227064D02*
X149265000Y-114772936D01*
X150735000Y-115227064D02*
X150735000Y-114772936D01*
%TO.C,R80*%
X149265000Y-159227064D02*
X149265000Y-158772936D01*
X150735000Y-159227064D02*
X150735000Y-158772936D01*
%TO.C,C14*%
X139738748Y-77265000D02*
X140261252Y-77265000D01*
X139738748Y-78735000D02*
X140261252Y-78735000D01*
%TO.C,C4*%
X229265000Y-72261252D02*
X229265000Y-71738748D01*
X230735000Y-72261252D02*
X230735000Y-71738748D01*
%TO.C,R71*%
X149265000Y-93227064D02*
X149265000Y-92772936D01*
X150735000Y-93227064D02*
X150735000Y-92772936D01*
%TO.C,U14*%
X75160000Y-82670000D02*
X75160000Y-87870000D01*
X75160000Y-87870000D02*
X80460000Y-87870000D01*
X76810000Y-82670000D02*
X75160000Y-82670000D01*
X80460000Y-82670000D02*
X78810000Y-82670000D01*
X80460000Y-87870000D02*
X80460000Y-82670000D01*
X78810000Y-82670000D02*
G75*
G02*
X76810000Y-82670000I-1000000J0D01*
G01*
%TO.C,R1*%
X102265000Y-86227064D02*
X102265000Y-85772936D01*
X103735000Y-86227064D02*
X103735000Y-85772936D01*
%TO.C,R35*%
X57772936Y-117465000D02*
X58227064Y-117465000D01*
X57772936Y-118935000D02*
X58227064Y-118935000D01*
%TO.C,J9*%
X237280000Y-131340000D02*
X247320000Y-131340000D01*
X237280000Y-133700000D02*
X237280000Y-131340000D01*
X237280000Y-141740000D02*
X237280000Y-134300000D01*
X237900000Y-131340000D02*
X237900000Y-141740000D01*
X239400000Y-131340000D02*
X239400000Y-141740000D01*
X244300000Y-131340000D02*
X244300000Y-141740000D01*
X247320000Y-131340000D02*
X247320000Y-141740000D01*
X247320000Y-141740000D02*
X237280000Y-141740000D01*
X237280000Y-134000000D02*
X236670000Y-134440000D01*
X236670000Y-133560000D01*
X237280000Y-134000000D01*
G36*
X237280000Y-134000000D02*
G01*
X236670000Y-134440000D01*
X236670000Y-133560000D01*
X237280000Y-134000000D01*
G37*
%TO.C,R53*%
X57772936Y-171465000D02*
X58227064Y-171465000D01*
X57772936Y-172935000D02*
X58227064Y-172935000D01*
%TO.C,U19*%
X75160000Y-112670000D02*
X75160000Y-117870000D01*
X75160000Y-117870000D02*
X80460000Y-117870000D01*
X76810000Y-112670000D02*
X75160000Y-112670000D01*
X80460000Y-112670000D02*
X78810000Y-112670000D01*
X80460000Y-117870000D02*
X80460000Y-112670000D01*
X78810000Y-112670000D02*
G75*
G02*
X76810000Y-112670000I-1000000J0D01*
G01*
%TO.C,TP10*%
X103050000Y-220050000D02*
X104950000Y-220050000D01*
X103050000Y-221950000D02*
X103050000Y-220050000D01*
X104950000Y-220050000D02*
X104950000Y-221950000D01*
X104950000Y-221950000D02*
X103050000Y-221950000D01*
%TO.C,TP15*%
X155050000Y-220050000D02*
X156950000Y-220050000D01*
X155050000Y-221950000D02*
X155050000Y-220050000D01*
X156950000Y-220050000D02*
X156950000Y-221950000D01*
X156950000Y-221950000D02*
X155050000Y-221950000D01*
%TO.C,R90*%
X103772936Y-181265000D02*
X104227064Y-181265000D01*
X103772936Y-182735000D02*
X104227064Y-182735000D01*
%TO.C,U10*%
X75160000Y-58670000D02*
X75160000Y-63870000D01*
X75160000Y-63870000D02*
X80460000Y-63870000D01*
X76810000Y-58670000D02*
X75160000Y-58670000D01*
X80460000Y-58670000D02*
X78810000Y-58670000D01*
X80460000Y-63870000D02*
X80460000Y-58670000D01*
X78810000Y-58670000D02*
G75*
G02*
X76810000Y-58670000I-1000000J0D01*
G01*
%TO.C,U26*%
X75160000Y-154670000D02*
X75160000Y-159870000D01*
X75160000Y-159870000D02*
X80460000Y-159870000D01*
X76810000Y-154670000D02*
X75160000Y-154670000D01*
X80460000Y-154670000D02*
X78810000Y-154670000D01*
X80460000Y-159870000D02*
X80460000Y-154670000D01*
X78810000Y-154670000D02*
G75*
G02*
X76810000Y-154670000I-1000000J0D01*
G01*
%TO.C,D15*%
X150390000Y-34150000D02*
X150390000Y-35850000D01*
X150390000Y-34150000D02*
X153050000Y-34150000D01*
X150390000Y-35850000D02*
X153050000Y-35850000D01*
%TO.C,R79*%
X149265000Y-153227064D02*
X149265000Y-152772936D01*
X150735000Y-153227064D02*
X150735000Y-152772936D01*
%TO.C,R68*%
X149265000Y-71227064D02*
X149265000Y-70772936D01*
X150735000Y-71227064D02*
X150735000Y-70772936D01*
%TO.C,C3*%
X139738748Y-95265000D02*
X140261252Y-95265000D01*
X139738748Y-96735000D02*
X140261252Y-96735000D01*
%TO.C,TP5*%
X33050000Y-213050000D02*
X34950000Y-213050000D01*
X33050000Y-214950000D02*
X33050000Y-213050000D01*
X34950000Y-213050000D02*
X34950000Y-214950000D01*
X34950000Y-214950000D02*
X33050000Y-214950000D01*
%TO.C,TP14*%
X147050000Y-220050000D02*
X148950000Y-220050000D01*
X147050000Y-221950000D02*
X147050000Y-220050000D01*
X148950000Y-220050000D02*
X148950000Y-221950000D01*
X148950000Y-221950000D02*
X147050000Y-221950000D01*
%TO.C,Q16*%
X159240000Y-94440000D02*
X160760000Y-94440000D01*
X159240000Y-94490000D02*
X159240000Y-94440000D01*
X159240000Y-96390000D02*
X159240000Y-95610000D01*
X159240000Y-97560000D02*
X159240000Y-97510000D01*
X160760000Y-94440000D02*
X160760000Y-95440000D01*
X160760000Y-96560000D02*
X160760000Y-97560000D01*
X160760000Y-97560000D02*
X159240000Y-97560000D01*
X158700000Y-95620000D02*
X158940000Y-95950000D01*
X158460000Y-95950000D01*
X158700000Y-95620000D01*
G36*
X158940000Y-95950000D02*
G01*
X158460000Y-95950000D01*
X158700000Y-95620000D01*
X158940000Y-95950000D01*
G37*
%TO.C,C9*%
X229265000Y-182261252D02*
X229265000Y-181738748D01*
X230735000Y-182261252D02*
X230735000Y-181738748D01*
%TO.C,R84*%
X221265000Y-175227064D02*
X221265000Y-174772936D01*
X222735000Y-175227064D02*
X222735000Y-174772936D01*
%TO.C,D10*%
X220350000Y-171510000D02*
X220350000Y-166000000D01*
X220350000Y-171510000D02*
X223650000Y-171510000D01*
X223650000Y-171510000D02*
X223650000Y-166000000D01*
%TO.C,R98*%
X142265000Y-190227064D02*
X142265000Y-189772936D01*
X143735000Y-190227064D02*
X143735000Y-189772936D01*
%TO.C,U35*%
X75160000Y-208670000D02*
X75160000Y-213870000D01*
X75160000Y-213870000D02*
X80460000Y-213870000D01*
X76810000Y-208670000D02*
X75160000Y-208670000D01*
X80460000Y-208670000D02*
X78810000Y-208670000D01*
X80460000Y-213870000D02*
X80460000Y-208670000D01*
X78810000Y-208670000D02*
G75*
G02*
X76810000Y-208670000I-1000000J0D01*
G01*
%TO.C,C5*%
X229265000Y-94261252D02*
X229265000Y-93738748D01*
X230735000Y-94261252D02*
X230735000Y-93738748D01*
%TO.C,R14*%
X91772936Y-55065000D02*
X92227064Y-55065000D01*
X91772936Y-56535000D02*
X92227064Y-56535000D01*
%TO.C,R15*%
X57772936Y-57465000D02*
X58227064Y-57465000D01*
X57772936Y-58935000D02*
X58227064Y-58935000D01*
%TO.C,U4*%
X75160000Y-22670000D02*
X75160000Y-27870000D01*
X75160000Y-27870000D02*
X80460000Y-27870000D01*
X76810000Y-22670000D02*
X75160000Y-22670000D01*
X80460000Y-22670000D02*
X78810000Y-22670000D01*
X80460000Y-27870000D02*
X80460000Y-22670000D01*
X78810000Y-22670000D02*
G75*
G02*
X76810000Y-22670000I-1000000J0D01*
G01*
%TO.C,R47*%
X57772936Y-153465000D02*
X58227064Y-153465000D01*
X57772936Y-154935000D02*
X58227064Y-154935000D01*
%TO.C,R83*%
X149265000Y-181227064D02*
X149265000Y-180772936D01*
X150735000Y-181227064D02*
X150735000Y-180772936D01*
%TO.C,R72*%
X221265000Y-87227064D02*
X221265000Y-86772936D01*
X222735000Y-87227064D02*
X222735000Y-86772936D01*
%TO.C,K6*%
X173090000Y-183000000D02*
X173090000Y-181000000D01*
X173350000Y-173650000D02*
X173350000Y-190350000D01*
X173350000Y-190350000D02*
X196050000Y-190350000D01*
X177600000Y-181650000D02*
X177600000Y-182350000D01*
X177600000Y-182350000D02*
X178800000Y-182350000D01*
X178200000Y-180650000D02*
X178200000Y-177500000D01*
X178200000Y-186500000D02*
X178200000Y-183350000D01*
X178400000Y-182350000D02*
X178000000Y-181650000D01*
X178800000Y-181650000D02*
X177600000Y-181650000D01*
X178800000Y-182350000D02*
X178800000Y-181650000D01*
X196050000Y-173650000D02*
X173350000Y-173650000D01*
X196050000Y-190350000D02*
X196050000Y-173650000D01*
%TO.C,Q9*%
X115240000Y-196440000D02*
X116760000Y-196440000D01*
X115240000Y-196490000D02*
X115240000Y-196440000D01*
X115240000Y-198390000D02*
X115240000Y-197610000D01*
X115240000Y-199560000D02*
X115240000Y-199510000D01*
X116760000Y-196440000D02*
X116760000Y-197440000D01*
X116760000Y-198560000D02*
X116760000Y-199560000D01*
X116760000Y-199560000D02*
X115240000Y-199560000D01*
X114700000Y-197620000D02*
X114940000Y-197950000D01*
X114460000Y-197950000D01*
X114700000Y-197620000D01*
G36*
X114940000Y-197950000D02*
G01*
X114460000Y-197950000D01*
X114700000Y-197620000D01*
X114940000Y-197950000D01*
G37*
%TO.C,R87*%
X221265000Y-197227064D02*
X221265000Y-196772936D01*
X222735000Y-197227064D02*
X222735000Y-196772936D01*
%TO.C,J2*%
X101340000Y-4680000D02*
X116820000Y-4680000D01*
X101340000Y-7700000D02*
X116820000Y-7700000D01*
X101340000Y-12600000D02*
X116820000Y-12600000D01*
X101340000Y-14100000D02*
X116820000Y-14100000D01*
X101340000Y-14720000D02*
X101340000Y-4680000D01*
X103700000Y-14720000D02*
X101340000Y-14720000D01*
X116820000Y-4680000D02*
X116820000Y-14720000D01*
X116820000Y-14720000D02*
X104300000Y-14720000D01*
X104000000Y-14720000D02*
X104440000Y-15330000D01*
X103560000Y-15330000D01*
X104000000Y-14720000D01*
G36*
X104440000Y-15330000D02*
G01*
X103560000Y-15330000D01*
X104000000Y-14720000D01*
X104440000Y-15330000D01*
G37*
%TO.C,TP3*%
X115050000Y-213050000D02*
X116950000Y-213050000D01*
X115050000Y-214950000D02*
X115050000Y-213050000D01*
X116950000Y-213050000D02*
X116950000Y-214950000D01*
X116950000Y-214950000D02*
X115050000Y-214950000D01*
%TO.C,D6*%
X220350000Y-127510000D02*
X220350000Y-122000000D01*
X220350000Y-127510000D02*
X223650000Y-127510000D01*
X223650000Y-127510000D02*
X223650000Y-122000000D01*
%TO.C,R17*%
X57772936Y-63465000D02*
X58227064Y-63465000D01*
X57772936Y-64935000D02*
X58227064Y-64935000D01*
%TO.C,K1*%
X173090000Y-73000000D02*
X173090000Y-71000000D01*
X173350000Y-63650000D02*
X173350000Y-80350000D01*
X173350000Y-80350000D02*
X196050000Y-80350000D01*
X177600000Y-71650000D02*
X177600000Y-72350000D01*
X177600000Y-72350000D02*
X178800000Y-72350000D01*
X178200000Y-70650000D02*
X178200000Y-67500000D01*
X178200000Y-76500000D02*
X178200000Y-73350000D01*
X178400000Y-72350000D02*
X178000000Y-71650000D01*
X178800000Y-71650000D02*
X177600000Y-71650000D01*
X178800000Y-72350000D02*
X178800000Y-71650000D01*
X196050000Y-63650000D02*
X173350000Y-63650000D01*
X196050000Y-80350000D02*
X196050000Y-63650000D01*
%TO.C,R102*%
X141265000Y-47227064D02*
X141265000Y-46772936D01*
X142735000Y-47227064D02*
X142735000Y-46772936D01*
%TO.C,J5*%
X4250000Y-170950000D02*
X4250000Y-168950000D01*
X5500000Y-170950000D02*
X4250000Y-170950000D01*
X5600000Y-128000000D02*
X6600000Y-128250000D01*
X5600000Y-131000000D02*
X5600000Y-128000000D01*
X5600000Y-131500000D02*
X6600000Y-131750000D01*
X5600000Y-134500000D02*
X5600000Y-131500000D01*
X5600000Y-135000000D02*
X6600000Y-135250000D01*
X5600000Y-138000000D02*
X5600000Y-135000000D01*
X5600000Y-138500000D02*
X6600000Y-138750000D01*
X5600000Y-141500000D02*
X5600000Y-138500000D01*
X5600000Y-142000000D02*
X6600000Y-142250000D01*
X5600000Y-145000000D02*
X5600000Y-142000000D01*
X5600000Y-145500000D02*
X6600000Y-145750000D01*
X5600000Y-148500000D02*
X5600000Y-145500000D01*
X5600000Y-149000000D02*
X6600000Y-149250000D01*
X5600000Y-152000000D02*
X5600000Y-149000000D01*
X5600000Y-152500000D02*
X6600000Y-152750000D01*
X5600000Y-155500000D02*
X5600000Y-152500000D01*
X5600000Y-156000000D02*
X6600000Y-156250000D01*
X5600000Y-159000000D02*
X5600000Y-156000000D01*
X5600000Y-159500000D02*
X6600000Y-159750000D01*
X5600000Y-162500000D02*
X5600000Y-159500000D01*
X5600000Y-163000000D02*
X6600000Y-163250000D01*
X5600000Y-166000000D02*
X5600000Y-163000000D01*
X5600000Y-166500000D02*
X6600000Y-166750000D01*
X5600000Y-169500000D02*
X5600000Y-166500000D01*
X6600000Y-128250000D02*
X6600000Y-128750000D01*
X6600000Y-128750000D02*
X6950000Y-128750000D01*
X6600000Y-130250000D02*
X6600000Y-130750000D01*
X6600000Y-130750000D02*
X5600000Y-131000000D01*
X6600000Y-131750000D02*
X6600000Y-132250000D01*
X6600000Y-132250000D02*
X6950000Y-132250000D01*
X6600000Y-133750000D02*
X6600000Y-134250000D01*
X6600000Y-134250000D02*
X5600000Y-134500000D01*
X6600000Y-135250000D02*
X6600000Y-135750000D01*
X6600000Y-135750000D02*
X6950000Y-135750000D01*
X6600000Y-137250000D02*
X6600000Y-137750000D01*
X6600000Y-137750000D02*
X5600000Y-138000000D01*
X6600000Y-138750000D02*
X6600000Y-139250000D01*
X6600000Y-139250000D02*
X6950000Y-139250000D01*
X6600000Y-140750000D02*
X6600000Y-141250000D01*
X6600000Y-141250000D02*
X5600000Y-141500000D01*
X6600000Y-142250000D02*
X6600000Y-142750000D01*
X6600000Y-142750000D02*
X6950000Y-142750000D01*
X6600000Y-144250000D02*
X6600000Y-144750000D01*
X6600000Y-144750000D02*
X5600000Y-145000000D01*
X6600000Y-145750000D02*
X6600000Y-146250000D01*
X6600000Y-146250000D02*
X6950000Y-146250000D01*
X6600000Y-147750000D02*
X6600000Y-148250000D01*
X6600000Y-148250000D02*
X5600000Y-148500000D01*
X6600000Y-149250000D02*
X6600000Y-149750000D01*
X6600000Y-149750000D02*
X6950000Y-149750000D01*
X6600000Y-151250000D02*
X6600000Y-151750000D01*
X6600000Y-151750000D02*
X5600000Y-152000000D01*
X6600000Y-152750000D02*
X6600000Y-153250000D01*
X6600000Y-153250000D02*
X6950000Y-153250000D01*
X6600000Y-154750000D02*
X6600000Y-155250000D01*
X6600000Y-155250000D02*
X5600000Y-155500000D01*
X6600000Y-156250000D02*
X6600000Y-156750000D01*
X6600000Y-156750000D02*
X6950000Y-156750000D01*
X6600000Y-158250000D02*
X6600000Y-158750000D01*
X6600000Y-158750000D02*
X5600000Y-159000000D01*
X6600000Y-159750000D02*
X6600000Y-160250000D01*
X6600000Y-160250000D02*
X6950000Y-160250000D01*
X6600000Y-161750000D02*
X6600000Y-162250000D01*
X6600000Y-162250000D02*
X5600000Y-162500000D01*
X6600000Y-163250000D02*
X6600000Y-163750000D01*
X6600000Y-163750000D02*
X6950000Y-163750000D01*
X6600000Y-165250000D02*
X6600000Y-165750000D01*
X6600000Y-165750000D02*
X5600000Y-166000000D01*
X6600000Y-166750000D02*
X6600000Y-167250000D01*
X6600000Y-167250000D02*
X6950000Y-167250000D01*
X6600000Y-168750000D02*
X6600000Y-169250000D01*
X6600000Y-169250000D02*
X5600000Y-169500000D01*
X6950000Y-128000000D02*
X11250000Y-128000000D01*
X6950000Y-128750000D02*
X6950000Y-128000000D01*
X6950000Y-130250000D02*
X6600000Y-130250000D01*
X6950000Y-131000000D02*
X6950000Y-130250000D01*
X6950000Y-131500000D02*
X11250000Y-131500000D01*
X6950000Y-132250000D02*
X6950000Y-131500000D01*
X6950000Y-133750000D02*
X6600000Y-133750000D01*
X6950000Y-134500000D02*
X6950000Y-133750000D01*
X6950000Y-135000000D02*
X11250000Y-135000000D01*
X6950000Y-135750000D02*
X6950000Y-135000000D01*
X6950000Y-137250000D02*
X6600000Y-137250000D01*
X6950000Y-138000000D02*
X6950000Y-137250000D01*
X6950000Y-138500000D02*
X11250000Y-138500000D01*
X6950000Y-139250000D02*
X6950000Y-138500000D01*
X6950000Y-140750000D02*
X6600000Y-140750000D01*
X6950000Y-141500000D02*
X6950000Y-140750000D01*
X6950000Y-142000000D02*
X11250000Y-142000000D01*
X6950000Y-142750000D02*
X6950000Y-142000000D01*
X6950000Y-144250000D02*
X6600000Y-144250000D01*
X6950000Y-145000000D02*
X6950000Y-144250000D01*
X6950000Y-145500000D02*
X11250000Y-145500000D01*
X6950000Y-146250000D02*
X6950000Y-145500000D01*
X6950000Y-147750000D02*
X6600000Y-147750000D01*
X6950000Y-148500000D02*
X6950000Y-147750000D01*
X6950000Y-149000000D02*
X11250000Y-149000000D01*
X6950000Y-149750000D02*
X6950000Y-149000000D01*
X6950000Y-151250000D02*
X6600000Y-151250000D01*
X6950000Y-152000000D02*
X6950000Y-151250000D01*
X6950000Y-152500000D02*
X11250000Y-152500000D01*
X6950000Y-153250000D02*
X6950000Y-152500000D01*
X6950000Y-154750000D02*
X6600000Y-154750000D01*
X6950000Y-155500000D02*
X6950000Y-154750000D01*
X6950000Y-156000000D02*
X11250000Y-156000000D01*
X6950000Y-156750000D02*
X6950000Y-156000000D01*
X6950000Y-158250000D02*
X6600000Y-158250000D01*
X6950000Y-159000000D02*
X6950000Y-158250000D01*
X6950000Y-159500000D02*
X11250000Y-159500000D01*
X6950000Y-160250000D02*
X6950000Y-159500000D01*
X6950000Y-161750000D02*
X6600000Y-161750000D01*
X6950000Y-162500000D02*
X6950000Y-161750000D01*
X6950000Y-163000000D02*
X11250000Y-163000000D01*
X6950000Y-163750000D02*
X6950000Y-163000000D01*
X6950000Y-165250000D02*
X6600000Y-165250000D01*
X6950000Y-166000000D02*
X6950000Y-165250000D01*
X6950000Y-166500000D02*
X11250000Y-166500000D01*
X6950000Y-167250000D02*
X6950000Y-166500000D01*
X6950000Y-168750000D02*
X6600000Y-168750000D01*
X6950000Y-169500000D02*
X6950000Y-168750000D01*
X11250000Y-128000000D02*
X11250000Y-128750000D01*
X11250000Y-130250000D02*
X11250000Y-131000000D01*
X11250000Y-131000000D02*
X6950000Y-131000000D01*
X11250000Y-131500000D02*
X11250000Y-132250000D01*
X11250000Y-133750000D02*
X11250000Y-134500000D01*
X11250000Y-134500000D02*
X6950000Y-134500000D01*
X11250000Y-135000000D02*
X11250000Y-135750000D01*
X11250000Y-137250000D02*
X11250000Y-138000000D01*
X11250000Y-138000000D02*
X6950000Y-138000000D01*
X11250000Y-138500000D02*
X11250000Y-139250000D01*
X11250000Y-140750000D02*
X11250000Y-141500000D01*
X11250000Y-141500000D02*
X6950000Y-141500000D01*
X11250000Y-142000000D02*
X11250000Y-142750000D01*
X11250000Y-144250000D02*
X11250000Y-145000000D01*
X11250000Y-145000000D02*
X6950000Y-145000000D01*
X11250000Y-145500000D02*
X11250000Y-146250000D01*
X11250000Y-147750000D02*
X11250000Y-148500000D01*
X11250000Y-148500000D02*
X6950000Y-148500000D01*
X11250000Y-149000000D02*
X11250000Y-149750000D01*
X11250000Y-151250000D02*
X11250000Y-152000000D01*
X11250000Y-152000000D02*
X6950000Y-152000000D01*
X11250000Y-152500000D02*
X11250000Y-153250000D01*
X11250000Y-154750000D02*
X11250000Y-155500000D01*
X11250000Y-155500000D02*
X6950000Y-155500000D01*
X11250000Y-156000000D02*
X11250000Y-156750000D01*
X11250000Y-158250000D02*
X11250000Y-159000000D01*
X11250000Y-159000000D02*
X6950000Y-159000000D01*
X11250000Y-159500000D02*
X11250000Y-160250000D01*
X11250000Y-161750000D02*
X11250000Y-162500000D01*
X11250000Y-162500000D02*
X6950000Y-162500000D01*
X11250000Y-163000000D02*
X11250000Y-163750000D01*
X11250000Y-165250000D02*
X11250000Y-166000000D01*
X11250000Y-166000000D02*
X6950000Y-166000000D01*
X11250000Y-166500000D02*
X11250000Y-167250000D01*
X11250000Y-168750000D02*
X11250000Y-169500000D01*
X11250000Y-169500000D02*
X6950000Y-169500000D01*
X4640000Y-126940000D02*
X12110000Y-126940000D01*
X12110000Y-170560000D01*
X4640000Y-170560000D01*
X4640000Y-126940000D01*
X11250000Y-130250000D02*
G75*
G02*
X11249844Y-128750353I1700000J750000D01*
G01*
X11250000Y-133750000D02*
G75*
G02*
X11249844Y-132250353I1700000J750000D01*
G01*
X11250000Y-137250000D02*
G75*
G02*
X11249844Y-135750353I1700000J750000D01*
G01*
X11250000Y-140750000D02*
G75*
G02*
X11249844Y-139250353I1700000J750000D01*
G01*
X11250000Y-144250000D02*
G75*
G02*
X11249844Y-142750353I1700000J750000D01*
G01*
X11250000Y-147750000D02*
G75*
G02*
X11249844Y-146250353I1700000J750000D01*
G01*
X11250000Y-151250000D02*
G75*
G02*
X11249844Y-149750353I1700000J750000D01*
G01*
X11250000Y-154750000D02*
G75*
G02*
X11249844Y-153250353I1700000J750000D01*
G01*
X11250000Y-158250000D02*
G75*
G02*
X11249844Y-156750353I1700000J750000D01*
G01*
X11250000Y-161750000D02*
G75*
G02*
X11249844Y-160250353I1700000J750000D01*
G01*
X11250000Y-165250000D02*
G75*
G02*
X11249844Y-163750353I1700000J750000D01*
G01*
X11250000Y-168750000D02*
G75*
G02*
X11249844Y-167250353I1700000J750000D01*
G01*
%TO.C,U5*%
X75160000Y-28670000D02*
X75160000Y-33870000D01*
X75160000Y-33870000D02*
X80460000Y-33870000D01*
X76810000Y-28670000D02*
X75160000Y-28670000D01*
X80460000Y-28670000D02*
X78810000Y-28670000D01*
X80460000Y-33870000D02*
X80460000Y-28670000D01*
X78810000Y-28670000D02*
G75*
G02*
X76810000Y-28670000I-1000000J0D01*
G01*
%TO.C,R100*%
X145265000Y-40227064D02*
X145265000Y-39772936D01*
X146735000Y-40227064D02*
X146735000Y-39772936D01*
%TO.C,R6*%
X91772936Y-31065000D02*
X92227064Y-31065000D01*
X91772936Y-32535000D02*
X92227064Y-32535000D01*
%TO.C,U27*%
X75160000Y-160670000D02*
X75160000Y-165870000D01*
X75160000Y-165870000D02*
X80460000Y-165870000D01*
X76810000Y-160670000D02*
X75160000Y-160670000D01*
X80460000Y-160670000D02*
X78810000Y-160670000D01*
X80460000Y-165870000D02*
X80460000Y-160670000D01*
X78810000Y-160670000D02*
G75*
G02*
X76810000Y-160670000I-1000000J0D01*
G01*
%TO.C,U29*%
X75160000Y-172670000D02*
X75160000Y-177870000D01*
X75160000Y-177870000D02*
X80460000Y-177870000D01*
X76810000Y-172670000D02*
X75160000Y-172670000D01*
X80460000Y-172670000D02*
X78810000Y-172670000D01*
X80460000Y-177870000D02*
X80460000Y-172670000D01*
X78810000Y-172670000D02*
G75*
G02*
X76810000Y-172670000I-1000000J0D01*
G01*
%TO.C,R11*%
X57772936Y-45465000D02*
X58227064Y-45465000D01*
X57772936Y-46935000D02*
X58227064Y-46935000D01*
%TO.C,R59*%
X57772936Y-189465000D02*
X58227064Y-189465000D01*
X57772936Y-190935000D02*
X58227064Y-190935000D01*
%TO.C,R108*%
X132265000Y-98227064D02*
X132265000Y-97772936D01*
X133735000Y-98227064D02*
X133735000Y-97772936D01*
%TO.C,R54*%
X91772936Y-175065000D02*
X92227064Y-175065000D01*
X91772936Y-176535000D02*
X92227064Y-176535000D01*
%TO.C,R4*%
X91772936Y-25065000D02*
X92227064Y-25065000D01*
X91772936Y-26535000D02*
X92227064Y-26535000D01*
%TO.C,R16*%
X91772936Y-61065000D02*
X92227064Y-61065000D01*
X91772936Y-62535000D02*
X92227064Y-62535000D01*
%TO.C,R20*%
X91772936Y-73065000D02*
X92227064Y-73065000D01*
X91772936Y-74535000D02*
X92227064Y-74535000D01*
%TO.C,D17*%
X97490000Y-22350000D02*
X97490000Y-25650000D01*
X97490000Y-22350000D02*
X103000000Y-22350000D01*
X97490000Y-25650000D02*
X103000000Y-25650000D01*
%TO.C,R7*%
X57772936Y-33465000D02*
X58227064Y-33465000D01*
X57772936Y-34935000D02*
X58227064Y-34935000D01*
%TO.C,D5*%
X162390000Y-121150000D02*
X162390000Y-122850000D01*
X162390000Y-121150000D02*
X165050000Y-121150000D01*
X162390000Y-122850000D02*
X165050000Y-122850000D01*
%TO.C,U33*%
X75160000Y-196670000D02*
X75160000Y-201870000D01*
X75160000Y-201870000D02*
X80460000Y-201870000D01*
X76810000Y-196670000D02*
X75160000Y-196670000D01*
X80460000Y-196670000D02*
X78810000Y-196670000D01*
X80460000Y-201870000D02*
X80460000Y-196670000D01*
X78810000Y-196670000D02*
G75*
G02*
X76810000Y-196670000I-1000000J0D01*
G01*
%TO.C,R76*%
X149265000Y-131227064D02*
X149265000Y-130772936D01*
X150735000Y-131227064D02*
X150735000Y-130772936D01*
%TO.C,J4*%
X4250000Y-105950000D02*
X4250000Y-103950000D01*
X5500000Y-105950000D02*
X4250000Y-105950000D01*
X5600000Y-56000000D02*
X6600000Y-56250000D01*
X5600000Y-59000000D02*
X5600000Y-56000000D01*
X5600000Y-59500000D02*
X6600000Y-59750000D01*
X5600000Y-62500000D02*
X5600000Y-59500000D01*
X5600000Y-63000000D02*
X6600000Y-63250000D01*
X5600000Y-66000000D02*
X5600000Y-63000000D01*
X5600000Y-66500000D02*
X6600000Y-66750000D01*
X5600000Y-69500000D02*
X5600000Y-66500000D01*
X5600000Y-70000000D02*
X6600000Y-70250000D01*
X5600000Y-73000000D02*
X5600000Y-70000000D01*
X5600000Y-73500000D02*
X6600000Y-73750000D01*
X5600000Y-76500000D02*
X5600000Y-73500000D01*
X5600000Y-77000000D02*
X6600000Y-77250000D01*
X5600000Y-80000000D02*
X5600000Y-77000000D01*
X5600000Y-80500000D02*
X6600000Y-80750000D01*
X5600000Y-83500000D02*
X5600000Y-80500000D01*
X5600000Y-84000000D02*
X6600000Y-84250000D01*
X5600000Y-87000000D02*
X5600000Y-84000000D01*
X5600000Y-87500000D02*
X6600000Y-87750000D01*
X5600000Y-90500000D02*
X5600000Y-87500000D01*
X5600000Y-91000000D02*
X6600000Y-91250000D01*
X5600000Y-94000000D02*
X5600000Y-91000000D01*
X5600000Y-94500000D02*
X6600000Y-94750000D01*
X5600000Y-97500000D02*
X5600000Y-94500000D01*
X5600000Y-98000000D02*
X6600000Y-98250000D01*
X5600000Y-101000000D02*
X5600000Y-98000000D01*
X5600000Y-101500000D02*
X6600000Y-101750000D01*
X5600000Y-104500000D02*
X5600000Y-101500000D01*
X6600000Y-56250000D02*
X6600000Y-56750000D01*
X6600000Y-56750000D02*
X6950000Y-56750000D01*
X6600000Y-58250000D02*
X6600000Y-58750000D01*
X6600000Y-58750000D02*
X5600000Y-59000000D01*
X6600000Y-59750000D02*
X6600000Y-60250000D01*
X6600000Y-60250000D02*
X6950000Y-60250000D01*
X6600000Y-61750000D02*
X6600000Y-62250000D01*
X6600000Y-62250000D02*
X5600000Y-62500000D01*
X6600000Y-63250000D02*
X6600000Y-63750000D01*
X6600000Y-63750000D02*
X6950000Y-63750000D01*
X6600000Y-65250000D02*
X6600000Y-65750000D01*
X6600000Y-65750000D02*
X5600000Y-66000000D01*
X6600000Y-66750000D02*
X6600000Y-67250000D01*
X6600000Y-67250000D02*
X6950000Y-67250000D01*
X6600000Y-68750000D02*
X6600000Y-69250000D01*
X6600000Y-69250000D02*
X5600000Y-69500000D01*
X6600000Y-70250000D02*
X6600000Y-70750000D01*
X6600000Y-70750000D02*
X6950000Y-70750000D01*
X6600000Y-72250000D02*
X6600000Y-72750000D01*
X6600000Y-72750000D02*
X5600000Y-73000000D01*
X6600000Y-73750000D02*
X6600000Y-74250000D01*
X6600000Y-74250000D02*
X6950000Y-74250000D01*
X6600000Y-75750000D02*
X6600000Y-76250000D01*
X6600000Y-76250000D02*
X5600000Y-76500000D01*
X6600000Y-77250000D02*
X6600000Y-77750000D01*
X6600000Y-77750000D02*
X6950000Y-77750000D01*
X6600000Y-79250000D02*
X6600000Y-79750000D01*
X6600000Y-79750000D02*
X5600000Y-80000000D01*
X6600000Y-80750000D02*
X6600000Y-81250000D01*
X6600000Y-81250000D02*
X6950000Y-81250000D01*
X6600000Y-82750000D02*
X6600000Y-83250000D01*
X6600000Y-83250000D02*
X5600000Y-83500000D01*
X6600000Y-84250000D02*
X6600000Y-84750000D01*
X6600000Y-84750000D02*
X6950000Y-84750000D01*
X6600000Y-86250000D02*
X6600000Y-86750000D01*
X6600000Y-86750000D02*
X5600000Y-87000000D01*
X6600000Y-87750000D02*
X6600000Y-88250000D01*
X6600000Y-88250000D02*
X6950000Y-88250000D01*
X6600000Y-89750000D02*
X6600000Y-90250000D01*
X6600000Y-90250000D02*
X5600000Y-90500000D01*
X6600000Y-91250000D02*
X6600000Y-91750000D01*
X6600000Y-91750000D02*
X6950000Y-91750000D01*
X6600000Y-93250000D02*
X6600000Y-93750000D01*
X6600000Y-93750000D02*
X5600000Y-94000000D01*
X6600000Y-94750000D02*
X6600000Y-95250000D01*
X6600000Y-95250000D02*
X6950000Y-95250000D01*
X6600000Y-96750000D02*
X6600000Y-97250000D01*
X6600000Y-97250000D02*
X5600000Y-97500000D01*
X6600000Y-98250000D02*
X6600000Y-98750000D01*
X6600000Y-98750000D02*
X6950000Y-98750000D01*
X6600000Y-100250000D02*
X6600000Y-100750000D01*
X6600000Y-100750000D02*
X5600000Y-101000000D01*
X6600000Y-101750000D02*
X6600000Y-102250000D01*
X6600000Y-102250000D02*
X6950000Y-102250000D01*
X6600000Y-103750000D02*
X6600000Y-104250000D01*
X6600000Y-104250000D02*
X5600000Y-104500000D01*
X6950000Y-56000000D02*
X11250000Y-56000000D01*
X6950000Y-56750000D02*
X6950000Y-56000000D01*
X6950000Y-58250000D02*
X6600000Y-58250000D01*
X6950000Y-59000000D02*
X6950000Y-58250000D01*
X6950000Y-59500000D02*
X11250000Y-59500000D01*
X6950000Y-60250000D02*
X6950000Y-59500000D01*
X6950000Y-61750000D02*
X6600000Y-61750000D01*
X6950000Y-62500000D02*
X6950000Y-61750000D01*
X6950000Y-63000000D02*
X11250000Y-63000000D01*
X6950000Y-63750000D02*
X6950000Y-63000000D01*
X6950000Y-65250000D02*
X6600000Y-65250000D01*
X6950000Y-66000000D02*
X6950000Y-65250000D01*
X6950000Y-66500000D02*
X11250000Y-66500000D01*
X6950000Y-67250000D02*
X6950000Y-66500000D01*
X6950000Y-68750000D02*
X6600000Y-68750000D01*
X6950000Y-69500000D02*
X6950000Y-68750000D01*
X6950000Y-70000000D02*
X11250000Y-70000000D01*
X6950000Y-70750000D02*
X6950000Y-70000000D01*
X6950000Y-72250000D02*
X6600000Y-72250000D01*
X6950000Y-73000000D02*
X6950000Y-72250000D01*
X6950000Y-73500000D02*
X11250000Y-73500000D01*
X6950000Y-74250000D02*
X6950000Y-73500000D01*
X6950000Y-75750000D02*
X6600000Y-75750000D01*
X6950000Y-76500000D02*
X6950000Y-75750000D01*
X6950000Y-77000000D02*
X11250000Y-77000000D01*
X6950000Y-77750000D02*
X6950000Y-77000000D01*
X6950000Y-79250000D02*
X6600000Y-79250000D01*
X6950000Y-80000000D02*
X6950000Y-79250000D01*
X6950000Y-80500000D02*
X11250000Y-80500000D01*
X6950000Y-81250000D02*
X6950000Y-80500000D01*
X6950000Y-82750000D02*
X6600000Y-82750000D01*
X6950000Y-83500000D02*
X6950000Y-82750000D01*
X6950000Y-84000000D02*
X11250000Y-84000000D01*
X6950000Y-84750000D02*
X6950000Y-84000000D01*
X6950000Y-86250000D02*
X6600000Y-86250000D01*
X6950000Y-87000000D02*
X6950000Y-86250000D01*
X6950000Y-87500000D02*
X11250000Y-87500000D01*
X6950000Y-88250000D02*
X6950000Y-87500000D01*
X6950000Y-89750000D02*
X6600000Y-89750000D01*
X6950000Y-90500000D02*
X6950000Y-89750000D01*
X6950000Y-91000000D02*
X11250000Y-91000000D01*
X6950000Y-91750000D02*
X6950000Y-91000000D01*
X6950000Y-93250000D02*
X6600000Y-93250000D01*
X6950000Y-94000000D02*
X6950000Y-93250000D01*
X6950000Y-94500000D02*
X11250000Y-94500000D01*
X6950000Y-95250000D02*
X6950000Y-94500000D01*
X6950000Y-96750000D02*
X6600000Y-96750000D01*
X6950000Y-97500000D02*
X6950000Y-96750000D01*
X6950000Y-98000000D02*
X11250000Y-98000000D01*
X6950000Y-98750000D02*
X6950000Y-98000000D01*
X6950000Y-100250000D02*
X6600000Y-100250000D01*
X6950000Y-101000000D02*
X6950000Y-100250000D01*
X6950000Y-101500000D02*
X11250000Y-101500000D01*
X6950000Y-102250000D02*
X6950000Y-101500000D01*
X6950000Y-103750000D02*
X6600000Y-103750000D01*
X6950000Y-104500000D02*
X6950000Y-103750000D01*
X11250000Y-56000000D02*
X11250000Y-56750000D01*
X11250000Y-58250000D02*
X11250000Y-59000000D01*
X11250000Y-59000000D02*
X6950000Y-59000000D01*
X11250000Y-59500000D02*
X11250000Y-60250000D01*
X11250000Y-61750000D02*
X11250000Y-62500000D01*
X11250000Y-62500000D02*
X6950000Y-62500000D01*
X11250000Y-63000000D02*
X11250000Y-63750000D01*
X11250000Y-65250000D02*
X11250000Y-66000000D01*
X11250000Y-66000000D02*
X6950000Y-66000000D01*
X11250000Y-66500000D02*
X11250000Y-67250000D01*
X11250000Y-68750000D02*
X11250000Y-69500000D01*
X11250000Y-69500000D02*
X6950000Y-69500000D01*
X11250000Y-70000000D02*
X11250000Y-70750000D01*
X11250000Y-72250000D02*
X11250000Y-73000000D01*
X11250000Y-73000000D02*
X6950000Y-73000000D01*
X11250000Y-73500000D02*
X11250000Y-74250000D01*
X11250000Y-75750000D02*
X11250000Y-76500000D01*
X11250000Y-76500000D02*
X6950000Y-76500000D01*
X11250000Y-77000000D02*
X11250000Y-77750000D01*
X11250000Y-79250000D02*
X11250000Y-80000000D01*
X11250000Y-80000000D02*
X6950000Y-80000000D01*
X11250000Y-80500000D02*
X11250000Y-81250000D01*
X11250000Y-82750000D02*
X11250000Y-83500000D01*
X11250000Y-83500000D02*
X6950000Y-83500000D01*
X11250000Y-84000000D02*
X11250000Y-84750000D01*
X11250000Y-86250000D02*
X11250000Y-87000000D01*
X11250000Y-87000000D02*
X6950000Y-87000000D01*
X11250000Y-87500000D02*
X11250000Y-88250000D01*
X11250000Y-89750000D02*
X11250000Y-90500000D01*
X11250000Y-90500000D02*
X6950000Y-90500000D01*
X11250000Y-91000000D02*
X11250000Y-91750000D01*
X11250000Y-93250000D02*
X11250000Y-94000000D01*
X11250000Y-94000000D02*
X6950000Y-94000000D01*
X11250000Y-94500000D02*
X11250000Y-95250000D01*
X11250000Y-96750000D02*
X11250000Y-97500000D01*
X11250000Y-97500000D02*
X6950000Y-97500000D01*
X11250000Y-98000000D02*
X11250000Y-98750000D01*
X11250000Y-100250000D02*
X11250000Y-101000000D01*
X11250000Y-101000000D02*
X6950000Y-101000000D01*
X11250000Y-101500000D02*
X11250000Y-102250000D01*
X11250000Y-103750000D02*
X11250000Y-104500000D01*
X11250000Y-104500000D02*
X6950000Y-104500000D01*
X4640000Y-54940000D02*
X12110000Y-54940000D01*
X12110000Y-105560000D01*
X4640000Y-105560000D01*
X4640000Y-54940000D01*
X11250000Y-58250000D02*
G75*
G02*
X11249844Y-56750353I1700000J750000D01*
G01*
X11250000Y-61750000D02*
G75*
G02*
X11249844Y-60250353I1700000J750000D01*
G01*
X11250000Y-65250000D02*
G75*
G02*
X11249844Y-63750353I1700000J750000D01*
G01*
X11250000Y-68750000D02*
G75*
G02*
X11249844Y-67250353I1700000J750000D01*
G01*
X11250000Y-72250000D02*
G75*
G02*
X11249844Y-70750353I1700000J750000D01*
G01*
X11250000Y-75750000D02*
G75*
G02*
X11249844Y-74250353I1700000J750000D01*
G01*
X11250000Y-79250000D02*
G75*
G02*
X11249844Y-77750353I1700000J750000D01*
G01*
X11250000Y-82750000D02*
G75*
G02*
X11249844Y-81250353I1700000J750000D01*
G01*
X11250000Y-86250000D02*
G75*
G02*
X11249844Y-84750353I1700000J750000D01*
G01*
X11250000Y-89750000D02*
G75*
G02*
X11249844Y-88250353I1700000J750000D01*
G01*
X11250000Y-93250000D02*
G75*
G02*
X11249844Y-91750353I1700000J750000D01*
G01*
X11250000Y-96750000D02*
G75*
G02*
X11249844Y-95250353I1700000J750000D01*
G01*
X11250000Y-100250000D02*
G75*
G02*
X11249844Y-98750353I1700000J750000D01*
G01*
X11250000Y-103750000D02*
G75*
G02*
X11249844Y-102250353I1700000J750000D01*
G01*
%TO.C,R10*%
X91772936Y-43065000D02*
X92227064Y-43065000D01*
X91772936Y-44535000D02*
X92227064Y-44535000D01*
%TO.C,K5*%
X173090000Y-161000000D02*
X173090000Y-159000000D01*
X173350000Y-151650000D02*
X173350000Y-168350000D01*
X173350000Y-168350000D02*
X196050000Y-168350000D01*
X177600000Y-159650000D02*
X177600000Y-160350000D01*
X177600000Y-160350000D02*
X178800000Y-160350000D01*
X178200000Y-158650000D02*
X178200000Y-155500000D01*
X178200000Y-164500000D02*
X178200000Y-161350000D01*
X178400000Y-160350000D02*
X178000000Y-159650000D01*
X178800000Y-159650000D02*
X177600000Y-159650000D01*
X178800000Y-160350000D02*
X178800000Y-159650000D01*
X196050000Y-151650000D02*
X173350000Y-151650000D01*
X196050000Y-168350000D02*
X196050000Y-151650000D01*
%TO.C,R34*%
X91772936Y-115065000D02*
X92227064Y-115065000D01*
X91772936Y-116535000D02*
X92227064Y-116535000D01*
%TO.C,C13*%
X165265000Y-42261252D02*
X165265000Y-41738748D01*
X166735000Y-42261252D02*
X166735000Y-41738748D01*
%TO.C,J8*%
X237280000Y-109340000D02*
X247320000Y-109340000D01*
X237280000Y-111700000D02*
X237280000Y-109340000D01*
X237280000Y-119740000D02*
X237280000Y-112300000D01*
X237900000Y-109340000D02*
X237900000Y-119740000D01*
X239400000Y-109340000D02*
X239400000Y-119740000D01*
X244300000Y-109340000D02*
X244300000Y-119740000D01*
X247320000Y-109340000D02*
X247320000Y-119740000D01*
X247320000Y-119740000D02*
X237280000Y-119740000D01*
X237280000Y-112000000D02*
X236670000Y-112440000D01*
X236670000Y-111560000D01*
X237280000Y-112000000D01*
G36*
X237280000Y-112000000D02*
G01*
X236670000Y-112440000D01*
X236670000Y-111560000D01*
X237280000Y-112000000D01*
G37*
%TO.C,R45*%
X57772936Y-147465000D02*
X58227064Y-147465000D01*
X57772936Y-148935000D02*
X58227064Y-148935000D01*
%TO.C,U1*%
X118140000Y-94940000D02*
X125860000Y-94940000D01*
X118140000Y-95185000D02*
X118140000Y-94940000D01*
X118140000Y-113060000D02*
X118140000Y-112815000D01*
X125860000Y-94940000D02*
X125860000Y-95185000D01*
X125860000Y-112815000D02*
X125860000Y-113060000D01*
X125860000Y-113060000D02*
X118140000Y-113060000D01*
X117350000Y-95180000D02*
X117010000Y-94710000D01*
X117690000Y-94710000D01*
X117350000Y-95180000D01*
G36*
X117350000Y-95180000D02*
G01*
X117010000Y-94710000D01*
X117690000Y-94710000D01*
X117350000Y-95180000D01*
G37*
%TO.C,R12*%
X91772936Y-49065000D02*
X92227064Y-49065000D01*
X91772936Y-50535000D02*
X92227064Y-50535000D01*
%TO.C,R32*%
X91772936Y-109065000D02*
X92227064Y-109065000D01*
X91772936Y-110535000D02*
X92227064Y-110535000D01*
%TO.C,R40*%
X91772936Y-133065000D02*
X92227064Y-133065000D01*
X91772936Y-134535000D02*
X92227064Y-134535000D01*
%TO.C,R21*%
X57772936Y-75465000D02*
X58227064Y-75465000D01*
X57772936Y-76935000D02*
X58227064Y-76935000D01*
%TO.C,R28*%
X91772936Y-97065000D02*
X92227064Y-97065000D01*
X91772936Y-98535000D02*
X92227064Y-98535000D01*
%TO.C,R49*%
X57772936Y-159465000D02*
X58227064Y-159465000D01*
X57772936Y-160935000D02*
X58227064Y-160935000D01*
%TO.C,D14*%
X220350000Y-215510000D02*
X220350000Y-210000000D01*
X220350000Y-215510000D02*
X223650000Y-215510000D01*
X223650000Y-215510000D02*
X223650000Y-210000000D01*
%TO.C,R30*%
X91772936Y-103065000D02*
X92227064Y-103065000D01*
X91772936Y-104535000D02*
X92227064Y-104535000D01*
%TO.C,J11*%
X237280000Y-175340000D02*
X247320000Y-175340000D01*
X237280000Y-177700000D02*
X237280000Y-175340000D01*
X237280000Y-185740000D02*
X237280000Y-178300000D01*
X237900000Y-175340000D02*
X237900000Y-185740000D01*
X239400000Y-175340000D02*
X239400000Y-185740000D01*
X244300000Y-175340000D02*
X244300000Y-185740000D01*
X247320000Y-175340000D02*
X247320000Y-185740000D01*
X247320000Y-185740000D02*
X237280000Y-185740000D01*
X237280000Y-178000000D02*
X236670000Y-178440000D01*
X236670000Y-177560000D01*
X237280000Y-178000000D01*
G36*
X237280000Y-178000000D02*
G01*
X236670000Y-178440000D01*
X236670000Y-177560000D01*
X237280000Y-178000000D01*
G37*
%TO.C,R82*%
X149265000Y-175227064D02*
X149265000Y-174772936D01*
X150735000Y-175227064D02*
X150735000Y-174772936D01*
%TO.C,R50*%
X91772936Y-163065000D02*
X92227064Y-163065000D01*
X91772936Y-164535000D02*
X92227064Y-164535000D01*
%TO.C,C8*%
X229265000Y-160261252D02*
X229265000Y-159738748D01*
X230735000Y-160261252D02*
X230735000Y-159738748D01*
%TO.C,U34*%
X75160000Y-202670000D02*
X75160000Y-207870000D01*
X75160000Y-207870000D02*
X80460000Y-207870000D01*
X76810000Y-202670000D02*
X75160000Y-202670000D01*
X80460000Y-202670000D02*
X78810000Y-202670000D01*
X80460000Y-207870000D02*
X80460000Y-202670000D01*
X78810000Y-202670000D02*
G75*
G02*
X76810000Y-202670000I-1000000J0D01*
G01*
%TO.C,U7*%
X75160000Y-40670000D02*
X75160000Y-45870000D01*
X75160000Y-45870000D02*
X80460000Y-45870000D01*
X76810000Y-40670000D02*
X75160000Y-40670000D01*
X80460000Y-40670000D02*
X78810000Y-40670000D01*
X80460000Y-45870000D02*
X80460000Y-40670000D01*
X78810000Y-40670000D02*
G75*
G02*
X76810000Y-40670000I-1000000J0D01*
G01*
%TO.C,R56*%
X91772936Y-181065000D02*
X92227064Y-181065000D01*
X91772936Y-182535000D02*
X92227064Y-182535000D01*
%TO.C,K2*%
X173090000Y-95000000D02*
X173090000Y-93000000D01*
X173350000Y-85650000D02*
X173350000Y-102350000D01*
X173350000Y-102350000D02*
X196050000Y-102350000D01*
X177600000Y-93650000D02*
X177600000Y-94350000D01*
X177600000Y-94350000D02*
X178800000Y-94350000D01*
X178200000Y-92650000D02*
X178200000Y-89500000D01*
X178200000Y-98500000D02*
X178200000Y-95350000D01*
X178400000Y-94350000D02*
X178000000Y-93650000D01*
X178800000Y-93650000D02*
X177600000Y-93650000D01*
X178800000Y-94350000D02*
X178800000Y-93650000D01*
X196050000Y-85650000D02*
X173350000Y-85650000D01*
X196050000Y-102350000D02*
X196050000Y-85650000D01*
%TO.C,A1*%
X113390000Y-31930000D02*
X112910000Y-31930000D01*
X113390000Y-31930000D02*
X113390000Y-32350000D01*
X113390000Y-34470000D02*
X113390000Y-34890000D01*
X113390000Y-37010000D02*
X113390000Y-37430000D01*
X113390000Y-39550000D02*
X113390000Y-39970000D01*
X113390000Y-42090000D02*
X113390000Y-42510000D01*
X113390000Y-44630000D02*
X113390000Y-45050000D01*
X113390000Y-47170000D02*
X113390000Y-47590000D01*
X113390000Y-49710000D02*
X113390000Y-50130000D01*
X113390000Y-52250000D02*
X113390000Y-52670000D01*
X113390000Y-54790000D02*
X113390000Y-55210000D01*
X113390000Y-57330000D02*
X113390000Y-57750000D01*
X113390000Y-59870000D02*
X113390000Y-60290000D01*
X113390000Y-62410000D02*
X113390000Y-62830000D01*
X113390000Y-64950000D02*
X113390000Y-65370000D01*
X113390000Y-67490000D02*
X113390000Y-67910000D01*
X113390000Y-70030000D02*
X113390000Y-70450000D01*
X113390000Y-72570000D02*
X113390000Y-72990000D01*
X113390000Y-75110000D02*
X113390000Y-75530000D01*
X113390000Y-77650000D02*
X113390000Y-78070000D01*
X113420324Y-29810000D02*
X112910000Y-29810000D01*
X114000000Y-29390000D02*
X116490000Y-29390000D01*
X114000000Y-80610000D02*
X117837939Y-80610000D01*
X116490000Y-29390000D02*
X117837940Y-29390000D01*
X118762061Y-29390000D02*
X119765000Y-29390000D01*
X119765000Y-29390000D02*
X128235000Y-29390000D01*
X120400000Y-80610000D02*
X118762061Y-80610000D01*
X122520000Y-80610000D02*
X122940000Y-80610000D01*
X125060000Y-80610000D02*
X125480000Y-80610000D01*
X128235000Y-29390000D02*
X129237939Y-29390000D01*
X129237939Y-80610000D02*
X127600000Y-80610000D01*
X130162061Y-29390000D02*
X131510000Y-29390000D01*
X130162061Y-80610000D02*
X134000000Y-80610000D01*
X134000000Y-29390000D02*
X131510000Y-29390000D01*
X134610000Y-31930000D02*
X134610000Y-32350000D01*
X134610000Y-34470000D02*
X134610000Y-34890000D01*
X134610000Y-37010000D02*
X134610000Y-37430000D01*
X134610000Y-39550000D02*
X134610000Y-39970000D01*
X134610000Y-42090000D02*
X134610000Y-42510000D01*
X134610000Y-44630000D02*
X134610000Y-45050000D01*
X134610000Y-47170000D02*
X134610000Y-47590000D01*
X134610000Y-49710000D02*
X134610000Y-50130000D01*
X134610000Y-52250000D02*
X134610000Y-52670000D01*
X134610000Y-54790000D02*
X134610000Y-55210000D01*
X134610000Y-57330000D02*
X134610000Y-57750000D01*
X134610000Y-59870000D02*
X134610000Y-60290000D01*
X134610000Y-62410000D02*
X134610000Y-62830000D01*
X134610000Y-64950000D02*
X134610000Y-65370000D01*
X134610000Y-67490000D02*
X134610000Y-67910000D01*
X134610000Y-70030000D02*
X134610000Y-70450000D01*
X134610000Y-72570000D02*
X134610000Y-72990000D01*
X134610000Y-75110000D02*
X134610000Y-75530000D01*
X134610000Y-77650000D02*
X134610000Y-78070000D01*
X113420324Y-29810000D02*
G75*
G02*
X114000000Y-29390000I579692J-190051D01*
G01*
X114000000Y-80610000D02*
G75*
G02*
X113420324Y-80189937I1J610002D01*
G01*
X134000000Y-29390000D02*
G75*
G02*
X134579676Y-29810063I0J-610000D01*
G01*
X134579676Y-80189937D02*
G75*
G02*
X134000000Y-80609948I-579476J189737D01*
G01*
%TO.C,Q4*%
X159240000Y-131440000D02*
X160760000Y-131440000D01*
X159240000Y-131490000D02*
X159240000Y-131440000D01*
X159240000Y-133390000D02*
X159240000Y-132610000D01*
X159240000Y-134560000D02*
X159240000Y-134510000D01*
X160760000Y-131440000D02*
X160760000Y-132440000D01*
X160760000Y-133560000D02*
X160760000Y-134560000D01*
X160760000Y-134560000D02*
X159240000Y-134560000D01*
X158700000Y-132620000D02*
X158940000Y-132950000D01*
X158460000Y-132950000D01*
X158700000Y-132620000D01*
G36*
X158940000Y-132950000D02*
G01*
X158460000Y-132950000D01*
X158700000Y-132620000D01*
X158940000Y-132950000D01*
G37*
%TO.C,R105*%
X161265000Y-70227064D02*
X161265000Y-69772936D01*
X162735000Y-70227064D02*
X162735000Y-69772936D01*
%TO.C,Q14*%
X157240000Y-80440000D02*
X158760000Y-80440000D01*
X157240000Y-80490000D02*
X157240000Y-80440000D01*
X157240000Y-82390000D02*
X157240000Y-81610000D01*
X157240000Y-83560000D02*
X157240000Y-83510000D01*
X158760000Y-80440000D02*
X158760000Y-81440000D01*
X158760000Y-82560000D02*
X158760000Y-83560000D01*
X158760000Y-83560000D02*
X157240000Y-83560000D01*
X156700000Y-81620000D02*
X156940000Y-81950000D01*
X156460000Y-81950000D01*
X156700000Y-81620000D01*
G36*
X156940000Y-81950000D02*
G01*
X156460000Y-81950000D01*
X156700000Y-81620000D01*
X156940000Y-81950000D01*
G37*
%TO.C,R38*%
X91772936Y-127065000D02*
X92227064Y-127065000D01*
X91772936Y-128535000D02*
X92227064Y-128535000D01*
%TO.C,R65*%
X57772936Y-207465000D02*
X58227064Y-207465000D01*
X57772936Y-208935000D02*
X58227064Y-208935000D01*
%TO.C,R57*%
X57772936Y-183465000D02*
X58227064Y-183465000D01*
X57772936Y-184935000D02*
X58227064Y-184935000D01*
%TO.C,U12*%
X75160000Y-70670000D02*
X75160000Y-75870000D01*
X75160000Y-75870000D02*
X80460000Y-75870000D01*
X76810000Y-70670000D02*
X75160000Y-70670000D01*
X80460000Y-70670000D02*
X78810000Y-70670000D01*
X80460000Y-75870000D02*
X80460000Y-70670000D01*
X78810000Y-70670000D02*
G75*
G02*
X76810000Y-70670000I-1000000J0D01*
G01*
%TO.C,U20*%
X75160000Y-118670000D02*
X75160000Y-123870000D01*
X75160000Y-123870000D02*
X80460000Y-123870000D01*
X76810000Y-118670000D02*
X75160000Y-118670000D01*
X80460000Y-118670000D02*
X78810000Y-118670000D01*
X80460000Y-123870000D02*
X80460000Y-118670000D01*
X78810000Y-118670000D02*
G75*
G02*
X76810000Y-118670000I-1000000J0D01*
G01*
%TO.C,C11*%
X152590000Y-38590000D02*
X154940000Y-38590000D01*
X152590000Y-44345563D02*
X152590000Y-38590000D01*
X153654437Y-45410000D02*
X152590000Y-44345563D01*
X153654437Y-45410000D02*
X154940000Y-45410000D01*
X153758750Y-46043750D02*
X154546250Y-46043750D01*
X154152500Y-46437500D02*
X154152500Y-45650000D01*
X158345563Y-45410000D02*
X157060000Y-45410000D01*
X158345563Y-45410000D02*
X159410000Y-44345563D01*
X159410000Y-38590000D02*
X157060000Y-38590000D01*
X159410000Y-44345563D02*
X159410000Y-38590000D01*
%TO.C,U37*%
X71690000Y-11715000D02*
X91410000Y-11715000D01*
X71690000Y-18035000D02*
X71690000Y-11715000D01*
X73604000Y-18035000D02*
X71690000Y-18035000D01*
X91410000Y-11715000D02*
X91410000Y-18035000D01*
X91410000Y-18035000D02*
X74196000Y-18035000D01*
X73900000Y-18035000D02*
X74240000Y-18505000D01*
X73560000Y-18505000D01*
X73900000Y-18035000D01*
G36*
X74240000Y-18505000D02*
G01*
X73560000Y-18505000D01*
X73900000Y-18035000D01*
X74240000Y-18505000D01*
G37*
%TO.C,TP6*%
X127050000Y-213050000D02*
X128950000Y-213050000D01*
X127050000Y-214950000D02*
X127050000Y-213050000D01*
X128950000Y-213050000D02*
X128950000Y-214950000D01*
X128950000Y-214950000D02*
X127050000Y-214950000D01*
%TO.C,TP1*%
X91050000Y-213050000D02*
X92950000Y-213050000D01*
X91050000Y-214950000D02*
X91050000Y-213050000D01*
X92950000Y-213050000D02*
X92950000Y-214950000D01*
X92950000Y-214950000D02*
X91050000Y-214950000D01*
%TO.C,R27*%
X57772936Y-93465000D02*
X58227064Y-93465000D01*
X57772936Y-94935000D02*
X58227064Y-94935000D01*
%TO.C,U22*%
X75160000Y-130670000D02*
X75160000Y-135870000D01*
X75160000Y-135870000D02*
X80460000Y-135870000D01*
X76810000Y-130670000D02*
X75160000Y-130670000D01*
X80460000Y-130670000D02*
X78810000Y-130670000D01*
X80460000Y-135870000D02*
X80460000Y-130670000D01*
X78810000Y-130670000D02*
G75*
G02*
X76810000Y-130670000I-1000000J0D01*
G01*
%TO.C,U24*%
X75160000Y-142670000D02*
X75160000Y-147870000D01*
X75160000Y-147870000D02*
X80460000Y-147870000D01*
X76810000Y-142670000D02*
X75160000Y-142670000D01*
X80460000Y-142670000D02*
X78810000Y-142670000D01*
X80460000Y-147870000D02*
X80460000Y-142670000D01*
X78810000Y-142670000D02*
G75*
G02*
X76810000Y-142670000I-1000000J0D01*
G01*
%TO.C,Q6*%
X159240000Y-175440000D02*
X160760000Y-175440000D01*
X159240000Y-175490000D02*
X159240000Y-175440000D01*
X159240000Y-177390000D02*
X159240000Y-176610000D01*
X159240000Y-178560000D02*
X159240000Y-178510000D01*
X160760000Y-175440000D02*
X160760000Y-176440000D01*
X160760000Y-177560000D02*
X160760000Y-178560000D01*
X160760000Y-178560000D02*
X159240000Y-178560000D01*
X158700000Y-176620000D02*
X158940000Y-176950000D01*
X158460000Y-176950000D01*
X158700000Y-176620000D01*
G36*
X158940000Y-176950000D02*
G01*
X158460000Y-176950000D01*
X158700000Y-176620000D01*
X158940000Y-176950000D01*
G37*
%TO.C,R2*%
X109265000Y-86227064D02*
X109265000Y-85772936D01*
X110735000Y-86227064D02*
X110735000Y-85772936D01*
%TO.C,R46*%
X91772936Y-151065000D02*
X92227064Y-151065000D01*
X91772936Y-152535000D02*
X92227064Y-152535000D01*
%TO.C,TP2*%
X103050000Y-213050000D02*
X104950000Y-213050000D01*
X103050000Y-214950000D02*
X103050000Y-213050000D01*
X104950000Y-213050000D02*
X104950000Y-214950000D01*
X104950000Y-214950000D02*
X103050000Y-214950000D01*
%TO.C,U30*%
X75160000Y-178670000D02*
X75160000Y-183870000D01*
X75160000Y-183870000D02*
X80460000Y-183870000D01*
X76810000Y-178670000D02*
X75160000Y-178670000D01*
X80460000Y-178670000D02*
X78810000Y-178670000D01*
X80460000Y-183870000D02*
X80460000Y-178670000D01*
X78810000Y-178670000D02*
G75*
G02*
X76810000Y-178670000I-1000000J0D01*
G01*
%TO.C,R106*%
X147265000Y-82227064D02*
X147265000Y-81772936D01*
X148735000Y-82227064D02*
X148735000Y-81772936D01*
%TO.C,J14*%
X157050000Y-5250000D02*
X159050000Y-5250000D01*
X157050000Y-6500000D02*
X157050000Y-5250000D01*
X158500000Y-6600000D02*
X161500000Y-6600000D01*
X158500000Y-7950000D02*
X159250000Y-7950000D01*
X158500000Y-12250000D02*
X158500000Y-7950000D01*
X158750000Y-7600000D02*
X158500000Y-6600000D01*
X159250000Y-7600000D02*
X158750000Y-7600000D01*
X159250000Y-7950000D02*
X159250000Y-7600000D01*
X159250000Y-12250000D02*
X158500000Y-12250000D01*
X160750000Y-7600000D02*
X160750000Y-7950000D01*
X160750000Y-7950000D02*
X161500000Y-7950000D01*
X161250000Y-7600000D02*
X160750000Y-7600000D01*
X161500000Y-6600000D02*
X161250000Y-7600000D01*
X161500000Y-7950000D02*
X161500000Y-12250000D01*
X161500000Y-12250000D02*
X160750000Y-12250000D01*
X162000000Y-6600000D02*
X165000000Y-6600000D01*
X162000000Y-7950000D02*
X162750000Y-7950000D01*
X162000000Y-12250000D02*
X162000000Y-7950000D01*
X162250000Y-7600000D02*
X162000000Y-6600000D01*
X162750000Y-7600000D02*
X162250000Y-7600000D01*
X162750000Y-7950000D02*
X162750000Y-7600000D01*
X162750000Y-12250000D02*
X162000000Y-12250000D01*
X164250000Y-7600000D02*
X164250000Y-7950000D01*
X164250000Y-7950000D02*
X165000000Y-7950000D01*
X164750000Y-7600000D02*
X164250000Y-7600000D01*
X165000000Y-6600000D02*
X164750000Y-7600000D01*
X165000000Y-7950000D02*
X165000000Y-12250000D01*
X165000000Y-12250000D02*
X164250000Y-12250000D01*
X165500000Y-6600000D02*
X168500000Y-6600000D01*
X165500000Y-7950000D02*
X166250000Y-7950000D01*
X165500000Y-12250000D02*
X165500000Y-7950000D01*
X165750000Y-7600000D02*
X165500000Y-6600000D01*
X166250000Y-7600000D02*
X165750000Y-7600000D01*
X166250000Y-7950000D02*
X166250000Y-7600000D01*
X166250000Y-12250000D02*
X165500000Y-12250000D01*
X167750000Y-7600000D02*
X167750000Y-7950000D01*
X167750000Y-7950000D02*
X168500000Y-7950000D01*
X168250000Y-7600000D02*
X167750000Y-7600000D01*
X168500000Y-6600000D02*
X168250000Y-7600000D01*
X168500000Y-7950000D02*
X168500000Y-12250000D01*
X168500000Y-12250000D02*
X167750000Y-12250000D01*
X169000000Y-6600000D02*
X172000000Y-6600000D01*
X169000000Y-7950000D02*
X169750000Y-7950000D01*
X169000000Y-12250000D02*
X169000000Y-7950000D01*
X169250000Y-7600000D02*
X169000000Y-6600000D01*
X169750000Y-7600000D02*
X169250000Y-7600000D01*
X169750000Y-7950000D02*
X169750000Y-7600000D01*
X169750000Y-12250000D02*
X169000000Y-12250000D01*
X171250000Y-7600000D02*
X171250000Y-7950000D01*
X171250000Y-7950000D02*
X172000000Y-7950000D01*
X171750000Y-7600000D02*
X171250000Y-7600000D01*
X172000000Y-6600000D02*
X171750000Y-7600000D01*
X172000000Y-7950000D02*
X172000000Y-12250000D01*
X172000000Y-12250000D02*
X171250000Y-12250000D01*
X157440000Y-5640000D02*
X173060000Y-5640000D01*
X173060000Y-13110000D01*
X157440000Y-13110000D01*
X157440000Y-5640000D01*
X159250000Y-12250000D02*
G75*
G02*
X160749647Y-12249844I750000J-1700000D01*
G01*
X162750000Y-12250000D02*
G75*
G02*
X164249647Y-12249844I750000J-1700000D01*
G01*
X166250000Y-12250000D02*
G75*
G02*
X167749647Y-12249844I750000J-1700000D01*
G01*
X169750000Y-12250000D02*
G75*
G02*
X171249647Y-12249844I750000J-1700000D01*
G01*
%TO.C,U6*%
X75160000Y-34670000D02*
X75160000Y-39870000D01*
X75160000Y-39870000D02*
X80460000Y-39870000D01*
X76810000Y-34670000D02*
X75160000Y-34670000D01*
X80460000Y-34670000D02*
X78810000Y-34670000D01*
X80460000Y-39870000D02*
X80460000Y-34670000D01*
X78810000Y-34670000D02*
G75*
G02*
X76810000Y-34670000I-1000000J0D01*
G01*
%TO.C,D9*%
X162390000Y-165150000D02*
X162390000Y-166850000D01*
X162390000Y-165150000D02*
X165050000Y-165150000D01*
X162390000Y-166850000D02*
X165050000Y-166850000D01*
%TO.C,U13*%
X75160000Y-76670000D02*
X75160000Y-81870000D01*
X75160000Y-81870000D02*
X80460000Y-81870000D01*
X76810000Y-76670000D02*
X75160000Y-76670000D01*
X80460000Y-76670000D02*
X78810000Y-76670000D01*
X80460000Y-81870000D02*
X80460000Y-76670000D01*
X78810000Y-76670000D02*
G75*
G02*
X76810000Y-76670000I-1000000J0D01*
G01*
%TO.C,Q1*%
X159240000Y-65440000D02*
X160760000Y-65440000D01*
X159240000Y-65490000D02*
X159240000Y-65440000D01*
X159240000Y-67390000D02*
X159240000Y-66610000D01*
X159240000Y-68560000D02*
X159240000Y-68510000D01*
X160760000Y-65440000D02*
X160760000Y-66440000D01*
X160760000Y-67560000D02*
X160760000Y-68560000D01*
X160760000Y-68560000D02*
X159240000Y-68560000D01*
X158700000Y-66620000D02*
X158940000Y-66950000D01*
X158460000Y-66950000D01*
X158700000Y-66620000D01*
G36*
X158940000Y-66950000D02*
G01*
X158460000Y-66950000D01*
X158700000Y-66620000D01*
X158940000Y-66950000D01*
G37*
%TO.C,R33*%
X57772936Y-111465000D02*
X58227064Y-111465000D01*
X57772936Y-112935000D02*
X58227064Y-112935000D01*
%TO.C,R99*%
X139772936Y-181265000D02*
X140227064Y-181265000D01*
X139772936Y-182735000D02*
X140227064Y-182735000D01*
%TO.C,R103*%
X141265000Y-70227064D02*
X141265000Y-69772936D01*
X142735000Y-70227064D02*
X142735000Y-69772936D01*
%TO.C,R69*%
X221265000Y-65227064D02*
X221265000Y-64772936D01*
X222735000Y-65227064D02*
X222735000Y-64772936D01*
%TO.C,U9*%
X75160000Y-52670000D02*
X75160000Y-57870000D01*
X75160000Y-57870000D02*
X80460000Y-57870000D01*
X76810000Y-52670000D02*
X75160000Y-52670000D01*
X80460000Y-52670000D02*
X78810000Y-52670000D01*
X80460000Y-57870000D02*
X80460000Y-52670000D01*
X78810000Y-52670000D02*
G75*
G02*
X76810000Y-52670000I-1000000J0D01*
G01*
%TO.C,R52*%
X91772936Y-169065000D02*
X92227064Y-169065000D01*
X91772936Y-170535000D02*
X92227064Y-170535000D01*
%TO.C,TP12*%
X127050000Y-220050000D02*
X128950000Y-220050000D01*
X127050000Y-221950000D02*
X127050000Y-220050000D01*
X128950000Y-220050000D02*
X128950000Y-221950000D01*
X128950000Y-221950000D02*
X127050000Y-221950000D01*
%TO.C,R55*%
X57772936Y-177465000D02*
X58227064Y-177465000D01*
X57772936Y-178935000D02*
X58227064Y-178935000D01*
%TO.C,U18*%
X75160000Y-106670000D02*
X75160000Y-111870000D01*
X75160000Y-111870000D02*
X80460000Y-111870000D01*
X76810000Y-106670000D02*
X75160000Y-106670000D01*
X80460000Y-106670000D02*
X78810000Y-106670000D01*
X80460000Y-111870000D02*
X80460000Y-106670000D01*
X78810000Y-106670000D02*
G75*
G02*
X76810000Y-106670000I-1000000J0D01*
G01*
%TO.C,R67*%
X149265000Y-65227064D02*
X149265000Y-64772936D01*
X150735000Y-65227064D02*
X150735000Y-64772936D01*
%TO.C,R62*%
X91772936Y-199065000D02*
X92227064Y-199065000D01*
X91772936Y-200535000D02*
X92227064Y-200535000D01*
%TO.C,R5*%
X57772936Y-27465000D02*
X58227064Y-27465000D01*
X57772936Y-28935000D02*
X58227064Y-28935000D01*
%TO.C,U11*%
X75160000Y-64670000D02*
X75160000Y-69870000D01*
X75160000Y-69870000D02*
X80460000Y-69870000D01*
X76810000Y-64670000D02*
X75160000Y-64670000D01*
X80460000Y-64670000D02*
X78810000Y-64670000D01*
X80460000Y-69870000D02*
X80460000Y-64670000D01*
X78810000Y-64670000D02*
G75*
G02*
X76810000Y-64670000I-1000000J0D01*
G01*
%TO.C,R110*%
X169265000Y-98227064D02*
X169265000Y-97772936D01*
X170735000Y-98227064D02*
X170735000Y-97772936D01*
%TO.C,D11*%
X162390000Y-187150000D02*
X162390000Y-188850000D01*
X162390000Y-187150000D02*
X165050000Y-187150000D01*
X162390000Y-188850000D02*
X165050000Y-188850000D01*
%TO.C,R88*%
X100265000Y-190227064D02*
X100265000Y-189772936D01*
X101735000Y-190227064D02*
X101735000Y-189772936D01*
%TO.C,C7*%
X229265000Y-138261252D02*
X229265000Y-137738748D01*
X230735000Y-138261252D02*
X230735000Y-137738748D01*
%TO.C,R29*%
X57772936Y-99465000D02*
X58227064Y-99465000D01*
X57772936Y-100935000D02*
X58227064Y-100935000D01*
%TO.C,R109*%
X169265000Y-90227064D02*
X169265000Y-89772936D01*
X170735000Y-90227064D02*
X170735000Y-89772936D01*
%TO.C,R9*%
X57772936Y-39465000D02*
X58227064Y-39465000D01*
X57772936Y-40935000D02*
X58227064Y-40935000D01*
%TO.C,R60*%
X91772936Y-193065000D02*
X92227064Y-193065000D01*
X91772936Y-194535000D02*
X92227064Y-194535000D01*
%TO.C,R85*%
X149265000Y-197227064D02*
X149265000Y-196772936D01*
X150735000Y-197227064D02*
X150735000Y-196772936D01*
%TO.C,Q13*%
X161240000Y-56440000D02*
X162760000Y-56440000D01*
X161240000Y-56490000D02*
X161240000Y-56440000D01*
X161240000Y-58390000D02*
X161240000Y-57610000D01*
X161240000Y-59560000D02*
X161240000Y-59510000D01*
X162760000Y-56440000D02*
X162760000Y-57440000D01*
X162760000Y-58560000D02*
X162760000Y-59560000D01*
X162760000Y-59560000D02*
X161240000Y-59560000D01*
X160700000Y-57620000D02*
X160940000Y-57950000D01*
X160460000Y-57950000D01*
X160700000Y-57620000D01*
G36*
X160940000Y-57950000D02*
G01*
X160460000Y-57950000D01*
X160700000Y-57620000D01*
X160940000Y-57950000D01*
G37*
%TO.C,R63*%
X57772936Y-201465000D02*
X58227064Y-201465000D01*
X57772936Y-202935000D02*
X58227064Y-202935000D01*
%TO.C,R107*%
X132265000Y-90227064D02*
X132265000Y-89772936D01*
X133735000Y-90227064D02*
X133735000Y-89772936D01*
%TO.C,C6*%
X229265000Y-116261252D02*
X229265000Y-115738748D01*
X230735000Y-116261252D02*
X230735000Y-115738748D01*
%TO.C,J10*%
X237280000Y-153340000D02*
X247320000Y-153340000D01*
X237280000Y-155700000D02*
X237280000Y-153340000D01*
X237280000Y-163740000D02*
X237280000Y-156300000D01*
X237900000Y-153340000D02*
X237900000Y-163740000D01*
X239400000Y-153340000D02*
X239400000Y-163740000D01*
X244300000Y-153340000D02*
X244300000Y-163740000D01*
X247320000Y-153340000D02*
X247320000Y-163740000D01*
X247320000Y-163740000D02*
X237280000Y-163740000D01*
X237280000Y-156000000D02*
X236670000Y-156440000D01*
X236670000Y-155560000D01*
X237280000Y-156000000D01*
G36*
X237280000Y-156000000D02*
G01*
X236670000Y-156440000D01*
X236670000Y-155560000D01*
X237280000Y-156000000D01*
G37*
%TO.C,Q10*%
X127240000Y-196440000D02*
X128760000Y-196440000D01*
X127240000Y-196490000D02*
X127240000Y-196440000D01*
X127240000Y-198390000D02*
X127240000Y-197610000D01*
X127240000Y-199560000D02*
X127240000Y-199510000D01*
X128760000Y-196440000D02*
X128760000Y-197440000D01*
X128760000Y-198560000D02*
X128760000Y-199560000D01*
X128760000Y-199560000D02*
X127240000Y-199560000D01*
X126700000Y-197620000D02*
X126940000Y-197950000D01*
X126460000Y-197950000D01*
X126700000Y-197620000D01*
G36*
X126940000Y-197950000D02*
G01*
X126460000Y-197950000D01*
X126700000Y-197620000D01*
X126940000Y-197950000D01*
G37*
%TO.C,D4*%
X220350000Y-105510000D02*
X220350000Y-100000000D01*
X220350000Y-105510000D02*
X223650000Y-105510000D01*
X223650000Y-105510000D02*
X223650000Y-100000000D01*
%TO.C,D8*%
X220350000Y-149510000D02*
X220350000Y-144000000D01*
X220350000Y-149510000D02*
X223650000Y-149510000D01*
X223650000Y-149510000D02*
X223650000Y-144000000D01*
%TO.C,TP7*%
X139050000Y-213050000D02*
X140950000Y-213050000D01*
X139050000Y-214950000D02*
X139050000Y-213050000D01*
X140950000Y-213050000D02*
X140950000Y-214950000D01*
X140950000Y-214950000D02*
X139050000Y-214950000D01*
%TO.C,D1*%
X162390000Y-77150000D02*
X162390000Y-78850000D01*
X162390000Y-77150000D02*
X165050000Y-77150000D01*
X162390000Y-78850000D02*
X165050000Y-78850000D01*
%TO.C,U32*%
X75160000Y-190670000D02*
X75160000Y-195870000D01*
X75160000Y-195870000D02*
X80460000Y-195870000D01*
X76810000Y-190670000D02*
X75160000Y-190670000D01*
X80460000Y-190670000D02*
X78810000Y-190670000D01*
X80460000Y-195870000D02*
X80460000Y-190670000D01*
X78810000Y-190670000D02*
G75*
G02*
X76810000Y-190670000I-1000000J0D01*
G01*
%TO.C,R13*%
X57772936Y-51465000D02*
X58227064Y-51465000D01*
X57772936Y-52935000D02*
X58227064Y-52935000D01*
%TO.C,R58*%
X91772936Y-187065000D02*
X92227064Y-187065000D01*
X91772936Y-188535000D02*
X92227064Y-188535000D01*
%TO.C,Q11*%
X139240000Y-196440000D02*
X140760000Y-196440000D01*
X139240000Y-196490000D02*
X139240000Y-196440000D01*
X139240000Y-198390000D02*
X139240000Y-197610000D01*
X139240000Y-199560000D02*
X139240000Y-199510000D01*
X140760000Y-196440000D02*
X140760000Y-197440000D01*
X140760000Y-198560000D02*
X140760000Y-199560000D01*
X140760000Y-199560000D02*
X139240000Y-199560000D01*
X138700000Y-197620000D02*
X138940000Y-197950000D01*
X138460000Y-197950000D01*
X138700000Y-197620000D01*
G36*
X138940000Y-197950000D02*
G01*
X138460000Y-197950000D01*
X138700000Y-197620000D01*
X138940000Y-197950000D01*
G37*
%TO.C,R92*%
X118265000Y-190227064D02*
X118265000Y-189772936D01*
X119735000Y-190227064D02*
X119735000Y-189772936D01*
%TO.C,R24*%
X91772936Y-85065000D02*
X92227064Y-85065000D01*
X91772936Y-86535000D02*
X92227064Y-86535000D01*
%TO.C,R94*%
X124265000Y-190227064D02*
X124265000Y-189772936D01*
X125735000Y-190227064D02*
X125735000Y-189772936D01*
%TO.C,U2*%
X118140000Y-136940000D02*
X125860000Y-136940000D01*
X118140000Y-137185000D02*
X118140000Y-136940000D01*
X118140000Y-155060000D02*
X118140000Y-154815000D01*
X125860000Y-136940000D02*
X125860000Y-137185000D01*
X125860000Y-154815000D02*
X125860000Y-155060000D01*
X125860000Y-155060000D02*
X118140000Y-155060000D01*
X117350000Y-137180000D02*
X117010000Y-136710000D01*
X117690000Y-136710000D01*
X117350000Y-137180000D01*
G36*
X117350000Y-137180000D02*
G01*
X117010000Y-136710000D01*
X117690000Y-136710000D01*
X117350000Y-137180000D01*
G37*
%TO.C,U23*%
X75160000Y-136670000D02*
X75160000Y-141870000D01*
X75160000Y-141870000D02*
X80460000Y-141870000D01*
X76810000Y-136670000D02*
X75160000Y-136670000D01*
X80460000Y-136670000D02*
X78810000Y-136670000D01*
X80460000Y-141870000D02*
X80460000Y-136670000D01*
X78810000Y-136670000D02*
G75*
G02*
X76810000Y-136670000I-1000000J0D01*
G01*
%TO.C,R39*%
X57772936Y-129464999D02*
X58227064Y-129464999D01*
X57772936Y-130934999D02*
X58227064Y-130934999D01*
%TO.C,R70*%
X149265000Y-87227064D02*
X149265000Y-86772936D01*
X150735000Y-87227064D02*
X150735000Y-86772936D01*
%TO.C,R19*%
X57772936Y-69465000D02*
X58227064Y-69465000D01*
X57772936Y-70935000D02*
X58227064Y-70935000D01*
%TO.C,R78*%
X221265000Y-131227064D02*
X221265000Y-130772936D01*
X222735000Y-131227064D02*
X222735000Y-130772936D01*
%TO.C,R97*%
X136265000Y-190227064D02*
X136265000Y-189772936D01*
X137735000Y-190227064D02*
X137735000Y-189772936D01*
%TO.C,U36*%
X148940000Y-47440000D02*
X153060000Y-47440000D01*
X148940000Y-47535000D02*
X148940000Y-47440000D01*
X148940000Y-52560000D02*
X148940000Y-52465000D01*
X153060000Y-47440000D02*
X153060000Y-47535000D01*
X153060000Y-52465000D02*
X153060000Y-52560000D01*
X153060000Y-52560000D02*
X148940000Y-52560000D01*
X148400000Y-47530000D02*
X148160000Y-47200000D01*
X148640000Y-47200000D01*
X148400000Y-47530000D01*
G36*
X148400000Y-47530000D02*
G01*
X148160000Y-47200000D01*
X148640000Y-47200000D01*
X148400000Y-47530000D01*
G37*
%TO.C,R43*%
X57772936Y-141465000D02*
X58227064Y-141465000D01*
X57772936Y-142935000D02*
X58227064Y-142935000D01*
%TO.C,R64*%
X91772936Y-205065000D02*
X92227064Y-205065000D01*
X91772936Y-206535000D02*
X92227064Y-206535000D01*
%TO.C,R26*%
X91772936Y-91065000D02*
X92227064Y-91065000D01*
X91772936Y-92535000D02*
X92227064Y-92535000D01*
%TO.C,J3*%
X4250000Y-44950000D02*
X4250000Y-42950000D01*
X5500000Y-44950000D02*
X4250000Y-44950000D01*
X5600000Y-9000000D02*
X6600000Y-9250000D01*
X5600000Y-12000000D02*
X5600000Y-9000000D01*
X5600000Y-12500000D02*
X6600000Y-12750000D01*
X5600000Y-15500000D02*
X5600000Y-12500000D01*
X5600000Y-16000000D02*
X6600000Y-16250000D01*
X5600000Y-19000000D02*
X5600000Y-16000000D01*
X5600000Y-19500000D02*
X6600000Y-19750000D01*
X5600000Y-22500000D02*
X5600000Y-19500000D01*
X5600000Y-23000000D02*
X6600000Y-23250000D01*
X5600000Y-26000000D02*
X5600000Y-23000000D01*
X5600000Y-26500000D02*
X6600000Y-26750000D01*
X5600000Y-29500000D02*
X5600000Y-26500000D01*
X5600000Y-30000000D02*
X6600000Y-30250000D01*
X5600000Y-33000000D02*
X5600000Y-30000000D01*
X5600000Y-33500000D02*
X6600000Y-33750000D01*
X5600000Y-36500000D02*
X5600000Y-33500000D01*
X5600000Y-37000000D02*
X6600000Y-37250000D01*
X5600000Y-40000000D02*
X5600000Y-37000000D01*
X5600000Y-40500000D02*
X6600000Y-40750000D01*
X5600000Y-43500000D02*
X5600000Y-40500000D01*
X6600000Y-9250000D02*
X6600000Y-9750000D01*
X6600000Y-9750000D02*
X6950000Y-9750000D01*
X6600000Y-11250000D02*
X6600000Y-11750000D01*
X6600000Y-11750000D02*
X5600000Y-12000000D01*
X6600000Y-12750000D02*
X6600000Y-13250000D01*
X6600000Y-13250000D02*
X6950000Y-13250000D01*
X6600000Y-14750000D02*
X6600000Y-15250000D01*
X6600000Y-15250000D02*
X5600000Y-15500000D01*
X6600000Y-16250000D02*
X6600000Y-16750000D01*
X6600000Y-16750000D02*
X6950000Y-16750000D01*
X6600000Y-18250000D02*
X6600000Y-18750000D01*
X6600000Y-18750000D02*
X5600000Y-19000000D01*
X6600000Y-19750000D02*
X6600000Y-20250000D01*
X6600000Y-20250000D02*
X6950000Y-20250000D01*
X6600000Y-21750000D02*
X6600000Y-22250000D01*
X6600000Y-22250000D02*
X5600000Y-22500000D01*
X6600000Y-23250000D02*
X6600000Y-23750000D01*
X6600000Y-23750000D02*
X6950000Y-23750000D01*
X6600000Y-25250000D02*
X6600000Y-25750000D01*
X6600000Y-25750000D02*
X5600000Y-26000000D01*
X6600000Y-26750000D02*
X6600000Y-27250000D01*
X6600000Y-27250000D02*
X6950000Y-27250000D01*
X6600000Y-28750000D02*
X6600000Y-29250000D01*
X6600000Y-29250000D02*
X5600000Y-29500000D01*
X6600000Y-30250000D02*
X6600000Y-30750000D01*
X6600000Y-30750000D02*
X6950000Y-30750000D01*
X6600000Y-32250000D02*
X6600000Y-32750000D01*
X6600000Y-32750000D02*
X5600000Y-33000000D01*
X6600000Y-33750000D02*
X6600000Y-34250000D01*
X6600000Y-34250000D02*
X6950000Y-34250000D01*
X6600000Y-35750000D02*
X6600000Y-36250000D01*
X6600000Y-36250000D02*
X5600000Y-36500000D01*
X6600000Y-37250000D02*
X6600000Y-37750000D01*
X6600000Y-37750000D02*
X6950000Y-37750000D01*
X6600000Y-39250000D02*
X6600000Y-39750000D01*
X6600000Y-39750000D02*
X5600000Y-40000000D01*
X6600000Y-40750000D02*
X6600000Y-41250000D01*
X6600000Y-41250000D02*
X6950000Y-41250000D01*
X6600000Y-42750000D02*
X6600000Y-43250000D01*
X6600000Y-43250000D02*
X5600000Y-43500000D01*
X6950000Y-9000000D02*
X11250000Y-9000000D01*
X6950000Y-9750000D02*
X6950000Y-9000000D01*
X6950000Y-11250000D02*
X6600000Y-11250000D01*
X6950000Y-12000000D02*
X6950000Y-11250000D01*
X6950000Y-12500000D02*
X11250000Y-12500000D01*
X6950000Y-13250000D02*
X6950000Y-12500000D01*
X6950000Y-14750000D02*
X6600000Y-14750000D01*
X6950000Y-15500000D02*
X6950000Y-14750000D01*
X6950000Y-16000000D02*
X11250000Y-16000000D01*
X6950000Y-16750000D02*
X6950000Y-16000000D01*
X6950000Y-18250000D02*
X6600000Y-18250000D01*
X6950000Y-19000000D02*
X6950000Y-18250000D01*
X6950000Y-19500000D02*
X11250000Y-19500000D01*
X6950000Y-20250000D02*
X6950000Y-19500000D01*
X6950000Y-21750000D02*
X6600000Y-21750000D01*
X6950000Y-22500000D02*
X6950000Y-21750000D01*
X6950000Y-23000000D02*
X11250000Y-23000000D01*
X6950000Y-23750000D02*
X6950000Y-23000000D01*
X6950000Y-25250000D02*
X6600000Y-25250000D01*
X6950000Y-26000000D02*
X6950000Y-25250000D01*
X6950000Y-26500000D02*
X11250000Y-26500000D01*
X6950000Y-27250000D02*
X6950000Y-26500000D01*
X6950000Y-28750000D02*
X6600000Y-28750000D01*
X6950000Y-29500000D02*
X6950000Y-28750000D01*
X6950000Y-30000000D02*
X11250000Y-30000000D01*
X6950000Y-30750000D02*
X6950000Y-30000000D01*
X6950000Y-32250000D02*
X6600000Y-32250000D01*
X6950000Y-33000000D02*
X6950000Y-32250000D01*
X6950000Y-33500000D02*
X11250000Y-33500000D01*
X6950000Y-34250000D02*
X6950000Y-33500000D01*
X6950000Y-35750000D02*
X6600000Y-35750000D01*
X6950000Y-36500000D02*
X6950000Y-35750000D01*
X6950000Y-37000000D02*
X11250000Y-37000000D01*
X6950000Y-37750000D02*
X6950000Y-37000000D01*
X6950000Y-39250000D02*
X6600000Y-39250000D01*
X6950000Y-40000000D02*
X6950000Y-39250000D01*
X6950000Y-40500000D02*
X11250000Y-40500000D01*
X6950000Y-41250000D02*
X6950000Y-40500000D01*
X6950000Y-42750000D02*
X6600000Y-42750000D01*
X6950000Y-43500000D02*
X6950000Y-42750000D01*
X11250000Y-9000000D02*
X11250000Y-9750000D01*
X11250000Y-11250000D02*
X11250000Y-12000000D01*
X11250000Y-12000000D02*
X6950000Y-12000000D01*
X11250000Y-12500000D02*
X11250000Y-13250000D01*
X11250000Y-14750000D02*
X11250000Y-15500000D01*
X11250000Y-15500000D02*
X6950000Y-15500000D01*
X11250000Y-16000000D02*
X11250000Y-16750000D01*
X11250000Y-18250000D02*
X11250000Y-19000000D01*
X11250000Y-19000000D02*
X6950000Y-19000000D01*
X11250000Y-19500000D02*
X11250000Y-20250000D01*
X11250000Y-21750000D02*
X11250000Y-22500000D01*
X11250000Y-22500000D02*
X6950000Y-22500000D01*
X11250000Y-23000000D02*
X11250000Y-23750000D01*
X11250000Y-25250000D02*
X11250000Y-26000000D01*
X11250000Y-26000000D02*
X6950000Y-26000000D01*
X11250000Y-26500000D02*
X11250000Y-27250000D01*
X11250000Y-28750000D02*
X11250000Y-29500000D01*
X11250000Y-29500000D02*
X6950000Y-29500000D01*
X11250000Y-30000000D02*
X11250000Y-30750000D01*
X11250000Y-32250000D02*
X11250000Y-33000000D01*
X11250000Y-33000000D02*
X6950000Y-33000000D01*
X11250000Y-33500000D02*
X11250000Y-34250000D01*
X11250000Y-35750000D02*
X11250000Y-36500000D01*
X11250000Y-36500000D02*
X6950000Y-36500000D01*
X11250000Y-37000000D02*
X11250000Y-37750000D01*
X11250000Y-39250000D02*
X11250000Y-40000000D01*
X11250000Y-40000000D02*
X6950000Y-40000000D01*
X11250000Y-40500000D02*
X11250000Y-41250000D01*
X11250000Y-42750000D02*
X11250000Y-43500000D01*
X11250000Y-43500000D02*
X6950000Y-43500000D01*
X4640000Y-7940000D02*
X12110000Y-7940000D01*
X12110000Y-44560000D01*
X4640000Y-44560000D01*
X4640000Y-7940000D01*
X11250000Y-11250000D02*
G75*
G02*
X11249844Y-9750353I1700000J750000D01*
G01*
X11250000Y-14750000D02*
G75*
G02*
X11249844Y-13250353I1700000J750000D01*
G01*
X11250000Y-18250000D02*
G75*
G02*
X11249844Y-16750353I1700000J750000D01*
G01*
X11250000Y-21750000D02*
G75*
G02*
X11249844Y-20250353I1700000J750000D01*
G01*
X11250000Y-25250000D02*
G75*
G02*
X11249844Y-23750353I1700000J750000D01*
G01*
X11250000Y-28750000D02*
G75*
G02*
X11249844Y-27250353I1700000J750000D01*
G01*
X11250000Y-32250000D02*
G75*
G02*
X11249844Y-30750353I1700000J750000D01*
G01*
X11250000Y-35750000D02*
G75*
G02*
X11249844Y-34250353I1700000J750000D01*
G01*
X11250000Y-39250000D02*
G75*
G02*
X11249844Y-37750353I1700000J750000D01*
G01*
X11250000Y-42750000D02*
G75*
G02*
X11249844Y-41250353I1700000J750000D01*
G01*
%TO.C,Q12*%
X141240000Y-56440000D02*
X142760000Y-56440000D01*
X141240000Y-56490000D02*
X141240000Y-56440000D01*
X141240000Y-58390000D02*
X141240000Y-57610000D01*
X141240000Y-59560000D02*
X141240000Y-59510000D01*
X142760000Y-56440000D02*
X142760000Y-57440000D01*
X142760000Y-58560000D02*
X142760000Y-59560000D01*
X142760000Y-59560000D02*
X141240000Y-59560000D01*
X140700000Y-57620000D02*
X140940000Y-57950000D01*
X140460000Y-57950000D01*
X140700000Y-57620000D01*
G36*
X140940000Y-57950000D02*
G01*
X140460000Y-57950000D01*
X140700000Y-57620000D01*
X140940000Y-57950000D01*
G37*
%TO.C,R96*%
X127772936Y-181265000D02*
X128227064Y-181265000D01*
X127772936Y-182735000D02*
X128227064Y-182735000D01*
%TO.C,U15*%
X75160000Y-88670000D02*
X75160000Y-93870000D01*
X75160000Y-93870000D02*
X80460000Y-93870000D01*
X76810000Y-88670000D02*
X75160000Y-88670000D01*
X80460000Y-88670000D02*
X78810000Y-88670000D01*
X80460000Y-93870000D02*
X80460000Y-88670000D01*
X78810000Y-88670000D02*
G75*
G02*
X76810000Y-88670000I-1000000J0D01*
G01*
%TO.C,R23*%
X57772936Y-81465000D02*
X58227064Y-81465000D01*
X57772936Y-82935000D02*
X58227064Y-82935000D01*
%TO.C,J7*%
X237280000Y-87340000D02*
X247320000Y-87340000D01*
X237280000Y-89700000D02*
X237280000Y-87340000D01*
X237280000Y-97740000D02*
X237280000Y-90300000D01*
X237900000Y-87340000D02*
X237900000Y-97740000D01*
X239400000Y-87340000D02*
X239400000Y-97740000D01*
X244300000Y-87340000D02*
X244300000Y-97740000D01*
X247320000Y-87340000D02*
X247320000Y-97740000D01*
X247320000Y-97740000D02*
X237280000Y-97740000D01*
X237280000Y-90000000D02*
X236670000Y-90440000D01*
X236670000Y-89560000D01*
X237280000Y-90000000D01*
G36*
X237280000Y-90000000D02*
G01*
X236670000Y-90440000D01*
X236670000Y-89560000D01*
X237280000Y-90000000D01*
G37*
%TO.C,D16*%
X157390000Y-34150000D02*
X157390000Y-35850000D01*
X157390000Y-34150000D02*
X160050000Y-34150000D01*
X157390000Y-35850000D02*
X160050000Y-35850000D01*
%TO.C,K7*%
X173090000Y-205000000D02*
X173090000Y-203000000D01*
X173350000Y-195650000D02*
X173350000Y-212350000D01*
X173350000Y-212350000D02*
X196050000Y-212350000D01*
X177600000Y-203650000D02*
X177600000Y-204350000D01*
X177600000Y-204350000D02*
X178800000Y-204350000D01*
X178200000Y-202650000D02*
X178200000Y-199500000D01*
X178200000Y-208500000D02*
X178200000Y-205350000D01*
X178400000Y-204350000D02*
X178000000Y-203650000D01*
X178800000Y-203650000D02*
X177600000Y-203650000D01*
X178800000Y-204350000D02*
X178800000Y-203650000D01*
X196050000Y-195650000D02*
X173350000Y-195650000D01*
X196050000Y-212350000D02*
X196050000Y-195650000D01*
%TO.C,U31*%
X75160000Y-184670000D02*
X75160000Y-189870000D01*
X75160000Y-189870000D02*
X80460000Y-189870000D01*
X76810000Y-184670000D02*
X75160000Y-184670000D01*
X80460000Y-184670000D02*
X78810000Y-184670000D01*
X80460000Y-189870000D02*
X80460000Y-184670000D01*
X78810000Y-184670000D02*
G75*
G02*
X76810000Y-184670000I-1000000J0D01*
G01*
%TO.C,R31*%
X57772936Y-105465000D02*
X58227064Y-105465000D01*
X57772936Y-106935000D02*
X58227064Y-106935000D01*
%TO.C,R3*%
X57772936Y-21465000D02*
X58227064Y-21465000D01*
X57772936Y-22935000D02*
X58227064Y-22935000D01*
%TO.C,R77*%
X149265000Y-137227064D02*
X149265000Y-136772936D01*
X150735000Y-137227064D02*
X150735000Y-136772936D01*
%TO.C,R101*%
X144265000Y-78227064D02*
X144265000Y-77772936D01*
X145735000Y-78227064D02*
X145735000Y-77772936D01*
%TO.C,R89*%
X106265000Y-190227064D02*
X106265000Y-189772936D01*
X107735000Y-190227064D02*
X107735000Y-189772936D01*
%TO.C,D7*%
X162390000Y-143150000D02*
X162390000Y-144850000D01*
X162390000Y-143150000D02*
X165050000Y-143150000D01*
X162390000Y-144850000D02*
X165050000Y-144850000D01*
%TO.C,Q8*%
X103240000Y-196440000D02*
X104760000Y-196440000D01*
X103240000Y-196490000D02*
X103240000Y-196440000D01*
X103240000Y-198390000D02*
X103240000Y-197610000D01*
X103240000Y-199560000D02*
X103240000Y-199510000D01*
X104760000Y-196440000D02*
X104760000Y-197440000D01*
X104760000Y-198560000D02*
X104760000Y-199560000D01*
X104760000Y-199560000D02*
X103240000Y-199560000D01*
X102700000Y-197620000D02*
X102940000Y-197950000D01*
X102460000Y-197950000D01*
X102700000Y-197620000D01*
G36*
X102940000Y-197950000D02*
G01*
X102460000Y-197950000D01*
X102700000Y-197620000D01*
X102940000Y-197950000D01*
G37*
%TO.C,Q3*%
X159240000Y-109440000D02*
X160760000Y-109440000D01*
X159240000Y-109490000D02*
X159240000Y-109440000D01*
X159240000Y-111390000D02*
X159240000Y-110610000D01*
X159240000Y-112560000D02*
X159240000Y-112510000D01*
X160760000Y-109440000D02*
X160760000Y-110440000D01*
X160760000Y-111560000D02*
X160760000Y-112560000D01*
X160760000Y-112560000D02*
X159240000Y-112560000D01*
X158700000Y-110620000D02*
X158940000Y-110950000D01*
X158460000Y-110950000D01*
X158700000Y-110620000D01*
G36*
X158940000Y-110950000D02*
G01*
X158460000Y-110950000D01*
X158700000Y-110620000D01*
X158940000Y-110950000D01*
G37*
%TO.C,Q15*%
X142240000Y-90440000D02*
X143760000Y-90440000D01*
X142240000Y-90490000D02*
X142240000Y-90440000D01*
X142240000Y-92390000D02*
X142240000Y-91610000D01*
X142240000Y-93560000D02*
X142240000Y-93510000D01*
X143760000Y-90440000D02*
X143760000Y-91440000D01*
X143760000Y-92560000D02*
X143760000Y-93560000D01*
X143760000Y-93560000D02*
X142240000Y-93560000D01*
X141700000Y-91620000D02*
X141940000Y-91950000D01*
X141460000Y-91950000D01*
X141700000Y-91620000D01*
G36*
X141940000Y-91950000D02*
G01*
X141460000Y-91950000D01*
X141700000Y-91620000D01*
X141940000Y-91950000D01*
G37*
%TO.C,J6*%
X237280000Y-65340000D02*
X247320000Y-65340000D01*
X237280000Y-67700000D02*
X237280000Y-65340000D01*
X237280000Y-75740000D02*
X237280000Y-68300000D01*
X237900000Y-65340000D02*
X237900000Y-75740000D01*
X239400000Y-65340000D02*
X239400000Y-75740000D01*
X244300000Y-65340000D02*
X244300000Y-75740000D01*
X247320000Y-65340000D02*
X247320000Y-75740000D01*
X247320000Y-75740000D02*
X237280000Y-75740000D01*
X237280000Y-68000000D02*
X236670000Y-68440000D01*
X236670000Y-67560000D01*
X237280000Y-68000000D01*
G36*
X237280000Y-68000000D02*
G01*
X236670000Y-68440000D01*
X236670000Y-67560000D01*
X237280000Y-68000000D01*
G37*
%TO.C,R66*%
X91772936Y-211065000D02*
X92227064Y-211065000D01*
X91772936Y-212535000D02*
X92227064Y-212535000D01*
%TO.C,TP8*%
X149050000Y-213050000D02*
X150950000Y-213050000D01*
X149050000Y-214950000D02*
X149050000Y-213050000D01*
X150950000Y-213050000D02*
X150950000Y-214950000D01*
X150950000Y-214950000D02*
X149050000Y-214950000D01*
%TO.C,U28*%
X75160000Y-166670000D02*
X75160000Y-171870000D01*
X75160000Y-171870000D02*
X80460000Y-171870000D01*
X76810000Y-166670000D02*
X75160000Y-166670000D01*
X80460000Y-166670000D02*
X78810000Y-166670000D01*
X80460000Y-171870000D02*
X80460000Y-166670000D01*
X78810000Y-166670000D02*
G75*
G02*
X76810000Y-166670000I-1000000J0D01*
G01*
%TO.C,R8*%
X91772936Y-37065000D02*
X92227064Y-37065000D01*
X91772936Y-38535000D02*
X92227064Y-38535000D01*
%TO.C,Q2*%
X159240000Y-87440000D02*
X160760000Y-87440000D01*
X159240000Y-87490000D02*
X159240000Y-87440000D01*
X159240000Y-89390000D02*
X159240000Y-88610000D01*
X159240000Y-90560000D02*
X159240000Y-90510000D01*
X160760000Y-87440000D02*
X160760000Y-88440000D01*
X160760000Y-89560000D02*
X160760000Y-90560000D01*
X160760000Y-90560000D02*
X159240000Y-90560000D01*
X158700000Y-88620000D02*
X158940000Y-88950000D01*
X158460000Y-88950000D01*
X158700000Y-88620000D01*
G36*
X158940000Y-88950000D02*
G01*
X158460000Y-88950000D01*
X158700000Y-88620000D01*
X158940000Y-88950000D01*
G37*
%TO.C,R91*%
X112265000Y-190227064D02*
X112265000Y-189772936D01*
X113735000Y-190227064D02*
X113735000Y-189772936D01*
%TO.C,J12*%
X237280000Y-197340000D02*
X247320000Y-197340000D01*
X237280000Y-199700000D02*
X237280000Y-197340000D01*
X237280000Y-207740000D02*
X237280000Y-200300000D01*
X237900000Y-197340000D02*
X237900000Y-207740000D01*
X239400000Y-197340000D02*
X239400000Y-207740000D01*
X244300000Y-197340000D02*
X244300000Y-207740000D01*
X247320000Y-197340000D02*
X247320000Y-207740000D01*
X247320000Y-207740000D02*
X237280000Y-207740000D01*
X237280000Y-200000000D02*
X236670000Y-200440000D01*
X236670000Y-199560000D01*
X237280000Y-200000000D01*
G36*
X237280000Y-200000000D02*
G01*
X236670000Y-200440000D01*
X236670000Y-199560000D01*
X237280000Y-200000000D01*
G37*
%TO.C,R42*%
X91772936Y-139065000D02*
X92227064Y-139065000D01*
X91772936Y-140535000D02*
X92227064Y-140535000D01*
%TO.C,R81*%
X221265000Y-153227064D02*
X221265000Y-152772936D01*
X222735000Y-153227064D02*
X222735000Y-152772936D01*
%TO.C,U21*%
X75160000Y-124670000D02*
X75160000Y-129870000D01*
X75160000Y-129870000D02*
X80460000Y-129870000D01*
X76810000Y-124670000D02*
X75160000Y-124670000D01*
X80460000Y-124670000D02*
X78810000Y-124670000D01*
X80460000Y-129870000D02*
X80460000Y-124670000D01*
X78810000Y-124670000D02*
G75*
G02*
X76810000Y-124670000I-1000000J0D01*
G01*
%TO.C,D12*%
X220350000Y-193510000D02*
X220350000Y-188000000D01*
X220350000Y-193510000D02*
X223650000Y-193510000D01*
X223650000Y-193510000D02*
X223650000Y-188000000D01*
%TO.C,TP9*%
X91050000Y-220050000D02*
X92950000Y-220050000D01*
X91050000Y-221950000D02*
X91050000Y-220050000D01*
X92950000Y-220050000D02*
X92950000Y-221950000D01*
X92950000Y-221950000D02*
X91050000Y-221950000D01*
%TO.C,TP13*%
X135050000Y-220050000D02*
X136950000Y-220050000D01*
X135050000Y-221950000D02*
X135050000Y-220050000D01*
X136950000Y-220050000D02*
X136950000Y-221950000D01*
X136950000Y-221950000D02*
X135050000Y-221950000D01*
%TO.C,R41*%
X57772936Y-135465000D02*
X58227064Y-135465000D01*
X57772936Y-136935000D02*
X58227064Y-136935000D01*
%TO.C,TP4*%
X21050000Y-213050000D02*
X22950000Y-213050000D01*
X21050000Y-214950000D02*
X21050000Y-213050000D01*
X22950000Y-213050000D02*
X22950000Y-214950000D01*
X22950000Y-214950000D02*
X21050000Y-214950000D01*
%TO.C,K3*%
X173090000Y-117000000D02*
X173090000Y-115000000D01*
X173350000Y-107650000D02*
X173350000Y-124350000D01*
X173350000Y-124350000D02*
X196050000Y-124350000D01*
X177600000Y-115650000D02*
X177600000Y-116350000D01*
X177600000Y-116350000D02*
X178800000Y-116350000D01*
X178200000Y-114650000D02*
X178200000Y-111500000D01*
X178200000Y-120500000D02*
X178200000Y-117350000D01*
X178400000Y-116350000D02*
X178000000Y-115650000D01*
X178800000Y-115650000D02*
X177600000Y-115650000D01*
X178800000Y-116350000D02*
X178800000Y-115650000D01*
X196050000Y-107650000D02*
X173350000Y-107650000D01*
X196050000Y-124350000D02*
X196050000Y-107650000D01*
%TO.C,C10*%
X229265000Y-204261252D02*
X229265000Y-203738748D01*
X230735000Y-204261252D02*
X230735000Y-203738748D01*
%TO.C,R36*%
X91772936Y-121065000D02*
X92227064Y-121065000D01*
X91772936Y-122535000D02*
X92227064Y-122535000D01*
%TO.C,R104*%
X161265000Y-47227064D02*
X161265000Y-46772936D01*
X162735000Y-47227064D02*
X162735000Y-46772936D01*
%TO.C,R61*%
X57772936Y-195465000D02*
X58227064Y-195465000D01*
X57772936Y-196935000D02*
X58227064Y-196935000D01*
%TO.C,R18*%
X91772936Y-67065000D02*
X92227064Y-67065000D01*
X91772936Y-68535000D02*
X92227064Y-68535000D01*
%TO.C,R86*%
X149265000Y-203227064D02*
X149265000Y-202772936D01*
X150735000Y-203227064D02*
X150735000Y-202772936D01*
%TO.C,R22*%
X91772936Y-79065000D02*
X92227064Y-79065000D01*
X91772936Y-80535000D02*
X92227064Y-80535000D01*
%TO.C,K4*%
X173090000Y-139000000D02*
X173090000Y-137000000D01*
X173350000Y-129650000D02*
X173350000Y-146350000D01*
X173350000Y-146350000D02*
X196050000Y-146350000D01*
X177600000Y-137650000D02*
X177600000Y-138350000D01*
X177600000Y-138350000D02*
X178800000Y-138350000D01*
X178200000Y-136650000D02*
X178200000Y-133500000D01*
X178200000Y-142500000D02*
X178200000Y-139350000D01*
X178400000Y-138350000D02*
X178000000Y-137650000D01*
X178800000Y-137650000D02*
X177600000Y-137650000D01*
X178800000Y-138350000D02*
X178800000Y-137650000D01*
X196050000Y-129650000D02*
X173350000Y-129650000D01*
X196050000Y-146350000D02*
X196050000Y-129650000D01*
%TO.C,TP16*%
X163050000Y-220050000D02*
X164950000Y-220050000D01*
X163050000Y-221950000D02*
X163050000Y-220050000D01*
X164950000Y-220050000D02*
X164950000Y-221950000D01*
X164950000Y-221950000D02*
X163050000Y-221950000D01*
%TO.C,U25*%
X75160000Y-148670000D02*
X75160000Y-153870000D01*
X75160000Y-153870000D02*
X80460000Y-153870000D01*
X76810000Y-148670000D02*
X75160000Y-148670000D01*
X80460000Y-148670000D02*
X78810000Y-148670000D01*
X80460000Y-153870000D02*
X80460000Y-148670000D01*
X78810000Y-148670000D02*
G75*
G02*
X76810000Y-148670000I-1000000J0D01*
G01*
%TO.C,C12*%
X155265000Y-67261252D02*
X155265000Y-66738748D01*
X156735000Y-67261252D02*
X156735000Y-66738748D01*
%TO.C,J13*%
X101050000Y-201250000D02*
X103050000Y-201250000D01*
X101050000Y-202500000D02*
X101050000Y-201250000D01*
X102500000Y-202600000D02*
X105500000Y-202600000D01*
X102500000Y-203950000D02*
X103250000Y-203950000D01*
X102500000Y-208250000D02*
X102500000Y-203950000D01*
X102750000Y-203600000D02*
X102500000Y-202600000D01*
X103250000Y-203600000D02*
X102750000Y-203600000D01*
X103250000Y-203950000D02*
X103250000Y-203600000D01*
X103250000Y-208250000D02*
X102500000Y-208250000D01*
X104750000Y-203600000D02*
X104750000Y-203950000D01*
X104750000Y-203950000D02*
X105500000Y-203950000D01*
X105250000Y-203600000D02*
X104750000Y-203600000D01*
X105500000Y-202600000D02*
X105250000Y-203600000D01*
X105500000Y-203950000D02*
X105500000Y-208250000D01*
X105500000Y-208250000D02*
X104750000Y-208250000D01*
X106000000Y-202600000D02*
X109000000Y-202600000D01*
X106000000Y-203950000D02*
X106750000Y-203950000D01*
X106000000Y-208250000D02*
X106000000Y-203950000D01*
X106250000Y-203600000D02*
X106000000Y-202600000D01*
X106750000Y-203600000D02*
X106250000Y-203600000D01*
X106750000Y-203950000D02*
X106750000Y-203600000D01*
X106750000Y-208250000D02*
X106000000Y-208250000D01*
X108250000Y-203600000D02*
X108250000Y-203950000D01*
X108250000Y-203950000D02*
X109000000Y-203950000D01*
X108750000Y-203600000D02*
X108250000Y-203600000D01*
X109000000Y-202600000D02*
X108750000Y-203600000D01*
X109000000Y-203950000D02*
X109000000Y-208250000D01*
X109000000Y-208250000D02*
X108250000Y-208250000D01*
X109500000Y-202600000D02*
X112500000Y-202600000D01*
X109500000Y-203950000D02*
X110250000Y-203950000D01*
X109500000Y-208250000D02*
X109500000Y-203950000D01*
X109750000Y-203600000D02*
X109500000Y-202600000D01*
X110250000Y-203600000D02*
X109750000Y-203600000D01*
X110250000Y-203950000D02*
X110250000Y-203600000D01*
X110250000Y-208250000D02*
X109500000Y-208250000D01*
X111750000Y-203600000D02*
X111750000Y-203950000D01*
X111750000Y-203950000D02*
X112500000Y-203950000D01*
X112250000Y-203600000D02*
X111750000Y-203600000D01*
X112500000Y-202600000D02*
X112250000Y-203600000D01*
X112500000Y-203950000D02*
X112500000Y-208250000D01*
X112500000Y-208250000D02*
X111750000Y-208250000D01*
X113000000Y-202600000D02*
X116000000Y-202600000D01*
X113000000Y-203950000D02*
X113750000Y-203950000D01*
X113000000Y-208250000D02*
X113000000Y-203950000D01*
X113250000Y-203600000D02*
X113000000Y-202600000D01*
X113750000Y-203600000D02*
X113250000Y-203600000D01*
X113750000Y-203950000D02*
X113750000Y-203600000D01*
X113750000Y-208250000D02*
X113000000Y-208250000D01*
X115250000Y-203600000D02*
X115250000Y-203950000D01*
X115250000Y-203950000D02*
X116000000Y-203950000D01*
X115750000Y-203600000D02*
X115250000Y-203600000D01*
X116000000Y-202600000D02*
X115750000Y-203600000D01*
X116000000Y-203950000D02*
X116000000Y-208250000D01*
X116000000Y-208250000D02*
X115250000Y-208250000D01*
X116500000Y-202600000D02*
X119500000Y-202600000D01*
X116500000Y-203950000D02*
X117250000Y-203950000D01*
X116500000Y-208250000D02*
X116500000Y-203950000D01*
X116750000Y-203600000D02*
X116500000Y-202600000D01*
X117250000Y-203600000D02*
X116750000Y-203600000D01*
X117250000Y-203950000D02*
X117250000Y-203600000D01*
X117250000Y-208250000D02*
X116500000Y-208250000D01*
X118750000Y-203600000D02*
X118750000Y-203950000D01*
X118750000Y-203950000D02*
X119500000Y-203950000D01*
X119250000Y-203600000D02*
X118750000Y-203600000D01*
X119500000Y-202600000D02*
X119250000Y-203600000D01*
X119500000Y-203950000D02*
X119500000Y-208250000D01*
X119500000Y-208250000D02*
X118750000Y-208250000D01*
X120000000Y-202600000D02*
X123000000Y-202600000D01*
X120000000Y-203950000D02*
X120750000Y-203950000D01*
X120000000Y-208250000D02*
X120000000Y-203950000D01*
X120250000Y-203600000D02*
X120000000Y-202600000D01*
X120750000Y-203600000D02*
X120250000Y-203600000D01*
X120750000Y-203950000D02*
X120750000Y-203600000D01*
X120750000Y-208250000D02*
X120000000Y-208250000D01*
X122250000Y-203600000D02*
X122250000Y-203950000D01*
X122250000Y-203950000D02*
X123000000Y-203950000D01*
X122750000Y-203600000D02*
X122250000Y-203600000D01*
X123000000Y-202600000D02*
X122750000Y-203600000D01*
X123000000Y-203950000D02*
X123000000Y-208250000D01*
X123000000Y-208250000D02*
X122250000Y-208250000D01*
X101440000Y-201640000D02*
X124060000Y-201640000D01*
X124060000Y-209110000D01*
X101440000Y-209110000D01*
X101440000Y-201640000D01*
X103250000Y-208250000D02*
G75*
G02*
X104749647Y-208249844I750000J-1700000D01*
G01*
X106750000Y-208250000D02*
G75*
G02*
X108249647Y-208249844I750000J-1700000D01*
G01*
X110250000Y-208250000D02*
G75*
G02*
X111749647Y-208249844I750000J-1700000D01*
G01*
X113750000Y-208250000D02*
G75*
G02*
X115249647Y-208249844I750000J-1700000D01*
G01*
X117250000Y-208250000D02*
G75*
G02*
X118749647Y-208249844I750000J-1700000D01*
G01*
X120750000Y-208250000D02*
G75*
G02*
X122249647Y-208249844I750000J-1700000D01*
G01*
%TO.C,D13*%
X162390000Y-209150000D02*
X162390000Y-210850000D01*
X162390000Y-209150000D02*
X165050000Y-209150000D01*
X162390000Y-210850000D02*
X165050000Y-210850000D01*
%TO.C,R37*%
X57772936Y-123465000D02*
X58227064Y-123465000D01*
X57772936Y-124935000D02*
X58227064Y-124935000D01*
%TO.C,Q5*%
X159240000Y-153440000D02*
X160760000Y-153440000D01*
X159240000Y-153490000D02*
X159240000Y-153440000D01*
X159240000Y-155390000D02*
X159240000Y-154610000D01*
X159240000Y-156560000D02*
X159240000Y-156510000D01*
X160760000Y-153440000D02*
X160760000Y-154440000D01*
X160760000Y-155560000D02*
X160760000Y-156560000D01*
X160760000Y-156560000D02*
X159240000Y-156560000D01*
X158700000Y-154620000D02*
X158940000Y-154950000D01*
X158460000Y-154950000D01*
X158700000Y-154620000D01*
G36*
X158940000Y-154950000D02*
G01*
X158460000Y-154950000D01*
X158700000Y-154620000D01*
X158940000Y-154950000D01*
G37*
%TO.C,R44*%
X91772936Y-145065000D02*
X92227064Y-145065000D01*
X91772936Y-146535000D02*
X92227064Y-146535000D01*
%TO.C,R25*%
X57772936Y-87465000D02*
X58227064Y-87465000D01*
X57772936Y-88935000D02*
X58227064Y-88935000D01*
%TO.C,TP11*%
X115050000Y-220050000D02*
X116950000Y-220050000D01*
X115050000Y-221950000D02*
X115050000Y-220050000D01*
X116950000Y-220050000D02*
X116950000Y-221950000D01*
X116950000Y-221950000D02*
X115050000Y-221950000D01*
%TO.C,U8*%
X75160000Y-46670000D02*
X75160000Y-51870000D01*
X75160000Y-51870000D02*
X80460000Y-51870000D01*
X76810000Y-46670000D02*
X75160000Y-46670000D01*
X80460000Y-46670000D02*
X78810000Y-46670000D01*
X80460000Y-51870000D02*
X80460000Y-46670000D01*
X78810000Y-46670000D02*
G75*
G02*
X76810000Y-46670000I-1000000J0D01*
G01*
%TO.C,U17*%
X75160000Y-100670000D02*
X75160000Y-105870000D01*
X75160000Y-105870000D02*
X80460000Y-105870000D01*
X76810000Y-100670000D02*
X75160000Y-100670000D01*
X80460000Y-100670000D02*
X78810000Y-100670000D01*
X80460000Y-105870000D02*
X80460000Y-100670000D01*
X78810000Y-100670000D02*
G75*
G02*
X76810000Y-100670000I-1000000J0D01*
G01*
%TO.C,C1*%
X115738748Y-91265000D02*
X116261252Y-91265000D01*
X115738748Y-92735000D02*
X116261252Y-92735000D01*
%TO.C,D3*%
X162390000Y-99150000D02*
X162390000Y-100850000D01*
X162390000Y-99150000D02*
X165050000Y-99150000D01*
X162390000Y-100850000D02*
X165050000Y-100850000D01*
%TO.C,R48*%
X91772936Y-157065000D02*
X92227064Y-157065000D01*
X91772936Y-158535000D02*
X92227064Y-158535000D01*
%TO.C,Q7*%
X159240000Y-197440000D02*
X160760000Y-197440000D01*
X159240000Y-197490000D02*
X159240000Y-197440000D01*
X159240000Y-199390000D02*
X159240000Y-198610000D01*
X159240000Y-200560000D02*
X159240000Y-200510000D01*
X160760000Y-197440000D02*
X160760000Y-198440000D01*
X160760000Y-199560000D02*
X160760000Y-200560000D01*
X160760000Y-200560000D02*
X159240000Y-200560000D01*
X158700000Y-198620000D02*
X158940000Y-198950000D01*
X158460000Y-198950000D01*
X158700000Y-198620000D01*
G36*
X158940000Y-198950000D02*
G01*
X158460000Y-198950000D01*
X158700000Y-198620000D01*
X158940000Y-198950000D01*
G37*
%TO.C,R51*%
X57772936Y-165465000D02*
X58227064Y-165465000D01*
X57772936Y-166935000D02*
X58227064Y-166935000D01*
%TO.C,R95*%
X130265000Y-190227064D02*
X130265000Y-189772936D01*
X131735000Y-190227064D02*
X131735000Y-189772936D01*
%TO.C,R73*%
X149265000Y-109227064D02*
X149265000Y-108772936D01*
X150735000Y-109227064D02*
X150735000Y-108772936D01*
%TO.C,C2*%
X112738748Y-129265000D02*
X113261252Y-129265000D01*
X112738748Y-130735000D02*
X113261252Y-130735000D01*
%TO.C,U3*%
X136140000Y-102940000D02*
X143860000Y-102940000D01*
X136140000Y-103185000D02*
X136140000Y-102940000D01*
X136140000Y-121060000D02*
X136140000Y-120815000D01*
X143860000Y-102940000D02*
X143860000Y-103185000D01*
X143860000Y-120815000D02*
X143860000Y-121060000D01*
X143860000Y-121060000D02*
X136140000Y-121060000D01*
X135350000Y-103180000D02*
X135010000Y-102710000D01*
X135690000Y-102710000D01*
X135350000Y-103180000D01*
G36*
X135350000Y-103180000D02*
G01*
X135010000Y-102710000D01*
X135690000Y-102710000D01*
X135350000Y-103180000D01*
G37*
%TO.C,R75*%
X221265000Y-109227064D02*
X221265000Y-108772936D01*
X222735000Y-109227064D02*
X222735000Y-108772936D01*
%TO.C,U16*%
X75160000Y-94670000D02*
X75160000Y-99870000D01*
X75160000Y-99870000D02*
X80460000Y-99870000D01*
X76810000Y-94670000D02*
X75160000Y-94670000D01*
X80460000Y-94670000D02*
X78810000Y-94670000D01*
X80460000Y-99870000D02*
X80460000Y-94670000D01*
X78810000Y-94670000D02*
G75*
G02*
X76810000Y-94670000I-1000000J0D01*
G01*
%TO.C,R93*%
X115772936Y-181265000D02*
X116227064Y-181265000D01*
X115772936Y-182735000D02*
X116227064Y-182735000D01*
%TO.C,D2*%
X220350000Y-83510000D02*
X220350000Y-78000000D01*
X220350000Y-83510000D02*
X223650000Y-83510000D01*
X223650000Y-83510000D02*
X223650000Y-78000000D01*
%TO.C,J1*%
X120790000Y-4170000D02*
X154070000Y-4170000D01*
X120790000Y-13290000D02*
X120790000Y-4170000D01*
X122090000Y-5480000D02*
X152770000Y-5480000D01*
X122090000Y-11980000D02*
X122090000Y-5480000D01*
X125500000Y-14680000D02*
X126500000Y-14680000D01*
X126000000Y-13680000D02*
X125500000Y-14680000D01*
X126500000Y-14680000D02*
X126000000Y-13680000D01*
X135380000Y-11980000D02*
X122090000Y-11980000D01*
X135380000Y-13290000D02*
X135380000Y-11980000D01*
X139480000Y-11980000D02*
X139480000Y-13290000D01*
X152770000Y-5480000D02*
X152770000Y-11980000D01*
X152770000Y-11980000D02*
X139480000Y-11980000D01*
X154070000Y-4170000D02*
X154070000Y-13290000D01*
X154070000Y-13290000D02*
X120790000Y-13290000D01*
%TD*%
%LPC*%
D12*
%TO.C,R74*%
X150000000Y-115912500D03*
X150000000Y-114087500D03*
%TD*%
%TO.C,R80*%
X150000000Y-159912500D03*
X150000000Y-158087500D03*
%TD*%
D13*
%TO.C,C14*%
X139050000Y-78000000D03*
X140950000Y-78000000D03*
%TD*%
D14*
%TO.C,C4*%
X230000000Y-72950000D03*
X230000000Y-71050000D03*
%TD*%
D12*
%TO.C,R71*%
X150000000Y-93912500D03*
X150000000Y-92087500D03*
%TD*%
D15*
%TO.C,U14*%
X74000000Y-84000000D03*
D16*
X74000000Y-86540000D03*
X81620000Y-86540000D03*
X81620000Y-84000000D03*
%TD*%
D12*
%TO.C,R1*%
X103000000Y-86912500D03*
X103000000Y-85087500D03*
%TD*%
D17*
%TO.C,R35*%
X57087500Y-118200000D03*
X58912500Y-118200000D03*
%TD*%
D18*
%TO.C,J9*%
X242000000Y-134000000D03*
D19*
X242000000Y-139080000D03*
%TD*%
D17*
%TO.C,R53*%
X57087500Y-172200000D03*
X58912500Y-172200000D03*
%TD*%
D15*
%TO.C,U19*%
X74000000Y-114000000D03*
D16*
X74000000Y-116540000D03*
X81620000Y-116540000D03*
X81620000Y-114000000D03*
%TD*%
D20*
%TO.C,TP10*%
X104000000Y-221000000D03*
%TD*%
%TO.C,TP15*%
X156000000Y-221000000D03*
%TD*%
D17*
%TO.C,R90*%
X103087500Y-182000000D03*
X104912500Y-182000000D03*
%TD*%
D15*
%TO.C,U10*%
X74000000Y-60000000D03*
D16*
X74000000Y-62540000D03*
X81620000Y-62540000D03*
X81620000Y-60000000D03*
%TD*%
D15*
%TO.C,U26*%
X74000000Y-156000000D03*
D16*
X74000000Y-158540000D03*
X81620000Y-158540000D03*
X81620000Y-156000000D03*
%TD*%
D21*
%TO.C,D15*%
X150950000Y-35000000D03*
X153050000Y-35000000D03*
%TD*%
D12*
%TO.C,R79*%
X150000000Y-153912500D03*
X150000000Y-152087500D03*
%TD*%
%TO.C,R68*%
X150000000Y-71912500D03*
X150000000Y-70087500D03*
%TD*%
D13*
%TO.C,C3*%
X139050000Y-96000000D03*
X140950000Y-96000000D03*
%TD*%
D20*
%TO.C,TP5*%
X34000000Y-214000000D03*
%TD*%
%TO.C,TP14*%
X148000000Y-221000000D03*
%TD*%
D22*
%TO.C,Q16*%
X159062500Y-95050000D03*
X159062500Y-96950000D03*
X160937500Y-96000000D03*
%TD*%
D14*
%TO.C,C9*%
X230000000Y-182950000D03*
X230000000Y-181050000D03*
%TD*%
D12*
%TO.C,R84*%
X222000000Y-175912500D03*
X222000000Y-174087500D03*
%TD*%
D23*
%TO.C,D10*%
X222000000Y-170000000D03*
X222000000Y-166000000D03*
%TD*%
D12*
%TO.C,R98*%
X143000000Y-190912500D03*
X143000000Y-189087500D03*
%TD*%
D15*
%TO.C,U35*%
X74000000Y-210000000D03*
D16*
X74000000Y-212540000D03*
X81620000Y-212540000D03*
X81620000Y-210000000D03*
%TD*%
D14*
%TO.C,C5*%
X230000000Y-94950000D03*
X230000000Y-93050000D03*
%TD*%
D17*
%TO.C,R14*%
X91087500Y-55800000D03*
X92912500Y-55800000D03*
%TD*%
%TO.C,R15*%
X57087500Y-58200000D03*
X58912500Y-58200000D03*
%TD*%
D15*
%TO.C,U4*%
X74000000Y-24000000D03*
D16*
X74000000Y-26540000D03*
X81620000Y-26540000D03*
X81620000Y-24000000D03*
%TD*%
D17*
%TO.C,R47*%
X57087500Y-154200000D03*
X58912500Y-154200000D03*
%TD*%
D12*
%TO.C,R83*%
X150000000Y-181912500D03*
X150000000Y-180087500D03*
%TD*%
%TO.C,R72*%
X222000000Y-87912500D03*
X222000000Y-86087500D03*
%TD*%
D24*
%TO.C,K6*%
X176000000Y-182000000D03*
D25*
X178000000Y-188000000D03*
X190200000Y-188000000D03*
X190200000Y-176000000D03*
X178000000Y-176000000D03*
%TD*%
D22*
%TO.C,Q9*%
X115062500Y-197050000D03*
X115062500Y-198950000D03*
X116937500Y-198000000D03*
%TD*%
D12*
%TO.C,R87*%
X222000000Y-197912500D03*
X222000000Y-196087500D03*
%TD*%
D26*
%TO.C,J2*%
X104000000Y-10000000D03*
D19*
X109080000Y-10000000D03*
X114160000Y-10000000D03*
%TD*%
D20*
%TO.C,TP3*%
X116000000Y-214000000D03*
%TD*%
D23*
%TO.C,D6*%
X222000000Y-126000000D03*
X222000000Y-122000000D03*
%TD*%
D17*
%TO.C,R17*%
X57087500Y-64200000D03*
X58912500Y-64200000D03*
%TD*%
D24*
%TO.C,K1*%
X176000000Y-72000000D03*
D25*
X178000000Y-78000000D03*
X190200000Y-78000000D03*
X190200000Y-66000000D03*
X178000000Y-66000000D03*
%TD*%
D12*
%TO.C,R102*%
X142000000Y-47912500D03*
X142000000Y-46087500D03*
%TD*%
D27*
%TO.C,J5*%
X9000000Y-168000000D03*
D28*
X9000000Y-164500000D03*
X9000000Y-161000000D03*
X9000000Y-157500000D03*
X9000000Y-154000000D03*
X9000000Y-150500000D03*
X9000000Y-147000000D03*
X9000000Y-143500000D03*
X9000000Y-140000000D03*
X9000000Y-136500000D03*
X9000000Y-133000000D03*
X9000000Y-129500000D03*
%TD*%
D15*
%TO.C,U5*%
X74000000Y-30000000D03*
D16*
X74000000Y-32540000D03*
X81620000Y-32540000D03*
X81620000Y-30000000D03*
%TD*%
D12*
%TO.C,R100*%
X146000000Y-40912500D03*
X146000000Y-39087500D03*
%TD*%
D17*
%TO.C,R6*%
X91087500Y-31800000D03*
X92912500Y-31800000D03*
%TD*%
D15*
%TO.C,U27*%
X74000000Y-162000000D03*
D16*
X74000000Y-164540000D03*
X81620000Y-164540000D03*
X81620000Y-162000000D03*
%TD*%
D15*
%TO.C,U29*%
X74000000Y-174000000D03*
D16*
X74000000Y-176540000D03*
X81620000Y-176540000D03*
X81620000Y-174000000D03*
%TD*%
D17*
%TO.C,R11*%
X57087500Y-46200000D03*
X58912500Y-46200000D03*
%TD*%
%TO.C,R59*%
X57087500Y-190200000D03*
X58912500Y-190200000D03*
%TD*%
D29*
%TO.C,MK2*%
X246000000Y-4000000D03*
%TD*%
D12*
%TO.C,R108*%
X133000000Y-98912500D03*
X133000000Y-97087500D03*
%TD*%
D29*
%TO.C,MK1*%
X4000000Y-4000000D03*
%TD*%
D17*
%TO.C,R54*%
X91087500Y-175800000D03*
X92912500Y-175800000D03*
%TD*%
%TO.C,R4*%
X91087500Y-25800000D03*
X92912500Y-25800000D03*
%TD*%
%TO.C,R16*%
X91087500Y-61800000D03*
X92912500Y-61800000D03*
%TD*%
%TO.C,R20*%
X91087500Y-73800000D03*
X92912500Y-73800000D03*
%TD*%
D30*
%TO.C,D17*%
X99000000Y-24000000D03*
X103000000Y-24000000D03*
%TD*%
D17*
%TO.C,R7*%
X57087500Y-34200000D03*
X58912500Y-34200000D03*
%TD*%
D21*
%TO.C,D5*%
X162950000Y-122000000D03*
X165050000Y-122000000D03*
%TD*%
D15*
%TO.C,U33*%
X74000000Y-198000000D03*
D16*
X74000000Y-200540000D03*
X81620000Y-200540000D03*
X81620000Y-198000000D03*
%TD*%
D12*
%TO.C,R76*%
X150000000Y-131912500D03*
X150000000Y-130087500D03*
%TD*%
D27*
%TO.C,J4*%
X9000000Y-103000000D03*
D28*
X9000000Y-99500000D03*
X9000000Y-96000000D03*
X9000000Y-92500000D03*
X9000000Y-89000000D03*
X9000000Y-85500000D03*
X9000000Y-82000000D03*
X9000000Y-78500000D03*
X9000000Y-75000000D03*
X9000000Y-71500000D03*
X9000000Y-68000000D03*
X9000000Y-64500000D03*
X9000000Y-61000000D03*
X9000000Y-57500000D03*
%TD*%
D17*
%TO.C,R10*%
X91087500Y-43800000D03*
X92912500Y-43800000D03*
%TD*%
D24*
%TO.C,K5*%
X176000000Y-160000000D03*
D25*
X178000000Y-166000000D03*
X190200000Y-166000000D03*
X190200000Y-154000000D03*
X178000000Y-154000000D03*
%TD*%
D17*
%TO.C,R34*%
X91087500Y-115800000D03*
X92912500Y-115800000D03*
%TD*%
D14*
%TO.C,C13*%
X166000000Y-42950000D03*
X166000000Y-41050000D03*
%TD*%
D18*
%TO.C,J8*%
X242000000Y-112000000D03*
D19*
X242000000Y-117080000D03*
%TD*%
D17*
%TO.C,R45*%
X57087500Y-148200000D03*
X58912500Y-148200000D03*
%TD*%
D31*
%TO.C,U1*%
X117350000Y-95745000D03*
X117350000Y-97015000D03*
X117350000Y-98285000D03*
X117350000Y-99555000D03*
X117350000Y-100825000D03*
X117350000Y-102095000D03*
X117350000Y-103365000D03*
X117350000Y-104635000D03*
X117350000Y-105905000D03*
X117350000Y-107175000D03*
X117350000Y-108445000D03*
X117350000Y-109715000D03*
X117350000Y-110985000D03*
X117350000Y-112255000D03*
X126650000Y-112255000D03*
X126650000Y-110985000D03*
X126650000Y-109715000D03*
X126650000Y-108445000D03*
X126650000Y-107175000D03*
X126650000Y-105905000D03*
X126650000Y-104635000D03*
X126650000Y-103365000D03*
X126650000Y-102095000D03*
X126650000Y-100825000D03*
X126650000Y-99555000D03*
X126650000Y-98285000D03*
X126650000Y-97015000D03*
X126650000Y-95745000D03*
%TD*%
D17*
%TO.C,R12*%
X91087500Y-49800000D03*
X92912500Y-49800000D03*
%TD*%
%TO.C,R32*%
X91087500Y-109800000D03*
X92912500Y-109800000D03*
%TD*%
%TO.C,R40*%
X91087500Y-133800000D03*
X92912500Y-133800000D03*
%TD*%
%TO.C,R21*%
X57087500Y-76200000D03*
X58912500Y-76200000D03*
%TD*%
%TO.C,R28*%
X91087500Y-97800000D03*
X92912500Y-97800000D03*
%TD*%
%TO.C,R49*%
X57087500Y-160200000D03*
X58912500Y-160200000D03*
%TD*%
D23*
%TO.C,D14*%
X222000000Y-214000000D03*
X222000000Y-210000000D03*
%TD*%
D17*
%TO.C,R30*%
X91087500Y-103800000D03*
X92912500Y-103800000D03*
%TD*%
D18*
%TO.C,J11*%
X242000000Y-178000000D03*
D19*
X242000000Y-183080000D03*
%TD*%
D12*
%TO.C,R82*%
X150000000Y-175912500D03*
X150000000Y-174087500D03*
%TD*%
D17*
%TO.C,R50*%
X91087500Y-163800000D03*
X92912500Y-163800000D03*
%TD*%
D14*
%TO.C,C8*%
X230000000Y-160950000D03*
X230000000Y-159050000D03*
%TD*%
D15*
%TO.C,U34*%
X74000000Y-204000000D03*
D16*
X74000000Y-206540000D03*
X81620000Y-206540000D03*
X81620000Y-204000000D03*
%TD*%
D15*
%TO.C,U7*%
X74000000Y-42000000D03*
D16*
X74000000Y-44540000D03*
X81620000Y-44540000D03*
X81620000Y-42000000D03*
%TD*%
D17*
%TO.C,R56*%
X91087500Y-181800000D03*
X92912500Y-181800000D03*
%TD*%
D24*
%TO.C,K2*%
X176000000Y-94000000D03*
D25*
X178000000Y-100000000D03*
X190200000Y-100000000D03*
X190200000Y-88000000D03*
X178000000Y-88000000D03*
%TD*%
D32*
%TO.C,A1*%
X121275000Y-31000000D03*
D33*
X121575000Y-34030000D03*
X126425000Y-34030000D03*
D32*
X126725000Y-31000000D03*
D34*
X114310000Y-30870000D03*
D35*
X114310000Y-33410000D03*
D36*
X114310000Y-35950000D03*
D35*
X114310000Y-38490000D03*
X114310000Y-41030000D03*
X114310000Y-43570000D03*
X114310000Y-46110000D03*
D36*
X114310000Y-48650000D03*
D35*
X114310000Y-51190000D03*
X114310000Y-53730000D03*
X114310000Y-56270000D03*
X114310000Y-58810000D03*
D36*
X114310000Y-61350000D03*
D35*
X114310000Y-63890000D03*
X114310000Y-66430000D03*
X114310000Y-68970000D03*
X114310000Y-71510000D03*
D36*
X114310000Y-74050000D03*
D35*
X114310000Y-76590000D03*
X114310000Y-79130000D03*
X133690000Y-79130000D03*
X133690000Y-76590000D03*
D34*
X133690000Y-74050000D03*
D35*
X133690000Y-71510000D03*
X133690000Y-68970000D03*
X133690000Y-66430000D03*
X133690000Y-63890000D03*
D34*
X133690000Y-61350000D03*
D35*
X133690000Y-58810000D03*
X133690000Y-56270000D03*
X133690000Y-53730000D03*
X133690000Y-51190000D03*
D34*
X133690000Y-48650000D03*
D35*
X133690000Y-46110000D03*
X133690000Y-43570000D03*
X133690000Y-41030000D03*
X133690000Y-38490000D03*
D34*
X133690000Y-35950000D03*
D35*
X133690000Y-33410000D03*
X133690000Y-30870000D03*
D37*
X121460000Y-79700000D03*
D38*
X124000000Y-78900000D03*
D37*
X126540000Y-79700000D03*
D39*
X124000000Y-34000000D03*
X125000000Y-30700000D03*
X123000000Y-30700000D03*
X121500000Y-37500000D03*
X121500000Y-40000000D03*
X121500000Y-42500000D03*
%TD*%
D22*
%TO.C,Q4*%
X159062500Y-132050000D03*
X159062500Y-133950000D03*
X160937500Y-133000000D03*
%TD*%
D12*
%TO.C,R105*%
X162000000Y-70912500D03*
X162000000Y-69087500D03*
%TD*%
D22*
%TO.C,Q14*%
X157062500Y-81050000D03*
X157062500Y-82950000D03*
X158937500Y-82000000D03*
%TD*%
D17*
%TO.C,R38*%
X91087500Y-127800000D03*
X92912500Y-127800000D03*
%TD*%
%TO.C,R65*%
X57087500Y-208200000D03*
X58912500Y-208200000D03*
%TD*%
%TO.C,R57*%
X57087500Y-184200000D03*
X58912500Y-184200000D03*
%TD*%
D15*
%TO.C,U12*%
X74000000Y-72000000D03*
D16*
X74000000Y-74540000D03*
X81620000Y-74540000D03*
X81620000Y-72000000D03*
%TD*%
D15*
%TO.C,U20*%
X74000000Y-120000000D03*
D16*
X74000000Y-122540000D03*
X81620000Y-122540000D03*
X81620000Y-120000000D03*
%TD*%
D40*
%TO.C,C11*%
X156000000Y-44800000D03*
X156000000Y-39200000D03*
%TD*%
D41*
%TO.C,U37*%
X73900000Y-13000000D03*
D42*
X76440000Y-13000000D03*
X81520000Y-13000000D03*
X86600000Y-13000000D03*
%TD*%
D20*
%TO.C,TP6*%
X128000000Y-214000000D03*
%TD*%
%TO.C,TP1*%
X92000000Y-214000000D03*
%TD*%
D17*
%TO.C,R27*%
X57087500Y-94200000D03*
X58912500Y-94200000D03*
%TD*%
D15*
%TO.C,U22*%
X74000000Y-132000000D03*
D16*
X74000000Y-134540000D03*
X81620000Y-134540000D03*
X81620000Y-132000000D03*
%TD*%
D15*
%TO.C,U24*%
X74000000Y-144000000D03*
D16*
X74000000Y-146540000D03*
X81620000Y-146540000D03*
X81620000Y-144000000D03*
%TD*%
D22*
%TO.C,Q6*%
X159062500Y-176050000D03*
X159062500Y-177950000D03*
X160937500Y-177000000D03*
%TD*%
D12*
%TO.C,R2*%
X110000000Y-86912500D03*
X110000000Y-85087500D03*
%TD*%
D17*
%TO.C,R46*%
X91087500Y-151800000D03*
X92912500Y-151800000D03*
%TD*%
D20*
%TO.C,TP2*%
X104000000Y-214000000D03*
%TD*%
D15*
%TO.C,U30*%
X74000000Y-180000000D03*
D16*
X74000000Y-182540000D03*
X81620000Y-182540000D03*
X81620000Y-180000000D03*
%TD*%
D12*
%TO.C,R106*%
X148000000Y-82912500D03*
X148000000Y-81087500D03*
%TD*%
D43*
%TO.C,J14*%
X160000000Y-10000000D03*
D44*
X163500000Y-10000000D03*
X167000000Y-10000000D03*
X170500000Y-10000000D03*
%TD*%
D15*
%TO.C,U6*%
X74000000Y-36000000D03*
D16*
X74000000Y-38540000D03*
X81620000Y-38540000D03*
X81620000Y-36000000D03*
%TD*%
D21*
%TO.C,D9*%
X162950000Y-166000000D03*
X165050000Y-166000000D03*
%TD*%
D15*
%TO.C,U13*%
X74000000Y-78000000D03*
D16*
X74000000Y-80540000D03*
X81620000Y-80540000D03*
X81620000Y-78000000D03*
%TD*%
D22*
%TO.C,Q1*%
X159062500Y-66050000D03*
X159062500Y-67950000D03*
X160937500Y-67000000D03*
%TD*%
D17*
%TO.C,R33*%
X57087500Y-112200000D03*
X58912500Y-112200000D03*
%TD*%
%TO.C,R99*%
X139087500Y-182000000D03*
X140912500Y-182000000D03*
%TD*%
D12*
%TO.C,R103*%
X142000000Y-70912500D03*
X142000000Y-69087500D03*
%TD*%
%TO.C,R69*%
X222000000Y-65912500D03*
X222000000Y-64087500D03*
%TD*%
D15*
%TO.C,U9*%
X74000000Y-54000000D03*
D16*
X74000000Y-56540000D03*
X81620000Y-56540000D03*
X81620000Y-54000000D03*
%TD*%
D17*
%TO.C,R52*%
X91087500Y-169800000D03*
X92912500Y-169800000D03*
%TD*%
D20*
%TO.C,TP12*%
X128000000Y-221000000D03*
%TD*%
D17*
%TO.C,R55*%
X57087500Y-178200000D03*
X58912500Y-178200000D03*
%TD*%
D15*
%TO.C,U18*%
X74000000Y-108000000D03*
D16*
X74000000Y-110540000D03*
X81620000Y-110540000D03*
X81620000Y-108000000D03*
%TD*%
D12*
%TO.C,R67*%
X150000000Y-65912500D03*
X150000000Y-64087500D03*
%TD*%
D17*
%TO.C,R62*%
X91087500Y-199800000D03*
X92912500Y-199800000D03*
%TD*%
%TO.C,R5*%
X57087500Y-28200000D03*
X58912500Y-28200000D03*
%TD*%
D15*
%TO.C,U11*%
X74000000Y-66000000D03*
D16*
X74000000Y-68540000D03*
X81620000Y-68540000D03*
X81620000Y-66000000D03*
%TD*%
D12*
%TO.C,R110*%
X170000000Y-98912500D03*
X170000000Y-97087500D03*
%TD*%
D21*
%TO.C,D11*%
X162950000Y-188000000D03*
X165050000Y-188000000D03*
%TD*%
D12*
%TO.C,R88*%
X101000000Y-190912500D03*
X101000000Y-189087500D03*
%TD*%
D14*
%TO.C,C7*%
X230000000Y-138950000D03*
X230000000Y-137050000D03*
%TD*%
D17*
%TO.C,R29*%
X57087500Y-100200000D03*
X58912500Y-100200000D03*
%TD*%
D12*
%TO.C,R109*%
X170000000Y-90912500D03*
X170000000Y-89087500D03*
%TD*%
D17*
%TO.C,R9*%
X57087500Y-40200000D03*
X58912500Y-40200000D03*
%TD*%
%TO.C,R60*%
X91087500Y-193800000D03*
X92912500Y-193800000D03*
%TD*%
D12*
%TO.C,R85*%
X150000000Y-197912500D03*
X150000000Y-196087500D03*
%TD*%
D22*
%TO.C,Q13*%
X161062500Y-57050000D03*
X161062500Y-58950000D03*
X162937500Y-58000000D03*
%TD*%
D17*
%TO.C,R63*%
X57087500Y-202200000D03*
X58912500Y-202200000D03*
%TD*%
D12*
%TO.C,R107*%
X133000000Y-90912500D03*
X133000000Y-89087500D03*
%TD*%
D14*
%TO.C,C6*%
X230000000Y-116950000D03*
X230000000Y-115050000D03*
%TD*%
D18*
%TO.C,J10*%
X242000000Y-156000000D03*
D19*
X242000000Y-161080000D03*
%TD*%
D22*
%TO.C,Q10*%
X127062500Y-197050000D03*
X127062500Y-198950000D03*
X128937500Y-198000000D03*
%TD*%
D23*
%TO.C,D4*%
X222000000Y-104000000D03*
X222000000Y-100000000D03*
%TD*%
%TO.C,D8*%
X222000000Y-148000000D03*
X222000000Y-144000000D03*
%TD*%
D20*
%TO.C,TP7*%
X140000000Y-214000000D03*
%TD*%
D21*
%TO.C,D1*%
X162950000Y-78000000D03*
X165050000Y-78000000D03*
%TD*%
D15*
%TO.C,U32*%
X74000000Y-192000000D03*
D16*
X74000000Y-194540000D03*
X81620000Y-194540000D03*
X81620000Y-192000000D03*
%TD*%
D17*
%TO.C,R13*%
X57087500Y-52200000D03*
X58912500Y-52200000D03*
%TD*%
%TO.C,R58*%
X91087500Y-187800000D03*
X92912500Y-187800000D03*
%TD*%
D22*
%TO.C,Q11*%
X139062500Y-197050000D03*
X139062500Y-198950000D03*
X140937500Y-198000000D03*
%TD*%
D12*
%TO.C,R92*%
X119000000Y-190912500D03*
X119000000Y-189087500D03*
%TD*%
D29*
%TO.C,MK3*%
X4000000Y-221000000D03*
%TD*%
D17*
%TO.C,R24*%
X91087500Y-85800000D03*
X92912500Y-85800000D03*
%TD*%
D12*
%TO.C,R94*%
X125000000Y-190912500D03*
X125000000Y-189087500D03*
%TD*%
D31*
%TO.C,U2*%
X117350000Y-137745000D03*
X117350000Y-139015000D03*
X117350000Y-140285000D03*
X117350000Y-141555000D03*
X117350000Y-142825000D03*
X117350000Y-144095000D03*
X117350000Y-145365000D03*
X117350000Y-146635000D03*
X117350000Y-147905000D03*
X117350000Y-149175000D03*
X117350000Y-150445000D03*
X117350000Y-151715000D03*
X117350000Y-152985000D03*
X117350000Y-154255000D03*
X126650000Y-154255000D03*
X126650000Y-152985000D03*
X126650000Y-151715000D03*
X126650000Y-150445000D03*
X126650000Y-149175000D03*
X126650000Y-147905000D03*
X126650000Y-146635000D03*
X126650000Y-145365000D03*
X126650000Y-144095000D03*
X126650000Y-142825000D03*
X126650000Y-141555000D03*
X126650000Y-140285000D03*
X126650000Y-139015000D03*
X126650000Y-137745000D03*
%TD*%
D15*
%TO.C,U23*%
X74000000Y-138000000D03*
D16*
X74000000Y-140540000D03*
X81620000Y-140540000D03*
X81620000Y-138000000D03*
%TD*%
D17*
%TO.C,R39*%
X57087500Y-130199999D03*
X58912500Y-130199999D03*
%TD*%
D12*
%TO.C,R70*%
X150000000Y-87912500D03*
X150000000Y-86087500D03*
%TD*%
D17*
%TO.C,R19*%
X57087500Y-70200000D03*
X58912500Y-70200000D03*
%TD*%
D12*
%TO.C,R78*%
X222000000Y-131912500D03*
X222000000Y-130087500D03*
%TD*%
%TO.C,R97*%
X137000000Y-190912500D03*
X137000000Y-189087500D03*
%TD*%
D45*
%TO.C,U36*%
X148525000Y-48095000D03*
X148525000Y-49365000D03*
X148525000Y-50635000D03*
X148525000Y-51905000D03*
X153475000Y-51905000D03*
X153475000Y-50635000D03*
X153475000Y-49365000D03*
X153475000Y-48095000D03*
%TD*%
D17*
%TO.C,R43*%
X57087500Y-142200000D03*
X58912500Y-142200000D03*
%TD*%
%TO.C,R64*%
X91087500Y-205800000D03*
X92912500Y-205800000D03*
%TD*%
%TO.C,R26*%
X91087500Y-91800000D03*
X92912500Y-91800000D03*
%TD*%
D27*
%TO.C,J3*%
X9000000Y-42000000D03*
D28*
X9000000Y-38500000D03*
X9000000Y-35000000D03*
X9000000Y-31500000D03*
X9000000Y-28000000D03*
X9000000Y-24500000D03*
X9000000Y-21000000D03*
X9000000Y-17500000D03*
X9000000Y-14000000D03*
X9000000Y-10500000D03*
%TD*%
D22*
%TO.C,Q12*%
X141062500Y-57050000D03*
X141062500Y-58950000D03*
X142937500Y-58000000D03*
%TD*%
D17*
%TO.C,R96*%
X127087500Y-182000000D03*
X128912500Y-182000000D03*
%TD*%
D15*
%TO.C,U15*%
X74000000Y-90000000D03*
D16*
X74000000Y-92540000D03*
X81620000Y-92540000D03*
X81620000Y-90000000D03*
%TD*%
D17*
%TO.C,R23*%
X57087500Y-82200000D03*
X58912500Y-82200000D03*
%TD*%
D18*
%TO.C,J7*%
X242000000Y-90000000D03*
D19*
X242000000Y-95080000D03*
%TD*%
D21*
%TO.C,D16*%
X157950000Y-35000000D03*
X160050000Y-35000000D03*
%TD*%
D24*
%TO.C,K7*%
X176000000Y-204000000D03*
D25*
X178000000Y-210000000D03*
X190200000Y-210000000D03*
X190200000Y-198000000D03*
X178000000Y-198000000D03*
%TD*%
D15*
%TO.C,U31*%
X74000000Y-186000000D03*
D16*
X74000000Y-188540000D03*
X81620000Y-188540000D03*
X81620000Y-186000000D03*
%TD*%
D17*
%TO.C,R31*%
X57087500Y-106200000D03*
X58912500Y-106200000D03*
%TD*%
%TO.C,R3*%
X57087500Y-22200000D03*
X58912500Y-22200000D03*
%TD*%
D12*
%TO.C,R77*%
X150000000Y-137912500D03*
X150000000Y-136087500D03*
%TD*%
%TO.C,R101*%
X145000000Y-78912500D03*
X145000000Y-77087500D03*
%TD*%
%TO.C,R89*%
X107000000Y-190912500D03*
X107000000Y-189087500D03*
%TD*%
D21*
%TO.C,D7*%
X162950000Y-144000000D03*
X165050000Y-144000000D03*
%TD*%
D22*
%TO.C,Q8*%
X103062500Y-197050000D03*
X103062500Y-198950000D03*
X104937500Y-198000000D03*
%TD*%
%TO.C,Q3*%
X159062500Y-110050000D03*
X159062500Y-111950000D03*
X160937500Y-111000000D03*
%TD*%
%TO.C,Q15*%
X142062500Y-91050000D03*
X142062500Y-92950000D03*
X143937500Y-92000000D03*
%TD*%
D18*
%TO.C,J6*%
X242000000Y-68000000D03*
D19*
X242000000Y-73080000D03*
%TD*%
D17*
%TO.C,R66*%
X91087500Y-211800000D03*
X92912500Y-211800000D03*
%TD*%
D20*
%TO.C,TP8*%
X150000000Y-214000000D03*
%TD*%
D29*
%TO.C,MK4*%
X246000000Y-221000000D03*
%TD*%
D15*
%TO.C,U28*%
X74000000Y-168000000D03*
D16*
X74000000Y-170540000D03*
X81620000Y-170540000D03*
X81620000Y-168000000D03*
%TD*%
D17*
%TO.C,R8*%
X91087500Y-37800000D03*
X92912500Y-37800000D03*
%TD*%
D22*
%TO.C,Q2*%
X159062500Y-88050000D03*
X159062500Y-89950000D03*
X160937500Y-89000000D03*
%TD*%
D12*
%TO.C,R91*%
X113000000Y-190912500D03*
X113000000Y-189087500D03*
%TD*%
D18*
%TO.C,J12*%
X242000000Y-200000000D03*
D19*
X242000000Y-205080000D03*
%TD*%
D17*
%TO.C,R42*%
X91087500Y-139800000D03*
X92912500Y-139800000D03*
%TD*%
D12*
%TO.C,R81*%
X222000000Y-153912500D03*
X222000000Y-152087500D03*
%TD*%
D15*
%TO.C,U21*%
X74000000Y-126000000D03*
D16*
X74000000Y-128540000D03*
X81620000Y-128540000D03*
X81620000Y-126000000D03*
%TD*%
D23*
%TO.C,D12*%
X222000000Y-192000000D03*
X222000000Y-188000000D03*
%TD*%
D20*
%TO.C,TP9*%
X92000000Y-221000000D03*
%TD*%
%TO.C,TP13*%
X136000000Y-221000000D03*
%TD*%
D17*
%TO.C,R41*%
X57087500Y-136200000D03*
X58912500Y-136200000D03*
%TD*%
D20*
%TO.C,TP4*%
X22000000Y-214000000D03*
%TD*%
D24*
%TO.C,K3*%
X176000000Y-116000000D03*
D25*
X178000000Y-122000000D03*
X190200000Y-122000000D03*
X190200000Y-110000000D03*
X178000000Y-110000000D03*
%TD*%
D14*
%TO.C,C10*%
X230000000Y-204950000D03*
X230000000Y-203050000D03*
%TD*%
D17*
%TO.C,R36*%
X91087500Y-121800000D03*
X92912500Y-121800000D03*
%TD*%
D12*
%TO.C,R104*%
X162000000Y-47912500D03*
X162000000Y-46087500D03*
%TD*%
D17*
%TO.C,R61*%
X57087500Y-196200000D03*
X58912500Y-196200000D03*
%TD*%
%TO.C,R18*%
X91087500Y-67800000D03*
X92912500Y-67800000D03*
%TD*%
D12*
%TO.C,R86*%
X150000000Y-203912500D03*
X150000000Y-202087500D03*
%TD*%
D17*
%TO.C,R22*%
X91087500Y-79800000D03*
X92912500Y-79800000D03*
%TD*%
D24*
%TO.C,K4*%
X176000000Y-138000000D03*
D25*
X178000000Y-144000000D03*
X190200000Y-144000000D03*
X190200000Y-132000000D03*
X178000000Y-132000000D03*
%TD*%
D20*
%TO.C,TP16*%
X164000000Y-221000000D03*
%TD*%
D15*
%TO.C,U25*%
X74000000Y-150000000D03*
D16*
X74000000Y-152540000D03*
X81620000Y-152540000D03*
X81620000Y-150000000D03*
%TD*%
D14*
%TO.C,C12*%
X156000000Y-67950000D03*
X156000000Y-66050000D03*
%TD*%
D43*
%TO.C,J13*%
X104000000Y-206000000D03*
D44*
X107500000Y-206000000D03*
X111000000Y-206000000D03*
X114500000Y-206000000D03*
X118000000Y-206000000D03*
X121500000Y-206000000D03*
%TD*%
D21*
%TO.C,D13*%
X162950000Y-210000000D03*
X165050000Y-210000000D03*
%TD*%
D17*
%TO.C,R37*%
X57087500Y-124200000D03*
X58912500Y-124200000D03*
%TD*%
D22*
%TO.C,Q5*%
X159062500Y-154050000D03*
X159062500Y-155950000D03*
X160937500Y-155000000D03*
%TD*%
D17*
%TO.C,R44*%
X91087500Y-145800000D03*
X92912500Y-145800000D03*
%TD*%
%TO.C,R25*%
X57087500Y-88200000D03*
X58912500Y-88200000D03*
%TD*%
D20*
%TO.C,TP11*%
X116000000Y-221000000D03*
%TD*%
D15*
%TO.C,U8*%
X74000000Y-48000000D03*
D16*
X74000000Y-50540000D03*
X81620000Y-50540000D03*
X81620000Y-48000000D03*
%TD*%
D15*
%TO.C,U17*%
X74000000Y-102000000D03*
D16*
X74000000Y-104540000D03*
X81620000Y-104540000D03*
X81620000Y-102000000D03*
%TD*%
D13*
%TO.C,C1*%
X115050000Y-92000000D03*
X116950000Y-92000000D03*
%TD*%
D21*
%TO.C,D3*%
X162950000Y-100000000D03*
X165050000Y-100000000D03*
%TD*%
D17*
%TO.C,R48*%
X91087500Y-157800000D03*
X92912500Y-157800000D03*
%TD*%
D22*
%TO.C,Q7*%
X159062500Y-198050000D03*
X159062500Y-199950000D03*
X160937500Y-199000000D03*
%TD*%
D17*
%TO.C,R51*%
X57087500Y-166200000D03*
X58912500Y-166200000D03*
%TD*%
D12*
%TO.C,R95*%
X131000000Y-190912500D03*
X131000000Y-189087500D03*
%TD*%
%TO.C,R73*%
X150000000Y-109912500D03*
X150000000Y-108087500D03*
%TD*%
D13*
%TO.C,C2*%
X112050000Y-130000000D03*
X113950000Y-130000000D03*
%TD*%
D31*
%TO.C,U3*%
X135350000Y-103745000D03*
X135350000Y-105015000D03*
X135350000Y-106285000D03*
X135350000Y-107555000D03*
X135350000Y-108825000D03*
X135350000Y-110095000D03*
X135350000Y-111365000D03*
X135350000Y-112635000D03*
X135350000Y-113905000D03*
X135350000Y-115175000D03*
X135350000Y-116445000D03*
X135350000Y-117715000D03*
X135350000Y-118985000D03*
X135350000Y-120255000D03*
X144650000Y-120255000D03*
X144650000Y-118985000D03*
X144650000Y-117715000D03*
X144650000Y-116445000D03*
X144650000Y-115175000D03*
X144650000Y-113905000D03*
X144650000Y-112635000D03*
X144650000Y-111365000D03*
X144650000Y-110095000D03*
X144650000Y-108825000D03*
X144650000Y-107555000D03*
X144650000Y-106285000D03*
X144650000Y-105015000D03*
X144650000Y-103745000D03*
%TD*%
D12*
%TO.C,R75*%
X222000000Y-109912500D03*
X222000000Y-108087500D03*
%TD*%
D15*
%TO.C,U16*%
X74000000Y-96000000D03*
D16*
X74000000Y-98540000D03*
X81620000Y-98540000D03*
X81620000Y-96000000D03*
%TD*%
D17*
%TO.C,R93*%
X115087500Y-182000000D03*
X116912500Y-182000000D03*
%TD*%
D23*
%TO.C,D2*%
X222000000Y-82000000D03*
X222000000Y-78000000D03*
%TD*%
D46*
%TO.C,J1*%
X126000000Y-10000000D03*
D47*
X126000000Y-7460000D03*
X128540000Y-10000000D03*
X128540000Y-7460000D03*
X131080000Y-10000000D03*
X131080000Y-7460000D03*
X133620000Y-10000000D03*
X133620000Y-7460000D03*
X136160000Y-10000000D03*
X136160000Y-7460000D03*
X138700000Y-10000000D03*
X138700000Y-7460000D03*
X141240000Y-10000000D03*
X141240000Y-7460000D03*
X143780000Y-10000000D03*
X143780000Y-7460000D03*
X146320000Y-10000000D03*
X146320000Y-7460000D03*
X148860000Y-10000000D03*
X148860000Y-7460000D03*
%TD*%
%LPD*%
M02*
