%TF.GenerationSoftware,KiCad,Pcbnew,10.0.2*%
%TF.CreationDate,2026-07-26T12:27:54-07:00*%
%TF.ProjectId,wsl-phase8b-revD,77736c2d-7068-4617-9365-38622d726576,D*%
%TF.SameCoordinates,Original*%
%TF.FileFunction,Soldermask,Top*%
%TF.FilePolarity,Negative*%
%FSLAX46Y46*%
G04 Gerber Fmt 4.6, Leading zero omitted, Abs format (unit mm)*
G04 Created by KiCad (PCBNEW 10.0.2) date 2026-07-26 12:27:54*
%MOMM*%
%LPD*%
G01*
G04 APERTURE LIST*
G04 Aperture macros list*
%AMRoundRect*
0 Rectangle with rounded corners*
0 $1 Rounding radius*
0 $2 $3 $4 $5 $6 $7 $8 $9 X,Y pos of 4 corners*
0 Add a 4 corners polygon primitive as box body*
4,1,4,$2,$3,$4,$5,$6,$7,$8,$9,$2,$3,0*
0 Add four circle primitives for the rounded corners*
1,1,$1+$1,$2,$3*
1,1,$1+$1,$4,$5*
1,1,$1+$1,$6,$7*
1,1,$1+$1,$8,$9*
0 Add four rect primitives between the rounded corners*
20,1,$1+$1,$2,$3,$4,$5,0*
20,1,$1+$1,$4,$5,$6,$7,0*
20,1,$1+$1,$6,$7,$8,$9,0*
20,1,$1+$1,$8,$9,$2,$3,0*%
%AMFreePoly0*
4,1,37,0.800000,0.796148,0.878414,0.796148,1.032228,0.765552,1.177117,0.705537,1.307515,0.618408,1.418408,0.507515,1.505537,0.377117,1.565552,0.232228,1.596148,0.078414,1.596148,-0.078414,1.565552,-0.232228,1.505537,-0.377117,1.418408,-0.507515,1.307515,-0.618408,1.177117,-0.705537,1.032228,-0.765552,0.878414,-0.796148,0.800000,-0.796148,0.800000,-0.800000,-1.400000,-0.800000,
-1.403843,-0.796157,-1.439018,-0.796157,-1.511114,-0.766294,-1.566294,-0.711114,-1.596157,-0.639018,-1.596157,-0.603843,-1.600000,-0.600000,-1.600000,0.600000,-1.596157,0.603843,-1.596157,0.639018,-1.566294,0.711114,-1.511114,0.766294,-1.439018,0.796157,-1.403843,0.796157,-1.400000,0.800000,0.800000,0.800000,0.800000,0.796148,0.800000,0.796148,$1*%
%AMFreePoly1*
4,1,37,1.403843,0.796157,1.439018,0.796157,1.511114,0.766294,1.566294,0.711114,1.596157,0.639018,1.596157,0.603843,1.600000,0.600000,1.600000,-0.600000,1.596157,-0.603843,1.596157,-0.639018,1.566294,-0.711114,1.511114,-0.766294,1.439018,-0.796157,1.403843,-0.796157,1.400000,-0.800000,-0.800000,-0.800000,-0.800000,-0.796148,-0.878414,-0.796148,-1.032228,-0.765552,-1.177117,-0.705537,
-1.307515,-0.618408,-1.418408,-0.507515,-1.505537,-0.377117,-1.565552,-0.232228,-1.596148,-0.078414,-1.596148,0.078414,-1.565552,0.232228,-1.505537,0.377117,-1.418408,0.507515,-1.307515,0.618408,-1.177117,0.705537,-1.032228,0.765552,-0.878414,0.796148,-0.800000,0.796148,-0.800000,0.800000,1.400000,0.800000,1.403843,0.796157,1.403843,0.796157,$1*%
%AMFreePoly2*
4,1,37,1.600000,0.796148,1.678414,0.796148,1.832228,0.765552,1.977117,0.705537,2.107515,0.618408,2.218408,0.507515,2.305537,0.377117,2.365552,0.232228,2.396148,0.078414,2.396148,-0.078414,2.365552,-0.232228,2.305537,-0.377117,2.218408,-0.507515,2.107515,-0.618408,1.977117,-0.705537,1.832228,-0.765552,1.678414,-0.796148,1.600000,-0.796148,1.600000,-0.800000,-0.600000,-0.800000,
-0.603843,-0.796157,-0.639018,-0.796157,-0.711114,-0.766294,-0.766294,-0.711114,-0.796157,-0.639018,-0.796157,-0.603843,-0.800000,-0.600000,-0.800000,0.600000,-0.796157,0.603843,-0.796157,0.639018,-0.766294,0.711114,-0.711114,0.766294,-0.639018,0.796157,-0.603843,0.796157,-0.600000,0.800000,1.600000,0.800000,1.600000,0.796148,1.600000,0.796148,$1*%
%AMFreePoly3*
4,1,23,0.500000,-0.750000,0.000000,-0.750000,0.000000,-0.745722,-0.065263,-0.745722,-0.191342,-0.711940,-0.304381,-0.646677,-0.396677,-0.554381,-0.461940,-0.441342,-0.495722,-0.315263,-0.495722,-0.250000,-0.500000,-0.250000,-0.500000,0.250000,-0.495722,0.250000,-0.495722,0.315263,-0.461940,0.441342,-0.396677,0.554381,-0.304381,0.646677,-0.191342,0.711940,-0.065263,0.745722,0.000000,0.745722,
0.000000,0.750000,0.500000,0.750000,0.500000,-0.750000,0.500000,-0.750000,$1*%
%AMFreePoly4*
4,1,23,0.000000,0.745722,0.065263,0.745722,0.191342,0.711940,0.304381,0.646677,0.396677,0.554381,0.461940,0.441342,0.495722,0.315263,0.495722,0.250000,0.500000,0.250000,0.500000,-0.250000,0.495722,-0.250000,0.495722,-0.315263,0.461940,-0.441342,0.396677,-0.554381,0.304381,-0.646677,0.191342,-0.711940,0.065263,-0.745722,0.000000,-0.745722,0.000000,-0.750000,-0.500000,-0.750000,
-0.500000,0.750000,0.000000,0.750000,0.000000,0.745722,0.000000,0.745722,$1*%
G04 Aperture macros list end*
%ADD10RoundRect,0.250000X0.250000X0.475000X-0.250000X0.475000X-0.250000X-0.475000X0.250000X-0.475000X0*%
%ADD11RoundRect,0.112500X-0.187500X-0.112500X0.187500X-0.112500X0.187500X0.112500X-0.187500X0.112500X0*%
%ADD12RoundRect,0.250000X-0.262500X-0.450000X0.262500X-0.450000X0.262500X0.450000X-0.262500X0.450000X0*%
%ADD13RoundRect,0.250000X0.650000X-1.000000X0.650000X1.000000X-0.650000X1.000000X-0.650000X-1.000000X0*%
%ADD14RoundRect,0.112500X0.187500X0.112500X-0.187500X0.112500X-0.187500X-0.112500X0.187500X-0.112500X0*%
%ADD15RoundRect,0.250000X0.475000X-0.250000X0.475000X0.250000X-0.475000X0.250000X-0.475000X-0.250000X0*%
%ADD16RoundRect,0.250000X-0.550000X-0.550000X0.550000X-0.550000X0.550000X0.550000X-0.550000X0.550000X0*%
%ADD17C,1.600000*%
%ADD18RoundRect,0.112500X-0.112500X0.187500X-0.112500X-0.187500X0.112500X-0.187500X0.112500X0.187500X0*%
%ADD19R,1.500000X1.500000*%
%ADD20RoundRect,0.250000X0.450000X-0.262500X0.450000X0.262500X-0.450000X0.262500X-0.450000X-0.262500X0*%
%ADD21RoundRect,0.150000X-0.587500X-0.150000X0.587500X-0.150000X0.587500X0.150000X-0.587500X0.150000X0*%
%ADD22C,3.200000*%
%ADD23RoundRect,0.250000X0.262500X0.450000X-0.262500X0.450000X-0.262500X-0.450000X0.262500X-0.450000X0*%
%ADD24RoundRect,0.250000X-1.050000X-1.050000X1.050000X-1.050000X1.050000X1.050000X-1.050000X1.050000X0*%
%ADD25C,2.600000*%
%ADD26R,2.500000X2.500000*%
%ADD27O,2.500000X2.500000*%
%ADD28R,1.000000X1.000000*%
%ADD29RoundRect,0.250000X-0.250000X-0.475000X0.250000X-0.475000X0.250000X0.475000X-0.250000X0.475000X0*%
%ADD30RoundRect,0.277778X1.522222X-0.722222X1.522222X0.722222X-1.522222X0.722222X-1.522222X-0.722222X0*%
%ADD31O,3.600000X2.000000*%
%ADD32RoundRect,0.250000X-1.050000X1.050000X-1.050000X-1.050000X1.050000X-1.050000X1.050000X1.050000X0*%
%ADD33RoundRect,0.150000X-0.875000X-0.150000X0.875000X-0.150000X0.875000X0.150000X-0.875000X0.150000X0*%
%ADD34RoundRect,0.150000X0.587500X0.150000X-0.587500X0.150000X-0.587500X-0.150000X0.587500X-0.150000X0*%
%ADD35RoundRect,0.125000X-0.687500X-0.125000X0.687500X-0.125000X0.687500X0.125000X-0.687500X0.125000X0*%
%ADD36RoundRect,0.277778X-0.722222X-1.522222X0.722222X-1.522222X0.722222X1.522222X-0.722222X1.522222X0*%
%ADD37O,2.000000X3.600000*%
%ADD38RoundRect,0.250000X-1.000000X-0.650000X1.000000X-0.650000X1.000000X0.650000X-1.000000X0.650000X0*%
%ADD39RoundRect,0.150000X0.512500X0.150000X-0.512500X0.150000X-0.512500X-0.150000X0.512500X-0.150000X0*%
%ADD40O,1.100000X1.800000*%
%ADD41O,1.050000X1.450000*%
%ADD42FreePoly0,0.000000*%
%ADD43RoundRect,0.800000X-0.800000X-0.000010X0.800000X-0.000010X0.800000X0.000010X-0.800000X0.000010X0*%
%ADD44FreePoly1,0.000000*%
%ADD45RoundRect,0.800000X0.000010X-0.800000X0.000010X0.800000X-0.000010X0.800000X-0.000010X-0.800000X0*%
%ADD46FreePoly2,270.000000*%
%ADD47RoundRect,0.300000X-0.450000X-0.450000X0.450000X-0.450000X0.450000X0.450000X-0.450000X0.450000X0*%
%ADD48FreePoly3,180.000000*%
%ADD49FreePoly4,180.000000*%
%ADD50RoundRect,0.250000X-0.625000X0.375000X-0.625000X-0.375000X0.625000X-0.375000X0.625000X0.375000X0*%
%ADD51RoundRect,0.250001X-0.499999X0.499999X-0.499999X-0.499999X0.499999X-0.499999X0.499999X0.499999X0*%
%ADD52C,1.500000*%
%ADD53RoundRect,0.150000X-0.825000X-0.150000X0.825000X-0.150000X0.825000X0.150000X-0.825000X0.150000X0*%
%ADD54RoundRect,0.250000X0.600000X-0.600000X0.600000X0.600000X-0.600000X0.600000X-0.600000X-0.600000X0*%
%ADD55C,1.700000*%
%ADD56RoundRect,0.250000X0.550000X-1.500000X0.550000X1.500000X-0.550000X1.500000X-0.550000X-1.500000X0*%
G04 APERTURE END LIST*
%TO.C,JP1*%
G36*
X144450000Y-218150000D02*
G01*
X144750000Y-218150000D01*
X144750000Y-219650000D01*
X144450000Y-219650000D01*
X144450000Y-218150000D01*
G37*
%TD*%
D10*
%TO.C,C38*%
X86912000Y-137299999D03*
X85012000Y-137299999D03*
%TD*%
D11*
%TO.C,D5*%
X162950000Y-122000000D03*
X165050000Y-122000000D03*
%TD*%
D12*
%TO.C,R69*%
X57087500Y-199299999D03*
X58912500Y-199299999D03*
%TD*%
%TO.C,R139*%
X155087500Y-64000000D03*
X156912500Y-64000000D03*
%TD*%
%TO.C,R59*%
X57087500Y-170799999D03*
X58912500Y-170799999D03*
%TD*%
D13*
%TO.C,D2*%
X222000000Y-82000000D03*
X222000000Y-78000000D03*
%TD*%
D14*
%TO.C,D32*%
X63050000Y-51100000D03*
X60950000Y-51100000D03*
%TD*%
%TO.C,D26*%
X63050000Y-34000000D03*
X60950000Y-34000000D03*
%TD*%
D12*
%TO.C,R50*%
X85087500Y-145900000D03*
X86912500Y-145900000D03*
%TD*%
D15*
%TO.C,C15*%
X117000000Y-44950000D03*
X117000000Y-43050000D03*
%TD*%
D16*
%TO.C,U29*%
X74000000Y-155500000D03*
D17*
X74000000Y-158040000D03*
X81620000Y-158040000D03*
X81620000Y-155500000D03*
%TD*%
D14*
%TO.C,D18*%
X63050000Y-11200000D03*
X60950000Y-11200000D03*
%TD*%
D18*
%TO.C,D67*%
X70000000Y-150240000D03*
X70000000Y-152340000D03*
%TD*%
%TO.C,D85*%
X70000000Y-201540000D03*
X70000000Y-203640000D03*
%TD*%
D13*
%TO.C,D8*%
X222000000Y-148000000D03*
X222000000Y-144000000D03*
%TD*%
D16*
%TO.C,U9*%
X74000000Y-41500000D03*
D17*
X74000000Y-44040000D03*
X81620000Y-44040000D03*
X81620000Y-41500000D03*
%TD*%
D10*
%TO.C,C19*%
X86912000Y-29000000D03*
X85012000Y-29000000D03*
%TD*%
D19*
%TO.C,TP4*%
X22000000Y-229000000D03*
%TD*%
D12*
%TO.C,R7*%
X57087500Y-22599999D03*
X58912500Y-22599999D03*
%TD*%
D16*
%TO.C,U7*%
X74000000Y-30100000D03*
D17*
X74000000Y-32640000D03*
X81620000Y-32640000D03*
X81620000Y-30100000D03*
%TD*%
D12*
%TO.C,R82*%
X85087500Y-237100000D03*
X86912500Y-237100000D03*
%TD*%
D20*
%TO.C,R133*%
X136000000Y-47912500D03*
X136000000Y-46087500D03*
%TD*%
D18*
%TO.C,D49*%
X70000000Y-98940000D03*
X70000000Y-101040000D03*
%TD*%
%TO.C,D69*%
X70000000Y-155940000D03*
X70000000Y-158040000D03*
%TD*%
D21*
%TO.C,Q15*%
X142062500Y-91050000D03*
X142062500Y-92950000D03*
X143937500Y-92000000D03*
%TD*%
D10*
%TO.C,C40*%
X86912000Y-148700000D03*
X85012000Y-148700000D03*
%TD*%
D16*
%TO.C,U36*%
X74000000Y-195400000D03*
D17*
X74000000Y-197940000D03*
X81620000Y-197940000D03*
X81620000Y-195400000D03*
%TD*%
D12*
%TO.C,R8*%
X85087500Y-26200000D03*
X86912500Y-26200000D03*
%TD*%
D22*
%TO.C,MK1*%
X4000000Y-4000000D03*
%TD*%
D21*
%TO.C,Q4*%
X159062500Y-132050000D03*
X159062500Y-133950000D03*
X160937500Y-133000000D03*
%TD*%
D12*
%TO.C,R36*%
X85087500Y-106000000D03*
X86912500Y-106000000D03*
%TD*%
D23*
%TO.C,R142*%
X149212500Y-216000000D03*
X147387500Y-216000000D03*
%TD*%
D24*
%TO.C,J2*%
X116000000Y-10000000D03*
D25*
X121080000Y-10000000D03*
X126160000Y-10000000D03*
%TD*%
D16*
%TO.C,U6*%
X74000000Y-24400000D03*
D17*
X74000000Y-26940000D03*
X81620000Y-26940000D03*
X81620000Y-24400000D03*
%TD*%
D11*
%TO.C,D3*%
X162950000Y-100000000D03*
X165050000Y-100000000D03*
%TD*%
D26*
%TO.C,K3*%
X176000000Y-116000000D03*
D27*
X178000000Y-122000000D03*
X190200000Y-122000000D03*
X190200000Y-110000000D03*
X178000000Y-110000000D03*
%TD*%
D18*
%TO.C,D79*%
X70000000Y-184440000D03*
X70000000Y-186540000D03*
%TD*%
D10*
%TO.C,C45*%
X86912000Y-177200000D03*
X85012000Y-177200000D03*
%TD*%
D16*
%TO.C,U24*%
X74000000Y-127000000D03*
D17*
X74000000Y-129540000D03*
X81620000Y-129540000D03*
X81620000Y-127000000D03*
%TD*%
D10*
%TO.C,C22*%
X86912000Y-46100000D03*
X85012000Y-46100000D03*
%TD*%
%TO.C,C48*%
X86912000Y-194300000D03*
X85012000Y-194300000D03*
%TD*%
D12*
%TO.C,R115*%
X139087500Y-182000000D03*
X140912500Y-182000000D03*
%TD*%
D20*
%TO.C,R119*%
X142000000Y-70912500D03*
X142000000Y-69087500D03*
%TD*%
D26*
%TO.C,K2*%
X176000000Y-94000000D03*
D27*
X178000000Y-100000000D03*
X190200000Y-100000000D03*
X190200000Y-88000000D03*
X178000000Y-88000000D03*
%TD*%
D28*
%TO.C,TP23*%
X128000000Y-65750000D03*
%TD*%
D20*
%TO.C,R130*%
X114000000Y-47912500D03*
X114000000Y-46087500D03*
%TD*%
D29*
%TO.C,C1*%
X115050000Y-92000000D03*
X116950000Y-92000000D03*
%TD*%
D14*
%TO.C,D90*%
X63050000Y-216400000D03*
X60950000Y-216400000D03*
%TD*%
%TO.C,D86*%
X63050000Y-205000000D03*
X60950000Y-205000000D03*
%TD*%
D20*
%TO.C,R87*%
X150000000Y-93912500D03*
X150000000Y-92087500D03*
%TD*%
D12*
%TO.C,R23*%
X57087500Y-68200000D03*
X58912500Y-68200000D03*
%TD*%
D18*
%TO.C,D35*%
X70000000Y-59040000D03*
X70000000Y-61140000D03*
%TD*%
D20*
%TO.C,R129*%
X114000000Y-41912500D03*
X114000000Y-40087500D03*
%TD*%
D15*
%TO.C,C16*%
X133400000Y-217350000D03*
X133400000Y-215450000D03*
%TD*%
D18*
%TO.C,D47*%
X70000000Y-93239999D03*
X70000000Y-95339999D03*
%TD*%
D16*
%TO.C,U31*%
X74000000Y-166900000D03*
D17*
X74000000Y-169440000D03*
X81620000Y-169440000D03*
X81620000Y-166900000D03*
%TD*%
D20*
%TO.C,R93*%
X150000000Y-137912500D03*
X150000000Y-136087500D03*
%TD*%
D14*
%TO.C,D56*%
X63050000Y-119500000D03*
X60950000Y-119500000D03*
%TD*%
D26*
%TO.C,K1*%
X176000000Y-72000000D03*
D27*
X178000000Y-78000000D03*
X190200000Y-78000000D03*
X190200000Y-66000000D03*
X178000000Y-66000000D03*
%TD*%
D14*
%TO.C,D54*%
X63050000Y-113800000D03*
X60950000Y-113800000D03*
%TD*%
D20*
%TO.C,R114*%
X143000000Y-190912500D03*
X143000000Y-189087500D03*
%TD*%
D23*
%TO.C,R134*%
X121412500Y-56000000D03*
X119587500Y-56000000D03*
%TD*%
D16*
%TO.C,U33*%
X74000000Y-178300000D03*
D17*
X74000000Y-180840000D03*
X81620000Y-180840000D03*
X81620000Y-178300000D03*
%TD*%
D16*
%TO.C,U32*%
X74000000Y-172600000D03*
D17*
X74000000Y-175140000D03*
X81620000Y-175140000D03*
X81620000Y-172600000D03*
%TD*%
D11*
%TO.C,D15*%
X150950000Y-35000000D03*
X153050000Y-35000000D03*
%TD*%
D22*
%TO.C,MK3*%
X4000000Y-236000000D03*
%TD*%
D12*
%TO.C,R6*%
X85087500Y-20500000D03*
X86912500Y-20500000D03*
%TD*%
D13*
%TO.C,D12*%
X222000000Y-192000000D03*
X222000000Y-188000000D03*
%TD*%
D15*
%TO.C,C13*%
X166000000Y-42950000D03*
X166000000Y-41050000D03*
%TD*%
D20*
%TO.C,R86*%
X150000000Y-87912500D03*
X150000000Y-86087500D03*
%TD*%
D10*
%TO.C,C35*%
X86912000Y-120200000D03*
X85012000Y-120200000D03*
%TD*%
D16*
%TO.C,U37*%
X74000000Y-201100000D03*
D17*
X74000000Y-203640000D03*
X81620000Y-203640000D03*
X81620000Y-201100000D03*
%TD*%
D12*
%TO.C,R56*%
X85087500Y-163000000D03*
X86912500Y-163000000D03*
%TD*%
%TO.C,R109*%
X115087500Y-182000000D03*
X116912500Y-182000000D03*
%TD*%
D30*
%TO.C,J15*%
X9000000Y-222000000D03*
D31*
X9000000Y-218500000D03*
X9000000Y-215000000D03*
X9000000Y-211500000D03*
X9000000Y-208000000D03*
X9000000Y-204500000D03*
X9000000Y-201000000D03*
X9000000Y-197500000D03*
X9000000Y-194000000D03*
X9000000Y-190500000D03*
%TD*%
D21*
%TO.C,Q12*%
X141062500Y-57050000D03*
X141062500Y-58950000D03*
X142937500Y-58000000D03*
%TD*%
D14*
%TO.C,D44*%
X63050000Y-85300000D03*
X60950000Y-85300000D03*
%TD*%
D12*
%TO.C,R58*%
X85087500Y-168700000D03*
X86912500Y-168700000D03*
%TD*%
D19*
%TO.C,TP1*%
X100000000Y-229000000D03*
%TD*%
D12*
%TO.C,R37*%
X57087500Y-108100000D03*
X58912500Y-108100000D03*
%TD*%
D10*
%TO.C,C25*%
X86912000Y-63200000D03*
X85012000Y-63200000D03*
%TD*%
D18*
%TO.C,D73*%
X70000000Y-167340000D03*
X70000000Y-169440000D03*
%TD*%
D12*
%TO.C,R17*%
X57087500Y-51100000D03*
X58912500Y-51100000D03*
%TD*%
D20*
%TO.C,R105*%
X107000000Y-190912500D03*
X107000000Y-189087500D03*
%TD*%
D16*
%TO.C,U28*%
X74000000Y-149800000D03*
D17*
X74000000Y-152340000D03*
X81620000Y-152340000D03*
X81620000Y-149800000D03*
%TD*%
D12*
%TO.C,R67*%
X57087500Y-193600000D03*
X58912500Y-193600000D03*
%TD*%
D10*
%TO.C,C33*%
X86912000Y-108800000D03*
X85012000Y-108800000D03*
%TD*%
D18*
%TO.C,D55*%
X70000000Y-116040000D03*
X70000000Y-118140000D03*
%TD*%
D20*
%TO.C,R2*%
X110000000Y-86912500D03*
X110000000Y-85087500D03*
%TD*%
D12*
%TO.C,R72*%
X85087500Y-208600000D03*
X86912500Y-208600000D03*
%TD*%
D10*
%TO.C,C41*%
X86912000Y-154400000D03*
X85012000Y-154400000D03*
%TD*%
D32*
%TO.C,J12*%
X242000000Y-200000000D03*
D25*
X242000000Y-205080000D03*
%TD*%
D10*
%TO.C,C18*%
X86912000Y-23299999D03*
X85012000Y-23299999D03*
%TD*%
D14*
%TO.C,D28*%
X63050000Y-39700000D03*
X60950000Y-39700000D03*
%TD*%
D18*
%TO.C,D25*%
X70000000Y-30540000D03*
X70000000Y-32640000D03*
%TD*%
D14*
%TO.C,D20*%
X63050000Y-19950000D03*
X60950000Y-19950000D03*
%TD*%
D18*
%TO.C,D97*%
X70000000Y-235740000D03*
X70000000Y-237840000D03*
%TD*%
D16*
%TO.C,U17*%
X74000000Y-87100000D03*
D17*
X74000000Y-89640000D03*
X81620000Y-89640000D03*
X81620000Y-87100000D03*
%TD*%
D21*
%TO.C,Q3*%
X159062500Y-110050000D03*
X159062500Y-111950000D03*
X160937500Y-111000000D03*
%TD*%
D12*
%TO.C,R65*%
X57087500Y-187900000D03*
X58912500Y-187900000D03*
%TD*%
%TO.C,R39*%
X57087500Y-113800000D03*
X58912500Y-113800000D03*
%TD*%
D14*
%TO.C,D66*%
X63050000Y-148000000D03*
X60950000Y-148000000D03*
%TD*%
D18*
%TO.C,D19*%
X70000000Y-13440000D03*
X70000000Y-15540000D03*
%TD*%
D11*
%TO.C,D16*%
X157950000Y-35000000D03*
X160050000Y-35000000D03*
%TD*%
D12*
%TO.C,R80*%
X85087500Y-231400000D03*
X86912500Y-231400000D03*
%TD*%
D14*
%TO.C,D88*%
X63050000Y-210700000D03*
X60950000Y-210700000D03*
%TD*%
%TO.C,D94*%
X63050000Y-227799999D03*
X60950000Y-227799999D03*
%TD*%
D12*
%TO.C,R42*%
X85087500Y-123100000D03*
X86912500Y-123100000D03*
%TD*%
D10*
%TO.C,C17*%
X86912000Y-17600000D03*
X85012000Y-17600000D03*
%TD*%
%TO.C,C24*%
X86912000Y-57500000D03*
X85012000Y-57500000D03*
%TD*%
D20*
%TO.C,R1*%
X103000000Y-86912500D03*
X103000000Y-85087500D03*
%TD*%
D16*
%TO.C,U4*%
X74000000Y-13000000D03*
D17*
X74000000Y-15540000D03*
X81620000Y-15540000D03*
X81620000Y-13000000D03*
%TD*%
D18*
%TO.C,D93*%
X70000000Y-224340000D03*
X70000000Y-226440000D03*
%TD*%
D19*
%TO.C,TP8*%
X150000000Y-229000000D03*
%TD*%
D12*
%TO.C,R61*%
X57087500Y-176500000D03*
X58912500Y-176500000D03*
%TD*%
D18*
%TO.C,D43*%
X70000000Y-81840000D03*
X70000000Y-83940000D03*
%TD*%
D12*
%TO.C,R43*%
X57087500Y-125200000D03*
X58912500Y-125200000D03*
%TD*%
D16*
%TO.C,U34*%
X74000000Y-184000000D03*
D17*
X74000000Y-186540000D03*
X81620000Y-186540000D03*
X81620000Y-184000000D03*
%TD*%
D33*
%TO.C,U1*%
X117350000Y-95745000D03*
X117350000Y-97015000D03*
X117350000Y-98285000D03*
X117350000Y-99555000D03*
X117350000Y-100825000D03*
X117350000Y-102095000D03*
X117350000Y-103365000D03*
X117350000Y-104635000D03*
X117350000Y-105905000D03*
X117350000Y-107175000D03*
X117350000Y-108445000D03*
X117350000Y-109715000D03*
X117350000Y-110985000D03*
X117350000Y-112255000D03*
X126650000Y-112255000D03*
X126650000Y-110985000D03*
X126650000Y-109715000D03*
X126650000Y-108445000D03*
X126650000Y-107175000D03*
X126650000Y-105905000D03*
X126650000Y-104635000D03*
X126650000Y-103365000D03*
X126650000Y-102095000D03*
X126650000Y-100825000D03*
X126650000Y-99555000D03*
X126650000Y-98285000D03*
X126650000Y-97015000D03*
X126650000Y-95745000D03*
%TD*%
D16*
%TO.C,U16*%
X74000000Y-81400000D03*
D17*
X74000000Y-83940000D03*
X81620000Y-83940000D03*
X81620000Y-81400000D03*
%TD*%
D23*
%TO.C,R137*%
X121412500Y-60000000D03*
X119587500Y-60000000D03*
%TD*%
D12*
%TO.C,R75*%
X57087500Y-216400000D03*
X58912500Y-216400000D03*
%TD*%
D20*
%TO.C,R100*%
X222000000Y-175912500D03*
X222000000Y-174087500D03*
%TD*%
%TO.C,R83*%
X150000000Y-65912500D03*
X150000000Y-64087500D03*
%TD*%
D19*
%TO.C,TP5*%
X34000000Y-229000000D03*
%TD*%
D12*
%TO.C,R141*%
X124087500Y-64000000D03*
X125912500Y-64000000D03*
%TD*%
D14*
%TO.C,D38*%
X63050000Y-68200000D03*
X60950000Y-68200000D03*
%TD*%
D30*
%TO.C,J5*%
X9000000Y-168000000D03*
D31*
X9000000Y-164500000D03*
X9000000Y-161000000D03*
X9000000Y-157500000D03*
X9000000Y-154000000D03*
X9000000Y-150500000D03*
X9000000Y-147000000D03*
X9000000Y-143500000D03*
X9000000Y-140000000D03*
X9000000Y-136500000D03*
X9000000Y-133000000D03*
X9000000Y-129500000D03*
%TD*%
D12*
%TO.C,R54*%
X85087500Y-157300000D03*
X86912500Y-157300000D03*
%TD*%
D20*
%TO.C,R117*%
X145000000Y-78912500D03*
X145000000Y-77087500D03*
%TD*%
D28*
%TO.C,TP24*%
X112800000Y-64000000D03*
%TD*%
D21*
%TO.C,Q9*%
X115062500Y-197050000D03*
X115062500Y-198950000D03*
X116937500Y-198000000D03*
%TD*%
D10*
%TO.C,C37*%
X86912000Y-131600000D03*
X85012000Y-131600000D03*
%TD*%
D34*
%TO.C,Q20*%
X116937500Y-64950000D03*
X116937500Y-63050000D03*
X115062500Y-64000000D03*
%TD*%
D20*
%TO.C,R122*%
X63000000Y-16912500D03*
X63000000Y-15087500D03*
%TD*%
D16*
%TO.C,U42*%
X74000000Y-229600000D03*
D17*
X74000000Y-232140000D03*
X81620000Y-232140000D03*
X81620000Y-229600000D03*
%TD*%
D28*
%TO.C,TP20*%
X112800000Y-56000000D03*
%TD*%
D12*
%TO.C,R4*%
X85087500Y-14800000D03*
X86912500Y-14800000D03*
%TD*%
D20*
%TO.C,R97*%
X222000000Y-153912500D03*
X222000000Y-152087500D03*
%TD*%
D12*
%TO.C,R22*%
X85087500Y-66100000D03*
X86912500Y-66100000D03*
%TD*%
D21*
%TO.C,Q16*%
X159062500Y-95050000D03*
X159062500Y-96950000D03*
X160937500Y-96000000D03*
%TD*%
D14*
%TO.C,D96*%
X63050000Y-233500000D03*
X60950000Y-233500000D03*
%TD*%
D20*
%TO.C,R96*%
X150000000Y-159912500D03*
X150000000Y-158087500D03*
%TD*%
D16*
%TO.C,U8*%
X74000000Y-35800000D03*
D17*
X74000000Y-38340000D03*
X81620000Y-38340000D03*
X81620000Y-35800000D03*
%TD*%
D14*
%TO.C,D84*%
X63050000Y-199299999D03*
X60950000Y-199299999D03*
%TD*%
D10*
%TO.C,C44*%
X86912000Y-171500000D03*
X85012000Y-171500000D03*
%TD*%
D16*
%TO.C,U40*%
X74000000Y-218200000D03*
D17*
X74000000Y-220740000D03*
X81620000Y-220740000D03*
X81620000Y-218200000D03*
%TD*%
D21*
%TO.C,Q5*%
X159062500Y-154050000D03*
X159062500Y-155950000D03*
X160937500Y-155000000D03*
%TD*%
D19*
%TO.C,TP12*%
X128000000Y-236000000D03*
%TD*%
D14*
%TO.C,D52*%
X63050000Y-108100000D03*
X60950000Y-108100000D03*
%TD*%
D12*
%TO.C,R81*%
X57087500Y-233500000D03*
X58912500Y-233500000D03*
%TD*%
%TO.C,R66*%
X85087500Y-191500000D03*
X86912500Y-191500000D03*
%TD*%
D20*
%TO.C,R128*%
X170000000Y-98912500D03*
X170000000Y-97087500D03*
%TD*%
D32*
%TO.C,J6*%
X242000000Y-68000000D03*
D25*
X242000000Y-73080000D03*
%TD*%
D18*
%TO.C,D81*%
X70000000Y-190140000D03*
X70000000Y-192240000D03*
%TD*%
D12*
%TO.C,R14*%
X85087500Y-43300000D03*
X86912500Y-43300000D03*
%TD*%
D29*
%TO.C,C3*%
X139050000Y-96000000D03*
X140950000Y-96000000D03*
%TD*%
D26*
%TO.C,K6*%
X176000000Y-182000000D03*
D27*
X178000000Y-188000000D03*
X190200000Y-188000000D03*
X190200000Y-176000000D03*
X178000000Y-176000000D03*
%TD*%
D14*
%TO.C,D48*%
X63050000Y-96700000D03*
X60950000Y-96700000D03*
%TD*%
D12*
%TO.C,R106*%
X103087500Y-182000000D03*
X104912500Y-182000000D03*
%TD*%
D33*
%TO.C,U2*%
X117350000Y-137745000D03*
X117350000Y-139015000D03*
X117350000Y-140285000D03*
X117350000Y-141555000D03*
X117350000Y-142825000D03*
X117350000Y-144095000D03*
X117350000Y-145365000D03*
X117350000Y-146635000D03*
X117350000Y-147905000D03*
X117350000Y-149175000D03*
X117350000Y-150445000D03*
X117350000Y-151715000D03*
X117350000Y-152985000D03*
X117350000Y-154255000D03*
X126650000Y-154255000D03*
X126650000Y-152985000D03*
X126650000Y-151715000D03*
X126650000Y-150445000D03*
X126650000Y-149175000D03*
X126650000Y-147905000D03*
X126650000Y-146635000D03*
X126650000Y-145365000D03*
X126650000Y-144095000D03*
X126650000Y-142825000D03*
X126650000Y-141555000D03*
X126650000Y-140285000D03*
X126650000Y-139015000D03*
X126650000Y-137745000D03*
%TD*%
D11*
%TO.C,D7*%
X162950000Y-144000000D03*
X165050000Y-144000000D03*
%TD*%
D14*
%TO.C,D42*%
X63050000Y-79600000D03*
X60950000Y-79600000D03*
%TD*%
D12*
%TO.C,R70*%
X85087500Y-202900000D03*
X86912500Y-202900000D03*
%TD*%
D18*
%TO.C,D71*%
X70000000Y-161640000D03*
X70000000Y-163740000D03*
%TD*%
D12*
%TO.C,R15*%
X57087500Y-45400000D03*
X58912500Y-45400000D03*
%TD*%
%TO.C,R45*%
X57087500Y-130899999D03*
X58912500Y-130899999D03*
%TD*%
%TO.C,R64*%
X85087500Y-185800000D03*
X86912500Y-185800000D03*
%TD*%
%TO.C,R48*%
X85087500Y-140200000D03*
X86912500Y-140200000D03*
%TD*%
%TO.C,R20*%
X85087500Y-60400000D03*
X86912500Y-60400000D03*
%TD*%
D35*
%TO.C,U46*%
X128787500Y-219625000D03*
X128787500Y-220275000D03*
X128787500Y-220925000D03*
X128787500Y-221575000D03*
X133012500Y-221575000D03*
X133012500Y-220925000D03*
X133012500Y-220275000D03*
X133012500Y-219625000D03*
%TD*%
D19*
%TO.C,TP11*%
X120000000Y-236000000D03*
%TD*%
D30*
%TO.C,J4*%
X9000000Y-103000000D03*
D31*
X9000000Y-99500000D03*
X9000000Y-96000000D03*
X9000000Y-92500000D03*
X9000000Y-89000000D03*
X9000000Y-85500000D03*
X9000000Y-82000000D03*
X9000000Y-78500000D03*
X9000000Y-75000000D03*
X9000000Y-71500000D03*
X9000000Y-68000000D03*
X9000000Y-64500000D03*
X9000000Y-61000000D03*
X9000000Y-57500000D03*
%TD*%
D20*
%TO.C,R125*%
X133000000Y-90912500D03*
X133000000Y-89087500D03*
%TD*%
D10*
%TO.C,C50*%
X86912000Y-205700000D03*
X85012000Y-205700000D03*
%TD*%
D36*
%TO.C,J14*%
X167000000Y-10000000D03*
D37*
X170500000Y-10000000D03*
X174000000Y-10000000D03*
X177500000Y-10000000D03*
%TD*%
D10*
%TO.C,C55*%
X86912000Y-234200000D03*
X85012000Y-234200000D03*
%TD*%
D20*
%TO.C,R121*%
X162000000Y-70912500D03*
X162000000Y-69087500D03*
%TD*%
D15*
%TO.C,C12*%
X156000000Y-67950000D03*
X156000000Y-66050000D03*
%TD*%
D19*
%TO.C,TP9*%
X100000000Y-236000000D03*
%TD*%
D14*
%TO.C,D62*%
X63050000Y-136600000D03*
X60950000Y-136600000D03*
%TD*%
D12*
%TO.C,R74*%
X85087500Y-214300000D03*
X86912500Y-214300000D03*
%TD*%
D28*
%TO.C,TP18*%
X112800000Y-52000000D03*
%TD*%
D19*
%TO.C,TP10*%
X110000000Y-236000000D03*
%TD*%
D15*
%TO.C,C4*%
X230000000Y-72950000D03*
X230000000Y-71050000D03*
%TD*%
D12*
%TO.C,R78*%
X85087500Y-225700000D03*
X86912500Y-225700000D03*
%TD*%
%TO.C,R77*%
X57087500Y-222100000D03*
X58912500Y-222100000D03*
%TD*%
D18*
%TO.C,D21*%
X70000000Y-19139999D03*
X70000000Y-21239999D03*
%TD*%
D16*
%TO.C,U43*%
X74000000Y-235300000D03*
D17*
X74000000Y-237840000D03*
X81620000Y-237840000D03*
X81620000Y-235300000D03*
%TD*%
D32*
%TO.C,J9*%
X242000000Y-134000000D03*
D25*
X242000000Y-139080000D03*
%TD*%
D16*
%TO.C,U18*%
X74000000Y-92800000D03*
D17*
X74000000Y-95340000D03*
X81620000Y-95340000D03*
X81620000Y-92800000D03*
%TD*%
D18*
%TO.C,D23*%
X70000000Y-24839999D03*
X70000000Y-26939999D03*
%TD*%
D12*
%TO.C,R138*%
X124087500Y-60000000D03*
X125912500Y-60000000D03*
%TD*%
D21*
%TO.C,Q6*%
X159062500Y-176050000D03*
X159062500Y-177950000D03*
X160937500Y-177000000D03*
%TD*%
D22*
%TO.C,MK4*%
X246000000Y-236000000D03*
%TD*%
D19*
%TO.C,TP13*%
X136000000Y-236000000D03*
%TD*%
D12*
%TO.C,R38*%
X85087500Y-111700000D03*
X86912500Y-111700000D03*
%TD*%
D14*
%TO.C,D80*%
X63050000Y-187900000D03*
X60950000Y-187900000D03*
%TD*%
D10*
%TO.C,C29*%
X86912000Y-86000000D03*
X85012000Y-86000000D03*
%TD*%
D20*
%TO.C,R99*%
X150000000Y-181912500D03*
X150000000Y-180087500D03*
%TD*%
D29*
%TO.C,C56*%
X89050000Y-237100000D03*
X90950000Y-237100000D03*
%TD*%
D38*
%TO.C,D17*%
X120000000Y-20000000D03*
X124000000Y-20000000D03*
%TD*%
D12*
%TO.C,R3*%
X57087500Y-11200000D03*
X58912500Y-11200000D03*
%TD*%
D11*
%TO.C,D13*%
X162950000Y-210000000D03*
X165050000Y-210000000D03*
%TD*%
D10*
%TO.C,C23*%
X86912000Y-51800000D03*
X85012000Y-51800000D03*
%TD*%
D18*
%TO.C,D41*%
X70000000Y-76140000D03*
X70000000Y-78240000D03*
%TD*%
D26*
%TO.C,K7*%
X176000000Y-204000000D03*
D27*
X178000000Y-210000000D03*
X190200000Y-210000000D03*
X190200000Y-198000000D03*
X178000000Y-198000000D03*
%TD*%
D39*
%TO.C,U47*%
X141437500Y-218150000D03*
X141437500Y-217200000D03*
X141437500Y-216250000D03*
X139162500Y-216250000D03*
X139162500Y-217200000D03*
X139162500Y-218150000D03*
%TD*%
D19*
%TO.C,TP2*%
X110000000Y-229000000D03*
%TD*%
D16*
%TO.C,U25*%
X74000000Y-132699999D03*
D17*
X74000000Y-135239999D03*
X81620000Y-135239999D03*
X81620000Y-132699999D03*
%TD*%
D19*
%TO.C,TP15*%
X152000000Y-236000000D03*
%TD*%
D18*
%TO.C,D75*%
X70000000Y-173040000D03*
X70000000Y-175140000D03*
%TD*%
D40*
%TO.C,A1*%
X97275000Y-9000000D03*
D41*
X97575000Y-12030000D03*
X102425000Y-12030000D03*
D40*
X102725000Y-9000000D03*
D42*
X90310000Y-8870000D03*
D43*
X90310000Y-11410000D03*
D44*
X90310000Y-13950000D03*
D43*
X90310000Y-16490000D03*
X90310000Y-19030000D03*
X90310000Y-21570000D03*
X90310000Y-24110000D03*
D44*
X90310000Y-26650000D03*
D43*
X90310000Y-29190000D03*
X90310000Y-31730000D03*
X90310000Y-34270000D03*
X90310000Y-36810000D03*
D44*
X90310000Y-39350000D03*
D43*
X90310000Y-41890000D03*
X90310000Y-44430000D03*
X90310000Y-46970000D03*
X90310000Y-49510000D03*
D44*
X90310000Y-52050000D03*
D43*
X90310000Y-54590000D03*
X90310000Y-57130000D03*
X109690000Y-57130000D03*
X109690000Y-54590000D03*
D42*
X109690000Y-52050000D03*
D43*
X109690000Y-49510000D03*
X109690000Y-46970000D03*
X109690000Y-44430000D03*
X109690000Y-41890000D03*
D42*
X109690000Y-39350000D03*
D43*
X109690000Y-36810000D03*
X109690000Y-34270000D03*
X109690000Y-31730000D03*
X109690000Y-29190000D03*
D42*
X109690000Y-26650000D03*
D43*
X109690000Y-24110000D03*
X109690000Y-21570000D03*
X109690000Y-19030000D03*
X109690000Y-16490000D03*
D42*
X109690000Y-13950000D03*
D43*
X109690000Y-11410000D03*
X109690000Y-8870000D03*
D45*
X97460000Y-57700000D03*
D46*
X100000000Y-56900000D03*
D45*
X102540000Y-57700000D03*
D47*
X100000000Y-12000000D03*
X101000000Y-8700000D03*
X99000000Y-8700000D03*
X97500000Y-15500000D03*
X97500000Y-18000000D03*
X97500000Y-20500000D03*
%TD*%
D10*
%TO.C,C28*%
X86912000Y-80300000D03*
X85012000Y-80300000D03*
%TD*%
D12*
%TO.C,R16*%
X85087500Y-49000000D03*
X86912500Y-49000000D03*
%TD*%
D32*
%TO.C,J8*%
X242000000Y-112000000D03*
D25*
X242000000Y-117080000D03*
%TD*%
D15*
%TO.C,C7*%
X230000000Y-138950000D03*
X230000000Y-137050000D03*
%TD*%
D20*
%TO.C,R120*%
X162000000Y-47912500D03*
X162000000Y-46087500D03*
%TD*%
D14*
%TO.C,D82*%
X63050000Y-193600000D03*
X60950000Y-193600000D03*
%TD*%
D48*
%TO.C,JP1*%
X145250000Y-218900000D03*
D49*
X143950000Y-218900000D03*
%TD*%
D10*
%TO.C,C39*%
X86912000Y-143000000D03*
X85012000Y-143000000D03*
%TD*%
D16*
%TO.C,U35*%
X74000000Y-189700000D03*
D17*
X74000000Y-192240000D03*
X81620000Y-192240000D03*
X81620000Y-189700000D03*
%TD*%
D12*
%TO.C,R131*%
X145087500Y-33000000D03*
X146912500Y-33000000D03*
%TD*%
D10*
%TO.C,C52*%
X86912000Y-217100000D03*
X85012000Y-217100000D03*
%TD*%
D12*
%TO.C,R60*%
X85087500Y-174400000D03*
X86912500Y-174400000D03*
%TD*%
D20*
%TO.C,R92*%
X150000000Y-131912500D03*
X150000000Y-130087500D03*
%TD*%
%TO.C,R89*%
X150000000Y-109912500D03*
X150000000Y-108087500D03*
%TD*%
D12*
%TO.C,R73*%
X57087500Y-210700000D03*
X58912500Y-210700000D03*
%TD*%
D33*
%TO.C,U3*%
X135350000Y-103745000D03*
X135350000Y-105015000D03*
X135350000Y-106285000D03*
X135350000Y-107555000D03*
X135350000Y-108825000D03*
X135350000Y-110095000D03*
X135350000Y-111365000D03*
X135350000Y-112635000D03*
X135350000Y-113905000D03*
X135350000Y-115175000D03*
X135350000Y-116445000D03*
X135350000Y-117715000D03*
X135350000Y-118985000D03*
X135350000Y-120255000D03*
X144650000Y-120255000D03*
X144650000Y-118985000D03*
X144650000Y-117715000D03*
X144650000Y-116445000D03*
X144650000Y-115175000D03*
X144650000Y-113905000D03*
X144650000Y-112635000D03*
X144650000Y-111365000D03*
X144650000Y-110095000D03*
X144650000Y-108825000D03*
X144650000Y-107555000D03*
X144650000Y-106285000D03*
X144650000Y-105015000D03*
X144650000Y-103745000D03*
%TD*%
D12*
%TO.C,R51*%
X57087500Y-148000000D03*
X58912500Y-148000000D03*
%TD*%
%TO.C,R19*%
X57087500Y-56800000D03*
X58912500Y-56800000D03*
%TD*%
D16*
%TO.C,U10*%
X74000000Y-47200000D03*
D17*
X74000000Y-49740000D03*
X81620000Y-49740000D03*
X81620000Y-47200000D03*
%TD*%
D14*
%TO.C,D30*%
X63050000Y-45400000D03*
X60950000Y-45400000D03*
%TD*%
D20*
%TO.C,R127*%
X170000000Y-90912500D03*
X170000000Y-89087500D03*
%TD*%
D10*
%TO.C,C32*%
X86912000Y-103100000D03*
X85012000Y-103100000D03*
%TD*%
D20*
%TO.C,R126*%
X133000000Y-98912500D03*
X133000000Y-97087500D03*
%TD*%
%TO.C,R118*%
X142000000Y-47912500D03*
X142000000Y-46087500D03*
%TD*%
D12*
%TO.C,R53*%
X57087500Y-153700000D03*
X58912500Y-153700000D03*
%TD*%
D20*
%TO.C,R110*%
X125000000Y-190912500D03*
X125000000Y-189087500D03*
%TD*%
D13*
%TO.C,D6*%
X222000000Y-126000000D03*
X222000000Y-122000000D03*
%TD*%
D12*
%TO.C,R30*%
X85087500Y-88900000D03*
X86912500Y-88900000D03*
%TD*%
D20*
%TO.C,R136*%
X130000000Y-70912500D03*
X130000000Y-69087500D03*
%TD*%
D10*
%TO.C,C42*%
X86912000Y-160100000D03*
X85012000Y-160100000D03*
%TD*%
D12*
%TO.C,R76*%
X85087500Y-220000000D03*
X86912500Y-220000000D03*
%TD*%
D16*
%TO.C,U19*%
X74000000Y-98500000D03*
D17*
X74000000Y-101040000D03*
X81620000Y-101040000D03*
X81620000Y-98500000D03*
%TD*%
D21*
%TO.C,Q14*%
X157062500Y-81050000D03*
X157062500Y-82950000D03*
X158937500Y-82000000D03*
%TD*%
D12*
%TO.C,R24*%
X85087500Y-71800000D03*
X86912500Y-71800000D03*
%TD*%
D14*
%TO.C,D50*%
X63050000Y-102400000D03*
X60950000Y-102400000D03*
%TD*%
D10*
%TO.C,C51*%
X86912000Y-211400000D03*
X85012000Y-211400000D03*
%TD*%
D18*
%TO.C,D29*%
X70000000Y-41940000D03*
X70000000Y-44040000D03*
%TD*%
D14*
%TO.C,D60*%
X63050000Y-130899999D03*
X60950000Y-130899999D03*
%TD*%
D12*
%TO.C,R5*%
X57087500Y-16900000D03*
X58912500Y-16900000D03*
%TD*%
D18*
%TO.C,D91*%
X70000000Y-218640000D03*
X70000000Y-220740000D03*
%TD*%
D14*
%TO.C,D36*%
X63050000Y-62500000D03*
X60950000Y-62500000D03*
%TD*%
D34*
%TO.C,Q17*%
X116937500Y-52950000D03*
X116937500Y-51050000D03*
X115062500Y-52000000D03*
%TD*%
D12*
%TO.C,R18*%
X85087500Y-54699999D03*
X86912500Y-54699999D03*
%TD*%
D18*
%TO.C,D61*%
X70000000Y-133140000D03*
X70000000Y-135240000D03*
%TD*%
D12*
%TO.C,R41*%
X57087500Y-119500000D03*
X58912500Y-119500000D03*
%TD*%
D10*
%TO.C,C43*%
X86912000Y-165800000D03*
X85012000Y-165800000D03*
%TD*%
D16*
%TO.C,U12*%
X74000000Y-58600000D03*
D17*
X74000000Y-61140000D03*
X81620000Y-61140000D03*
X81620000Y-58600000D03*
%TD*%
D26*
%TO.C,K5*%
X176000000Y-160000000D03*
D27*
X178000000Y-166000000D03*
X190200000Y-166000000D03*
X190200000Y-154000000D03*
X178000000Y-154000000D03*
%TD*%
D11*
%TO.C,D11*%
X162950000Y-188000000D03*
X165050000Y-188000000D03*
%TD*%
D18*
%TO.C,D53*%
X70000000Y-110340000D03*
X70000000Y-112440000D03*
%TD*%
D20*
%TO.C,R90*%
X150000000Y-115912500D03*
X150000000Y-114087500D03*
%TD*%
D16*
%TO.C,U23*%
X74000000Y-121300000D03*
D17*
X74000000Y-123840000D03*
X81620000Y-123840000D03*
X81620000Y-121300000D03*
%TD*%
D18*
%TO.C,D51*%
X70000000Y-104640000D03*
X70000000Y-106740000D03*
%TD*%
%TO.C,D59*%
X70000000Y-127440000D03*
X70000000Y-129540000D03*
%TD*%
D14*
%TO.C,D24*%
X63050000Y-28300000D03*
X60950000Y-28300000D03*
%TD*%
D12*
%TO.C,R55*%
X57087500Y-159400000D03*
X58912500Y-159400000D03*
%TD*%
D23*
%TO.C,R145*%
X118912500Y-71000000D03*
X117087500Y-71000000D03*
%TD*%
D18*
%TO.C,D45*%
X70000000Y-87540000D03*
X70000000Y-89640000D03*
%TD*%
D14*
%TO.C,D76*%
X63050000Y-176500000D03*
X60950000Y-176500000D03*
%TD*%
D15*
%TO.C,C8*%
X230000000Y-160950000D03*
X230000000Y-159050000D03*
%TD*%
D16*
%TO.C,U38*%
X74000000Y-206800000D03*
D17*
X74000000Y-209340000D03*
X81620000Y-209340000D03*
X81620000Y-206800000D03*
%TD*%
D32*
%TO.C,J7*%
X242000000Y-90000000D03*
D25*
X242000000Y-95080000D03*
%TD*%
D20*
%TO.C,R95*%
X150000000Y-153912500D03*
X150000000Y-152087500D03*
%TD*%
D14*
%TO.C,D78*%
X63050000Y-182200000D03*
X60950000Y-182200000D03*
%TD*%
D10*
%TO.C,C36*%
X86912000Y-125899999D03*
X85012000Y-125899999D03*
%TD*%
D15*
%TO.C,C5*%
X230000000Y-94950000D03*
X230000000Y-93050000D03*
%TD*%
D14*
%TO.C,D22*%
X63050000Y-22599999D03*
X60950000Y-22599999D03*
%TD*%
D29*
%TO.C,C14*%
X139050000Y-78000000D03*
X140950000Y-78000000D03*
%TD*%
D20*
%TO.C,R108*%
X119000000Y-190912500D03*
X119000000Y-189087500D03*
%TD*%
D21*
%TO.C,Q11*%
X139062500Y-197050000D03*
X139062500Y-198950000D03*
X140937500Y-198000000D03*
%TD*%
D12*
%TO.C,R11*%
X57087500Y-34000000D03*
X58912500Y-34000000D03*
%TD*%
D16*
%TO.C,U26*%
X74000000Y-138400000D03*
D17*
X74000000Y-140940000D03*
X81620000Y-140940000D03*
X81620000Y-138400000D03*
%TD*%
D22*
%TO.C,MK2*%
X246000000Y-4000000D03*
%TD*%
D14*
%TO.C,D64*%
X63050000Y-142299999D03*
X60950000Y-142299999D03*
%TD*%
D32*
%TO.C,J10*%
X242000000Y-156000000D03*
D25*
X242000000Y-161080000D03*
%TD*%
D19*
%TO.C,TP14*%
X144000000Y-236000000D03*
%TD*%
D21*
%TO.C,Q13*%
X161062500Y-57050000D03*
X161062500Y-58950000D03*
X162937500Y-58000000D03*
%TD*%
D20*
%TO.C,R107*%
X113000000Y-190912500D03*
X113000000Y-189087500D03*
%TD*%
D36*
%TO.C,J13*%
X104000000Y-206000000D03*
D37*
X107500000Y-206000000D03*
X111000000Y-206000000D03*
X114500000Y-206000000D03*
X118000000Y-206000000D03*
X121500000Y-206000000D03*
%TD*%
D14*
%TO.C,D68*%
X63050000Y-153700000D03*
X60950000Y-153700000D03*
%TD*%
D12*
%TO.C,R49*%
X57087500Y-142299999D03*
X58912500Y-142299999D03*
%TD*%
D18*
%TO.C,D87*%
X70000000Y-207240000D03*
X70000000Y-209340000D03*
%TD*%
D12*
%TO.C,R34*%
X85087500Y-100300000D03*
X86912500Y-100300000D03*
%TD*%
D14*
%TO.C,D74*%
X63050000Y-170799999D03*
X60950000Y-170799999D03*
%TD*%
D34*
%TO.C,Q18*%
X116937500Y-56950000D03*
X116937500Y-55050000D03*
X115062500Y-56000000D03*
%TD*%
D30*
%TO.C,J3*%
X9000000Y-42000000D03*
D31*
X9000000Y-38500000D03*
X9000000Y-35000000D03*
X9000000Y-31500000D03*
X9000000Y-28000000D03*
X9000000Y-24500000D03*
X9000000Y-21000000D03*
X9000000Y-17500000D03*
X9000000Y-14000000D03*
X9000000Y-10500000D03*
%TD*%
D16*
%TO.C,U5*%
X74000000Y-18700000D03*
D17*
X74000000Y-21240000D03*
X81620000Y-21240000D03*
X81620000Y-18700000D03*
%TD*%
D16*
%TO.C,U14*%
X74000000Y-70000000D03*
D17*
X74000000Y-72540000D03*
X81620000Y-72540000D03*
X81620000Y-70000000D03*
%TD*%
D32*
%TO.C,J11*%
X242000000Y-178000000D03*
D25*
X242000000Y-183080000D03*
%TD*%
D10*
%TO.C,C54*%
X86912000Y-228500000D03*
X85012000Y-228500000D03*
%TD*%
%TO.C,C20*%
X86912000Y-34700000D03*
X85012000Y-34700000D03*
%TD*%
D13*
%TO.C,D14*%
X222000000Y-214000000D03*
X222000000Y-210000000D03*
%TD*%
D15*
%TO.C,C9*%
X230000000Y-182950000D03*
X230000000Y-181050000D03*
%TD*%
D16*
%TO.C,U41*%
X74000000Y-223900000D03*
D17*
X74000000Y-226440000D03*
X81620000Y-226440000D03*
X81620000Y-223900000D03*
%TD*%
D20*
%TO.C,R98*%
X150000000Y-175912500D03*
X150000000Y-174087500D03*
%TD*%
D12*
%TO.C,R27*%
X57087500Y-79600000D03*
X58912500Y-79600000D03*
%TD*%
D28*
%TO.C,TP21*%
X128000000Y-61750000D03*
%TD*%
D18*
%TO.C,D63*%
X70000000Y-138840000D03*
X70000000Y-140940000D03*
%TD*%
D14*
%TO.C,D58*%
X63050000Y-125200000D03*
X60950000Y-125200000D03*
%TD*%
D50*
%TO.C,F1*%
X122600000Y-219100000D03*
X122600000Y-221900000D03*
%TD*%
D12*
%TO.C,R9*%
X57087500Y-28300000D03*
X58912500Y-28300000D03*
%TD*%
D18*
%TO.C,D77*%
X70000000Y-178740000D03*
X70000000Y-180840000D03*
%TD*%
D12*
%TO.C,R29*%
X57087500Y-85300000D03*
X58912500Y-85300000D03*
%TD*%
D16*
%TO.C,U13*%
X74000000Y-64300000D03*
D17*
X74000000Y-66840000D03*
X81620000Y-66840000D03*
X81620000Y-64300000D03*
%TD*%
D18*
%TO.C,D65*%
X70000000Y-144540000D03*
X70000000Y-146640000D03*
%TD*%
D12*
%TO.C,R57*%
X57087500Y-165100000D03*
X58912500Y-165100000D03*
%TD*%
D16*
%TO.C,U21*%
X74000000Y-109900000D03*
D17*
X74000000Y-112440000D03*
X81620000Y-112440000D03*
X81620000Y-109900000D03*
%TD*%
D10*
%TO.C,C30*%
X86912000Y-91700000D03*
X85012000Y-91700000D03*
%TD*%
D18*
%TO.C,D27*%
X70000000Y-36240000D03*
X70000000Y-38340000D03*
%TD*%
D12*
%TO.C,R79*%
X57087500Y-227799999D03*
X58912500Y-227799999D03*
%TD*%
D16*
%TO.C,U30*%
X74000000Y-161200000D03*
D17*
X74000000Y-163740000D03*
X81620000Y-163740000D03*
X81620000Y-161200000D03*
%TD*%
D10*
%TO.C,C34*%
X86912000Y-114500000D03*
X85012000Y-114500000D03*
%TD*%
D16*
%TO.C,U27*%
X74000000Y-144100000D03*
D17*
X74000000Y-146640000D03*
X81620000Y-146640000D03*
X81620000Y-144100000D03*
%TD*%
D12*
%TO.C,R10*%
X85087500Y-31900000D03*
X86912500Y-31900000D03*
%TD*%
D20*
%TO.C,R102*%
X150000000Y-203912500D03*
X150000000Y-202087500D03*
%TD*%
%TO.C,R88*%
X222000000Y-87912500D03*
X222000000Y-86087500D03*
%TD*%
D12*
%TO.C,R28*%
X85087500Y-83200000D03*
X86912500Y-83200000D03*
%TD*%
D16*
%TO.C,U20*%
X74000000Y-104200000D03*
D17*
X74000000Y-106740000D03*
X81620000Y-106740000D03*
X81620000Y-104200000D03*
%TD*%
D11*
%TO.C,D1*%
X162950000Y-78000000D03*
X165050000Y-78000000D03*
%TD*%
D51*
%TO.C,U45*%
X85000000Y-5700000D03*
D52*
X82460000Y-5700000D03*
X77380000Y-5700000D03*
X72300000Y-5700000D03*
%TD*%
D26*
%TO.C,K4*%
X176000000Y-138000000D03*
D27*
X178000000Y-144000000D03*
X190200000Y-144000000D03*
X190200000Y-132000000D03*
X178000000Y-132000000D03*
%TD*%
D10*
%TO.C,C26*%
X86912000Y-68900000D03*
X85012000Y-68900000D03*
%TD*%
D28*
%TO.C,TP17*%
X128000000Y-53750000D03*
%TD*%
D20*
%TO.C,R103*%
X222000000Y-197912500D03*
X222000000Y-196087500D03*
%TD*%
%TO.C,R124*%
X148000000Y-82912500D03*
X148000000Y-81087500D03*
%TD*%
D12*
%TO.C,R71*%
X57087500Y-205000000D03*
X58912500Y-205000000D03*
%TD*%
D20*
%TO.C,R113*%
X137000000Y-190912500D03*
X137000000Y-189087500D03*
%TD*%
D23*
%TO.C,R140*%
X121412500Y-64000000D03*
X119587500Y-64000000D03*
%TD*%
D21*
%TO.C,Q7*%
X159062500Y-198050000D03*
X159062500Y-199950000D03*
X160937500Y-199000000D03*
%TD*%
D36*
%TO.C,J16*%
X128000000Y-206000000D03*
D37*
X131500000Y-206000000D03*
X135000000Y-206000000D03*
X138500000Y-206000000D03*
X142000000Y-206000000D03*
X145500000Y-206000000D03*
%TD*%
D20*
%TO.C,R94*%
X222000000Y-131912500D03*
X222000000Y-130087500D03*
%TD*%
D16*
%TO.C,U15*%
X74000000Y-75700000D03*
D17*
X74000000Y-78240000D03*
X81620000Y-78240000D03*
X81620000Y-75700000D03*
%TD*%
D10*
%TO.C,C53*%
X86912000Y-222800000D03*
X85012000Y-222800000D03*
%TD*%
%TO.C,C21*%
X86912000Y-40400000D03*
X85012000Y-40400000D03*
%TD*%
D12*
%TO.C,R21*%
X57087500Y-62500000D03*
X58912500Y-62500000D03*
%TD*%
D34*
%TO.C,Q19*%
X116937500Y-60950000D03*
X116937500Y-59050000D03*
X115062500Y-60000000D03*
%TD*%
D12*
%TO.C,R52*%
X85087500Y-151600000D03*
X86912500Y-151600000D03*
%TD*%
%TO.C,R68*%
X85087500Y-197200000D03*
X86912500Y-197200000D03*
%TD*%
D14*
%TO.C,D92*%
X63050000Y-222100000D03*
X60950000Y-222100000D03*
%TD*%
D53*
%TO.C,U44*%
X148525000Y-48095000D03*
X148525000Y-49365000D03*
X148525000Y-50635000D03*
X148525000Y-51905000D03*
X153475000Y-51905000D03*
X153475000Y-50635000D03*
X153475000Y-49365000D03*
X153475000Y-48095000D03*
%TD*%
D13*
%TO.C,D10*%
X222000000Y-170000000D03*
X222000000Y-166000000D03*
%TD*%
D18*
%TO.C,D95*%
X70000000Y-230040000D03*
X70000000Y-232140000D03*
%TD*%
D54*
%TO.C,J1*%
X135500000Y-10000000D03*
D55*
X135500000Y-7460000D03*
X138040000Y-10000000D03*
X138040000Y-7460000D03*
X140580000Y-10000000D03*
X140580000Y-7460000D03*
X143120000Y-10000000D03*
X143120000Y-7460000D03*
X145660000Y-10000000D03*
X145660000Y-7460000D03*
X148200000Y-10000000D03*
X148200000Y-7460000D03*
X150740000Y-10000000D03*
X150740000Y-7460000D03*
X153280000Y-10000000D03*
X153280000Y-7460000D03*
X155820000Y-10000000D03*
X155820000Y-7460000D03*
X158360000Y-10000000D03*
X158360000Y-7460000D03*
%TD*%
D15*
%TO.C,C6*%
X230000000Y-116950000D03*
X230000000Y-115050000D03*
%TD*%
D14*
%TO.C,D72*%
X63050000Y-165100000D03*
X60950000Y-165100000D03*
%TD*%
D21*
%TO.C,Q8*%
X103062500Y-197050000D03*
X103062500Y-198950000D03*
X104937500Y-198000000D03*
%TD*%
D20*
%TO.C,R91*%
X222000000Y-109912500D03*
X222000000Y-108087500D03*
%TD*%
D18*
%TO.C,D31*%
X70000000Y-47640000D03*
X70000000Y-49740000D03*
%TD*%
D10*
%TO.C,C47*%
X86912000Y-188600000D03*
X85012000Y-188600000D03*
%TD*%
D14*
%TO.C,D34*%
X63050000Y-56800000D03*
X60950000Y-56800000D03*
%TD*%
D10*
%TO.C,C46*%
X86912000Y-182900000D03*
X85012000Y-182900000D03*
%TD*%
D12*
%TO.C,R26*%
X85087500Y-77500000D03*
X86912500Y-77500000D03*
%TD*%
D23*
%TO.C,R144*%
X118912500Y-68000000D03*
X117087500Y-68000000D03*
%TD*%
D21*
%TO.C,Q1*%
X159062500Y-66050000D03*
X159062500Y-67950000D03*
X160937500Y-67000000D03*
%TD*%
D14*
%TO.C,D46*%
X63050000Y-91000000D03*
X60950000Y-91000000D03*
%TD*%
D29*
%TO.C,C2*%
X112050000Y-130000000D03*
X113950000Y-130000000D03*
%TD*%
D12*
%TO.C,R47*%
X57087500Y-136600000D03*
X58912500Y-136600000D03*
%TD*%
D23*
%TO.C,R132*%
X121412500Y-52000000D03*
X119587500Y-52000000D03*
%TD*%
D12*
%TO.C,R112*%
X127087500Y-182000000D03*
X128912500Y-182000000D03*
%TD*%
D20*
%TO.C,R111*%
X131000000Y-190912500D03*
X131000000Y-189087500D03*
%TD*%
%TO.C,R85*%
X222000000Y-65912500D03*
X222000000Y-64087500D03*
%TD*%
D12*
%TO.C,R135*%
X124087500Y-56000000D03*
X125912500Y-56000000D03*
%TD*%
D21*
%TO.C,Q2*%
X159062500Y-88050000D03*
X159062500Y-89950000D03*
X160937500Y-89000000D03*
%TD*%
D12*
%TO.C,R13*%
X57087500Y-39700000D03*
X58912500Y-39700000D03*
%TD*%
%TO.C,R63*%
X57087500Y-182200000D03*
X58912500Y-182200000D03*
%TD*%
D14*
%TO.C,D40*%
X63050000Y-73900000D03*
X60950000Y-73900000D03*
%TD*%
D20*
%TO.C,R116*%
X146000000Y-40912500D03*
X146000000Y-39087500D03*
%TD*%
D18*
%TO.C,D89*%
X70000000Y-212940000D03*
X70000000Y-215040000D03*
%TD*%
D12*
%TO.C,R25*%
X57087500Y-73900000D03*
X58912500Y-73900000D03*
%TD*%
D28*
%TO.C,TP19*%
X128000000Y-57750000D03*
%TD*%
D20*
%TO.C,R123*%
X67000000Y-16912500D03*
X67000000Y-15087500D03*
%TD*%
%TO.C,R104*%
X101000000Y-190912500D03*
X101000000Y-189087500D03*
%TD*%
D12*
%TO.C,R35*%
X57087500Y-102400000D03*
X58912500Y-102400000D03*
%TD*%
D18*
%TO.C,D39*%
X70000000Y-70440000D03*
X70000000Y-72540000D03*
%TD*%
D13*
%TO.C,D4*%
X222000000Y-104000000D03*
X222000000Y-100000000D03*
%TD*%
D10*
%TO.C,C27*%
X86912000Y-74600000D03*
X85012000Y-74600000D03*
%TD*%
D12*
%TO.C,R143*%
X136787500Y-223300000D03*
X138612500Y-223300000D03*
%TD*%
D56*
%TO.C,C11*%
X156000000Y-44800000D03*
X156000000Y-39200000D03*
%TD*%
D12*
%TO.C,R31*%
X57087500Y-91000000D03*
X58912500Y-91000000D03*
%TD*%
D10*
%TO.C,C49*%
X86912000Y-200000000D03*
X85012000Y-200000000D03*
%TD*%
D19*
%TO.C,TP3*%
X120000000Y-229000000D03*
%TD*%
D16*
%TO.C,U39*%
X74000000Y-212500000D03*
D17*
X74000000Y-215040000D03*
X81620000Y-215040000D03*
X81620000Y-212500000D03*
%TD*%
D12*
%TO.C,R46*%
X85087500Y-134500000D03*
X86912500Y-134500000D03*
%TD*%
D18*
%TO.C,D37*%
X70000000Y-64740000D03*
X70000000Y-66840000D03*
%TD*%
D16*
%TO.C,U22*%
X74000000Y-115600000D03*
D17*
X74000000Y-118140000D03*
X81620000Y-118140000D03*
X81620000Y-115600000D03*
%TD*%
D10*
%TO.C,C31*%
X86912000Y-97399999D03*
X85012000Y-97399999D03*
%TD*%
D18*
%TO.C,D83*%
X70000000Y-195840000D03*
X70000000Y-197940000D03*
%TD*%
D16*
%TO.C,U11*%
X74000000Y-52900000D03*
D17*
X74000000Y-55440000D03*
X81620000Y-55440000D03*
X81620000Y-52900000D03*
%TD*%
D20*
%TO.C,R101*%
X150000000Y-197912500D03*
X150000000Y-196087500D03*
%TD*%
D18*
%TO.C,D33*%
X70000000Y-53340000D03*
X70000000Y-55440000D03*
%TD*%
%TO.C,D57*%
X70000000Y-121739999D03*
X70000000Y-123839999D03*
%TD*%
D12*
%TO.C,R33*%
X57087500Y-96700000D03*
X58912500Y-96700000D03*
%TD*%
%TO.C,R44*%
X85087500Y-128800000D03*
X86912500Y-128800000D03*
%TD*%
%TO.C,R32*%
X85087500Y-94600000D03*
X86912500Y-94600000D03*
%TD*%
D14*
%TO.C,D70*%
X63050000Y-159400000D03*
X60950000Y-159400000D03*
%TD*%
D15*
%TO.C,C10*%
X230000000Y-204950000D03*
X230000000Y-203050000D03*
%TD*%
D12*
%TO.C,R40*%
X85087500Y-117400000D03*
X86912500Y-117400000D03*
%TD*%
D19*
%TO.C,TP7*%
X140000000Y-229000000D03*
%TD*%
D12*
%TO.C,R62*%
X85087500Y-180100000D03*
X86912500Y-180100000D03*
%TD*%
D19*
%TO.C,TP16*%
X160000000Y-236000000D03*
%TD*%
D20*
%TO.C,R84*%
X150000000Y-71912500D03*
X150000000Y-70087500D03*
%TD*%
D12*
%TO.C,R12*%
X85087500Y-37599999D03*
X86912500Y-37599999D03*
%TD*%
D21*
%TO.C,Q10*%
X127062500Y-197050000D03*
X127062500Y-198950000D03*
X128937500Y-198000000D03*
%TD*%
D11*
%TO.C,D9*%
X162950000Y-166000000D03*
X165050000Y-166000000D03*
%TD*%
D28*
%TO.C,TP22*%
X112800000Y-60000000D03*
%TD*%
D19*
%TO.C,TP6*%
X130000000Y-229000000D03*
%TD*%
M02*
