%TF.GenerationSoftware,KiCad,Pcbnew,10.0.2*%
%TF.CreationDate,2026-07-26T12:27:54-07:00*%
%TF.ProjectId,wsl-phase8b-revD,77736c2d-7068-4617-9365-38622d726576,D*%
%TF.SameCoordinates,Original*%
%TF.FileFunction,Copper,L3,Inr*%
%TF.FilePolarity,Positive*%
%FSLAX46Y46*%
G04 Gerber Fmt 4.6, Leading zero omitted, Abs format (unit mm)*
G04 Created by KiCad (PCBNEW 10.0.2) date 2026-07-26 12:27:54*
%MOMM*%
%LPD*%
G01*
G04 APERTURE LIST*
G04 Aperture macros list*
%AMRoundRect*
0 Rectangle with rounded corners*
0 $1 Rounding radius*
0 $2 $3 $4 $5 $6 $7 $8 $9 X,Y pos of 4 corners*
0 Add a 4 corners polygon primitive as box body*
4,1,4,$2,$3,$4,$5,$6,$7,$8,$9,$2,$3,0*
0 Add four circle primitives for the rounded corners*
1,1,$1+$1,$2,$3*
1,1,$1+$1,$4,$5*
1,1,$1+$1,$6,$7*
1,1,$1+$1,$8,$9*
0 Add four rect primitives between the rounded corners*
20,1,$1+$1,$2,$3,$4,$5,0*
20,1,$1+$1,$4,$5,$6,$7,0*
20,1,$1+$1,$6,$7,$8,$9,0*
20,1,$1+$1,$8,$9,$2,$3,0*%
G04 Aperture macros list end*
%TA.AperFunction,ComponentPad*%
%ADD10RoundRect,0.250000X-0.550000X-0.550000X0.550000X-0.550000X0.550000X0.550000X-0.550000X0.550000X0*%
%TD*%
%TA.AperFunction,ComponentPad*%
%ADD11C,1.600000*%
%TD*%
%TA.AperFunction,ComponentPad*%
%ADD12RoundRect,0.250000X-1.050000X-1.050000X1.050000X-1.050000X1.050000X1.050000X-1.050000X1.050000X0*%
%TD*%
%TA.AperFunction,ComponentPad*%
%ADD13C,2.600000*%
%TD*%
%TA.AperFunction,ComponentPad*%
%ADD14R,2.500000X2.500000*%
%TD*%
%TA.AperFunction,ComponentPad*%
%ADD15O,2.500000X2.500000*%
%TD*%
%TA.AperFunction,ComponentPad*%
%ADD16RoundRect,0.277778X1.522222X-0.722222X1.522222X0.722222X-1.522222X0.722222X-1.522222X-0.722222X0*%
%TD*%
%TA.AperFunction,ComponentPad*%
%ADD17O,3.600000X2.000000*%
%TD*%
%TA.AperFunction,ComponentPad*%
%ADD18RoundRect,0.250000X-1.050000X1.050000X-1.050000X-1.050000X1.050000X-1.050000X1.050000X1.050000X0*%
%TD*%
%TA.AperFunction,ComponentPad*%
%ADD19RoundRect,0.277778X-0.722222X-1.522222X0.722222X-1.522222X0.722222X1.522222X-0.722222X1.522222X0*%
%TD*%
%TA.AperFunction,ComponentPad*%
%ADD20O,2.000000X3.600000*%
%TD*%
%TA.AperFunction,ComponentPad*%
%ADD21RoundRect,0.250001X-0.499999X0.499999X-0.499999X-0.499999X0.499999X-0.499999X0.499999X0.499999X0*%
%TD*%
%TA.AperFunction,ComponentPad*%
%ADD22C,1.500000*%
%TD*%
%TA.AperFunction,ComponentPad*%
%ADD23RoundRect,0.250000X0.600000X-0.600000X0.600000X0.600000X-0.600000X0.600000X-0.600000X-0.600000X0*%
%TD*%
%TA.AperFunction,ComponentPad*%
%ADD24C,1.700000*%
%TD*%
%TA.AperFunction,ViaPad*%
%ADD25C,0.600000*%
%TD*%
%TA.AperFunction,ViaPad*%
%ADD26C,0.800000*%
%TD*%
%TA.AperFunction,ViaPad*%
%ADD27C,0.700000*%
%TD*%
%TA.AperFunction,ViaPad*%
%ADD28C,1.000000*%
%TD*%
%TA.AperFunction,Conductor*%
%ADD29C,0.250000*%
%TD*%
%TA.AperFunction,Conductor*%
%ADD30C,0.500000*%
%TD*%
G04 APERTURE END LIST*
D10*
%TO.N,FIELD_LED_MAN_T*%
%TO.C,U29*%
X74000000Y-155500000D03*
D11*
%TO.N,FIELD_SLOW_MAN_T*%
X74000000Y-158040000D03*
%TO.N,GND*%
X81620000Y-158040000D03*
%TO.N,SLOW_MAN_T*%
X81620000Y-155500000D03*
%TD*%
D10*
%TO.N,FIELD_LED_TB*%
%TO.C,U9*%
X74000000Y-41500000D03*
D11*
%TO.N,FIELD_FAST_TB*%
X74000000Y-44040000D03*
%TO.N,GND*%
X81620000Y-44040000D03*
%TO.N,FAST_TB*%
X81620000Y-41500000D03*
%TD*%
D10*
%TO.N,FIELD_LED_TA1*%
%TO.C,U7*%
X74000000Y-30100000D03*
D11*
%TO.N,FIELD_FAST_TA1*%
X74000000Y-32640000D03*
%TO.N,GND*%
X81620000Y-32640000D03*
%TO.N,FAST_TA1*%
X81620000Y-30100000D03*
%TD*%
D10*
%TO.N,FIELD_LED_AUX4*%
%TO.C,U36*%
X74000000Y-195400000D03*
D11*
%TO.N,FIELD_SLOW_AUX4*%
X74000000Y-197940000D03*
%TO.N,GND*%
X81620000Y-197940000D03*
%TO.N,SLOW_AUX4*%
X81620000Y-195400000D03*
%TD*%
D12*
%TO.N,VCC_5V_RAW*%
%TO.C,J2*%
X116000000Y-10000000D03*
D13*
%TO.N,GND*%
X121080000Y-10000000D03*
X126160000Y-10000000D03*
%TD*%
D10*
%TO.N,FIELD_LED_SC*%
%TO.C,U6*%
X74000000Y-24400000D03*
D11*
%TO.N,FIELD_FAST_SC*%
X74000000Y-26940000D03*
%TO.N,GND*%
X81620000Y-26940000D03*
%TO.N,FAST_SC*%
X81620000Y-24400000D03*
%TD*%
D14*
%TO.N,OUT_SP_A*%
%TO.C,K3*%
X176000000Y-116000000D03*
D15*
%TO.N,RELAY_ENABLE_RAIL*%
X178000000Y-122000000D03*
%TO.N,OUT_SP_B*%
X190200000Y-122000000D03*
%TO.N,N/C*%
X190200000Y-110000000D03*
%TO.N,COIL_LO_SP*%
X178000000Y-110000000D03*
%TD*%
D10*
%TO.N,FIELD_LED_BS*%
%TO.C,U24*%
X74000000Y-127000000D03*
D11*
%TO.N,FIELD_SLOW_BS*%
X74000000Y-129540000D03*
%TO.N,GND*%
X81620000Y-129540000D03*
%TO.N,SLOW_BS*%
X81620000Y-127000000D03*
%TD*%
D14*
%TO.N,OUT_T_A*%
%TO.C,K2*%
X176000000Y-94000000D03*
D15*
%TO.N,RELAY_ENABLE_RAIL*%
X178000000Y-100000000D03*
%TO.N,OUT_T_B*%
X190200000Y-100000000D03*
%TO.N,N/C*%
X190200000Y-88000000D03*
%TO.N,COIL_LO_T*%
X178000000Y-88000000D03*
%TD*%
D10*
%TO.N,FIELD_LED_MAN_SWS*%
%TO.C,U31*%
X74000000Y-166900000D03*
D11*
%TO.N,FIELD_SLOW_MAN_SWS*%
X74000000Y-169440000D03*
%TO.N,GND*%
X81620000Y-169440000D03*
%TO.N,SLOW_MAN_SWS*%
X81620000Y-166900000D03*
%TD*%
D14*
%TO.N,OUT_S_A*%
%TO.C,K1*%
X176000000Y-72000000D03*
D15*
%TO.N,RELAY_ENABLE_RAIL*%
X178000000Y-78000000D03*
%TO.N,OUT_S_B*%
X190200000Y-78000000D03*
%TO.N,N/C*%
X190200000Y-66000000D03*
%TO.N,COIL_LO_S*%
X178000000Y-66000000D03*
%TD*%
D10*
%TO.N,FIELD_LED_AUX1*%
%TO.C,U33*%
X74000000Y-178300000D03*
D11*
%TO.N,FIELD_SLOW_AUX1*%
X74000000Y-180840000D03*
%TO.N,GND*%
X81620000Y-180840000D03*
%TO.N,SLOW_AUX1*%
X81620000Y-178300000D03*
%TD*%
D10*
%TO.N,FIELD_LED_MAN_SWSR*%
%TO.C,U32*%
X74000000Y-172600000D03*
D11*
%TO.N,FIELD_SLOW_MAN_SWSR*%
X74000000Y-175140000D03*
%TO.N,GND*%
X81620000Y-175140000D03*
%TO.N,SLOW_MAN_SWSR*%
X81620000Y-172600000D03*
%TD*%
D10*
%TO.N,FIELD_LED_AUX5*%
%TO.C,U37*%
X74000000Y-201100000D03*
D11*
%TO.N,FIELD_SLOW_AUX5*%
X74000000Y-203640000D03*
%TO.N,GND*%
X81620000Y-203640000D03*
%TO.N,SLOW_AUX5*%
X81620000Y-201100000D03*
%TD*%
D16*
%TO.N,FIELD_SLOW_AUX4*%
%TO.C,J15*%
X9000000Y-222000000D03*
D17*
%TO.N,FIELD_SLOW_AUX5*%
X9000000Y-218500000D03*
%TO.N,FIELD_SLOW_AUX6*%
X9000000Y-215000000D03*
%TO.N,FIELD_SLOW_AUX7*%
X9000000Y-211500000D03*
%TO.N,FIELD_SLOW_AUX8*%
X9000000Y-208000000D03*
%TO.N,FIELD_SLOW_AUX9*%
X9000000Y-204500000D03*
%TO.N,FIELD_SLOW_AUX10*%
X9000000Y-201000000D03*
%TO.N,FIELD_SLOW_AUX11*%
X9000000Y-197500000D03*
%TO.N,FIELD_GND*%
X9000000Y-194000000D03*
X9000000Y-190500000D03*
%TD*%
D10*
%TO.N,FIELD_LED_TENTH*%
%TO.C,U28*%
X74000000Y-149800000D03*
D11*
%TO.N,FIELD_SLOW_TENTH*%
X74000000Y-152340000D03*
%TO.N,GND*%
X81620000Y-152340000D03*
%TO.N,SLOW_TENTH*%
X81620000Y-149800000D03*
%TD*%
D18*
%TO.N,OUT_M1_B*%
%TO.C,J12*%
X242000000Y-200000000D03*
D13*
%TO.N,OUT_M1_A*%
X242000000Y-205080000D03*
%TD*%
D10*
%TO.N,FIELD_LED_GS6*%
%TO.C,U17*%
X74000000Y-87100000D03*
D11*
%TO.N,FIELD_SLOW_GS6*%
X74000000Y-89640000D03*
%TO.N,GND*%
X81620000Y-89640000D03*
%TO.N,SLOW_GS6*%
X81620000Y-87100000D03*
%TD*%
D10*
%TO.N,FIELD_LED_SA*%
%TO.C,U4*%
X74000000Y-13000000D03*
D11*
%TO.N,FIELD_FAST_SA*%
X74000000Y-15540000D03*
%TO.N,GND*%
X81620000Y-15540000D03*
%TO.N,FAST_SA*%
X81620000Y-13000000D03*
%TD*%
D10*
%TO.N,FIELD_LED_AUX2*%
%TO.C,U34*%
X74000000Y-184000000D03*
D11*
%TO.N,FIELD_SLOW_AUX2*%
X74000000Y-186540000D03*
%TO.N,GND*%
X81620000Y-186540000D03*
%TO.N,SLOW_AUX2*%
X81620000Y-184000000D03*
%TD*%
D10*
%TO.N,FIELD_LED_GS5*%
%TO.C,U16*%
X74000000Y-81400000D03*
D11*
%TO.N,FIELD_SLOW_GS5*%
X74000000Y-83940000D03*
%TO.N,GND*%
X81620000Y-83940000D03*
%TO.N,SLOW_GS5*%
X81620000Y-81400000D03*
%TD*%
D16*
%TO.N,FIELD_SLOW_PBZ*%
%TO.C,J5*%
X9000000Y-168000000D03*
D17*
%TO.N,FIELD_SLOW_PBC*%
X9000000Y-164500000D03*
%TO.N,FIELD_SLOW_FOUL*%
X9000000Y-161000000D03*
%TO.N,FIELD_SLOW_TENTH*%
X9000000Y-157500000D03*
%TO.N,FIELD_SLOW_MAN_T*%
X9000000Y-154000000D03*
%TO.N,FIELD_SLOW_MAN_S*%
X9000000Y-150500000D03*
%TO.N,FIELD_SLOW_MAN_SWS*%
X9000000Y-147000000D03*
%TO.N,FIELD_SLOW_MAN_SWSR*%
X9000000Y-143500000D03*
%TO.N,FIELD_SLOW_AUX1*%
X9000000Y-140000000D03*
%TO.N,FIELD_SLOW_AUX2*%
X9000000Y-136500000D03*
%TO.N,FIELD_SLOW_AUX3*%
X9000000Y-133000000D03*
%TO.N,FIELD_GND*%
X9000000Y-129500000D03*
%TD*%
D10*
%TO.N,FIELD_LED_AUX10*%
%TO.C,U42*%
X74000000Y-229600000D03*
D11*
%TO.N,FIELD_SLOW_AUX10*%
X74000000Y-232140000D03*
%TO.N,GND*%
X81620000Y-232140000D03*
%TO.N,SLOW_AUX10*%
X81620000Y-229600000D03*
%TD*%
D10*
%TO.N,FIELD_LED_TA2*%
%TO.C,U8*%
X74000000Y-35800000D03*
D11*
%TO.N,FIELD_FAST_TA2*%
X74000000Y-38340000D03*
%TO.N,GND*%
X81620000Y-38340000D03*
%TO.N,FAST_TA2*%
X81620000Y-35800000D03*
%TD*%
D10*
%TO.N,FIELD_LED_AUX8*%
%TO.C,U40*%
X74000000Y-218200000D03*
D11*
%TO.N,FIELD_SLOW_AUX8*%
X74000000Y-220740000D03*
%TO.N,GND*%
X81620000Y-220740000D03*
%TO.N,SLOW_AUX8*%
X81620000Y-218200000D03*
%TD*%
D18*
%TO.N,OUT_S_B*%
%TO.C,J6*%
X242000000Y-68000000D03*
D13*
%TO.N,OUT_S_A*%
X242000000Y-73080000D03*
%TD*%
D14*
%TO.N,OUT_M2_A*%
%TO.C,K6*%
X176000000Y-182000000D03*
D15*
%TO.N,RELAY_ENABLE_RAIL*%
X178000000Y-188000000D03*
%TO.N,OUT_M2_B*%
X190200000Y-188000000D03*
%TO.N,N/C*%
X190200000Y-176000000D03*
%TO.N,COIL_LO_M2*%
X178000000Y-176000000D03*
%TD*%
D16*
%TO.N,FIELD_SLOW_GS1*%
%TO.C,J4*%
X9000000Y-103000000D03*
D17*
%TO.N,FIELD_SLOW_GS2*%
X9000000Y-99500000D03*
%TO.N,FIELD_SLOW_GS3*%
X9000000Y-96000000D03*
%TO.N,FIELD_SLOW_GS4*%
X9000000Y-92500000D03*
%TO.N,FIELD_SLOW_GS5*%
X9000000Y-89000000D03*
%TO.N,FIELD_SLOW_GS6*%
X9000000Y-85500000D03*
%TO.N,FIELD_SLOW_GS7*%
X9000000Y-82000000D03*
%TO.N,FIELD_SLOW_GS8*%
X9000000Y-78500000D03*
%TO.N,FIELD_SLOW_GS9*%
X9000000Y-75000000D03*
%TO.N,FIELD_SLOW_GS10*%
X9000000Y-71500000D03*
%TO.N,FIELD_SLOW_GP*%
X9000000Y-68000000D03*
%TO.N,FIELD_SLOW_OS*%
X9000000Y-64500000D03*
%TO.N,FIELD_SLOW_BS*%
X9000000Y-61000000D03*
%TO.N,FIELD_GND*%
X9000000Y-57500000D03*
%TD*%
D19*
%TO.N,VCC_5V*%
%TO.C,J14*%
X167000000Y-10000000D03*
D20*
%TO.N,SAFE_TBSC_RETURN*%
X170500000Y-10000000D03*
X174000000Y-10000000D03*
%TO.N,SAFE_STOP_RETURN*%
X177500000Y-10000000D03*
%TD*%
D10*
%TO.N,FIELD_LED_AUX11*%
%TO.C,U43*%
X74000000Y-235300000D03*
D11*
%TO.N,FIELD_SLOW_AUX11*%
X74000000Y-237840000D03*
%TO.N,GND*%
X81620000Y-237840000D03*
%TO.N,SLOW_AUX11*%
X81620000Y-235300000D03*
%TD*%
D18*
%TO.N,OUT_BE_B*%
%TO.C,J9*%
X242000000Y-134000000D03*
D13*
%TO.N,OUT_BE_A*%
X242000000Y-139080000D03*
%TD*%
D10*
%TO.N,FIELD_LED_GS7*%
%TO.C,U18*%
X74000000Y-92800000D03*
D11*
%TO.N,FIELD_SLOW_GS7*%
X74000000Y-95340000D03*
%TO.N,GND*%
X81620000Y-95340000D03*
%TO.N,SLOW_GS7*%
X81620000Y-92800000D03*
%TD*%
D14*
%TO.N,OUT_M1_A*%
%TO.C,K7*%
X176000000Y-204000000D03*
D15*
%TO.N,RELAY_ENABLE_RAIL*%
X178000000Y-210000000D03*
%TO.N,OUT_M1_B*%
X190200000Y-210000000D03*
%TO.N,N/C*%
X190200000Y-198000000D03*
%TO.N,COIL_LO_M1*%
X178000000Y-198000000D03*
%TD*%
D10*
%TO.N,FIELD_LED_PBZ*%
%TO.C,U25*%
X74000000Y-132699999D03*
D11*
%TO.N,FIELD_SLOW_PBZ*%
X74000000Y-135239999D03*
%TO.N,GND*%
X81620000Y-135239999D03*
%TO.N,SLOW_PBZ*%
X81620000Y-132699999D03*
%TD*%
D18*
%TO.N,OUT_SP_B*%
%TO.C,J8*%
X242000000Y-112000000D03*
D13*
%TO.N,OUT_SP_A*%
X242000000Y-117080000D03*
%TD*%
D10*
%TO.N,FIELD_LED_AUX3*%
%TO.C,U35*%
X74000000Y-189700000D03*
D11*
%TO.N,FIELD_SLOW_AUX3*%
X74000000Y-192240000D03*
%TO.N,GND*%
X81620000Y-192240000D03*
%TO.N,SLOW_AUX3*%
X81620000Y-189700000D03*
%TD*%
D10*
%TO.N,FIELD_LED_DIELL_L*%
%TO.C,U10*%
X74000000Y-47200000D03*
D11*
%TO.N,FIELD_FAST_DIELL_L*%
X74000000Y-49740000D03*
%TO.N,GND*%
X81620000Y-49740000D03*
%TO.N,FAST_DIELL_L*%
X81620000Y-47200000D03*
%TD*%
D10*
%TO.N,FIELD_LED_GS8*%
%TO.C,U19*%
X74000000Y-98500000D03*
D11*
%TO.N,FIELD_SLOW_GS8*%
X74000000Y-101040000D03*
%TO.N,GND*%
X81620000Y-101040000D03*
%TO.N,SLOW_GS8*%
X81620000Y-98500000D03*
%TD*%
D10*
%TO.N,FIELD_LED_GS1*%
%TO.C,U12*%
X74000000Y-58600000D03*
D11*
%TO.N,FIELD_SLOW_GS1*%
X74000000Y-61140000D03*
%TO.N,GND*%
X81620000Y-61140000D03*
%TO.N,SLOW_GS1*%
X81620000Y-58600000D03*
%TD*%
D14*
%TO.N,OUT_M_A*%
%TO.C,K5*%
X176000000Y-160000000D03*
D15*
%TO.N,RELAY_ENABLE_RAIL*%
X178000000Y-166000000D03*
%TO.N,OUT_M_B*%
X190200000Y-166000000D03*
%TO.N,N/C*%
X190200000Y-154000000D03*
%TO.N,COIL_LO_M*%
X178000000Y-154000000D03*
%TD*%
D10*
%TO.N,FIELD_LED_OS*%
%TO.C,U23*%
X74000000Y-121300000D03*
D11*
%TO.N,FIELD_SLOW_OS*%
X74000000Y-123840000D03*
%TO.N,GND*%
X81620000Y-123840000D03*
%TO.N,SLOW_OS*%
X81620000Y-121300000D03*
%TD*%
D10*
%TO.N,FIELD_LED_AUX6*%
%TO.C,U38*%
X74000000Y-206800000D03*
D11*
%TO.N,FIELD_SLOW_AUX6*%
X74000000Y-209340000D03*
%TO.N,GND*%
X81620000Y-209340000D03*
%TO.N,SLOW_AUX6*%
X81620000Y-206800000D03*
%TD*%
D18*
%TO.N,OUT_T_B*%
%TO.C,J7*%
X242000000Y-90000000D03*
D13*
%TO.N,OUT_T_A*%
X242000000Y-95080000D03*
%TD*%
D10*
%TO.N,FIELD_LED_PBC*%
%TO.C,U26*%
X74000000Y-138400000D03*
D11*
%TO.N,FIELD_SLOW_PBC*%
X74000000Y-140940000D03*
%TO.N,GND*%
X81620000Y-140940000D03*
%TO.N,SLOW_PBC*%
X81620000Y-138400000D03*
%TD*%
D18*
%TO.N,OUT_M_B*%
%TO.C,J10*%
X242000000Y-156000000D03*
D13*
%TO.N,OUT_M_A*%
X242000000Y-161080000D03*
%TD*%
D19*
%TO.N,VCC_5V*%
%TO.C,J13*%
X104000000Y-206000000D03*
D20*
%TO.N,GND*%
X107500000Y-206000000D03*
%TO.N,LED_L_FIRST_RETURN*%
X111000000Y-206000000D03*
%TO.N,LED_L_SECOND_RETURN*%
X114500000Y-206000000D03*
%TO.N,LED_L_STRIKE_RETURN*%
X118000000Y-206000000D03*
%TO.N,LED_L_FOUL_RETURN*%
X121500000Y-206000000D03*
%TD*%
D16*
%TO.N,FIELD_FAST_SA*%
%TO.C,J3*%
X9000000Y-42000000D03*
D17*
%TO.N,FIELD_FAST_SB*%
X9000000Y-38500000D03*
%TO.N,FIELD_FAST_SC*%
X9000000Y-35000000D03*
%TO.N,FIELD_FAST_TA1*%
X9000000Y-31500000D03*
%TO.N,FIELD_FAST_TA2*%
X9000000Y-28000000D03*
%TO.N,FIELD_FAST_TB*%
X9000000Y-24500000D03*
%TO.N,FIELD_FAST_DIELL_L*%
X9000000Y-21000000D03*
%TO.N,FIELD_FAST_DIELL_R*%
X9000000Y-17500000D03*
%TO.N,FIELD_GND*%
X9000000Y-14000000D03*
X9000000Y-10500000D03*
%TD*%
D10*
%TO.N,FIELD_LED_SB*%
%TO.C,U5*%
X74000000Y-18700000D03*
D11*
%TO.N,FIELD_FAST_SB*%
X74000000Y-21240000D03*
%TO.N,GND*%
X81620000Y-21240000D03*
%TO.N,FAST_SB*%
X81620000Y-18700000D03*
%TD*%
D10*
%TO.N,FIELD_LED_GS3*%
%TO.C,U14*%
X74000000Y-70000000D03*
D11*
%TO.N,FIELD_SLOW_GS3*%
X74000000Y-72540000D03*
%TO.N,GND*%
X81620000Y-72540000D03*
%TO.N,SLOW_GS3*%
X81620000Y-70000000D03*
%TD*%
D18*
%TO.N,OUT_M2_B*%
%TO.C,J11*%
X242000000Y-178000000D03*
D13*
%TO.N,OUT_M2_A*%
X242000000Y-183080000D03*
%TD*%
D10*
%TO.N,FIELD_LED_AUX9*%
%TO.C,U41*%
X74000000Y-223900000D03*
D11*
%TO.N,FIELD_SLOW_AUX9*%
X74000000Y-226440000D03*
%TO.N,GND*%
X81620000Y-226440000D03*
%TO.N,SLOW_AUX9*%
X81620000Y-223900000D03*
%TD*%
D10*
%TO.N,FIELD_LED_GS2*%
%TO.C,U13*%
X74000000Y-64300000D03*
D11*
%TO.N,FIELD_SLOW_GS2*%
X74000000Y-66840000D03*
%TO.N,GND*%
X81620000Y-66840000D03*
%TO.N,SLOW_GS2*%
X81620000Y-64300000D03*
%TD*%
D10*
%TO.N,FIELD_LED_GS10*%
%TO.C,U21*%
X74000000Y-109900000D03*
D11*
%TO.N,FIELD_SLOW_GS10*%
X74000000Y-112440000D03*
%TO.N,GND*%
X81620000Y-112440000D03*
%TO.N,SLOW_GS10*%
X81620000Y-109900000D03*
%TD*%
D10*
%TO.N,FIELD_LED_MAN_S*%
%TO.C,U30*%
X74000000Y-161200000D03*
D11*
%TO.N,FIELD_SLOW_MAN_S*%
X74000000Y-163740000D03*
%TO.N,GND*%
X81620000Y-163740000D03*
%TO.N,SLOW_MAN_S*%
X81620000Y-161200000D03*
%TD*%
D10*
%TO.N,FIELD_LED_FOUL*%
%TO.C,U27*%
X74000000Y-144100000D03*
D11*
%TO.N,FIELD_SLOW_FOUL*%
X74000000Y-146640000D03*
%TO.N,GND*%
X81620000Y-146640000D03*
%TO.N,SLOW_FOUL*%
X81620000Y-144100000D03*
%TD*%
D10*
%TO.N,FIELD_LED_GS9*%
%TO.C,U20*%
X74000000Y-104200000D03*
D11*
%TO.N,FIELD_SLOW_GS9*%
X74000000Y-106740000D03*
%TO.N,GND*%
X81620000Y-106740000D03*
%TO.N,SLOW_GS9*%
X81620000Y-104200000D03*
%TD*%
D21*
%TO.N,VCC_5V*%
%TO.C,U45*%
X85000000Y-5700000D03*
D22*
%TO.N,GND*%
X82460000Y-5700000D03*
%TO.N,FIELD_GND*%
X77380000Y-5700000D03*
%TO.N,FIELD_WET_V*%
X72300000Y-5700000D03*
%TD*%
D14*
%TO.N,OUT_BE_A*%
%TO.C,K4*%
X176000000Y-138000000D03*
D15*
%TO.N,RELAY_ENABLE_RAIL*%
X178000000Y-144000000D03*
%TO.N,OUT_BE_B*%
X190200000Y-144000000D03*
%TO.N,N/C*%
X190200000Y-132000000D03*
%TO.N,COIL_LO_BE*%
X178000000Y-132000000D03*
%TD*%
D19*
%TO.N,J16_5V*%
%TO.C,J16*%
X128000000Y-206000000D03*
D20*
%TO.N,GND*%
X131500000Y-206000000D03*
%TO.N,J16_SDA*%
X135000000Y-206000000D03*
%TO.N,J16_SCL*%
X138500000Y-206000000D03*
%TO.N,J16_3V3*%
X142000000Y-206000000D03*
%TO.N,GND*%
X145500000Y-206000000D03*
%TD*%
D10*
%TO.N,FIELD_LED_GS4*%
%TO.C,U15*%
X74000000Y-75700000D03*
D11*
%TO.N,FIELD_SLOW_GS4*%
X74000000Y-78240000D03*
%TO.N,GND*%
X81620000Y-78240000D03*
%TO.N,SLOW_GS4*%
X81620000Y-75700000D03*
%TD*%
D23*
%TO.N,VCC_5V*%
%TO.C,J1*%
X135500000Y-10000000D03*
D24*
%TO.N,GND*%
X135500000Y-7460000D03*
%TO.N,I2C_SDA*%
X138040000Y-10000000D03*
%TO.N,I2C_SCL*%
X138040000Y-7460000D03*
%TO.N,PI_UART_TX*%
X140580000Y-10000000D03*
%TO.N,PI_UART_RX*%
X140580000Y-7460000D03*
%TO.N,WDOG_KICK*%
X143120000Y-10000000D03*
%TO.N,ARM_PERMIT*%
X143120000Y-7460000D03*
%TO.N,MCP_INT_A*%
X145660000Y-10000000D03*
%TO.N,MCP_INT_B*%
X145660000Y-7460000D03*
%TO.N,VCC_3V3*%
X148200000Y-10000000D03*
%TO.N,GND*%
X148200000Y-7460000D03*
%TO.N,RP2040_OK*%
X150740000Y-10000000D03*
%TO.N,N/C*%
X150740000Y-7460000D03*
X153280000Y-10000000D03*
X153280000Y-7460000D03*
X155820000Y-10000000D03*
X155820000Y-7460000D03*
X158360000Y-10000000D03*
X158360000Y-7460000D03*
%TD*%
D10*
%TO.N,FIELD_LED_AUX7*%
%TO.C,U39*%
X74000000Y-212500000D03*
D11*
%TO.N,FIELD_SLOW_AUX7*%
X74000000Y-215040000D03*
%TO.N,GND*%
X81620000Y-215040000D03*
%TO.N,SLOW_AUX7*%
X81620000Y-212500000D03*
%TD*%
D10*
%TO.N,FIELD_LED_GP*%
%TO.C,U22*%
X74000000Y-115600000D03*
D11*
%TO.N,FIELD_SLOW_GP*%
X74000000Y-118140000D03*
%TO.N,GND*%
X81620000Y-118140000D03*
%TO.N,SLOW_GP*%
X81620000Y-115600000D03*
%TD*%
D10*
%TO.N,FIELD_LED_DIELL_R*%
%TO.C,U11*%
X74000000Y-52900000D03*
D11*
%TO.N,FIELD_FAST_DIELL_R*%
X74000000Y-55440000D03*
%TO.N,GND*%
X81620000Y-55440000D03*
%TO.N,FAST_DIELL_R*%
X81620000Y-52900000D03*
%TD*%
D25*
%TO.N,SLOW_PBZ*%
X99450000Y-102095000D03*
X99450000Y-134500000D03*
X87700000Y-134500000D03*
X115000000Y-102095000D03*
D26*
%TO.N,GND*%
X83300000Y-131500000D03*
X83300000Y-23200000D03*
X83300000Y-234100000D03*
%TO.N,RELAY_ENABLE_RAIL*%
X160000000Y-81000000D03*
X160000000Y-188000000D03*
X160000000Y-210000000D03*
X160000000Y-166000000D03*
X160000000Y-144000000D03*
X160000000Y-78000000D03*
X160000000Y-82000000D03*
X160000000Y-122000000D03*
X160000000Y-100000000D03*
X161600000Y-236000000D03*
%TO.N,COIL_LO_SP*%
X166800000Y-122000000D03*
X166800000Y-111000000D03*
D27*
%TO.N,FIELD_WET_V*%
X55300000Y-153700000D03*
X55300000Y-130899999D03*
X55300000Y-5700000D03*
X55300000Y-170799999D03*
X55300000Y-79600000D03*
X55300000Y-233500000D03*
X55300000Y-193600000D03*
X55300000Y-45400000D03*
X55300000Y-210700000D03*
X65000000Y-16913000D03*
X55300000Y-165100000D03*
X55300000Y-125200000D03*
X55300000Y-119500000D03*
X55300000Y-28300000D03*
X55300000Y-182200000D03*
X55300000Y-159400000D03*
X55300000Y-73900000D03*
X55300000Y-227799999D03*
X55300000Y-22599999D03*
X55300000Y-205000000D03*
X55300000Y-142299999D03*
X55300000Y-62500000D03*
X55300000Y-68200000D03*
X55300000Y-108100000D03*
X55300000Y-234500000D03*
X55300000Y-51100000D03*
X55300000Y-216400000D03*
X55300000Y-199299999D03*
X55300000Y-39700000D03*
X55300000Y-56800000D03*
X55300000Y-34000000D03*
X55300000Y-102400000D03*
X55300000Y-16900000D03*
X55300000Y-113800000D03*
X55300000Y-176500000D03*
X55300000Y-148000000D03*
X55300000Y-222100000D03*
X55300000Y-187900000D03*
X55300000Y-91000000D03*
X55300000Y-136600000D03*
X55300000Y-96700000D03*
X55300000Y-85300000D03*
X55300000Y-11200000D03*
D25*
%TO.N,RP2040_OK*%
X168400000Y-69900000D03*
X162200000Y-80000000D03*
X168400000Y-80000000D03*
X158600000Y-69900000D03*
X168400000Y-15000000D03*
X88900000Y-80000000D03*
X163300000Y-15000000D03*
X170000000Y-90912000D03*
X88900000Y-16489999D03*
X168400000Y-234600000D03*
X150740000Y-15000000D03*
%TO.N,TAP_GATE_RPOK*%
X158300000Y-64000000D03*
X125900000Y-65750000D03*
D28*
%TO.N,OUT_S_A*%
X216000000Y-68112500D03*
X216000000Y-79600000D03*
%TO.N,OUT_S_B*%
X228000000Y-75600000D03*
X228000000Y-68850000D03*
D26*
%TO.N,VCC_3V3*%
X113100000Y-108445000D03*
X122300000Y-64000000D03*
X133350000Y-218600000D03*
X116400000Y-157000000D03*
X128600000Y-108445000D03*
X84300000Y-77500000D03*
X113100000Y-224100000D03*
X113100000Y-157000000D03*
X111000000Y-130000000D03*
X113100000Y-54100000D03*
X84300000Y-43300000D03*
X138600000Y-99300000D03*
X84300000Y-128800000D03*
X113100000Y-90100000D03*
X84300000Y-157300000D03*
X113100000Y-92000000D03*
X128699999Y-157000000D03*
X137900000Y-96000000D03*
X137900000Y-78000000D03*
X100200000Y-90100000D03*
X113100000Y-62100000D03*
X84300000Y-180100000D03*
X122300000Y-60000000D03*
X148200000Y-16300000D03*
X113100000Y-222800000D03*
X113100000Y-50100000D03*
X84300000Y-140200000D03*
X84300000Y-208600000D03*
X84300000Y-37599999D03*
X113100000Y-218600000D03*
X84300000Y-14800000D03*
X113100000Y-19030000D03*
X113100000Y-94400000D03*
X84300000Y-26200000D03*
X84300000Y-49000000D03*
X121800000Y-68000000D03*
X84300000Y-106000000D03*
X113100000Y-12300000D03*
X128600000Y-218600000D03*
X113100000Y-16300000D03*
X84300000Y-31900000D03*
X84300000Y-185800000D03*
X84300000Y-88900000D03*
X84300000Y-111700000D03*
X113100000Y-68000000D03*
X84300000Y-231400000D03*
X84300000Y-168700000D03*
X84300000Y-145900000D03*
X113100000Y-58100000D03*
X84300000Y-197200000D03*
X122300000Y-56000000D03*
X84300000Y-237100000D03*
X84300000Y-117400000D03*
X84300000Y-202900000D03*
X84300000Y-134500000D03*
X122300000Y-52000000D03*
X113100000Y-78000000D03*
X84300000Y-100300000D03*
X115900000Y-105905000D03*
X84300000Y-83200000D03*
X138600000Y-112300000D03*
X136850000Y-223500000D03*
X110000000Y-90100000D03*
X84300000Y-54699999D03*
X84300000Y-174400000D03*
X84300000Y-225700000D03*
X84300000Y-66100000D03*
X84300000Y-94600000D03*
X84300000Y-191500000D03*
X84300000Y-220000000D03*
X84300000Y-20500000D03*
X84300000Y-71800000D03*
X150900000Y-218600000D03*
X84300000Y-214300000D03*
X84300000Y-163000000D03*
X84300000Y-60400000D03*
X84300000Y-151600000D03*
X84300000Y-123100000D03*
D25*
%TO.N,SLOW_FOUL*%
X87700000Y-145900000D03*
X100950000Y-104635000D03*
X100950000Y-145900000D03*
X115000000Y-104635000D03*
D27*
%TO.N,FIELD_SLOW_MAN_T*%
X38250000Y-154000000D03*
X38250000Y-158040000D03*
D25*
%TO.N,SLOW_MAN_T*%
X130100000Y-145365000D03*
X111399999Y-149600000D03*
X111399999Y-157300000D03*
X87700000Y-157300000D03*
D27*
%TO.N,FIELD_SLOW_TENTH*%
X37200000Y-157500000D03*
X37200000Y-152340000D03*
%TO.N,FIELD_SLOW_AUX5*%
X46650000Y-202690000D03*
X46650000Y-218500000D03*
D28*
%TO.N,OUT_BE_A*%
X216000000Y-134112499D03*
X216000000Y-145600000D03*
%TO.N,OUT_BE_B*%
X228000000Y-134850000D03*
X228000000Y-141600000D03*
D27*
%TO.N,FIELD_FAST_TB*%
X17250000Y-44040000D03*
X17250000Y-24500000D03*
D25*
%TO.N,FAST_TB*%
X94000000Y-44430000D03*
X87700000Y-43300000D03*
X94000000Y-43300000D03*
%TO.N,FAST_SC*%
X87700000Y-26200000D03*
X93500000Y-34270000D03*
X96100000Y-26200000D03*
X96100000Y-34270000D03*
D27*
%TO.N,FIELD_FAST_TA1*%
X15150000Y-32640000D03*
X15150000Y-31500000D03*
D25*
%TO.N,FAST_TA1*%
X95400000Y-33000000D03*
X93500000Y-36810000D03*
X87700000Y-31900000D03*
X95400000Y-36810000D03*
%TO.N,SLOW_AUX11*%
X114700000Y-158900000D03*
X126400000Y-237100000D03*
X126400000Y-158900000D03*
X114700000Y-146635000D03*
X87700000Y-237100000D03*
%TO.N,WDOG_KICK*%
X143120000Y-13200000D03*
X143300000Y-226900000D03*
X143120000Y-49300000D03*
X136600000Y-52400000D03*
%TO.N,TAP_GATE_KICK*%
X125900000Y-57750000D03*
X125900000Y-46500000D03*
X135200000Y-46500000D03*
D27*
%TO.N,FIELD_SLOW_GS8*%
X27750000Y-78500000D03*
X27750000Y-101040000D03*
%TO.N,FIELD_SLOW_AUX4*%
X45600000Y-196490000D03*
X45600000Y-222000000D03*
D25*
%TO.N,SLOW_AUX4*%
X87700000Y-197200000D03*
X146900000Y-194600000D03*
X115700000Y-134900000D03*
X146900000Y-134900000D03*
D26*
%TO.N,COIL_LO_BE*%
X166800000Y-133000000D03*
X166800000Y-144000000D03*
D25*
%TO.N,SLOW_GS9*%
X115000000Y-95745000D03*
X87700000Y-106000000D03*
X96000000Y-95745000D03*
X96000000Y-106000000D03*
%TO.N,J16_SDA*%
X135000000Y-216200000D03*
X146600000Y-216200000D03*
X142600000Y-216200000D03*
D27*
%TO.N,FIELD_FAST_SC*%
X14100000Y-35000000D03*
X14100000Y-26940000D03*
D26*
%TO.N,COIL_LO_T*%
X166800000Y-100000000D03*
X166800000Y-89000000D03*
D28*
%TO.N,OUT_SP_A*%
X216000000Y-112112500D03*
X216000000Y-123600000D03*
%TO.N,OUT_SP_B*%
X228000000Y-112850000D03*
X228000000Y-119600000D03*
D27*
%TO.N,FIELD_SLOW_AUX2*%
X43500000Y-136500000D03*
X43500000Y-186540000D03*
D25*
%TO.N,SLOW_MAN_SWSR*%
X87700000Y-174400000D03*
X109300000Y-154850000D03*
X132200000Y-141555000D03*
X109300000Y-174400000D03*
D27*
%TO.N,FIELD_SLOW_BS*%
X33000000Y-61000000D03*
X33000000Y-129539999D03*
D25*
%TO.N,SLOW_BS*%
X98800000Y-101460000D03*
X98800000Y-128800000D03*
X87700000Y-128800000D03*
X114200000Y-101460000D03*
%TO.N,SLOW_AUX3*%
X107200000Y-193200000D03*
X87700000Y-191500000D03*
X134300000Y-137745000D03*
X107199999Y-136000000D03*
%TO.N,LED_L_FOUL_RETURN*%
X140600000Y-180000000D03*
%TO.N,LED_SINK_L_FOUL*%
X142000000Y-182000000D03*
X142000000Y-198000000D03*
D28*
%TO.N,OUT_T_A*%
X216000000Y-90112500D03*
X216000000Y-101600000D03*
%TO.N,OUT_T_B*%
X228000000Y-97600000D03*
X228000000Y-90850000D03*
D25*
%TO.N,DRV_T*%
X147000000Y-93912000D03*
X147000000Y-111365000D03*
D27*
%TO.N,FIELD_SLOW_GS1*%
X20400000Y-103000000D03*
X20400000Y-59690000D03*
D26*
%TO.N,VCC_5V*%
X122000000Y-217000000D03*
X118400000Y-20000000D03*
X151500000Y-217000000D03*
X164700000Y-14000000D03*
X157200000Y-67950000D03*
X167000000Y-14000000D03*
X114200000Y-1550000D03*
X100000000Y-217000000D03*
X111900000Y-11410000D03*
X149900000Y-54900000D03*
X146900000Y-78400000D03*
X151900000Y-67950000D03*
X118400000Y-21000000D03*
X145550000Y-43400000D03*
X115400000Y-40000000D03*
X151500000Y-203700000D03*
X138750000Y-217200000D03*
X153475000Y-45600000D03*
X136600000Y-11400000D03*
D27*
%TO.N,FIELD_SLOW_GS7*%
X26700000Y-82000000D03*
X26700000Y-95340000D03*
%TO.N,FIELD_SLOW_MAN_SWS*%
X40350000Y-147000000D03*
X40350000Y-169440000D03*
D25*
%TO.N,SLOW_MAN_SWS*%
X110000000Y-153950000D03*
X110000000Y-168700000D03*
X87700000Y-168700000D03*
X131500000Y-142825000D03*
%TO.N,DRV_BE*%
X148200000Y-131912000D03*
X148200000Y-108825000D03*
D26*
%TO.N,COIL_LO_S*%
X166800000Y-67000000D03*
X166800000Y-78000000D03*
D25*
%TO.N,TAP_WDOG_KICK*%
X118600000Y-56000000D03*
X114100000Y-56000000D03*
X111300000Y-54590000D03*
D27*
%TO.N,FIELD_SLOW_AUX1*%
X42450000Y-140000000D03*
X42450000Y-180840000D03*
D25*
%TO.N,SLOW_AUX1*%
X87700000Y-180100000D03*
X108600000Y-155750000D03*
X132900000Y-140285000D03*
X108600000Y-180100000D03*
D27*
%TO.N,FIELD_SLOW_MAN_SWSR*%
X41400000Y-175140000D03*
X41400000Y-143500000D03*
D25*
%TO.N,WDOG_KICK_DRAIN*%
X149000000Y-35000000D03*
X144800000Y-58000000D03*
%TO.N,WDOG_TIMING_NODE*%
X154800000Y-50000000D03*
X154800000Y-230400000D03*
%TO.N,FAST_SB*%
X99050000Y-31730000D03*
X87700000Y-20500000D03*
X93500000Y-31730000D03*
X99050000Y-20500000D03*
D28*
%TO.N,OUT_M2_A*%
X216000000Y-189600000D03*
X216000000Y-178112499D03*
%TO.N,OUT_M2_B*%
X228000000Y-178850000D03*
X228000000Y-185600000D03*
D25*
%TO.N,SLOW_GP*%
X97400000Y-117400000D03*
X87700000Y-117400000D03*
X97400000Y-98285000D03*
X115000000Y-98285000D03*
%TO.N,SLOW_AUX5*%
X106100000Y-202900000D03*
X106100000Y-139015000D03*
X87700000Y-202900000D03*
X115000000Y-139015000D03*
%TO.N,SLOW_MAN_S*%
X110699999Y-163000000D03*
X87700000Y-163000000D03*
X110699999Y-153050000D03*
X130800000Y-144095000D03*
%TO.N,LED_L_SECOND_RETURN*%
X112200000Y-182000000D03*
%TO.N,LED_SINK_L_SECOND*%
X118912000Y-182000000D03*
X118912000Y-198000000D03*
D27*
%TO.N,FIELD_SLOW_AUX6*%
X47700000Y-209340000D03*
X47700000Y-215000000D03*
%TO.N,FIELD_SLOW_AUX7*%
X48750000Y-214090000D03*
X48750000Y-211500000D03*
%TO.N,FIELD_SLOW_AUX8*%
X49800000Y-208000000D03*
X49800000Y-220740000D03*
%TO.N,FIELD_SLOW_AUX9*%
X50850000Y-204500000D03*
X50850000Y-226440000D03*
%TO.N,FIELD_SLOW_AUX10*%
X51900000Y-201000000D03*
X51900000Y-232140000D03*
%TO.N,FIELD_SLOW_AUX11*%
X52950000Y-237840000D03*
X52950000Y-197500000D03*
%TO.N,FIELD_GND*%
X65000000Y-7550000D03*
X8500000Y-7550000D03*
X65000000Y-14100000D03*
X5500000Y-225100000D03*
D25*
%TO.N,SLOW_GS1*%
X106550000Y-117100000D03*
X106550000Y-60400000D03*
X132300000Y-104635000D03*
X87700000Y-60400000D03*
%TO.N,SLOW_TENTH*%
X112100000Y-148700000D03*
X129400000Y-146635000D03*
X87700000Y-151600000D03*
X112100000Y-151600000D03*
D27*
%TO.N,FIELD_SLOW_GP*%
X30900000Y-68000000D03*
X30900000Y-118140000D03*
D25*
%TO.N,I2C_SCL*%
X119800000Y-150850000D03*
X138040000Y-1550000D03*
X110000000Y-83500000D03*
X119800000Y-83500000D03*
X119800000Y-109715000D03*
X138600000Y-226000000D03*
X119800000Y-121500000D03*
X119800000Y-220925000D03*
%TO.N,SLOW_AUX6*%
X87700000Y-208600000D03*
X122900000Y-208600000D03*
X115000000Y-140285000D03*
X122900000Y-140285000D03*
D28*
%TO.N,OUT_M1_B*%
X228000000Y-207600000D03*
X228000000Y-200850000D03*
%TO.N,OUT_M1_A*%
X216000000Y-200112499D03*
X216000000Y-211600000D03*
D27*
%TO.N,FIELD_SLOW_GS6*%
X25650000Y-85500000D03*
X25650000Y-89640000D03*
D25*
%TO.N,SLOW_GS6*%
X103050000Y-88900000D03*
X130100000Y-98285000D03*
X87700000Y-88900000D03*
X103050000Y-114400000D03*
D27*
%TO.N,FIELD_FAST_SA*%
X53900000Y-13000000D03*
X12000000Y-42000000D03*
D25*
%TO.N,NE555_TRIG*%
X144650000Y-76600000D03*
X162200000Y-35000000D03*
X144650000Y-232050000D03*
X147000000Y-49365000D03*
%TO.N,SLOW_AUX10*%
X113900000Y-158200000D03*
X87700000Y-231400000D03*
X125700000Y-231400000D03*
X113900000Y-145365000D03*
X125700000Y-158200000D03*
%TO.N,SLOW_OS*%
X98100000Y-123100000D03*
X87700000Y-123100000D03*
X98100000Y-99555000D03*
X115000000Y-99555000D03*
%TO.N,FAST_SA*%
X99750000Y-29190000D03*
X93500000Y-29190000D03*
X99750000Y-14800000D03*
X87700000Y-14800000D03*
%TO.N,FAST_DIELL_R*%
X92600000Y-54699999D03*
X87700000Y-54699999D03*
X92600000Y-49510000D03*
%TO.N,I2C_SDA*%
X121600000Y-210400000D03*
X121000000Y-122300000D03*
X121900000Y-201600000D03*
X129900000Y-226000000D03*
X121000000Y-81900000D03*
X138040000Y-13500000D03*
X129900000Y-199900000D03*
X121000000Y-152300000D03*
X121000000Y-13500000D03*
X135800000Y-224400000D03*
X121000000Y-224400000D03*
X121000000Y-199900000D03*
X121000000Y-110985000D03*
X102500000Y-81900000D03*
D27*
%TO.N,FIELD_SLOW_GS5*%
X24600000Y-83940000D03*
X24600000Y-89000000D03*
D25*
%TO.N,SLOW_AUX2*%
X107899999Y-185800000D03*
X87700000Y-185800000D03*
X133600000Y-139015000D03*
X107899999Y-136900000D03*
%TO.N,SLOW_GS10*%
X87700000Y-111700000D03*
X96700000Y-111700000D03*
X96700000Y-97015000D03*
X115000000Y-97015000D03*
%TO.N,SLOW_PBC*%
X100250000Y-140200000D03*
X115000000Y-103365000D03*
X87700000Y-140200000D03*
X100250000Y-103365000D03*
%TO.N,MCP_INT_A*%
X145660000Y-14600000D03*
X128500000Y-105905000D03*
X128500000Y-14600000D03*
%TO.N,SLOW_GS2*%
X105850000Y-66100000D03*
X133000000Y-103365000D03*
X105850000Y-118000000D03*
X87700000Y-66100000D03*
%TO.N,SLOW_GS3*%
X133699999Y-102095000D03*
X87700000Y-71800000D03*
X105150000Y-118900000D03*
X105150000Y-71800000D03*
%TO.N,SLOW_GS4*%
X104450000Y-77500000D03*
X104450000Y-119800000D03*
X134400000Y-100825000D03*
X87700000Y-77500000D03*
%TO.N,SLOW_GS5*%
X103750000Y-113500000D03*
X103750000Y-83200000D03*
X87700000Y-83200000D03*
X129400000Y-99555000D03*
%TO.N,SLOW_GS7*%
X102350000Y-94600000D03*
X130800000Y-97015000D03*
X102350000Y-115300000D03*
X87700000Y-94600000D03*
%TO.N,SLOW_GS8*%
X101650000Y-116200000D03*
X101650000Y-100300000D03*
X131500000Y-95745000D03*
X87700000Y-100300000D03*
%TO.N,TAP_ARM_PERMIT*%
X107250000Y-49510000D03*
X114100000Y-60000000D03*
X118600000Y-60000000D03*
%TO.N,DRV_S*%
X144000000Y-112635000D03*
X144000000Y-71912000D03*
D27*
%TO.N,FIELD_SLOW_PBZ*%
X34050000Y-168000000D03*
X34050000Y-135239999D03*
%TO.N,FIELD_SLOW_PBC*%
X35100000Y-138990000D03*
X35100000Y-164500000D03*
%TO.N,FIELD_SLOW_FOUL*%
X36150000Y-145690000D03*
X36150000Y-161000000D03*
%TO.N,FIELD_SLOW_MAN_S*%
X39300000Y-150500000D03*
X39300000Y-163740000D03*
%TO.N,FIELD_SLOW_AUX3*%
X44550000Y-192240000D03*
X44550000Y-133000000D03*
D25*
%TO.N,TAP_RP2040_OK*%
X105600000Y-46970000D03*
X114100000Y-64000000D03*
X118600000Y-64000000D03*
D28*
%TO.N,OUT_M_A*%
X216000000Y-156112499D03*
X216000000Y-167600000D03*
D25*
%TO.N,WDOG_OK_PULLDOWN*%
X163600000Y-233750000D03*
X163600000Y-58000000D03*
X162000000Y-96950000D03*
%TO.N,DRV_M*%
X145500000Y-107555000D03*
X145500000Y-153912000D03*
D27*
%TO.N,FIELD_FAST_TA2*%
X16200000Y-37390000D03*
X16200000Y-28000000D03*
D25*
%TO.N,FAST_TA2*%
X93500000Y-41890000D03*
X94700000Y-41890000D03*
X87700000Y-37599999D03*
X94700000Y-37599999D03*
%TO.N,SLOW_AUX8*%
X124300000Y-142825000D03*
X87700000Y-220000000D03*
X124300000Y-220000000D03*
X115000000Y-142825000D03*
D26*
%TO.N,COIL_LO_M*%
X166800000Y-166000000D03*
X166800000Y-155000000D03*
%TO.N,COIL_LO_M2*%
X166800000Y-177000000D03*
X166800000Y-188000000D03*
D25*
%TO.N,LED_L_FIRST_RETURN*%
X100700000Y-182000000D03*
%TO.N,LED_SINK_L_FIRST*%
X105000000Y-198000000D03*
X105000000Y-182000000D03*
%TO.N,SLOW_AUX7*%
X123600000Y-214300000D03*
X123600000Y-141555000D03*
X87700000Y-214300000D03*
X115000000Y-141555000D03*
%TO.N,SLOW_AUX9*%
X125000000Y-144095000D03*
X125000000Y-225700000D03*
X87700000Y-225700000D03*
X115000000Y-144095000D03*
%TO.N,MCP_INT_B*%
X127300000Y-5600000D03*
X127300000Y-147905000D03*
X145660000Y-3000000D03*
%TO.N,J16_SCL*%
X127150000Y-220275000D03*
X137900000Y-220275000D03*
%TO.N,NE555_OUT*%
X156000000Y-53000000D03*
X146300000Y-50635000D03*
X163000000Y-47912500D03*
X156000000Y-232850000D03*
X144500000Y-33000000D03*
D27*
%TO.N,FIELD_SLOW_GS2*%
X21450000Y-66840000D03*
X21450000Y-99500000D03*
%TO.N,FIELD_SLOW_GS3*%
X22500000Y-72540000D03*
X22500000Y-96000000D03*
%TO.N,FIELD_SLOW_GS4*%
X23550000Y-77289999D03*
X23550000Y-92500000D03*
%TO.N,FIELD_SLOW_GS9*%
X28800000Y-106740000D03*
X28800000Y-75000000D03*
%TO.N,FIELD_SLOW_GS10*%
X29850000Y-112440000D03*
X29850000Y-71500000D03*
%TO.N,FIELD_SLOW_OS*%
X31950000Y-123840000D03*
X31950000Y-64500000D03*
D25*
%TO.N,ARM_PERMIT*%
X143120000Y-4600000D03*
X132500000Y-74000000D03*
X132900000Y-90912000D03*
X139500000Y-234600000D03*
D26*
%TO.N,SAFE_STOP_RETURN*%
X153400000Y-235750000D03*
X153400000Y-83100000D03*
X177500000Y-13000000D03*
X176500000Y-13000000D03*
X150500000Y-82923000D03*
D25*
%TO.N,WDOG_OK_GATE*%
X164800000Y-57050000D03*
X164800000Y-70912500D03*
X164800000Y-46087500D03*
%TO.N,TAP_NE555_OUT*%
X118600000Y-52000000D03*
X114100000Y-52000000D03*
X110500000Y-57130000D03*
D27*
%TO.N,FIELD_FAST_SB*%
X20400000Y-38500000D03*
X20400000Y-21240000D03*
D25*
%TO.N,TAP_GATE_ARM*%
X126600000Y-68300000D03*
X126600000Y-61750000D03*
%TO.N,DRV_M2*%
X149200000Y-175912000D03*
X149200000Y-106285000D03*
D26*
%TO.N,COIL_LO_M1*%
X166800000Y-210000000D03*
X166800000Y-199000000D03*
D25*
%TO.N,FAST_DIELL_L*%
X93300000Y-46970000D03*
X93300000Y-47800000D03*
X87700000Y-49000000D03*
%TO.N,J16_5V*%
X137200000Y-215400000D03*
X129150000Y-215400000D03*
X123300000Y-222600000D03*
X123300000Y-215400000D03*
%TO.N,PI_UART_RX*%
X140580000Y-3900000D03*
X87900000Y-3900000D03*
%TO.N,PI_UART_TX*%
X86900000Y-11410000D03*
X139300000Y-2600000D03*
%TO.N,REV_ID0*%
X116600000Y-66900000D03*
X111950000Y-43350000D03*
X116600000Y-41600000D03*
%TO.N,REV_ID1*%
X111900000Y-40800000D03*
X117350000Y-70400000D03*
X117350000Y-41150000D03*
%TO.N,TAP_GATE_555*%
X150200000Y-53750000D03*
X150200000Y-31000000D03*
X125200000Y-53750000D03*
%TO.N,DRV_L_SECOND*%
X136300000Y-102900000D03*
X136300000Y-185250000D03*
%TO.N,DRV_L_STRIKE*%
X137000000Y-105650000D03*
X137000000Y-185950000D03*
%TO.N,DRV_L_FOUL*%
X137700000Y-186650000D03*
X137700000Y-106920000D03*
%TO.N,DRV_M1*%
X150200000Y-197912000D03*
X150200000Y-105015000D03*
%TO.N,DRV_L_FIRST*%
X135600000Y-101600000D03*
X135600000Y-184550000D03*
D27*
%TO.N,FIELD_FAST_DIELL_L*%
X18300000Y-21000000D03*
X18300000Y-49740000D03*
D28*
%TO.N,OUT_M_B*%
X228000000Y-163600000D03*
X228000000Y-156850000D03*
D25*
%TO.N,LED_L_STRIKE_RETURN*%
X129600000Y-180200000D03*
D27*
%TO.N,FIELD_FAST_DIELL_R*%
X19350000Y-17500000D03*
X19350000Y-55440000D03*
D25*
%TO.N,LED_SINK_L_STRIKE*%
X130912000Y-182000000D03*
X130912000Y-198000000D03*
%TD*%
%TO.N,SLOW_PBZ*%
D29*
X99450000Y-134500000D02*
X99450000Y-102095000D01*
%TO.N,RP2040_OK*%
X168400000Y-90912000D02*
X170000000Y-90912000D01*
X88900000Y-16489999D02*
X88900000Y-80000000D01*
X168400000Y-15000000D02*
X168400000Y-234600000D01*
%TO.N,OUT_S_B*%
D30*
X228000000Y-70702702D02*
X242000000Y-68000000D01*
X190200000Y-78000000D02*
X228000000Y-70702702D01*
X228000000Y-75600000D02*
X228000000Y-70702702D01*
X228000000Y-68850000D02*
X228000000Y-70702702D01*
%TO.N,VCC_3V3*%
X113100000Y-12300000D02*
X113100000Y-201200000D01*
X112750000Y-201900000D02*
X112750000Y-210300000D01*
X113100000Y-201200000D02*
X112750000Y-201900000D01*
X112750000Y-210300000D02*
X113100000Y-211000000D01*
X115900000Y-105905000D02*
X113100000Y-105905000D01*
X111000000Y-130000000D02*
X113100000Y-130000000D01*
X113100000Y-211000000D02*
X113100000Y-224100000D01*
%TO.N,SLOW_FOUL*%
D29*
X100950000Y-145900000D02*
X100950000Y-104635000D01*
%TO.N,SLOW_MAN_T*%
X111399999Y-157300000D02*
X111399999Y-149600000D01*
%TO.N,OUT_BE_B*%
D30*
X190200000Y-144000000D02*
X228000000Y-136702702D01*
X228000000Y-136702702D02*
X242000000Y-134000000D01*
X228000000Y-134850000D02*
X228000000Y-136702702D01*
X228000000Y-141600000D02*
X228000000Y-136702702D01*
%TO.N,FAST_TB*%
D29*
X94000000Y-43300000D02*
X94000000Y-44430000D01*
%TO.N,FAST_SC*%
X96100000Y-26200000D02*
X96100000Y-34270000D01*
%TO.N,FAST_TA1*%
X95400000Y-33000000D02*
X95400000Y-36810000D01*
%TO.N,SLOW_AUX11*%
X126400000Y-237100000D02*
X126400000Y-158900000D01*
X114700000Y-158900000D02*
X114700000Y-146635000D01*
%TO.N,WDOG_KICK*%
X143120000Y-13200000D02*
X143120000Y-49300000D01*
%TO.N,TAP_GATE_KICK*%
X125900000Y-57750000D02*
X125900000Y-46500000D01*
%TO.N,SLOW_AUX4*%
X146900000Y-194600000D02*
X146900000Y-134900000D01*
%TO.N,SLOW_GS9*%
X96000000Y-106000000D02*
X96000000Y-95745000D01*
%TO.N,OUT_SP_B*%
D30*
X228000000Y-114702702D02*
X242000000Y-112000000D01*
X228000000Y-112850000D02*
X228000000Y-114702702D01*
X190200000Y-122000000D02*
X228000000Y-114702702D01*
X228000000Y-119600000D02*
X228000000Y-114702702D01*
%TO.N,SLOW_MAN_SWSR*%
D29*
X109300000Y-174400000D02*
X109300000Y-154850000D01*
%TO.N,SLOW_BS*%
X98800000Y-128800000D02*
X98800000Y-101460000D01*
%TO.N,SLOW_AUX3*%
X107200000Y-193200000D02*
X107199999Y-136000000D01*
%TO.N,OUT_T_B*%
D30*
X228000000Y-92702702D02*
X242000000Y-90000000D01*
X228000000Y-97600000D02*
X228000000Y-92702702D01*
X190200000Y-100000000D02*
X228000000Y-92702702D01*
X228000000Y-90850000D02*
X228000000Y-92702702D01*
%TO.N,DRV_T*%
D29*
X147000000Y-111365000D02*
X147000000Y-93912000D01*
%TO.N,SLOW_MAN_SWS*%
X110000000Y-168700000D02*
X110000000Y-153950000D01*
%TO.N,DRV_BE*%
X148200000Y-108825000D02*
X148200000Y-131912000D01*
%TO.N,SLOW_AUX1*%
X108600000Y-180100000D02*
X108600000Y-155750000D01*
%TO.N,WDOG_KICK_DRAIN*%
X149000000Y-35000000D02*
X144800000Y-35000000D01*
X144800000Y-35000000D02*
X144800000Y-58000000D01*
%TO.N,WDOG_TIMING_NODE*%
X154800000Y-50000000D02*
X154800000Y-230400000D01*
%TO.N,FAST_SB*%
X99050000Y-20500000D02*
X99050000Y-31730000D01*
%TO.N,OUT_M2_B*%
D30*
X228000000Y-180702702D02*
X242000000Y-178000000D01*
X228000000Y-178850000D02*
X228000000Y-180702702D01*
X228000000Y-185600000D02*
X228000000Y-180702702D01*
X190200000Y-188000000D02*
X228000000Y-180702702D01*
%TO.N,SLOW_GP*%
D29*
X97400000Y-117400000D02*
X97400000Y-98285000D01*
%TO.N,SLOW_AUX5*%
X106100000Y-202900000D02*
X106100000Y-139015000D01*
%TO.N,SLOW_MAN_S*%
X110699999Y-163000000D02*
X110699999Y-153050000D01*
%TO.N,SLOW_GS1*%
X106550000Y-60400000D02*
X106550000Y-117100000D01*
%TO.N,SLOW_TENTH*%
X112100000Y-151600000D02*
X112100000Y-148700000D01*
%TO.N,I2C_SCL*%
X119800000Y-14400000D02*
X119800000Y-218200000D01*
X138040000Y-1550000D02*
X118540000Y-1550000D01*
X119800000Y-218200000D02*
X119800000Y-220925000D01*
X118540000Y-13200000D02*
X119800000Y-14400000D01*
X118540000Y-1550000D02*
X118540000Y-13200000D01*
%TO.N,SLOW_AUX6*%
X122900000Y-208600000D02*
X122900000Y-140285000D01*
%TO.N,OUT_M1_B*%
D30*
X190200000Y-210000000D02*
X228000000Y-202702702D01*
X228000000Y-200850000D02*
X228000000Y-202702702D01*
X228000000Y-207600000D02*
X228000000Y-202702702D01*
X228000000Y-202702702D02*
X242000000Y-200000000D01*
%TO.N,SLOW_GS6*%
D29*
X103050000Y-88900000D02*
X103050000Y-114400000D01*
%TO.N,NE555_TRIG*%
X147000000Y-49365000D02*
X147000000Y-75400000D01*
X143750000Y-200500000D02*
X143750000Y-209500000D01*
X143750000Y-209500000D02*
X144650000Y-210500000D01*
X144650000Y-199500000D02*
X143750000Y-200500000D01*
X147000000Y-75400000D02*
X144650000Y-76600000D01*
X144650000Y-210500000D02*
X144650000Y-232050000D01*
X144650000Y-76600000D02*
X144650000Y-199500000D01*
%TO.N,SLOW_AUX10*%
X113900000Y-158200000D02*
X113900000Y-145365000D01*
X125700000Y-231400000D02*
X125700000Y-158200000D01*
%TO.N,SLOW_OS*%
X98100000Y-123100000D02*
X98100000Y-99555000D01*
%TO.N,FAST_SA*%
X99750000Y-14800000D02*
X99750000Y-29190000D01*
%TO.N,FAST_DIELL_R*%
X92600000Y-54699999D02*
X92600000Y-49510000D01*
%TO.N,I2C_SDA*%
X121000000Y-13500000D02*
X121000000Y-197300000D01*
X129900000Y-199900000D02*
X129900000Y-226000000D01*
X121600000Y-210400000D02*
X121000000Y-211000000D01*
X121000000Y-197300000D02*
X121000000Y-200800000D01*
X121000000Y-200800000D02*
X121900000Y-201600000D01*
X121000000Y-211000000D02*
X121000000Y-224400000D01*
%TO.N,SLOW_AUX2*%
X107899999Y-185800000D02*
X107899999Y-136900000D01*
%TO.N,SLOW_GS10*%
X96700000Y-111700000D02*
X96700000Y-97015000D01*
%TO.N,SLOW_PBC*%
X100250000Y-140200000D02*
X100250000Y-103365000D01*
%TO.N,MCP_INT_A*%
X128500000Y-14600000D02*
X128500000Y-105905000D01*
%TO.N,SLOW_GS2*%
X105850000Y-66100000D02*
X105850000Y-118000000D01*
%TO.N,SLOW_GS3*%
X105150000Y-71800000D02*
X105150000Y-118900000D01*
%TO.N,SLOW_GS4*%
X104450000Y-77500000D02*
X104450000Y-119800000D01*
%TO.N,SLOW_GS5*%
X103750000Y-83200000D02*
X103750000Y-113500000D01*
%TO.N,SLOW_GS7*%
X102350000Y-94600000D02*
X102350000Y-115300000D01*
%TO.N,SLOW_GS8*%
X101650000Y-100300000D02*
X101650000Y-116200000D01*
%TO.N,DRV_S*%
X144000000Y-112635000D02*
X144000000Y-71912000D01*
%TO.N,WDOG_OK_PULLDOWN*%
X163600000Y-58000000D02*
X163600000Y-96950000D01*
X163600000Y-96950000D02*
X162000000Y-96950000D01*
X163600000Y-96950000D02*
X163600000Y-233750000D01*
%TO.N,DRV_M*%
X145500000Y-107555000D02*
X145500000Y-153912000D01*
%TO.N,FAST_TA2*%
X94700000Y-37599999D02*
X94700000Y-41890000D01*
%TO.N,SLOW_AUX8*%
X124300000Y-220000000D02*
X124300000Y-142825000D01*
%TO.N,SLOW_AUX7*%
X123600000Y-214300000D02*
X123600000Y-141555000D01*
%TO.N,SLOW_AUX9*%
X125000000Y-225700000D02*
X125000000Y-144095000D01*
%TO.N,MCP_INT_B*%
X127300000Y-7200000D02*
X128050000Y-8000000D01*
X127300000Y-12800000D02*
X127300000Y-147905000D01*
X128050000Y-8000000D02*
X128050000Y-12000000D01*
X128050000Y-12000000D02*
X127300000Y-12800000D01*
X127300000Y-5600000D02*
X127300000Y-7200000D01*
%TO.N,J16_SCL*%
X137900000Y-220275000D02*
X137900000Y-207000000D01*
X137900000Y-207000000D02*
X138500000Y-206000000D01*
%TO.N,ARM_PERMIT*%
X139500000Y-201000000D02*
X140250000Y-201900000D01*
X133900000Y-90912000D02*
X133900000Y-96500000D01*
X139500000Y-101500000D02*
X139500000Y-201000000D01*
X140250000Y-209500000D02*
X139500000Y-210400000D01*
X132500000Y-74000000D02*
X133900000Y-74000000D01*
X133900000Y-4600000D02*
X133900000Y-90912000D01*
X139500000Y-210400000D02*
X139500000Y-234600000D01*
X133900000Y-96500000D02*
X139500000Y-101500000D01*
X133900000Y-90912000D02*
X132900000Y-90912000D01*
X143120000Y-4600000D02*
X133900000Y-4600000D01*
X140250000Y-201900000D02*
X140250000Y-209500000D01*
%TO.N,TAP_GATE_ARM*%
X126600000Y-61750000D02*
X126600000Y-68300000D01*
%TO.N,DRV_M2*%
X149200000Y-106285000D02*
X149200000Y-175912000D01*
%TO.N,FAST_DIELL_L*%
X93300000Y-47800000D02*
X93300000Y-46970000D01*
%TO.N,J16_5V*%
X123300000Y-222600000D02*
X123300000Y-215400000D01*
%TO.N,REV_ID0*%
X116600000Y-66900000D02*
X116600000Y-41600000D01*
%TO.N,REV_ID1*%
X117350000Y-70400000D02*
X117350000Y-41150000D01*
%TO.N,TAP_GATE_555*%
X150200000Y-53750000D02*
X150200000Y-31000000D01*
%TO.N,DRV_L_SECOND*%
X136300000Y-102900000D02*
X136300000Y-185250000D01*
%TO.N,DRV_L_STRIKE*%
X137000000Y-105650000D02*
X137000000Y-185950000D01*
%TO.N,DRV_L_FOUL*%
X137700000Y-106920000D02*
X137700000Y-186650000D01*
%TO.N,DRV_M1*%
X150200000Y-105015000D02*
X150200000Y-197912000D01*
%TO.N,DRV_L_FIRST*%
X135600000Y-101600000D02*
X135600000Y-184550000D01*
%TO.N,OUT_M_B*%
D30*
X190200000Y-166000000D02*
X228000000Y-158702702D01*
X228000000Y-163600000D02*
X228000000Y-158702702D01*
X228000000Y-156850000D02*
X228000000Y-158702702D01*
X228000000Y-158702702D02*
X242000000Y-156000000D01*
%TD*%
M02*
