%TF.GenerationSoftware,KiCad,Pcbnew,10.0.2*%
%TF.CreationDate,2026-07-23T14:05:44-07:00*%
%TF.ProjectId,wsl-phase8b-revD,77736c2d-7068-4617-9365-38622d726576,D*%
%TF.SameCoordinates,Original*%
%TF.FileFunction,Paste,Top*%
%TF.FilePolarity,Positive*%
%FSLAX46Y46*%
G04 Gerber Fmt 4.6, Leading zero omitted, Abs format (unit mm)*
G04 Created by KiCad (PCBNEW 10.0.2) date 2026-07-23 14:05:44*
%MOMM*%
%LPD*%
G01*
G04 APERTURE LIST*
G04 Aperture macros list*
%AMRoundRect*
0 Rectangle with rounded corners*
0 $1 Rounding radius*
0 $2 $3 $4 $5 $6 $7 $8 $9 X,Y pos of 4 corners*
0 Add a 4 corners polygon primitive as box body*
4,1,4,$2,$3,$4,$5,$6,$7,$8,$9,$2,$3,0*
0 Add four circle primitives for the rounded corners*
1,1,$1+$1,$2,$3*
1,1,$1+$1,$4,$5*
1,1,$1+$1,$6,$7*
1,1,$1+$1,$8,$9*
0 Add four rect primitives between the rounded corners*
20,1,$1+$1,$2,$3,$4,$5,0*
20,1,$1+$1,$4,$5,$6,$7,0*
20,1,$1+$1,$6,$7,$8,$9,0*
20,1,$1+$1,$8,$9,$2,$3,0*%
G04 Aperture macros list end*
%ADD10RoundRect,0.250000X-0.262500X-0.450000X0.262500X-0.450000X0.262500X0.450000X-0.262500X0.450000X0*%
%ADD11RoundRect,0.250000X0.650000X-1.000000X0.650000X1.000000X-0.650000X1.000000X-0.650000X-1.000000X0*%
%ADD12RoundRect,0.250000X0.450000X-0.262500X0.450000X0.262500X-0.450000X0.262500X-0.450000X-0.262500X0*%
%ADD13RoundRect,0.150000X-0.587500X-0.150000X0.587500X-0.150000X0.587500X0.150000X-0.587500X0.150000X0*%
%ADD14RoundRect,0.250000X0.475000X-0.250000X0.475000X0.250000X-0.475000X0.250000X-0.475000X-0.250000X0*%
%ADD15RoundRect,0.250000X-0.250000X-0.475000X0.250000X-0.475000X0.250000X0.475000X-0.250000X0.475000X0*%
%ADD16RoundRect,0.250000X-1.000000X-0.650000X1.000000X-0.650000X1.000000X0.650000X-1.000000X0.650000X0*%
%ADD17RoundRect,0.150000X-0.875000X-0.150000X0.875000X-0.150000X0.875000X0.150000X-0.875000X0.150000X0*%
%ADD18RoundRect,0.150000X-0.825000X-0.150000X0.825000X-0.150000X0.825000X0.150000X-0.825000X0.150000X0*%
%ADD19RoundRect,0.250000X0.262500X0.450000X-0.262500X0.450000X-0.262500X-0.450000X0.262500X-0.450000X0*%
%ADD20RoundRect,0.150000X0.587500X0.150000X-0.587500X0.150000X-0.587500X-0.150000X0.587500X-0.150000X0*%
%ADD21RoundRect,0.125000X-0.687500X-0.125000X0.687500X-0.125000X0.687500X0.125000X-0.687500X0.125000X0*%
%ADD22RoundRect,0.112500X-0.187500X-0.112500X0.187500X-0.112500X0.187500X0.112500X-0.187500X0.112500X0*%
%ADD23RoundRect,0.250000X-0.625000X0.375000X-0.625000X-0.375000X0.625000X-0.375000X0.625000X0.375000X0*%
%ADD24RoundRect,0.150000X0.512500X0.150000X-0.512500X0.150000X-0.512500X-0.150000X0.512500X-0.150000X0*%
%ADD25R,3.800000X2.200000*%
%ADD26O,1.100000X1.800000*%
%ADD27R,2.200000X3.800000*%
%ADD28O,1.050000X1.450000*%
%ADD29RoundRect,0.300000X-0.450000X-0.450000X0.450000X-0.450000X0.450000X0.450000X-0.450000X0.450000X0*%
%ADD30RoundRect,0.250000X0.550000X-1.500000X0.550000X1.500000X-0.550000X1.500000X-0.550000X-1.500000X0*%
G04 APERTURE END LIST*
D10*
%TO.C,R80*%
X85087500Y-231400000D03*
X86912500Y-231400000D03*
%TD*%
%TO.C,R39*%
X57087500Y-113800000D03*
X58912500Y-113800000D03*
%TD*%
D11*
%TO.C,D6*%
X222000000Y-126000000D03*
X222000000Y-122000000D03*
%TD*%
D12*
%TO.C,R94*%
X222000000Y-131912500D03*
X222000000Y-130087500D03*
%TD*%
%TO.C,R105*%
X107000000Y-190912500D03*
X107000000Y-189087500D03*
%TD*%
D13*
%TO.C,Q15*%
X142062500Y-91050000D03*
X142062500Y-92950000D03*
X143937500Y-92000000D03*
%TD*%
D10*
%TO.C,R62*%
X85087500Y-180100000D03*
X86912500Y-180100000D03*
%TD*%
%TO.C,R34*%
X85087500Y-100300000D03*
X86912500Y-100300000D03*
%TD*%
%TO.C,R76*%
X85087500Y-220000000D03*
X86912500Y-220000000D03*
%TD*%
%TO.C,R16*%
X85087500Y-49000000D03*
X86912500Y-49000000D03*
%TD*%
D13*
%TO.C,Q5*%
X159062500Y-154050000D03*
X159062500Y-155950000D03*
X160937500Y-155000000D03*
%TD*%
D10*
%TO.C,R13*%
X57087500Y-39700000D03*
X58912500Y-39700000D03*
%TD*%
%TO.C,R56*%
X85087500Y-163000000D03*
X86912500Y-163000000D03*
%TD*%
%TO.C,R32*%
X85087500Y-94600000D03*
X86912500Y-94600000D03*
%TD*%
D14*
%TO.C,C16*%
X133400000Y-217350000D03*
X133400000Y-215450000D03*
%TD*%
D10*
%TO.C,R3*%
X57087500Y-11200000D03*
X58912500Y-11200000D03*
%TD*%
%TO.C,R30*%
X85087500Y-88900000D03*
X86912500Y-88900000D03*
%TD*%
%TO.C,R71*%
X57087500Y-205000000D03*
X58912500Y-205000000D03*
%TD*%
D12*
%TO.C,R114*%
X143000000Y-190912500D03*
X143000000Y-189087500D03*
%TD*%
D10*
%TO.C,R24*%
X85087500Y-71800000D03*
X86912500Y-71800000D03*
%TD*%
%TO.C,R74*%
X85087500Y-214300000D03*
X86912500Y-214300000D03*
%TD*%
D14*
%TO.C,C4*%
X230000000Y-72950000D03*
X230000000Y-71050000D03*
%TD*%
D13*
%TO.C,Q3*%
X159062500Y-110050000D03*
X159062500Y-111950000D03*
X160937500Y-111000000D03*
%TD*%
%TO.C,Q6*%
X159062500Y-176050000D03*
X159062500Y-177950000D03*
X160937500Y-177000000D03*
%TD*%
D12*
%TO.C,R136*%
X130000000Y-70912500D03*
X130000000Y-69087500D03*
%TD*%
D10*
%TO.C,R21*%
X57087500Y-62500000D03*
X58912500Y-62500000D03*
%TD*%
%TO.C,R41*%
X57087500Y-119500000D03*
X58912500Y-119500000D03*
%TD*%
D12*
%TO.C,R120*%
X162000000Y-47912500D03*
X162000000Y-46087500D03*
%TD*%
D11*
%TO.C,D4*%
X222000000Y-104000000D03*
X222000000Y-100000000D03*
%TD*%
D10*
%TO.C,R42*%
X85087500Y-123100000D03*
X86912500Y-123100000D03*
%TD*%
D15*
%TO.C,C3*%
X139050000Y-96000000D03*
X140950000Y-96000000D03*
%TD*%
D13*
%TO.C,Q11*%
X139062500Y-197050000D03*
X139062500Y-198950000D03*
X140937500Y-198000000D03*
%TD*%
D16*
%TO.C,D17*%
X120000000Y-20000000D03*
X124000000Y-20000000D03*
%TD*%
D10*
%TO.C,R131*%
X145087500Y-33000000D03*
X146912500Y-33000000D03*
%TD*%
D12*
%TO.C,R130*%
X114000000Y-47912500D03*
X114000000Y-46087500D03*
%TD*%
D17*
%TO.C,U2*%
X117350000Y-137745000D03*
X117350000Y-139015000D03*
X117350000Y-140285000D03*
X117350000Y-141555000D03*
X117350000Y-142825000D03*
X117350000Y-144095000D03*
X117350000Y-145365000D03*
X117350000Y-146635000D03*
X117350000Y-147905000D03*
X117350000Y-149175000D03*
X117350000Y-150445000D03*
X117350000Y-151715000D03*
X117350000Y-152985000D03*
X117350000Y-154255000D03*
X126650000Y-154255000D03*
X126650000Y-152985000D03*
X126650000Y-151715000D03*
X126650000Y-150445000D03*
X126650000Y-149175000D03*
X126650000Y-147905000D03*
X126650000Y-146635000D03*
X126650000Y-145365000D03*
X126650000Y-144095000D03*
X126650000Y-142825000D03*
X126650000Y-141555000D03*
X126650000Y-140285000D03*
X126650000Y-139015000D03*
X126650000Y-137745000D03*
%TD*%
D13*
%TO.C,Q16*%
X159062500Y-95050000D03*
X159062500Y-96950000D03*
X160937500Y-96000000D03*
%TD*%
D10*
%TO.C,R78*%
X85087500Y-225700000D03*
X86912500Y-225700000D03*
%TD*%
%TO.C,R49*%
X57087500Y-142299999D03*
X58912500Y-142299999D03*
%TD*%
%TO.C,R8*%
X85087500Y-26200000D03*
X86912500Y-26200000D03*
%TD*%
D12*
%TO.C,R133*%
X136000000Y-47912500D03*
X136000000Y-46087500D03*
%TD*%
D11*
%TO.C,D10*%
X222000000Y-170000000D03*
X222000000Y-166000000D03*
%TD*%
D14*
%TO.C,C5*%
X230000000Y-94950000D03*
X230000000Y-93050000D03*
%TD*%
D10*
%TO.C,R52*%
X85087500Y-151600000D03*
X86912500Y-151600000D03*
%TD*%
%TO.C,R10*%
X85087500Y-31900000D03*
X86912500Y-31900000D03*
%TD*%
%TO.C,R64*%
X85087500Y-185800000D03*
X86912500Y-185800000D03*
%TD*%
D12*
%TO.C,R86*%
X150000000Y-87912500D03*
X150000000Y-86087500D03*
%TD*%
D14*
%TO.C,C13*%
X166000000Y-42950000D03*
X166000000Y-41050000D03*
%TD*%
D18*
%TO.C,U44*%
X148525000Y-48095000D03*
X148525000Y-49365000D03*
X148525000Y-50635000D03*
X148525000Y-51905000D03*
X153475000Y-51905000D03*
X153475000Y-50635000D03*
X153475000Y-49365000D03*
X153475000Y-48095000D03*
%TD*%
D12*
%TO.C,R90*%
X150000000Y-115912500D03*
X150000000Y-114087500D03*
%TD*%
D13*
%TO.C,Q9*%
X115062500Y-197050000D03*
X115062500Y-198950000D03*
X116937500Y-198000000D03*
%TD*%
D12*
%TO.C,R99*%
X150000000Y-181912500D03*
X150000000Y-180087500D03*
%TD*%
%TO.C,R121*%
X162000000Y-70912500D03*
X162000000Y-69087500D03*
%TD*%
D19*
%TO.C,R134*%
X121412500Y-56000000D03*
X119587500Y-56000000D03*
%TD*%
%TO.C,R144*%
X118912500Y-68000000D03*
X117087500Y-68000000D03*
%TD*%
D12*
%TO.C,R128*%
X170000000Y-98912500D03*
X170000000Y-97087500D03*
%TD*%
%TO.C,R89*%
X150000000Y-109912500D03*
X150000000Y-108087500D03*
%TD*%
D10*
%TO.C,R33*%
X57087500Y-96700000D03*
X58912500Y-96700000D03*
%TD*%
D15*
%TO.C,C2*%
X112050000Y-130000000D03*
X113950000Y-130000000D03*
%TD*%
D20*
%TO.C,Q20*%
X116937500Y-64950000D03*
X116937500Y-63050000D03*
X115062500Y-64000000D03*
%TD*%
D10*
%TO.C,R109*%
X115087500Y-182000000D03*
X116912500Y-182000000D03*
%TD*%
D12*
%TO.C,R127*%
X170000000Y-90912500D03*
X170000000Y-89087500D03*
%TD*%
%TO.C,R124*%
X148000000Y-82912500D03*
X148000000Y-81087500D03*
%TD*%
D21*
%TO.C,U46*%
X128787500Y-219625000D03*
X128787500Y-220275000D03*
X128787500Y-220925000D03*
X128787500Y-221575000D03*
X133012500Y-221575000D03*
X133012500Y-220925000D03*
X133012500Y-220275000D03*
X133012500Y-219625000D03*
%TD*%
D22*
%TO.C,D13*%
X162950000Y-210000000D03*
X165050000Y-210000000D03*
%TD*%
D10*
%TO.C,R20*%
X85087500Y-60400000D03*
X86912500Y-60400000D03*
%TD*%
%TO.C,R9*%
X57087500Y-28300000D03*
X58912500Y-28300000D03*
%TD*%
D12*
%TO.C,R117*%
X145000000Y-78912500D03*
X145000000Y-77087500D03*
%TD*%
D10*
%TO.C,R55*%
X57087500Y-159400000D03*
X58912500Y-159400000D03*
%TD*%
D19*
%TO.C,R137*%
X121412500Y-60000000D03*
X119587500Y-60000000D03*
%TD*%
D13*
%TO.C,Q10*%
X127062500Y-197050000D03*
X127062500Y-198950000D03*
X128937500Y-198000000D03*
%TD*%
D10*
%TO.C,R37*%
X57087500Y-108100000D03*
X58912500Y-108100000D03*
%TD*%
D13*
%TO.C,Q8*%
X103062500Y-197050000D03*
X103062500Y-198950000D03*
X104937500Y-198000000D03*
%TD*%
D22*
%TO.C,D3*%
X162950000Y-100000000D03*
X165050000Y-100000000D03*
%TD*%
D12*
%TO.C,R92*%
X150000000Y-131912500D03*
X150000000Y-130087500D03*
%TD*%
%TO.C,R93*%
X150000000Y-137912500D03*
X150000000Y-136087500D03*
%TD*%
D10*
%TO.C,R40*%
X85087500Y-117400000D03*
X86912500Y-117400000D03*
%TD*%
D12*
%TO.C,R2*%
X110000000Y-86912500D03*
X110000000Y-85087500D03*
%TD*%
D22*
%TO.C,D9*%
X162950000Y-166000000D03*
X165050000Y-166000000D03*
%TD*%
D10*
%TO.C,R51*%
X57087500Y-148000000D03*
X58912500Y-148000000D03*
%TD*%
%TO.C,R79*%
X57087500Y-227799999D03*
X58912500Y-227799999D03*
%TD*%
%TO.C,R31*%
X57087500Y-91000000D03*
X58912500Y-91000000D03*
%TD*%
D13*
%TO.C,Q12*%
X141062500Y-57050000D03*
X141062500Y-58950000D03*
X142937500Y-58000000D03*
%TD*%
D10*
%TO.C,R29*%
X57087500Y-85300000D03*
X58912500Y-85300000D03*
%TD*%
%TO.C,R7*%
X57087500Y-22599999D03*
X58912500Y-22599999D03*
%TD*%
D12*
%TO.C,R98*%
X150000000Y-175912500D03*
X150000000Y-174087500D03*
%TD*%
D10*
%TO.C,R6*%
X85087500Y-20500000D03*
X86912500Y-20500000D03*
%TD*%
D20*
%TO.C,Q19*%
X116937500Y-60950000D03*
X116937500Y-59050000D03*
X115062500Y-60000000D03*
%TD*%
D12*
%TO.C,R122*%
X63000000Y-16912500D03*
X63000000Y-15087500D03*
%TD*%
D22*
%TO.C,D16*%
X157950000Y-35000000D03*
X160050000Y-35000000D03*
%TD*%
D10*
%TO.C,R65*%
X57087500Y-187900000D03*
X58912500Y-187900000D03*
%TD*%
%TO.C,R138*%
X124087500Y-60000000D03*
X125912500Y-60000000D03*
%TD*%
D19*
%TO.C,R140*%
X121412500Y-64000000D03*
X119587500Y-64000000D03*
%TD*%
D20*
%TO.C,Q17*%
X116937500Y-52950000D03*
X116937500Y-51050000D03*
X115062500Y-52000000D03*
%TD*%
D10*
%TO.C,R50*%
X85087500Y-145900000D03*
X86912500Y-145900000D03*
%TD*%
D12*
%TO.C,R104*%
X101000000Y-190912500D03*
X101000000Y-189087500D03*
%TD*%
D10*
%TO.C,R139*%
X155087500Y-64000000D03*
X156912500Y-64000000D03*
%TD*%
D12*
%TO.C,R95*%
X150000000Y-153912500D03*
X150000000Y-152087500D03*
%TD*%
D19*
%TO.C,R145*%
X118912500Y-71000000D03*
X117087500Y-71000000D03*
%TD*%
D20*
%TO.C,Q18*%
X116937500Y-56950000D03*
X116937500Y-55050000D03*
X115062500Y-56000000D03*
%TD*%
D12*
%TO.C,R108*%
X119000000Y-190912500D03*
X119000000Y-189087500D03*
%TD*%
%TO.C,R125*%
X133000000Y-90912500D03*
X133000000Y-89087500D03*
%TD*%
D10*
%TO.C,R61*%
X57087500Y-176500000D03*
X58912500Y-176500000D03*
%TD*%
%TO.C,R14*%
X85087500Y-43300000D03*
X86912500Y-43300000D03*
%TD*%
D22*
%TO.C,D7*%
X162950000Y-144000000D03*
X165050000Y-144000000D03*
%TD*%
D10*
%TO.C,R19*%
X57087500Y-56800000D03*
X58912500Y-56800000D03*
%TD*%
%TO.C,R47*%
X57087500Y-136600000D03*
X58912500Y-136600000D03*
%TD*%
%TO.C,R18*%
X85087500Y-54699999D03*
X86912500Y-54699999D03*
%TD*%
D23*
%TO.C,F1*%
X122600000Y-219100000D03*
X122600000Y-221900000D03*
%TD*%
D10*
%TO.C,R48*%
X85087500Y-140200000D03*
X86912500Y-140200000D03*
%TD*%
D11*
%TO.C,D2*%
X222000000Y-82000000D03*
X222000000Y-78000000D03*
%TD*%
D10*
%TO.C,R69*%
X57087500Y-199299999D03*
X58912500Y-199299999D03*
%TD*%
D12*
%TO.C,R116*%
X146000000Y-40912500D03*
X146000000Y-39087500D03*
%TD*%
D13*
%TO.C,Q1*%
X159062500Y-66050000D03*
X159062500Y-67950000D03*
X160937500Y-67000000D03*
%TD*%
D10*
%TO.C,R27*%
X57087500Y-79600000D03*
X58912500Y-79600000D03*
%TD*%
%TO.C,R82*%
X85087500Y-237100000D03*
X86912500Y-237100000D03*
%TD*%
%TO.C,R73*%
X57087500Y-210700000D03*
X58912500Y-210700000D03*
%TD*%
D13*
%TO.C,Q7*%
X159062500Y-198050000D03*
X159062500Y-199950000D03*
X160937500Y-199000000D03*
%TD*%
D10*
%TO.C,R53*%
X57087500Y-153700000D03*
X58912500Y-153700000D03*
%TD*%
%TO.C,R60*%
X85087500Y-174400000D03*
X86912500Y-174400000D03*
%TD*%
D17*
%TO.C,U1*%
X117350000Y-95745000D03*
X117350000Y-97015000D03*
X117350000Y-98285000D03*
X117350000Y-99555000D03*
X117350000Y-100825000D03*
X117350000Y-102095000D03*
X117350000Y-103365000D03*
X117350000Y-104635000D03*
X117350000Y-105905000D03*
X117350000Y-107175000D03*
X117350000Y-108445000D03*
X117350000Y-109715000D03*
X117350000Y-110985000D03*
X117350000Y-112255000D03*
X126650000Y-112255000D03*
X126650000Y-110985000D03*
X126650000Y-109715000D03*
X126650000Y-108445000D03*
X126650000Y-107175000D03*
X126650000Y-105905000D03*
X126650000Y-104635000D03*
X126650000Y-103365000D03*
X126650000Y-102095000D03*
X126650000Y-100825000D03*
X126650000Y-99555000D03*
X126650000Y-98285000D03*
X126650000Y-97015000D03*
X126650000Y-95745000D03*
%TD*%
D12*
%TO.C,R111*%
X131000000Y-190912500D03*
X131000000Y-189087500D03*
%TD*%
D14*
%TO.C,C7*%
X230000000Y-138950000D03*
X230000000Y-137050000D03*
%TD*%
D12*
%TO.C,R96*%
X150000000Y-159912500D03*
X150000000Y-158087500D03*
%TD*%
D10*
%TO.C,R68*%
X85087500Y-197200000D03*
X86912500Y-197200000D03*
%TD*%
%TO.C,R22*%
X85087500Y-66100000D03*
X86912500Y-66100000D03*
%TD*%
D12*
%TO.C,R84*%
X150000000Y-71912500D03*
X150000000Y-70087500D03*
%TD*%
%TO.C,R97*%
X222000000Y-153912500D03*
X222000000Y-152087500D03*
%TD*%
%TO.C,R126*%
X133000000Y-98912500D03*
X133000000Y-97087500D03*
%TD*%
D10*
%TO.C,R63*%
X57087500Y-182200000D03*
X58912500Y-182200000D03*
%TD*%
%TO.C,R35*%
X57087500Y-102400000D03*
X58912500Y-102400000D03*
%TD*%
%TO.C,R5*%
X57087500Y-16900000D03*
X58912500Y-16900000D03*
%TD*%
D22*
%TO.C,D11*%
X162950000Y-188000000D03*
X165050000Y-188000000D03*
%TD*%
%TO.C,D5*%
X162950000Y-122000000D03*
X165050000Y-122000000D03*
%TD*%
D14*
%TO.C,C10*%
X230000000Y-204950000D03*
X230000000Y-203050000D03*
%TD*%
D10*
%TO.C,R43*%
X57087500Y-125200000D03*
X58912500Y-125200000D03*
%TD*%
D12*
%TO.C,R107*%
X113000000Y-190912500D03*
X113000000Y-189087500D03*
%TD*%
D24*
%TO.C,U47*%
X141437500Y-218150000D03*
X141437500Y-217200000D03*
X141437500Y-216250000D03*
X139162500Y-216250000D03*
X139162500Y-217200000D03*
X139162500Y-218150000D03*
%TD*%
D12*
%TO.C,R102*%
X150000000Y-203912500D03*
X150000000Y-202087500D03*
%TD*%
%TO.C,R119*%
X142000000Y-70912500D03*
X142000000Y-69087500D03*
%TD*%
D10*
%TO.C,R70*%
X85087500Y-202900000D03*
X86912500Y-202900000D03*
%TD*%
D12*
%TO.C,R113*%
X137000000Y-190912500D03*
X137000000Y-189087500D03*
%TD*%
%TO.C,R85*%
X222000000Y-65912500D03*
X222000000Y-64087500D03*
%TD*%
D25*
%TO.C,A1*%
X90310000Y-8870000D03*
X90310000Y-11410000D03*
X90310000Y-13950000D03*
X90310000Y-16490000D03*
X90310000Y-19030000D03*
X90310000Y-21570000D03*
X90310000Y-24110000D03*
X90310000Y-26650000D03*
X90310000Y-29190000D03*
X90310000Y-31730000D03*
X90310000Y-34270000D03*
X90310000Y-36810000D03*
X90310000Y-39350000D03*
X90310000Y-41890000D03*
X90310000Y-44430000D03*
X90310000Y-46970000D03*
X90310000Y-49510000D03*
X90310000Y-52050000D03*
X90310000Y-54590000D03*
X90310000Y-57130000D03*
D26*
X97275000Y-9000000D03*
D27*
X97460000Y-57700000D03*
D28*
X97575000Y-12030000D03*
D27*
X100000000Y-57700000D03*
D28*
X102425000Y-12030000D03*
D27*
X102540000Y-57700000D03*
D26*
X102725000Y-9000000D03*
D25*
X109690000Y-8870000D03*
X109690000Y-11410000D03*
X109690000Y-13950000D03*
X109690000Y-16490000D03*
X109690000Y-19030000D03*
X109690000Y-21570000D03*
X109690000Y-24110000D03*
X109690000Y-26650000D03*
X109690000Y-29190000D03*
X109690000Y-31730000D03*
X109690000Y-34270000D03*
X109690000Y-36810000D03*
X109690000Y-39350000D03*
X109690000Y-41890000D03*
X109690000Y-44430000D03*
X109690000Y-46970000D03*
X109690000Y-49510000D03*
X109690000Y-52050000D03*
X109690000Y-54590000D03*
X109690000Y-57130000D03*
D29*
X100000000Y-12000000D03*
X101000000Y-8700000D03*
X99000000Y-8700000D03*
X97500000Y-15500000D03*
X97500000Y-18000000D03*
X97500000Y-20500000D03*
%TD*%
D14*
%TO.C,C12*%
X156000000Y-67950000D03*
X156000000Y-66050000D03*
%TD*%
D10*
%TO.C,R15*%
X57087500Y-45400000D03*
X58912500Y-45400000D03*
%TD*%
D14*
%TO.C,C8*%
X230000000Y-160950000D03*
X230000000Y-159050000D03*
%TD*%
D12*
%TO.C,R1*%
X103000000Y-86912500D03*
X103000000Y-85087500D03*
%TD*%
D10*
%TO.C,R25*%
X57087500Y-73900000D03*
X58912500Y-73900000D03*
%TD*%
%TO.C,R28*%
X85087500Y-83200000D03*
X86912500Y-83200000D03*
%TD*%
D12*
%TO.C,R100*%
X222000000Y-175912500D03*
X222000000Y-174087500D03*
%TD*%
%TO.C,R83*%
X150000000Y-65912500D03*
X150000000Y-64087500D03*
%TD*%
D10*
%TO.C,R67*%
X57087500Y-193600000D03*
X58912500Y-193600000D03*
%TD*%
D15*
%TO.C,C1*%
X115050000Y-92000000D03*
X116950000Y-92000000D03*
%TD*%
D11*
%TO.C,D14*%
X222000000Y-214000000D03*
X222000000Y-210000000D03*
%TD*%
D10*
%TO.C,R26*%
X85087500Y-77500000D03*
X86912500Y-77500000D03*
%TD*%
%TO.C,R36*%
X85087500Y-106000000D03*
X86912500Y-106000000D03*
%TD*%
D17*
%TO.C,U3*%
X135350000Y-103745000D03*
X135350000Y-105015000D03*
X135350000Y-106285000D03*
X135350000Y-107555000D03*
X135350000Y-108825000D03*
X135350000Y-110095000D03*
X135350000Y-111365000D03*
X135350000Y-112635000D03*
X135350000Y-113905000D03*
X135350000Y-115175000D03*
X135350000Y-116445000D03*
X135350000Y-117715000D03*
X135350000Y-118985000D03*
X135350000Y-120255000D03*
X144650000Y-120255000D03*
X144650000Y-118985000D03*
X144650000Y-117715000D03*
X144650000Y-116445000D03*
X144650000Y-115175000D03*
X144650000Y-113905000D03*
X144650000Y-112635000D03*
X144650000Y-111365000D03*
X144650000Y-110095000D03*
X144650000Y-108825000D03*
X144650000Y-107555000D03*
X144650000Y-106285000D03*
X144650000Y-105015000D03*
X144650000Y-103745000D03*
%TD*%
D10*
%TO.C,R17*%
X57087500Y-51100000D03*
X58912500Y-51100000D03*
%TD*%
D12*
%TO.C,R123*%
X67000000Y-16912500D03*
X67000000Y-15087500D03*
%TD*%
D10*
%TO.C,R45*%
X57087500Y-130899999D03*
X58912500Y-130899999D03*
%TD*%
D11*
%TO.C,D12*%
X222000000Y-192000000D03*
X222000000Y-188000000D03*
%TD*%
D19*
%TO.C,R132*%
X121412500Y-52000000D03*
X119587500Y-52000000D03*
%TD*%
%TO.C,R142*%
X149212500Y-216000000D03*
X147387500Y-216000000D03*
%TD*%
D10*
%TO.C,R57*%
X57087500Y-165100000D03*
X58912500Y-165100000D03*
%TD*%
%TO.C,R12*%
X85087500Y-37599999D03*
X86912500Y-37599999D03*
%TD*%
D13*
%TO.C,Q4*%
X159062500Y-132050000D03*
X159062500Y-133950000D03*
X160937500Y-133000000D03*
%TD*%
D14*
%TO.C,C9*%
X230000000Y-182950000D03*
X230000000Y-181050000D03*
%TD*%
%TO.C,C15*%
X117000000Y-44950000D03*
X117000000Y-43050000D03*
%TD*%
D10*
%TO.C,R112*%
X127087500Y-182000000D03*
X128912500Y-182000000D03*
%TD*%
%TO.C,R59*%
X57087500Y-170799999D03*
X58912500Y-170799999D03*
%TD*%
D12*
%TO.C,R87*%
X150000000Y-93912500D03*
X150000000Y-92087500D03*
%TD*%
D10*
%TO.C,R11*%
X57087500Y-34000000D03*
X58912500Y-34000000D03*
%TD*%
%TO.C,R115*%
X139087500Y-182000000D03*
X140912500Y-182000000D03*
%TD*%
D12*
%TO.C,R118*%
X142000000Y-47912500D03*
X142000000Y-46087500D03*
%TD*%
D30*
%TO.C,C11*%
X156000000Y-44800000D03*
X156000000Y-39200000D03*
%TD*%
D10*
%TO.C,R38*%
X85087500Y-111700000D03*
X86912500Y-111700000D03*
%TD*%
%TO.C,R46*%
X85087500Y-134500000D03*
X86912500Y-134500000D03*
%TD*%
D12*
%TO.C,R129*%
X114000000Y-41912500D03*
X114000000Y-40087500D03*
%TD*%
%TO.C,R91*%
X222000000Y-109912500D03*
X222000000Y-108087500D03*
%TD*%
D10*
%TO.C,R75*%
X57087500Y-216400000D03*
X58912500Y-216400000D03*
%TD*%
D12*
%TO.C,R103*%
X222000000Y-197912500D03*
X222000000Y-196087500D03*
%TD*%
D10*
%TO.C,R23*%
X57087500Y-68200000D03*
X58912500Y-68200000D03*
%TD*%
%TO.C,R66*%
X85087500Y-191500000D03*
X86912500Y-191500000D03*
%TD*%
%TO.C,R135*%
X124087500Y-56000000D03*
X125912500Y-56000000D03*
%TD*%
D12*
%TO.C,R88*%
X222000000Y-87912500D03*
X222000000Y-86087500D03*
%TD*%
D13*
%TO.C,Q13*%
X161062500Y-57050000D03*
X161062500Y-58950000D03*
X162937500Y-58000000D03*
%TD*%
D22*
%TO.C,D1*%
X162950000Y-78000000D03*
X165050000Y-78000000D03*
%TD*%
D10*
%TO.C,R58*%
X85087500Y-168700000D03*
X86912500Y-168700000D03*
%TD*%
%TO.C,R4*%
X85087500Y-14800000D03*
X86912500Y-14800000D03*
%TD*%
D15*
%TO.C,C14*%
X139050000Y-78000000D03*
X140950000Y-78000000D03*
%TD*%
D12*
%TO.C,R101*%
X150000000Y-197912500D03*
X150000000Y-196087500D03*
%TD*%
D14*
%TO.C,C6*%
X230000000Y-116950000D03*
X230000000Y-115050000D03*
%TD*%
D10*
%TO.C,R54*%
X85087500Y-157300000D03*
X86912500Y-157300000D03*
%TD*%
%TO.C,R77*%
X57087500Y-222100000D03*
X58912500Y-222100000D03*
%TD*%
%TO.C,R81*%
X57087500Y-233500000D03*
X58912500Y-233500000D03*
%TD*%
D11*
%TO.C,D8*%
X222000000Y-148000000D03*
X222000000Y-144000000D03*
%TD*%
D10*
%TO.C,R72*%
X85087500Y-208600000D03*
X86912500Y-208600000D03*
%TD*%
%TO.C,R106*%
X103087500Y-182000000D03*
X104912500Y-182000000D03*
%TD*%
D13*
%TO.C,Q2*%
X159062500Y-88050000D03*
X159062500Y-89950000D03*
X160937500Y-89000000D03*
%TD*%
D10*
%TO.C,R44*%
X85087500Y-128800000D03*
X86912500Y-128800000D03*
%TD*%
D12*
%TO.C,R110*%
X125000000Y-190912500D03*
X125000000Y-189087500D03*
%TD*%
D13*
%TO.C,Q14*%
X157062500Y-81050000D03*
X157062500Y-82950000D03*
X158937500Y-82000000D03*
%TD*%
D10*
%TO.C,R141*%
X124087500Y-64000000D03*
X125912500Y-64000000D03*
%TD*%
D22*
%TO.C,D15*%
X150950000Y-35000000D03*
X153050000Y-35000000D03*
%TD*%
D10*
%TO.C,R143*%
X136787500Y-223300000D03*
X138612500Y-223300000D03*
%TD*%
M02*
