M48
; DRILL file KiCad 10.0.2 date 2026-07-21T21:28:51
; FORMAT={-:-/ absolute / metric / decimal}
; #@! TF.CreationDate,2026-07-21T21:28:51-07:00
; #@! TF.GenerationSoftware,Kicad,Pcbnew,10.0.2
; #@! TF.FileFunction,Plated,1,4,PTH
FMAT,2
METRIC
; #@! TA.AperFunction,Plated,PTH,ViaDrill
T1C0.300
; #@! TA.AperFunction,Plated,PTH,ViaDrill
T2C0.350
; #@! TA.AperFunction,Plated,PTH,ViaDrill
T3C0.400
; #@! TA.AperFunction,Plated,PTH,ViaDrill
T4C0.500
; #@! TA.AperFunction,Plated,PTH,ComponentDrill
T5C0.800
; #@! TA.AperFunction,Plated,PTH,ComponentDrill
T6C1.000
; #@! TA.AperFunction,Plated,PTH,ComponentDrill
T7C1.300
; #@! TA.AperFunction,Plated,PTH,ComponentDrill
T8C1.400
%
G90
G05
T1
X86.4Y-17.8
X86.4Y-80.0
X86.9Y-11.41
X87.7Y-14.8
X87.7Y-20.5
X87.7Y-26.2
X87.7Y-31.9
X87.7Y-37.6
X87.7Y-43.3
X87.7Y-49.0
X87.7Y-54.7
X87.7Y-60.4
X87.7Y-66.1
X87.7Y-71.8
X87.7Y-77.5
X87.7Y-83.2
X87.7Y-88.9
X87.7Y-94.6
X87.7Y-100.3
X87.7Y-106.0
X87.7Y-111.7
X87.7Y-117.4
X87.7Y-123.1
X87.7Y-128.8
X87.7Y-134.5
X87.7Y-140.2
X87.7Y-145.9
X87.7Y-151.6
X87.7Y-157.3
X87.7Y-163.0
X87.7Y-168.7
X87.7Y-174.4
X87.7Y-180.1
X87.7Y-185.8
X87.7Y-191.5
X87.7Y-197.2
X87.7Y-202.9
X87.7Y-208.6
X87.7Y-214.3
X87.7Y-220.0
X87.7Y-225.7
X87.7Y-231.4
X87.7Y-237.1
X87.9Y-3.9
X92.6Y-49.51
X92.6Y-54.7
X93.3Y-46.97
X93.3Y-47.8
X93.5Y-29.19
X93.5Y-31.73
X93.5Y-34.27
X93.5Y-36.81
X93.5Y-41.89
X94.0Y-43.3
X94.0Y-44.43
X94.7Y-37.6
X94.7Y-41.89
X95.4Y-33.0
X95.4Y-36.81
X96.0Y-95.745
X96.0Y-106.0
X96.1Y-26.2
X96.1Y-34.27
X96.7Y-97.015
X96.7Y-111.7
X97.4Y-98.285
X97.4Y-117.4
X98.1Y-99.555
X98.1Y-123.1
X98.8Y-101.46
X98.8Y-128.8
X99.05Y-20.5
X99.05Y-31.73
X99.45Y-102.095
X99.45Y-134.5
X99.75Y-14.8
X99.75Y-29.19
X100.25Y-103.365
X100.25Y-140.2
X100.7Y-182.0
X100.95Y-104.635
X100.95Y-145.9
X101.65Y-100.3
X101.65Y-116.2
X102.35Y-94.6
X102.35Y-115.3
X102.5Y-81.9
X103.05Y-88.9
X103.05Y-114.4
X103.75Y-83.2
X103.75Y-113.5
X104.45Y-77.5
X104.45Y-119.8
X105.0Y-182.0
X105.0Y-198.0
X105.15Y-71.8
X105.15Y-118.9
X105.6Y-46.97
X105.85Y-66.1
X105.85Y-118.0
X106.1Y-139.015
X106.1Y-202.9
X106.55Y-60.4
X106.55Y-117.1
X107.2Y-136.0
X107.2Y-193.2
X107.25Y-49.51
X107.9Y-136.9
X107.9Y-185.8
X108.6Y-155.75
X108.6Y-180.1
X109.3Y-154.85
X109.3Y-174.4
X110.0Y-83.5
X110.0Y-153.95
X110.0Y-168.7
X110.5Y-57.13
X110.7Y-153.05
X110.7Y-163.0
X111.3Y-54.59
X111.4Y-149.6
X111.4Y-157.3
X111.9Y-40.8
X111.95Y-43.35
X112.1Y-148.7
X112.1Y-151.6
X112.2Y-182.0
X113.9Y-145.365
X113.9Y-158.2
X114.1Y-52.0
X114.1Y-56.0
X114.1Y-60.0
X114.1Y-64.0
X114.2Y-101.46
X114.7Y-146.635
X114.7Y-158.9
X115.0Y-95.745
X115.0Y-97.015
X115.0Y-98.285
X115.0Y-99.555
X115.0Y-102.095
X115.0Y-103.365
X115.0Y-104.635
X115.0Y-139.015
X115.0Y-140.285
X115.0Y-141.555
X115.0Y-142.825
X115.0Y-144.095
X115.7Y-134.9
X116.6Y-41.6
X116.6Y-66.9
X117.35Y-41.15
X117.35Y-70.4
X118.6Y-52.0
X118.6Y-56.0
X118.6Y-60.0
X118.6Y-64.0
X118.912Y-182.0
X118.912Y-198.0
X119.8Y-83.5
X119.8Y-109.715
X119.8Y-121.5
X119.8Y-150.85
X119.8Y-220.925
X121.0Y-13.5
X121.0Y-81.9
X121.0Y-110.985
X121.0Y-122.3
X121.0Y-152.3
X121.0Y-199.9
X121.0Y-224.4
X121.6Y-210.4
X121.9Y-201.6
X122.9Y-140.285
X122.9Y-208.6
X123.3Y-215.4
X123.3Y-222.6
X123.6Y-141.555
X123.6Y-214.3
X124.3Y-142.825
X124.3Y-220.0
X125.0Y-144.095
X125.0Y-225.7
X125.2Y-53.75
X125.7Y-158.2
X125.7Y-231.4
X125.9Y-46.5
X125.9Y-57.75
X125.9Y-65.75
X126.4Y-158.9
X126.4Y-237.1
X126.6Y-61.75
X126.6Y-68.3
X127.15Y-220.275
X127.3Y-5.6
X127.3Y-147.905
X128.5Y-14.6
X128.5Y-105.905
X129.15Y-215.4
X129.4Y-99.555
X129.4Y-146.635
X129.6Y-180.2
X129.9Y-199.9
X129.9Y-226.0
X130.1Y-98.285
X130.1Y-145.365
X130.8Y-97.015
X130.8Y-144.095
X130.912Y-182.0
X130.912Y-198.0
X131.5Y-95.745
X131.5Y-142.825
X132.2Y-141.555
X132.3Y-104.635
X132.5Y-74.0
X132.9Y-90.912
X132.9Y-140.285
X133.0Y-103.365
X133.6Y-139.015
X133.7Y-102.095
X134.3Y-137.745
X134.4Y-100.825
X135.0Y-216.2
X135.2Y-46.5
X135.6Y-101.6
X135.6Y-184.55
X135.8Y-224.4
X136.3Y-102.9
X136.3Y-185.25
X136.6Y-52.4
X137.0Y-105.65
X137.0Y-185.95
X137.2Y-215.4
X137.7Y-106.92
X137.7Y-186.65
X137.9Y-220.275
X138.04Y-1.55
X138.04Y-13.5
X138.6Y-226.0
X139.3Y-2.6
X139.5Y-234.6
X140.58Y-3.9
X140.6Y-180.0
X142.0Y-182.0
X142.0Y-198.0
X142.6Y-216.2
X143.12Y-4.6
X143.12Y-13.2
X143.12Y-49.3
X143.3Y-226.9
X144.0Y-71.912
X144.0Y-112.635
X144.5Y-33.0
X144.65Y-76.6
X144.65Y-232.05
X144.8Y-58.0
X145.5Y-107.555
X145.5Y-153.912
X145.66Y-3.0
X145.66Y-14.6
X146.3Y-50.635
X146.6Y-216.2
X146.9Y-134.9
X146.9Y-194.6
X147.0Y-49.365
X147.0Y-93.912
X147.0Y-111.365
X148.2Y-108.825
X148.2Y-131.912
X149.0Y-35.0
X149.2Y-106.285
X149.2Y-175.912
X150.2Y-31.0
X150.2Y-53.75
X150.2Y-105.015
X150.2Y-197.912
X150.74Y-15.0
X154.8Y-50.0
X154.8Y-230.4
X156.0Y-53.0
X156.0Y-232.85
X158.3Y-64.0
X158.6Y-69.9
X162.0Y-96.95
X162.2Y-35.0
X162.2Y-80.0
X163.0Y-47.912
X163.3Y-15.0
X163.6Y-58.0
X163.6Y-233.75
X164.8Y-46.087
X164.8Y-57.05
X164.8Y-70.912
X168.4Y-15.0
X168.4Y-69.9
X168.4Y-80.0
X168.4Y-234.6
X170.0Y-90.912
T2
X5.5Y-225.1
X8.5Y-7.55
X12.0Y-42.0
X14.1Y-26.94
X14.1Y-35.0
X15.15Y-31.5
X15.15Y-32.64
X16.2Y-28.0
X16.2Y-37.39
X17.25Y-24.5
X17.25Y-44.04
X18.3Y-21.0
X18.3Y-49.74
X19.35Y-17.5
X19.35Y-55.44
X20.4Y-21.24
X20.4Y-38.5
X20.4Y-59.69
X20.4Y-103.0
X21.45Y-66.84
X21.45Y-99.5
X22.5Y-72.54
X22.5Y-96.0
X23.55Y-77.29
X23.55Y-92.5
X24.6Y-83.94
X24.6Y-89.0
X25.65Y-85.5
X25.65Y-89.64
X26.7Y-82.0
X26.7Y-95.34
X27.75Y-78.5
X27.75Y-101.04
X28.8Y-75.0
X28.8Y-106.74
X29.85Y-71.5
X29.85Y-112.44
X30.9Y-68.0
X30.9Y-118.14
X31.95Y-64.5
X31.95Y-123.84
X33.0Y-61.0
X33.0Y-129.54
X34.05Y-135.24
X34.05Y-168.0
X35.1Y-138.99
X35.1Y-164.5
X36.15Y-145.69
X36.15Y-161.0
X37.2Y-152.34
X37.2Y-157.5
X38.25Y-154.0
X38.25Y-158.04
X39.3Y-150.5
X39.3Y-163.74
X40.35Y-147.0
X40.35Y-169.44
X41.4Y-143.5
X41.4Y-175.14
X42.45Y-140.0
X42.45Y-180.84
X43.5Y-136.5
X43.5Y-186.54
X44.55Y-133.0
X44.55Y-192.24
X45.6Y-196.49
X45.6Y-222.0
X46.65Y-202.69
X46.65Y-218.5
X47.7Y-209.34
X47.7Y-215.0
X48.75Y-211.5
X48.75Y-214.09
X49.8Y-208.0
X49.8Y-220.74
X50.85Y-204.5
X50.85Y-226.44
X51.9Y-201.0
X51.9Y-232.14
X52.95Y-197.5
X52.95Y-237.84
X53.9Y-13.0
X55.3Y-5.7
X55.3Y-11.2
X55.3Y-16.9
X55.3Y-19.9
X55.3Y-22.6
X55.3Y-28.3
X55.3Y-34.0
X55.3Y-39.7
X55.3Y-45.4
X55.3Y-51.1
X55.3Y-56.8
X55.3Y-62.5
X55.3Y-68.2
X55.3Y-73.9
X55.3Y-79.6
X55.3Y-85.3
X55.3Y-91.0
X55.3Y-96.7
X55.3Y-102.4
X55.3Y-108.1
X55.3Y-113.8
X55.3Y-119.5
X55.3Y-125.2
X55.3Y-130.9
X55.3Y-136.6
X55.3Y-142.3
X55.3Y-148.0
X55.3Y-153.7
X55.3Y-159.4
X55.3Y-165.1
X55.3Y-170.8
X55.3Y-176.5
X55.3Y-182.2
X55.3Y-187.9
X55.3Y-193.6
X55.3Y-199.3
X55.3Y-205.0
X55.3Y-210.7
X55.3Y-216.4
X55.3Y-222.1
X55.3Y-227.8
X55.3Y-233.5
X55.3Y-234.5
X60.3Y-16.9
X65.0Y-7.55
X65.0Y-14.1
X70.8Y-16.9
T3
X83.3Y-23.2
X83.3Y-131.5
X83.3Y-234.1
X84.3Y-14.8
X84.3Y-20.5
X84.3Y-26.2
X84.3Y-31.9
X84.3Y-37.6
X84.3Y-43.3
X84.3Y-49.0
X84.3Y-54.7
X84.3Y-60.4
X84.3Y-66.1
X84.3Y-71.8
X84.3Y-77.5
X84.3Y-83.2
X84.3Y-88.9
X84.3Y-94.6
X84.3Y-100.3
X84.3Y-106.0
X84.3Y-111.7
X84.3Y-117.4
X84.3Y-123.1
X84.3Y-128.8
X84.3Y-134.5
X84.3Y-140.2
X84.3Y-145.9
X84.3Y-151.6
X84.3Y-157.3
X84.3Y-163.0
X84.3Y-168.7
X84.3Y-174.4
X84.3Y-180.1
X84.3Y-185.8
X84.3Y-191.5
X84.3Y-197.2
X84.3Y-202.9
X84.3Y-208.6
X84.3Y-214.3
X84.3Y-220.0
X84.3Y-225.7
X84.3Y-231.4
X84.3Y-237.1
X100.0Y-217.0
X100.2Y-90.1
X110.0Y-90.1
X111.0Y-130.0
X111.9Y-11.41
X113.1Y-12.3
X113.1Y-16.3
X113.1Y-19.03
X113.1Y-50.1
X113.1Y-54.1
X113.1Y-58.1
X113.1Y-62.1
X113.1Y-68.0
X113.1Y-78.0
X113.1Y-90.1
X113.1Y-92.0
X113.1Y-94.4
X113.1Y-108.445
X113.1Y-157.0
X113.1Y-218.6
X113.1Y-222.8
X113.1Y-224.1
X114.2Y-1.55
X115.4Y-40.0
X115.9Y-105.905
X116.4Y-157.0
X118.4Y-20.0
X118.4Y-21.0
X121.8Y-68.0
X122.0Y-217.0
X122.3Y-52.0
X122.3Y-56.0
X122.3Y-60.0
X122.3Y-64.0
X128.6Y-108.445
X128.6Y-218.6
X128.7Y-157.0
X133.35Y-218.6
X136.6Y-11.4
X136.85Y-223.5
X137.9Y-78.0
X137.9Y-96.0
X138.6Y-99.3
X138.6Y-112.3
X145.55Y-43.4
X146.9Y-78.4
X148.2Y-16.3
X149.9Y-54.9
X150.5Y-82.923
X150.9Y-218.6
X151.5Y-203.7
X151.5Y-217.0
X151.9Y-67.95
X153.4Y-83.1
X153.4Y-235.75
X153.475Y-45.6
X157.2Y-67.95
X160.0Y-78.0
X160.0Y-81.0
X160.0Y-82.0
X160.0Y-100.0
X160.0Y-122.0
X160.0Y-144.0
X160.0Y-166.0
X160.0Y-188.0
X160.0Y-210.0
X161.6Y-236.0
X164.7Y-14.0
X166.8Y-67.0
X166.8Y-78.0
X166.8Y-89.0
X166.8Y-100.0
X166.8Y-111.0
X166.8Y-122.0
X166.8Y-133.0
X166.8Y-144.0
X166.8Y-155.0
X166.8Y-166.0
X166.8Y-177.0
X166.8Y-188.0
X166.8Y-199.0
X166.8Y-210.0
X167.0Y-14.0
X176.5Y-13.0
X177.5Y-13.0
T4
X216.0Y-68.112
X216.0Y-79.6
X216.0Y-90.112
X216.0Y-101.6
X216.0Y-112.112
X216.0Y-123.6
X216.0Y-134.112
X216.0Y-145.6
X216.0Y-156.112
X216.0Y-167.6
X216.0Y-178.112
X216.0Y-189.6
X216.0Y-200.112
X216.0Y-211.6
X228.0Y-68.85
X228.0Y-75.6
X228.0Y-90.85
X228.0Y-97.6
X228.0Y-112.85
X228.0Y-119.6
X228.0Y-134.85
X228.0Y-141.6
X228.0Y-156.85
X228.0Y-163.6
X228.0Y-178.85
X228.0Y-185.6
X228.0Y-200.85
X228.0Y-207.6
T5
X74.0Y-13.0
X74.0Y-15.54
X74.0Y-18.7
X74.0Y-21.24
X74.0Y-24.4
X74.0Y-26.94
X74.0Y-30.1
X74.0Y-32.64
X74.0Y-35.8
X74.0Y-38.34
X74.0Y-41.5
X74.0Y-44.04
X74.0Y-47.2
X74.0Y-49.74
X74.0Y-52.9
X74.0Y-55.44
X74.0Y-58.6
X74.0Y-61.14
X74.0Y-64.3
X74.0Y-66.84
X74.0Y-70.0
X74.0Y-72.54
X74.0Y-75.7
X74.0Y-78.24
X74.0Y-81.4
X74.0Y-83.94
X74.0Y-87.1
X74.0Y-89.64
X74.0Y-92.8
X74.0Y-95.34
X74.0Y-98.5
X74.0Y-101.04
X74.0Y-104.2
X74.0Y-106.74
X74.0Y-109.9
X74.0Y-112.44
X74.0Y-115.6
X74.0Y-118.14
X74.0Y-121.3
X74.0Y-123.84
X74.0Y-127.0
X74.0Y-129.54
X74.0Y-132.7
X74.0Y-135.24
X74.0Y-138.4
X74.0Y-140.94
X74.0Y-144.1
X74.0Y-146.64
X74.0Y-149.8
X74.0Y-152.34
X74.0Y-155.5
X74.0Y-158.04
X74.0Y-161.2
X74.0Y-163.74
X74.0Y-166.9
X74.0Y-169.44
X74.0Y-172.6
X74.0Y-175.14
X74.0Y-178.3
X74.0Y-180.84
X74.0Y-184.0
X74.0Y-186.54
X74.0Y-189.7
X74.0Y-192.24
X74.0Y-195.4
X74.0Y-197.94
X74.0Y-201.1
X74.0Y-203.64
X74.0Y-206.8
X74.0Y-209.34
X74.0Y-212.5
X74.0Y-215.04
X74.0Y-218.2
X74.0Y-220.74
X74.0Y-223.9
X74.0Y-226.44
X74.0Y-229.6
X74.0Y-232.14
X74.0Y-235.3
X74.0Y-237.84
X81.62Y-13.0
X81.62Y-15.54
X81.62Y-18.7
X81.62Y-21.24
X81.62Y-24.4
X81.62Y-26.94
X81.62Y-30.1
X81.62Y-32.64
X81.62Y-35.8
X81.62Y-38.34
X81.62Y-41.5
X81.62Y-44.04
X81.62Y-47.2
X81.62Y-49.74
X81.62Y-52.9
X81.62Y-55.44
X81.62Y-58.6
X81.62Y-61.14
X81.62Y-64.3
X81.62Y-66.84
X81.62Y-70.0
X81.62Y-72.54
X81.62Y-75.7
X81.62Y-78.24
X81.62Y-81.4
X81.62Y-83.94
X81.62Y-87.1
X81.62Y-89.64
X81.62Y-92.8
X81.62Y-95.34
X81.62Y-98.5
X81.62Y-101.04
X81.62Y-104.2
X81.62Y-106.74
X81.62Y-109.9
X81.62Y-112.44
X81.62Y-115.6
X81.62Y-118.14
X81.62Y-121.3
X81.62Y-123.84
X81.62Y-127.0
X81.62Y-129.54
X81.62Y-132.7
X81.62Y-135.24
X81.62Y-138.4
X81.62Y-140.94
X81.62Y-144.1
X81.62Y-146.64
X81.62Y-149.8
X81.62Y-152.34
X81.62Y-155.5
X81.62Y-158.04
X81.62Y-161.2
X81.62Y-163.74
X81.62Y-166.9
X81.62Y-169.44
X81.62Y-172.6
X81.62Y-175.14
X81.62Y-178.3
X81.62Y-180.84
X81.62Y-184.0
X81.62Y-186.54
X81.62Y-189.7
X81.62Y-192.24
X81.62Y-195.4
X81.62Y-197.94
X81.62Y-201.1
X81.62Y-203.64
X81.62Y-206.8
X81.62Y-209.34
X81.62Y-212.5
X81.62Y-215.04
X81.62Y-218.2
X81.62Y-220.74
X81.62Y-223.9
X81.62Y-226.44
X81.62Y-229.6
X81.62Y-232.14
X81.62Y-235.3
X81.62Y-237.84
T6
X72.3Y-5.7
X77.38Y-5.7
X82.46Y-5.7
X85.0Y-5.7
X135.5Y-7.46
X135.5Y-10.0
X138.04Y-7.46
X138.04Y-10.0
X140.58Y-7.46
X140.58Y-10.0
X143.12Y-7.46
X143.12Y-10.0
X145.66Y-7.46
X145.66Y-10.0
X148.2Y-7.46
X148.2Y-10.0
X150.74Y-7.46
X150.74Y-10.0
X153.28Y-7.46
X153.28Y-10.0
X155.82Y-7.46
X155.82Y-10.0
X158.36Y-7.46
X158.36Y-10.0
T7
X116.0Y-10.0
X121.08Y-10.0
X126.16Y-10.0
X176.0Y-72.0
X176.0Y-94.0
X176.0Y-116.0
X176.0Y-138.0
X176.0Y-160.0
X176.0Y-182.0
X176.0Y-204.0
X178.0Y-66.0
X178.0Y-78.0
X178.0Y-88.0
X178.0Y-100.0
X178.0Y-110.0
X178.0Y-122.0
X178.0Y-132.0
X178.0Y-144.0
X178.0Y-154.0
X178.0Y-166.0
X178.0Y-176.0
X178.0Y-188.0
X178.0Y-198.0
X178.0Y-210.0
X190.2Y-66.0
X190.2Y-78.0
X190.2Y-88.0
X190.2Y-100.0
X190.2Y-110.0
X190.2Y-122.0
X190.2Y-132.0
X190.2Y-144.0
X190.2Y-154.0
X190.2Y-166.0
X190.2Y-176.0
X190.2Y-188.0
X190.2Y-198.0
X190.2Y-210.0
X242.0Y-68.0
X242.0Y-73.08
X242.0Y-90.0
X242.0Y-95.08
X242.0Y-112.0
X242.0Y-117.08
X242.0Y-134.0
X242.0Y-139.08
X242.0Y-156.0
X242.0Y-161.08
X242.0Y-178.0
X242.0Y-183.08
X242.0Y-200.0
X242.0Y-205.08
T8
X9.0Y-10.5
X9.0Y-14.0
X9.0Y-17.5
X9.0Y-21.0
X9.0Y-24.5
X9.0Y-28.0
X9.0Y-31.5
X9.0Y-35.0
X9.0Y-38.5
X9.0Y-42.0
X9.0Y-57.5
X9.0Y-61.0
X9.0Y-64.5
X9.0Y-68.0
X9.0Y-71.5
X9.0Y-75.0
X9.0Y-78.5
X9.0Y-82.0
X9.0Y-85.5
X9.0Y-89.0
X9.0Y-92.5
X9.0Y-96.0
X9.0Y-99.5
X9.0Y-103.0
X9.0Y-129.5
X9.0Y-133.0
X9.0Y-136.5
X9.0Y-140.0
X9.0Y-143.5
X9.0Y-147.0
X9.0Y-150.5
X9.0Y-154.0
X9.0Y-157.5
X9.0Y-161.0
X9.0Y-164.5
X9.0Y-168.0
X9.0Y-190.5
X9.0Y-194.0
X9.0Y-197.5
X9.0Y-201.0
X9.0Y-204.5
X9.0Y-208.0
X9.0Y-211.5
X9.0Y-215.0
X9.0Y-218.5
X9.0Y-222.0
X104.0Y-206.0
X107.5Y-206.0
X111.0Y-206.0
X114.5Y-206.0
X118.0Y-206.0
X121.5Y-206.0
X128.0Y-206.0
X131.5Y-206.0
X135.0Y-206.0
X138.5Y-206.0
X142.0Y-206.0
X145.5Y-206.0
X167.0Y-10.0
X170.5Y-10.0
X174.0Y-10.0
X177.5Y-10.0
M30
