%TF.GenerationSoftware,KiCad,Pcbnew,10.0.2*%
%TF.CreationDate,2026-05-14T18:02:57-07:00*%
%TF.ProjectId,wsl-phase8a,77736c2d-7068-4617-9365-38612e6b6963,rev?*%
%TF.SameCoordinates,Original*%
%TF.FileFunction,Paste,Top*%
%TF.FilePolarity,Positive*%
%FSLAX46Y46*%
G04 Gerber Fmt 4.6, Leading zero omitted, Abs format (unit mm)*
G04 Created by KiCad (PCBNEW 10.0.2) date 2026-05-14 18:02:57*
%MOMM*%
%LPD*%
G01*
G04 APERTURE LIST*
G04 Aperture macros list*
%AMRoundRect*
0 Rectangle with rounded corners*
0 $1 Rounding radius*
0 $2 $3 $4 $5 $6 $7 $8 $9 X,Y pos of 4 corners*
0 Add a 4 corners polygon primitive as box body*
4,1,4,$2,$3,$4,$5,$6,$7,$8,$9,$2,$3,0*
0 Add four circle primitives for the rounded corners*
1,1,$1+$1,$2,$3*
1,1,$1+$1,$4,$5*
1,1,$1+$1,$6,$7*
1,1,$1+$1,$8,$9*
0 Add four rect primitives between the rounded corners*
20,1,$1+$1,$2,$3,$4,$5,0*
20,1,$1+$1,$4,$5,$6,$7,0*
20,1,$1+$1,$6,$7,$8,$9,0*
20,1,$1+$1,$8,$9,$2,$3,0*%
G04 Aperture macros list end*
%ADD10RoundRect,0.250000X-0.262500X-0.450000X0.262500X-0.450000X0.262500X0.450000X-0.262500X0.450000X0*%
%ADD11RoundRect,0.112500X0.187500X0.112500X-0.187500X0.112500X-0.187500X-0.112500X0.187500X-0.112500X0*%
%ADD12RoundRect,0.250000X0.450000X-0.262500X0.450000X0.262500X-0.450000X0.262500X-0.450000X-0.262500X0*%
%ADD13RoundRect,0.250000X0.650000X-1.000000X0.650000X1.000000X-0.650000X1.000000X-0.650000X-1.000000X0*%
%ADD14RoundRect,0.250000X-0.250000X-0.475000X0.250000X-0.475000X0.250000X0.475000X-0.250000X0.475000X0*%
%ADD15RoundRect,0.150000X-0.825000X-0.150000X0.825000X-0.150000X0.825000X0.150000X-0.825000X0.150000X0*%
%ADD16RoundRect,0.243750X-0.243750X-0.456250X0.243750X-0.456250X0.243750X0.456250X-0.243750X0.456250X0*%
%ADD17RoundRect,0.250000X0.550000X-1.500000X0.550000X1.500000X-0.550000X1.500000X-0.550000X-1.500000X0*%
%ADD18RoundRect,0.150000X-0.587500X-0.150000X0.587500X-0.150000X0.587500X0.150000X-0.587500X0.150000X0*%
%ADD19RoundRect,0.250000X-1.500000X-0.550000X1.500000X-0.550000X1.500000X0.550000X-1.500000X0.550000X0*%
%ADD20RoundRect,0.250000X1.000000X0.650000X-1.000000X0.650000X-1.000000X-0.650000X1.000000X-0.650000X0*%
G04 APERTURE END LIST*
D10*
%TO.C,R3*%
X47087500Y-55000000D03*
X48912500Y-55000000D03*
%TD*%
%TO.C,R8*%
X71087500Y-70000000D03*
X72912500Y-70000000D03*
%TD*%
D11*
%TO.C,D1*%
X46050000Y-62000000D03*
X43950000Y-62000000D03*
%TD*%
D12*
%TO.C,R11*%
X60000000Y-42912500D03*
X60000000Y-41087500D03*
%TD*%
D13*
%TO.C,D6*%
X80000000Y-20000000D03*
X80000000Y-16000000D03*
%TD*%
D14*
%TO.C,C3*%
X36050000Y-60000000D03*
X37950000Y-60000000D03*
%TD*%
D12*
%TO.C,R12*%
X80000000Y-42912500D03*
X80000000Y-41087500D03*
%TD*%
D15*
%TO.C,U1*%
X29525000Y-64095000D03*
X29525000Y-65365000D03*
X29525000Y-66635000D03*
X29525000Y-67905000D03*
X34475000Y-67905000D03*
X34475000Y-66635000D03*
X34475000Y-65365000D03*
X34475000Y-64095000D03*
%TD*%
D16*
%TO.C,D7*%
X75062500Y-60000000D03*
X76937500Y-60000000D03*
%TD*%
D10*
%TO.C,R7*%
X71087500Y-60000000D03*
X72912500Y-60000000D03*
%TD*%
D16*
%TO.C,D8*%
X75062500Y-70000000D03*
X76937500Y-70000000D03*
%TD*%
D13*
%TO.C,D4*%
X40000000Y-20000000D03*
X40000000Y-16000000D03*
%TD*%
D17*
%TO.C,C6*%
X60000000Y-32800000D03*
X60000000Y-27200000D03*
%TD*%
D13*
%TO.C,D3*%
X20000000Y-20000000D03*
X20000000Y-16000000D03*
%TD*%
D18*
%TO.C,Q1*%
X51062500Y-59050000D03*
X51062500Y-60950000D03*
X52937500Y-60000000D03*
%TD*%
D17*
%TO.C,C4*%
X20000000Y-32800000D03*
X20000000Y-27200000D03*
%TD*%
D19*
%TO.C,C1*%
X27200000Y-58000000D03*
X32800000Y-58000000D03*
%TD*%
D14*
%TO.C,C2*%
X23050000Y-65000000D03*
X24950000Y-65000000D03*
%TD*%
D13*
%TO.C,D5*%
X60000000Y-20000000D03*
X60000000Y-16000000D03*
%TD*%
D10*
%TO.C,R1*%
X31087500Y-52000000D03*
X32912500Y-52000000D03*
%TD*%
%TO.C,R6*%
X47087500Y-75000000D03*
X48912500Y-75000000D03*
%TD*%
D12*
%TO.C,R10*%
X40000000Y-42912500D03*
X40000000Y-41087500D03*
%TD*%
D17*
%TO.C,C5*%
X40000000Y-32800000D03*
X40000000Y-27200000D03*
%TD*%
D20*
%TO.C,D9*%
X12000000Y-35000000D03*
X8000000Y-35000000D03*
%TD*%
D10*
%TO.C,R4*%
X47087500Y-60000000D03*
X48912500Y-60000000D03*
%TD*%
D18*
%TO.C,Q2*%
X51062500Y-69050000D03*
X51062500Y-70950000D03*
X52937500Y-70000000D03*
%TD*%
D17*
%TO.C,C7*%
X80000000Y-32800000D03*
X80000000Y-27200000D03*
%TD*%
D10*
%TO.C,R2*%
X24087500Y-67000000D03*
X25912500Y-67000000D03*
%TD*%
%TO.C,R5*%
X47087500Y-70000000D03*
X48912500Y-70000000D03*
%TD*%
D11*
%TO.C,D2*%
X46050000Y-68000000D03*
X43950000Y-68000000D03*
%TD*%
D12*
%TO.C,R9*%
X20000000Y-42912500D03*
X20000000Y-41087500D03*
%TD*%
M02*
