%TF.GenerationSoftware,KiCad,Pcbnew,10.0.2*%
%TF.CreationDate,2026-05-14T18:02:57-07:00*%
%TF.ProjectId,wsl-phase8a,77736c2d-7068-4617-9365-38612e6b6963,rev?*%
%TF.SameCoordinates,Original*%
%TF.FileFunction,Legend,Top*%
%TF.FilePolarity,Positive*%
%FSLAX46Y46*%
G04 Gerber Fmt 4.6, Leading zero omitted, Abs format (unit mm)*
G04 Created by KiCad (PCBNEW 10.0.2) date 2026-05-14 18:02:57*
%MOMM*%
%LPD*%
G01*
G04 APERTURE LIST*
%ADD10C,0.150000*%
%ADD11C,0.120000*%
G04 APERTURE END LIST*
D10*
X1565700Y-29000000D02*
X1565700Y-28314286D01*
X1908557Y-28657143D02*
X1222842Y-28657143D01*
X1008557Y-27457142D02*
X1008557Y-27885714D01*
X1008557Y-27885714D02*
X1437128Y-27928571D01*
X1437128Y-27928571D02*
X1394271Y-27885714D01*
X1394271Y-27885714D02*
X1351414Y-27800000D01*
X1351414Y-27800000D02*
X1351414Y-27585714D01*
X1351414Y-27585714D02*
X1394271Y-27500000D01*
X1394271Y-27500000D02*
X1437128Y-27457142D01*
X1437128Y-27457142D02*
X1522842Y-27414285D01*
X1522842Y-27414285D02*
X1737128Y-27414285D01*
X1737128Y-27414285D02*
X1822842Y-27457142D01*
X1822842Y-27457142D02*
X1865700Y-27500000D01*
X1865700Y-27500000D02*
X1908557Y-27585714D01*
X1908557Y-27585714D02*
X1908557Y-27800000D01*
X1908557Y-27800000D02*
X1865700Y-27885714D01*
X1865700Y-27885714D02*
X1822842Y-27928571D01*
X1008557Y-27157142D02*
X1908557Y-26857142D01*
X1908557Y-26857142D02*
X1008557Y-26557142D01*
X965700Y-25614285D02*
X2122842Y-26385713D01*
X1051414Y-24842856D02*
X1008557Y-24928571D01*
X1008557Y-24928571D02*
X1008557Y-25057142D01*
X1008557Y-25057142D02*
X1051414Y-25185713D01*
X1051414Y-25185713D02*
X1137128Y-25271428D01*
X1137128Y-25271428D02*
X1222842Y-25314285D01*
X1222842Y-25314285D02*
X1394271Y-25357142D01*
X1394271Y-25357142D02*
X1522842Y-25357142D01*
X1522842Y-25357142D02*
X1694271Y-25314285D01*
X1694271Y-25314285D02*
X1779985Y-25271428D01*
X1779985Y-25271428D02*
X1865700Y-25185713D01*
X1865700Y-25185713D02*
X1908557Y-25057142D01*
X1908557Y-25057142D02*
X1908557Y-24971428D01*
X1908557Y-24971428D02*
X1865700Y-24842856D01*
X1865700Y-24842856D02*
X1822842Y-24799999D01*
X1822842Y-24799999D02*
X1522842Y-24799999D01*
X1522842Y-24799999D02*
X1522842Y-24971428D01*
X1908557Y-24414285D02*
X1008557Y-24414285D01*
X1008557Y-24414285D02*
X1908557Y-23899999D01*
X1908557Y-23899999D02*
X1008557Y-23899999D01*
X1908557Y-23471428D02*
X1008557Y-23471428D01*
X1008557Y-23471428D02*
X1008557Y-23257142D01*
X1008557Y-23257142D02*
X1051414Y-23128571D01*
X1051414Y-23128571D02*
X1137128Y-23042856D01*
X1137128Y-23042856D02*
X1222842Y-22999999D01*
X1222842Y-22999999D02*
X1394271Y-22957142D01*
X1394271Y-22957142D02*
X1522842Y-22957142D01*
X1522842Y-22957142D02*
X1694271Y-22999999D01*
X1694271Y-22999999D02*
X1779985Y-23042856D01*
X1779985Y-23042856D02*
X1865700Y-23128571D01*
X1865700Y-23128571D02*
X1908557Y-23257142D01*
X1908557Y-23257142D02*
X1908557Y-23471428D01*
X14792857Y-45151414D02*
X15221429Y-45151414D01*
X14707143Y-45408557D02*
X15007143Y-44508557D01*
X15007143Y-44508557D02*
X15307143Y-45408557D01*
X15607143Y-44937128D02*
X15907143Y-44937128D01*
X16035715Y-45408557D02*
X15607143Y-45408557D01*
X15607143Y-45408557D02*
X15607143Y-44508557D01*
X15607143Y-44508557D02*
X16035715Y-44508557D01*
X16421429Y-45408557D02*
X16421429Y-44508557D01*
X16421429Y-44508557D02*
X16635715Y-44508557D01*
X16635715Y-44508557D02*
X16764286Y-44551414D01*
X16764286Y-44551414D02*
X16850001Y-44637128D01*
X16850001Y-44637128D02*
X16892858Y-44722842D01*
X16892858Y-44722842D02*
X16935715Y-44894271D01*
X16935715Y-44894271D02*
X16935715Y-45022842D01*
X16935715Y-45022842D02*
X16892858Y-45194271D01*
X16892858Y-45194271D02*
X16850001Y-45279985D01*
X16850001Y-45279985D02*
X16764286Y-45365700D01*
X16764286Y-45365700D02*
X16635715Y-45408557D01*
X16635715Y-45408557D02*
X16421429Y-45408557D01*
X17321429Y-45408557D02*
X17321429Y-44508557D01*
X17750000Y-45408557D02*
X17750000Y-44508557D01*
X18264286Y-45408557D02*
X17878572Y-44894271D01*
X18264286Y-44508557D02*
X17750000Y-45022842D01*
X18821429Y-44508557D02*
X18992857Y-44508557D01*
X18992857Y-44508557D02*
X19078572Y-44551414D01*
X19078572Y-44551414D02*
X19164286Y-44637128D01*
X19164286Y-44637128D02*
X19207143Y-44808557D01*
X19207143Y-44808557D02*
X19207143Y-45108557D01*
X19207143Y-45108557D02*
X19164286Y-45279985D01*
X19164286Y-45279985D02*
X19078572Y-45365700D01*
X19078572Y-45365700D02*
X18992857Y-45408557D01*
X18992857Y-45408557D02*
X18821429Y-45408557D01*
X18821429Y-45408557D02*
X18735715Y-45365700D01*
X18735715Y-45365700D02*
X18650000Y-45279985D01*
X18650000Y-45279985D02*
X18607143Y-45108557D01*
X18607143Y-45108557D02*
X18607143Y-44808557D01*
X18607143Y-44808557D02*
X18650000Y-44637128D01*
X18650000Y-44637128D02*
X18735715Y-44551414D01*
X18735715Y-44551414D02*
X18821429Y-44508557D01*
X1908557Y-81192856D02*
X1008557Y-81192856D01*
X1908557Y-80678570D02*
X1394271Y-81064284D01*
X1008557Y-80678570D02*
X1522842Y-81192856D01*
X1908557Y-80292856D02*
X1008557Y-80292856D01*
X1822842Y-79349999D02*
X1865700Y-79392856D01*
X1865700Y-79392856D02*
X1908557Y-79521428D01*
X1908557Y-79521428D02*
X1908557Y-79607142D01*
X1908557Y-79607142D02*
X1865700Y-79735713D01*
X1865700Y-79735713D02*
X1779985Y-79821428D01*
X1779985Y-79821428D02*
X1694271Y-79864285D01*
X1694271Y-79864285D02*
X1522842Y-79907142D01*
X1522842Y-79907142D02*
X1394271Y-79907142D01*
X1394271Y-79907142D02*
X1222842Y-79864285D01*
X1222842Y-79864285D02*
X1137128Y-79821428D01*
X1137128Y-79821428D02*
X1051414Y-79735713D01*
X1051414Y-79735713D02*
X1008557Y-79607142D01*
X1008557Y-79607142D02*
X1008557Y-79521428D01*
X1008557Y-79521428D02*
X1051414Y-79392856D01*
X1051414Y-79392856D02*
X1094271Y-79349999D01*
X1908557Y-78964285D02*
X1008557Y-78964285D01*
X1908557Y-78449999D02*
X1394271Y-78835713D01*
X1008557Y-78449999D02*
X1522842Y-78964285D01*
X965700Y-77421428D02*
X2122842Y-78192856D01*
X1051414Y-76649999D02*
X1008557Y-76735714D01*
X1008557Y-76735714D02*
X1008557Y-76864285D01*
X1008557Y-76864285D02*
X1051414Y-76992856D01*
X1051414Y-76992856D02*
X1137128Y-77078571D01*
X1137128Y-77078571D02*
X1222842Y-77121428D01*
X1222842Y-77121428D02*
X1394271Y-77164285D01*
X1394271Y-77164285D02*
X1522842Y-77164285D01*
X1522842Y-77164285D02*
X1694271Y-77121428D01*
X1694271Y-77121428D02*
X1779985Y-77078571D01*
X1779985Y-77078571D02*
X1865700Y-76992856D01*
X1865700Y-76992856D02*
X1908557Y-76864285D01*
X1908557Y-76864285D02*
X1908557Y-76778571D01*
X1908557Y-76778571D02*
X1865700Y-76649999D01*
X1865700Y-76649999D02*
X1822842Y-76607142D01*
X1822842Y-76607142D02*
X1522842Y-76607142D01*
X1522842Y-76607142D02*
X1522842Y-76778571D01*
X1908557Y-76221428D02*
X1008557Y-76221428D01*
X1008557Y-76221428D02*
X1908557Y-75707142D01*
X1908557Y-75707142D02*
X1008557Y-75707142D01*
X1908557Y-75278571D02*
X1008557Y-75278571D01*
X1008557Y-75278571D02*
X1008557Y-75064285D01*
X1008557Y-75064285D02*
X1051414Y-74935714D01*
X1051414Y-74935714D02*
X1137128Y-74849999D01*
X1137128Y-74849999D02*
X1222842Y-74807142D01*
X1222842Y-74807142D02*
X1394271Y-74764285D01*
X1394271Y-74764285D02*
X1522842Y-74764285D01*
X1522842Y-74764285D02*
X1694271Y-74807142D01*
X1694271Y-74807142D02*
X1779985Y-74849999D01*
X1779985Y-74849999D02*
X1865700Y-74935714D01*
X1865700Y-74935714D02*
X1908557Y-75064285D01*
X1908557Y-75064285D02*
X1908557Y-75278571D01*
X16957142Y-85322842D02*
X16914285Y-85365700D01*
X16914285Y-85365700D02*
X16785713Y-85408557D01*
X16785713Y-85408557D02*
X16699999Y-85408557D01*
X16699999Y-85408557D02*
X16571428Y-85365700D01*
X16571428Y-85365700D02*
X16485713Y-85279985D01*
X16485713Y-85279985D02*
X16442856Y-85194271D01*
X16442856Y-85194271D02*
X16399999Y-85022842D01*
X16399999Y-85022842D02*
X16399999Y-84894271D01*
X16399999Y-84894271D02*
X16442856Y-84722842D01*
X16442856Y-84722842D02*
X16485713Y-84637128D01*
X16485713Y-84637128D02*
X16571428Y-84551414D01*
X16571428Y-84551414D02*
X16699999Y-84508557D01*
X16699999Y-84508557D02*
X16785713Y-84508557D01*
X16785713Y-84508557D02*
X16914285Y-84551414D01*
X16914285Y-84551414D02*
X16957142Y-84594271D01*
X17342856Y-85408557D02*
X17342856Y-84508557D01*
X17342856Y-84937128D02*
X17857142Y-84937128D01*
X17857142Y-85408557D02*
X17857142Y-84508557D01*
X18757142Y-85408557D02*
X18242856Y-85408557D01*
X18499999Y-85408557D02*
X18499999Y-84508557D01*
X18499999Y-84508557D02*
X18414285Y-84637128D01*
X18414285Y-84637128D02*
X18328570Y-84722842D01*
X18328570Y-84722842D02*
X18242856Y-84765700D01*
X19785713Y-84594271D02*
X19828570Y-84551414D01*
X19828570Y-84551414D02*
X19914285Y-84508557D01*
X19914285Y-84508557D02*
X20128570Y-84508557D01*
X20128570Y-84508557D02*
X20214285Y-84551414D01*
X20214285Y-84551414D02*
X20257142Y-84594271D01*
X20257142Y-84594271D02*
X20299999Y-84679985D01*
X20299999Y-84679985D02*
X20299999Y-84765700D01*
X20299999Y-84765700D02*
X20257142Y-84894271D01*
X20257142Y-84894271D02*
X19742856Y-85408557D01*
X19742856Y-85408557D02*
X20299999Y-85408557D01*
X21071428Y-84808557D02*
X21071428Y-85408557D01*
X20857142Y-84465700D02*
X20642856Y-85108557D01*
X20642856Y-85108557D02*
X21199999Y-85108557D01*
X21414285Y-84508557D02*
X21714285Y-85408557D01*
X21714285Y-85408557D02*
X22014285Y-84508557D01*
X22271428Y-85151414D02*
X22700000Y-85151414D01*
X22185714Y-85408557D02*
X22485714Y-84508557D01*
X22485714Y-84508557D02*
X22785714Y-85408557D01*
X23600000Y-85322842D02*
X23557143Y-85365700D01*
X23557143Y-85365700D02*
X23428571Y-85408557D01*
X23428571Y-85408557D02*
X23342857Y-85408557D01*
X23342857Y-85408557D02*
X23214286Y-85365700D01*
X23214286Y-85365700D02*
X23128571Y-85279985D01*
X23128571Y-85279985D02*
X23085714Y-85194271D01*
X23085714Y-85194271D02*
X23042857Y-85022842D01*
X23042857Y-85022842D02*
X23042857Y-84894271D01*
X23042857Y-84894271D02*
X23085714Y-84722842D01*
X23085714Y-84722842D02*
X23128571Y-84637128D01*
X23128571Y-84637128D02*
X23214286Y-84551414D01*
X23214286Y-84551414D02*
X23342857Y-84508557D01*
X23342857Y-84508557D02*
X23428571Y-84508557D01*
X23428571Y-84508557D02*
X23557143Y-84551414D01*
X23557143Y-84551414D02*
X23600000Y-84594271D01*
X36957142Y-85322842D02*
X36914285Y-85365700D01*
X36914285Y-85365700D02*
X36785713Y-85408557D01*
X36785713Y-85408557D02*
X36699999Y-85408557D01*
X36699999Y-85408557D02*
X36571428Y-85365700D01*
X36571428Y-85365700D02*
X36485713Y-85279985D01*
X36485713Y-85279985D02*
X36442856Y-85194271D01*
X36442856Y-85194271D02*
X36399999Y-85022842D01*
X36399999Y-85022842D02*
X36399999Y-84894271D01*
X36399999Y-84894271D02*
X36442856Y-84722842D01*
X36442856Y-84722842D02*
X36485713Y-84637128D01*
X36485713Y-84637128D02*
X36571428Y-84551414D01*
X36571428Y-84551414D02*
X36699999Y-84508557D01*
X36699999Y-84508557D02*
X36785713Y-84508557D01*
X36785713Y-84508557D02*
X36914285Y-84551414D01*
X36914285Y-84551414D02*
X36957142Y-84594271D01*
X37342856Y-85408557D02*
X37342856Y-84508557D01*
X37342856Y-84937128D02*
X37857142Y-84937128D01*
X37857142Y-85408557D02*
X37857142Y-84508557D01*
X38242856Y-84594271D02*
X38285713Y-84551414D01*
X38285713Y-84551414D02*
X38371428Y-84508557D01*
X38371428Y-84508557D02*
X38585713Y-84508557D01*
X38585713Y-84508557D02*
X38671428Y-84551414D01*
X38671428Y-84551414D02*
X38714285Y-84594271D01*
X38714285Y-84594271D02*
X38757142Y-84679985D01*
X38757142Y-84679985D02*
X38757142Y-84765700D01*
X38757142Y-84765700D02*
X38714285Y-84894271D01*
X38714285Y-84894271D02*
X38199999Y-85408557D01*
X38199999Y-85408557D02*
X38757142Y-85408557D01*
X39785713Y-84594271D02*
X39828570Y-84551414D01*
X39828570Y-84551414D02*
X39914285Y-84508557D01*
X39914285Y-84508557D02*
X40128570Y-84508557D01*
X40128570Y-84508557D02*
X40214285Y-84551414D01*
X40214285Y-84551414D02*
X40257142Y-84594271D01*
X40257142Y-84594271D02*
X40299999Y-84679985D01*
X40299999Y-84679985D02*
X40299999Y-84765700D01*
X40299999Y-84765700D02*
X40257142Y-84894271D01*
X40257142Y-84894271D02*
X39742856Y-85408557D01*
X39742856Y-85408557D02*
X40299999Y-85408557D01*
X41071428Y-84808557D02*
X41071428Y-85408557D01*
X40857142Y-84465700D02*
X40642856Y-85108557D01*
X40642856Y-85108557D02*
X41199999Y-85108557D01*
X41414285Y-84508557D02*
X41714285Y-85408557D01*
X41714285Y-85408557D02*
X42014285Y-84508557D01*
X42271428Y-85151414D02*
X42700000Y-85151414D01*
X42185714Y-85408557D02*
X42485714Y-84508557D01*
X42485714Y-84508557D02*
X42785714Y-85408557D01*
X43600000Y-85322842D02*
X43557143Y-85365700D01*
X43557143Y-85365700D02*
X43428571Y-85408557D01*
X43428571Y-85408557D02*
X43342857Y-85408557D01*
X43342857Y-85408557D02*
X43214286Y-85365700D01*
X43214286Y-85365700D02*
X43128571Y-85279985D01*
X43128571Y-85279985D02*
X43085714Y-85194271D01*
X43085714Y-85194271D02*
X43042857Y-85022842D01*
X43042857Y-85022842D02*
X43042857Y-84894271D01*
X43042857Y-84894271D02*
X43085714Y-84722842D01*
X43085714Y-84722842D02*
X43128571Y-84637128D01*
X43128571Y-84637128D02*
X43214286Y-84551414D01*
X43214286Y-84551414D02*
X43342857Y-84508557D01*
X43342857Y-84508557D02*
X43428571Y-84508557D01*
X43428571Y-84508557D02*
X43557143Y-84551414D01*
X43557143Y-84551414D02*
X43600000Y-84594271D01*
X56957142Y-85322842D02*
X56914285Y-85365700D01*
X56914285Y-85365700D02*
X56785713Y-85408557D01*
X56785713Y-85408557D02*
X56699999Y-85408557D01*
X56699999Y-85408557D02*
X56571428Y-85365700D01*
X56571428Y-85365700D02*
X56485713Y-85279985D01*
X56485713Y-85279985D02*
X56442856Y-85194271D01*
X56442856Y-85194271D02*
X56399999Y-85022842D01*
X56399999Y-85022842D02*
X56399999Y-84894271D01*
X56399999Y-84894271D02*
X56442856Y-84722842D01*
X56442856Y-84722842D02*
X56485713Y-84637128D01*
X56485713Y-84637128D02*
X56571428Y-84551414D01*
X56571428Y-84551414D02*
X56699999Y-84508557D01*
X56699999Y-84508557D02*
X56785713Y-84508557D01*
X56785713Y-84508557D02*
X56914285Y-84551414D01*
X56914285Y-84551414D02*
X56957142Y-84594271D01*
X57342856Y-85408557D02*
X57342856Y-84508557D01*
X57342856Y-84937128D02*
X57857142Y-84937128D01*
X57857142Y-85408557D02*
X57857142Y-84508557D01*
X58199999Y-84508557D02*
X58757142Y-84508557D01*
X58757142Y-84508557D02*
X58457142Y-84851414D01*
X58457142Y-84851414D02*
X58585713Y-84851414D01*
X58585713Y-84851414D02*
X58671428Y-84894271D01*
X58671428Y-84894271D02*
X58714285Y-84937128D01*
X58714285Y-84937128D02*
X58757142Y-85022842D01*
X58757142Y-85022842D02*
X58757142Y-85237128D01*
X58757142Y-85237128D02*
X58714285Y-85322842D01*
X58714285Y-85322842D02*
X58671428Y-85365700D01*
X58671428Y-85365700D02*
X58585713Y-85408557D01*
X58585713Y-85408557D02*
X58328570Y-85408557D01*
X58328570Y-85408557D02*
X58242856Y-85365700D01*
X58242856Y-85365700D02*
X58199999Y-85322842D01*
X59785713Y-84594271D02*
X59828570Y-84551414D01*
X59828570Y-84551414D02*
X59914285Y-84508557D01*
X59914285Y-84508557D02*
X60128570Y-84508557D01*
X60128570Y-84508557D02*
X60214285Y-84551414D01*
X60214285Y-84551414D02*
X60257142Y-84594271D01*
X60257142Y-84594271D02*
X60299999Y-84679985D01*
X60299999Y-84679985D02*
X60299999Y-84765700D01*
X60299999Y-84765700D02*
X60257142Y-84894271D01*
X60257142Y-84894271D02*
X59742856Y-85408557D01*
X59742856Y-85408557D02*
X60299999Y-85408557D01*
X61071428Y-84808557D02*
X61071428Y-85408557D01*
X60857142Y-84465700D02*
X60642856Y-85108557D01*
X60642856Y-85108557D02*
X61199999Y-85108557D01*
X61414285Y-84508557D02*
X61714285Y-85408557D01*
X61714285Y-85408557D02*
X62014285Y-84508557D01*
X62271428Y-85151414D02*
X62700000Y-85151414D01*
X62185714Y-85408557D02*
X62485714Y-84508557D01*
X62485714Y-84508557D02*
X62785714Y-85408557D01*
X63600000Y-85322842D02*
X63557143Y-85365700D01*
X63557143Y-85365700D02*
X63428571Y-85408557D01*
X63428571Y-85408557D02*
X63342857Y-85408557D01*
X63342857Y-85408557D02*
X63214286Y-85365700D01*
X63214286Y-85365700D02*
X63128571Y-85279985D01*
X63128571Y-85279985D02*
X63085714Y-85194271D01*
X63085714Y-85194271D02*
X63042857Y-85022842D01*
X63042857Y-85022842D02*
X63042857Y-84894271D01*
X63042857Y-84894271D02*
X63085714Y-84722842D01*
X63085714Y-84722842D02*
X63128571Y-84637128D01*
X63128571Y-84637128D02*
X63214286Y-84551414D01*
X63214286Y-84551414D02*
X63342857Y-84508557D01*
X63342857Y-84508557D02*
X63428571Y-84508557D01*
X63428571Y-84508557D02*
X63557143Y-84551414D01*
X63557143Y-84551414D02*
X63600000Y-84594271D01*
X76957142Y-85322842D02*
X76914285Y-85365700D01*
X76914285Y-85365700D02*
X76785713Y-85408557D01*
X76785713Y-85408557D02*
X76699999Y-85408557D01*
X76699999Y-85408557D02*
X76571428Y-85365700D01*
X76571428Y-85365700D02*
X76485713Y-85279985D01*
X76485713Y-85279985D02*
X76442856Y-85194271D01*
X76442856Y-85194271D02*
X76399999Y-85022842D01*
X76399999Y-85022842D02*
X76399999Y-84894271D01*
X76399999Y-84894271D02*
X76442856Y-84722842D01*
X76442856Y-84722842D02*
X76485713Y-84637128D01*
X76485713Y-84637128D02*
X76571428Y-84551414D01*
X76571428Y-84551414D02*
X76699999Y-84508557D01*
X76699999Y-84508557D02*
X76785713Y-84508557D01*
X76785713Y-84508557D02*
X76914285Y-84551414D01*
X76914285Y-84551414D02*
X76957142Y-84594271D01*
X77342856Y-85408557D02*
X77342856Y-84508557D01*
X77342856Y-84937128D02*
X77857142Y-84937128D01*
X77857142Y-85408557D02*
X77857142Y-84508557D01*
X78671428Y-84808557D02*
X78671428Y-85408557D01*
X78457142Y-84465700D02*
X78242856Y-85108557D01*
X78242856Y-85108557D02*
X78799999Y-85108557D01*
X79785713Y-84594271D02*
X79828570Y-84551414D01*
X79828570Y-84551414D02*
X79914285Y-84508557D01*
X79914285Y-84508557D02*
X80128570Y-84508557D01*
X80128570Y-84508557D02*
X80214285Y-84551414D01*
X80214285Y-84551414D02*
X80257142Y-84594271D01*
X80257142Y-84594271D02*
X80299999Y-84679985D01*
X80299999Y-84679985D02*
X80299999Y-84765700D01*
X80299999Y-84765700D02*
X80257142Y-84894271D01*
X80257142Y-84894271D02*
X79742856Y-85408557D01*
X79742856Y-85408557D02*
X80299999Y-85408557D01*
X81071428Y-84808557D02*
X81071428Y-85408557D01*
X80857142Y-84465700D02*
X80642856Y-85108557D01*
X80642856Y-85108557D02*
X81199999Y-85108557D01*
X81414285Y-84508557D02*
X81714285Y-85408557D01*
X81714285Y-85408557D02*
X82014285Y-84508557D01*
X82271428Y-85151414D02*
X82700000Y-85151414D01*
X82185714Y-85408557D02*
X82485714Y-84508557D01*
X82485714Y-84508557D02*
X82785714Y-85408557D01*
X83600000Y-85322842D02*
X83557143Y-85365700D01*
X83557143Y-85365700D02*
X83428571Y-85408557D01*
X83428571Y-85408557D02*
X83342857Y-85408557D01*
X83342857Y-85408557D02*
X83214286Y-85365700D01*
X83214286Y-85365700D02*
X83128571Y-85279985D01*
X83128571Y-85279985D02*
X83085714Y-85194271D01*
X83085714Y-85194271D02*
X83042857Y-85022842D01*
X83042857Y-85022842D02*
X83042857Y-84894271D01*
X83042857Y-84894271D02*
X83085714Y-84722842D01*
X83085714Y-84722842D02*
X83128571Y-84637128D01*
X83128571Y-84637128D02*
X83214286Y-84551414D01*
X83214286Y-84551414D02*
X83342857Y-84508557D01*
X83342857Y-84508557D02*
X83428571Y-84508557D01*
X83428571Y-84508557D02*
X83557143Y-84551414D01*
X83557143Y-84551414D02*
X83600000Y-84594271D01*
X10428571Y-12859580D02*
X10380952Y-12907200D01*
X10380952Y-12907200D02*
X10238095Y-12954819D01*
X10238095Y-12954819D02*
X10142857Y-12954819D01*
X10142857Y-12954819D02*
X10000000Y-12907200D01*
X10000000Y-12907200D02*
X9904762Y-12811961D01*
X9904762Y-12811961D02*
X9857143Y-12716723D01*
X9857143Y-12716723D02*
X9809524Y-12526247D01*
X9809524Y-12526247D02*
X9809524Y-12383390D01*
X9809524Y-12383390D02*
X9857143Y-12192914D01*
X9857143Y-12192914D02*
X9904762Y-12097676D01*
X9904762Y-12097676D02*
X10000000Y-12002438D01*
X10000000Y-12002438D02*
X10142857Y-11954819D01*
X10142857Y-11954819D02*
X10238095Y-11954819D01*
X10238095Y-11954819D02*
X10380952Y-12002438D01*
X10380952Y-12002438D02*
X10428571Y-12050057D01*
X10857143Y-12954819D02*
X10857143Y-11954819D01*
X10857143Y-12431009D02*
X11428571Y-12431009D01*
X11428571Y-12954819D02*
X11428571Y-11954819D01*
X12428571Y-12954819D02*
X11857143Y-12954819D01*
X12142857Y-12954819D02*
X12142857Y-11954819D01*
X12142857Y-11954819D02*
X12047619Y-12097676D01*
X12047619Y-12097676D02*
X11952381Y-12192914D01*
X11952381Y-12192914D02*
X11857143Y-12240533D01*
X13619048Y-12954819D02*
X13619048Y-11954819D01*
X13619048Y-11954819D02*
X13857143Y-11954819D01*
X13857143Y-11954819D02*
X14000000Y-12002438D01*
X14000000Y-12002438D02*
X14095238Y-12097676D01*
X14095238Y-12097676D02*
X14142857Y-12192914D01*
X14142857Y-12192914D02*
X14190476Y-12383390D01*
X14190476Y-12383390D02*
X14190476Y-12526247D01*
X14190476Y-12526247D02*
X14142857Y-12716723D01*
X14142857Y-12716723D02*
X14095238Y-12811961D01*
X14095238Y-12811961D02*
X14000000Y-12907200D01*
X14000000Y-12907200D02*
X13857143Y-12954819D01*
X13857143Y-12954819D02*
X13619048Y-12954819D01*
X15190476Y-12859580D02*
X15142857Y-12907200D01*
X15142857Y-12907200D02*
X15000000Y-12954819D01*
X15000000Y-12954819D02*
X14904762Y-12954819D01*
X14904762Y-12954819D02*
X14761905Y-12907200D01*
X14761905Y-12907200D02*
X14666667Y-12811961D01*
X14666667Y-12811961D02*
X14619048Y-12716723D01*
X14619048Y-12716723D02*
X14571429Y-12526247D01*
X14571429Y-12526247D02*
X14571429Y-12383390D01*
X14571429Y-12383390D02*
X14619048Y-12192914D01*
X14619048Y-12192914D02*
X14666667Y-12097676D01*
X14666667Y-12097676D02*
X14761905Y-12002438D01*
X14761905Y-12002438D02*
X14904762Y-11954819D01*
X14904762Y-11954819D02*
X15000000Y-11954819D01*
X15000000Y-11954819D02*
X15142857Y-12002438D01*
X15142857Y-12002438D02*
X15190476Y-12050057D01*
X30428571Y-12859580D02*
X30380952Y-12907200D01*
X30380952Y-12907200D02*
X30238095Y-12954819D01*
X30238095Y-12954819D02*
X30142857Y-12954819D01*
X30142857Y-12954819D02*
X30000000Y-12907200D01*
X30000000Y-12907200D02*
X29904762Y-12811961D01*
X29904762Y-12811961D02*
X29857143Y-12716723D01*
X29857143Y-12716723D02*
X29809524Y-12526247D01*
X29809524Y-12526247D02*
X29809524Y-12383390D01*
X29809524Y-12383390D02*
X29857143Y-12192914D01*
X29857143Y-12192914D02*
X29904762Y-12097676D01*
X29904762Y-12097676D02*
X30000000Y-12002438D01*
X30000000Y-12002438D02*
X30142857Y-11954819D01*
X30142857Y-11954819D02*
X30238095Y-11954819D01*
X30238095Y-11954819D02*
X30380952Y-12002438D01*
X30380952Y-12002438D02*
X30428571Y-12050057D01*
X30857143Y-12954819D02*
X30857143Y-11954819D01*
X30857143Y-12431009D02*
X31428571Y-12431009D01*
X31428571Y-12954819D02*
X31428571Y-11954819D01*
X31857143Y-12050057D02*
X31904762Y-12002438D01*
X31904762Y-12002438D02*
X32000000Y-11954819D01*
X32000000Y-11954819D02*
X32238095Y-11954819D01*
X32238095Y-11954819D02*
X32333333Y-12002438D01*
X32333333Y-12002438D02*
X32380952Y-12050057D01*
X32380952Y-12050057D02*
X32428571Y-12145295D01*
X32428571Y-12145295D02*
X32428571Y-12240533D01*
X32428571Y-12240533D02*
X32380952Y-12383390D01*
X32380952Y-12383390D02*
X31809524Y-12954819D01*
X31809524Y-12954819D02*
X32428571Y-12954819D01*
X33619048Y-12954819D02*
X33619048Y-11954819D01*
X33619048Y-11954819D02*
X33857143Y-11954819D01*
X33857143Y-11954819D02*
X34000000Y-12002438D01*
X34000000Y-12002438D02*
X34095238Y-12097676D01*
X34095238Y-12097676D02*
X34142857Y-12192914D01*
X34142857Y-12192914D02*
X34190476Y-12383390D01*
X34190476Y-12383390D02*
X34190476Y-12526247D01*
X34190476Y-12526247D02*
X34142857Y-12716723D01*
X34142857Y-12716723D02*
X34095238Y-12811961D01*
X34095238Y-12811961D02*
X34000000Y-12907200D01*
X34000000Y-12907200D02*
X33857143Y-12954819D01*
X33857143Y-12954819D02*
X33619048Y-12954819D01*
X35190476Y-12859580D02*
X35142857Y-12907200D01*
X35142857Y-12907200D02*
X35000000Y-12954819D01*
X35000000Y-12954819D02*
X34904762Y-12954819D01*
X34904762Y-12954819D02*
X34761905Y-12907200D01*
X34761905Y-12907200D02*
X34666667Y-12811961D01*
X34666667Y-12811961D02*
X34619048Y-12716723D01*
X34619048Y-12716723D02*
X34571429Y-12526247D01*
X34571429Y-12526247D02*
X34571429Y-12383390D01*
X34571429Y-12383390D02*
X34619048Y-12192914D01*
X34619048Y-12192914D02*
X34666667Y-12097676D01*
X34666667Y-12097676D02*
X34761905Y-12002438D01*
X34761905Y-12002438D02*
X34904762Y-11954819D01*
X34904762Y-11954819D02*
X35000000Y-11954819D01*
X35000000Y-11954819D02*
X35142857Y-12002438D01*
X35142857Y-12002438D02*
X35190476Y-12050057D01*
X50428571Y-12859580D02*
X50380952Y-12907200D01*
X50380952Y-12907200D02*
X50238095Y-12954819D01*
X50238095Y-12954819D02*
X50142857Y-12954819D01*
X50142857Y-12954819D02*
X50000000Y-12907200D01*
X50000000Y-12907200D02*
X49904762Y-12811961D01*
X49904762Y-12811961D02*
X49857143Y-12716723D01*
X49857143Y-12716723D02*
X49809524Y-12526247D01*
X49809524Y-12526247D02*
X49809524Y-12383390D01*
X49809524Y-12383390D02*
X49857143Y-12192914D01*
X49857143Y-12192914D02*
X49904762Y-12097676D01*
X49904762Y-12097676D02*
X50000000Y-12002438D01*
X50000000Y-12002438D02*
X50142857Y-11954819D01*
X50142857Y-11954819D02*
X50238095Y-11954819D01*
X50238095Y-11954819D02*
X50380952Y-12002438D01*
X50380952Y-12002438D02*
X50428571Y-12050057D01*
X50857143Y-12954819D02*
X50857143Y-11954819D01*
X50857143Y-12431009D02*
X51428571Y-12431009D01*
X51428571Y-12954819D02*
X51428571Y-11954819D01*
X51809524Y-11954819D02*
X52428571Y-11954819D01*
X52428571Y-11954819D02*
X52095238Y-12335771D01*
X52095238Y-12335771D02*
X52238095Y-12335771D01*
X52238095Y-12335771D02*
X52333333Y-12383390D01*
X52333333Y-12383390D02*
X52380952Y-12431009D01*
X52380952Y-12431009D02*
X52428571Y-12526247D01*
X52428571Y-12526247D02*
X52428571Y-12764342D01*
X52428571Y-12764342D02*
X52380952Y-12859580D01*
X52380952Y-12859580D02*
X52333333Y-12907200D01*
X52333333Y-12907200D02*
X52238095Y-12954819D01*
X52238095Y-12954819D02*
X51952381Y-12954819D01*
X51952381Y-12954819D02*
X51857143Y-12907200D01*
X51857143Y-12907200D02*
X51809524Y-12859580D01*
X53619048Y-12954819D02*
X53619048Y-11954819D01*
X53619048Y-11954819D02*
X53857143Y-11954819D01*
X53857143Y-11954819D02*
X54000000Y-12002438D01*
X54000000Y-12002438D02*
X54095238Y-12097676D01*
X54095238Y-12097676D02*
X54142857Y-12192914D01*
X54142857Y-12192914D02*
X54190476Y-12383390D01*
X54190476Y-12383390D02*
X54190476Y-12526247D01*
X54190476Y-12526247D02*
X54142857Y-12716723D01*
X54142857Y-12716723D02*
X54095238Y-12811961D01*
X54095238Y-12811961D02*
X54000000Y-12907200D01*
X54000000Y-12907200D02*
X53857143Y-12954819D01*
X53857143Y-12954819D02*
X53619048Y-12954819D01*
X55190476Y-12859580D02*
X55142857Y-12907200D01*
X55142857Y-12907200D02*
X55000000Y-12954819D01*
X55000000Y-12954819D02*
X54904762Y-12954819D01*
X54904762Y-12954819D02*
X54761905Y-12907200D01*
X54761905Y-12907200D02*
X54666667Y-12811961D01*
X54666667Y-12811961D02*
X54619048Y-12716723D01*
X54619048Y-12716723D02*
X54571429Y-12526247D01*
X54571429Y-12526247D02*
X54571429Y-12383390D01*
X54571429Y-12383390D02*
X54619048Y-12192914D01*
X54619048Y-12192914D02*
X54666667Y-12097676D01*
X54666667Y-12097676D02*
X54761905Y-12002438D01*
X54761905Y-12002438D02*
X54904762Y-11954819D01*
X54904762Y-11954819D02*
X55000000Y-11954819D01*
X55000000Y-11954819D02*
X55142857Y-12002438D01*
X55142857Y-12002438D02*
X55190476Y-12050057D01*
X70428571Y-12859580D02*
X70380952Y-12907200D01*
X70380952Y-12907200D02*
X70238095Y-12954819D01*
X70238095Y-12954819D02*
X70142857Y-12954819D01*
X70142857Y-12954819D02*
X70000000Y-12907200D01*
X70000000Y-12907200D02*
X69904762Y-12811961D01*
X69904762Y-12811961D02*
X69857143Y-12716723D01*
X69857143Y-12716723D02*
X69809524Y-12526247D01*
X69809524Y-12526247D02*
X69809524Y-12383390D01*
X69809524Y-12383390D02*
X69857143Y-12192914D01*
X69857143Y-12192914D02*
X69904762Y-12097676D01*
X69904762Y-12097676D02*
X70000000Y-12002438D01*
X70000000Y-12002438D02*
X70142857Y-11954819D01*
X70142857Y-11954819D02*
X70238095Y-11954819D01*
X70238095Y-11954819D02*
X70380952Y-12002438D01*
X70380952Y-12002438D02*
X70428571Y-12050057D01*
X70857143Y-12954819D02*
X70857143Y-11954819D01*
X70857143Y-12431009D02*
X71428571Y-12431009D01*
X71428571Y-12954819D02*
X71428571Y-11954819D01*
X72333333Y-12288152D02*
X72333333Y-12954819D01*
X72095238Y-11907200D02*
X71857143Y-12621485D01*
X71857143Y-12621485D02*
X72476190Y-12621485D01*
X73619048Y-12954819D02*
X73619048Y-11954819D01*
X73619048Y-11954819D02*
X73857143Y-11954819D01*
X73857143Y-11954819D02*
X74000000Y-12002438D01*
X74000000Y-12002438D02*
X74095238Y-12097676D01*
X74095238Y-12097676D02*
X74142857Y-12192914D01*
X74142857Y-12192914D02*
X74190476Y-12383390D01*
X74190476Y-12383390D02*
X74190476Y-12526247D01*
X74190476Y-12526247D02*
X74142857Y-12716723D01*
X74142857Y-12716723D02*
X74095238Y-12811961D01*
X74095238Y-12811961D02*
X74000000Y-12907200D01*
X74000000Y-12907200D02*
X73857143Y-12954819D01*
X73857143Y-12954819D02*
X73619048Y-12954819D01*
X75190476Y-12859580D02*
X75142857Y-12907200D01*
X75142857Y-12907200D02*
X75000000Y-12954819D01*
X75000000Y-12954819D02*
X74904762Y-12954819D01*
X74904762Y-12954819D02*
X74761905Y-12907200D01*
X74761905Y-12907200D02*
X74666667Y-12811961D01*
X74666667Y-12811961D02*
X74619048Y-12716723D01*
X74619048Y-12716723D02*
X74571429Y-12526247D01*
X74571429Y-12526247D02*
X74571429Y-12383390D01*
X74571429Y-12383390D02*
X74619048Y-12192914D01*
X74619048Y-12192914D02*
X74666667Y-12097676D01*
X74666667Y-12097676D02*
X74761905Y-12002438D01*
X74761905Y-12002438D02*
X74904762Y-11954819D01*
X74904762Y-11954819D02*
X75000000Y-11954819D01*
X75000000Y-11954819D02*
X75142857Y-12002438D01*
X75142857Y-12002438D02*
X75190476Y-12050057D01*
X81071429Y-59454819D02*
X81309524Y-60454819D01*
X81309524Y-60454819D02*
X81500000Y-59740533D01*
X81500000Y-59740533D02*
X81690476Y-60454819D01*
X81690476Y-60454819D02*
X81928572Y-59454819D01*
X82309524Y-60454819D02*
X82309524Y-59454819D01*
X82309524Y-59454819D02*
X82547619Y-59454819D01*
X82547619Y-59454819D02*
X82690476Y-59502438D01*
X82690476Y-59502438D02*
X82785714Y-59597676D01*
X82785714Y-59597676D02*
X82833333Y-59692914D01*
X82833333Y-59692914D02*
X82880952Y-59883390D01*
X82880952Y-59883390D02*
X82880952Y-60026247D01*
X82880952Y-60026247D02*
X82833333Y-60216723D01*
X82833333Y-60216723D02*
X82785714Y-60311961D01*
X82785714Y-60311961D02*
X82690476Y-60407200D01*
X82690476Y-60407200D02*
X82547619Y-60454819D01*
X82547619Y-60454819D02*
X82309524Y-60454819D01*
X80666667Y-70454819D02*
X80666667Y-69454819D01*
X80666667Y-69454819D02*
X81047619Y-69454819D01*
X81047619Y-69454819D02*
X81142857Y-69502438D01*
X81142857Y-69502438D02*
X81190476Y-69550057D01*
X81190476Y-69550057D02*
X81238095Y-69645295D01*
X81238095Y-69645295D02*
X81238095Y-69788152D01*
X81238095Y-69788152D02*
X81190476Y-69883390D01*
X81190476Y-69883390D02*
X81142857Y-69931009D01*
X81142857Y-69931009D02*
X81047619Y-69978628D01*
X81047619Y-69978628D02*
X80666667Y-69978628D01*
X81571429Y-69454819D02*
X81809524Y-70454819D01*
X81809524Y-70454819D02*
X82000000Y-69740533D01*
X82000000Y-69740533D02*
X82190476Y-70454819D01*
X82190476Y-70454819D02*
X82428572Y-69454819D01*
X83380952Y-70454819D02*
X83047619Y-69978628D01*
X82809524Y-70454819D02*
X82809524Y-69454819D01*
X82809524Y-69454819D02*
X83190476Y-69454819D01*
X83190476Y-69454819D02*
X83285714Y-69502438D01*
X83285714Y-69502438D02*
X83333333Y-69550057D01*
X83333333Y-69550057D02*
X83380952Y-69645295D01*
X83380952Y-69645295D02*
X83380952Y-69788152D01*
X83380952Y-69788152D02*
X83333333Y-69883390D01*
X83333333Y-69883390D02*
X83285714Y-69931009D01*
X83285714Y-69931009D02*
X83190476Y-69978628D01*
X83190476Y-69978628D02*
X82809524Y-69978628D01*
X23738095Y-19806819D02*
X24309523Y-19806819D01*
X24023809Y-20806819D02*
X24023809Y-19806819D01*
X24642857Y-20806819D02*
X24642857Y-19806819D01*
X24642857Y-19806819D02*
X25023809Y-19806819D01*
X25023809Y-19806819D02*
X25119047Y-19854438D01*
X25119047Y-19854438D02*
X25166666Y-19902057D01*
X25166666Y-19902057D02*
X25214285Y-19997295D01*
X25214285Y-19997295D02*
X25214285Y-20140152D01*
X25214285Y-20140152D02*
X25166666Y-20235390D01*
X25166666Y-20235390D02*
X25119047Y-20283009D01*
X25119047Y-20283009D02*
X25023809Y-20330628D01*
X25023809Y-20330628D02*
X24642857Y-20330628D01*
X26166666Y-20806819D02*
X25595238Y-20806819D01*
X25880952Y-20806819D02*
X25880952Y-19806819D01*
X25880952Y-19806819D02*
X25785714Y-19949676D01*
X25785714Y-19949676D02*
X25690476Y-20044914D01*
X25690476Y-20044914D02*
X25595238Y-20092533D01*
X47833333Y-53804819D02*
X47500000Y-53328628D01*
X47261905Y-53804819D02*
X47261905Y-52804819D01*
X47261905Y-52804819D02*
X47642857Y-52804819D01*
X47642857Y-52804819D02*
X47738095Y-52852438D01*
X47738095Y-52852438D02*
X47785714Y-52900057D01*
X47785714Y-52900057D02*
X47833333Y-52995295D01*
X47833333Y-52995295D02*
X47833333Y-53138152D01*
X47833333Y-53138152D02*
X47785714Y-53233390D01*
X47785714Y-53233390D02*
X47738095Y-53281009D01*
X47738095Y-53281009D02*
X47642857Y-53328628D01*
X47642857Y-53328628D02*
X47261905Y-53328628D01*
X48166667Y-52804819D02*
X48785714Y-52804819D01*
X48785714Y-52804819D02*
X48452381Y-53185771D01*
X48452381Y-53185771D02*
X48595238Y-53185771D01*
X48595238Y-53185771D02*
X48690476Y-53233390D01*
X48690476Y-53233390D02*
X48738095Y-53281009D01*
X48738095Y-53281009D02*
X48785714Y-53376247D01*
X48785714Y-53376247D02*
X48785714Y-53614342D01*
X48785714Y-53614342D02*
X48738095Y-53709580D01*
X48738095Y-53709580D02*
X48690476Y-53757200D01*
X48690476Y-53757200D02*
X48595238Y-53804819D01*
X48595238Y-53804819D02*
X48309524Y-53804819D01*
X48309524Y-53804819D02*
X48214286Y-53757200D01*
X48214286Y-53757200D02*
X48166667Y-53709580D01*
X38738095Y-62806819D02*
X39309523Y-62806819D01*
X39023809Y-63806819D02*
X39023809Y-62806819D01*
X39642857Y-63806819D02*
X39642857Y-62806819D01*
X39642857Y-62806819D02*
X40023809Y-62806819D01*
X40023809Y-62806819D02*
X40119047Y-62854438D01*
X40119047Y-62854438D02*
X40166666Y-62902057D01*
X40166666Y-62902057D02*
X40214285Y-62997295D01*
X40214285Y-62997295D02*
X40214285Y-63140152D01*
X40214285Y-63140152D02*
X40166666Y-63235390D01*
X40166666Y-63235390D02*
X40119047Y-63283009D01*
X40119047Y-63283009D02*
X40023809Y-63330628D01*
X40023809Y-63330628D02*
X39642857Y-63330628D01*
X41119047Y-62806819D02*
X40642857Y-62806819D01*
X40642857Y-62806819D02*
X40595238Y-63283009D01*
X40595238Y-63283009D02*
X40642857Y-63235390D01*
X40642857Y-63235390D02*
X40738095Y-63187771D01*
X40738095Y-63187771D02*
X40976190Y-63187771D01*
X40976190Y-63187771D02*
X41071428Y-63235390D01*
X41071428Y-63235390D02*
X41119047Y-63283009D01*
X41119047Y-63283009D02*
X41166666Y-63378247D01*
X41166666Y-63378247D02*
X41166666Y-63616342D01*
X41166666Y-63616342D02*
X41119047Y-63711580D01*
X41119047Y-63711580D02*
X41071428Y-63759200D01*
X41071428Y-63759200D02*
X40976190Y-63806819D01*
X40976190Y-63806819D02*
X40738095Y-63806819D01*
X40738095Y-63806819D02*
X40642857Y-63759200D01*
X40642857Y-63759200D02*
X40595238Y-63711580D01*
X73261905Y-45806819D02*
X73833333Y-45806819D01*
X73547619Y-46806819D02*
X73547619Y-45806819D01*
X74166667Y-46806819D02*
X74166667Y-45806819D01*
X74166667Y-45806819D02*
X74547619Y-45806819D01*
X74547619Y-45806819D02*
X74642857Y-45854438D01*
X74642857Y-45854438D02*
X74690476Y-45902057D01*
X74690476Y-45902057D02*
X74738095Y-45997295D01*
X74738095Y-45997295D02*
X74738095Y-46140152D01*
X74738095Y-46140152D02*
X74690476Y-46235390D01*
X74690476Y-46235390D02*
X74642857Y-46283009D01*
X74642857Y-46283009D02*
X74547619Y-46330628D01*
X74547619Y-46330628D02*
X74166667Y-46330628D01*
X75690476Y-46806819D02*
X75119048Y-46806819D01*
X75404762Y-46806819D02*
X75404762Y-45806819D01*
X75404762Y-45806819D02*
X75309524Y-45949676D01*
X75309524Y-45949676D02*
X75214286Y-46044914D01*
X75214286Y-46044914D02*
X75119048Y-46092533D01*
X76023810Y-45806819D02*
X76642857Y-45806819D01*
X76642857Y-45806819D02*
X76309524Y-46187771D01*
X76309524Y-46187771D02*
X76452381Y-46187771D01*
X76452381Y-46187771D02*
X76547619Y-46235390D01*
X76547619Y-46235390D02*
X76595238Y-46283009D01*
X76595238Y-46283009D02*
X76642857Y-46378247D01*
X76642857Y-46378247D02*
X76642857Y-46616342D01*
X76642857Y-46616342D02*
X76595238Y-46711580D01*
X76595238Y-46711580D02*
X76547619Y-46759200D01*
X76547619Y-46759200D02*
X76452381Y-46806819D01*
X76452381Y-46806819D02*
X76166667Y-46806819D01*
X76166667Y-46806819D02*
X76071429Y-46759200D01*
X76071429Y-46759200D02*
X76023810Y-46711580D01*
X71833333Y-68804819D02*
X71500000Y-68328628D01*
X71261905Y-68804819D02*
X71261905Y-67804819D01*
X71261905Y-67804819D02*
X71642857Y-67804819D01*
X71642857Y-67804819D02*
X71738095Y-67852438D01*
X71738095Y-67852438D02*
X71785714Y-67900057D01*
X71785714Y-67900057D02*
X71833333Y-67995295D01*
X71833333Y-67995295D02*
X71833333Y-68138152D01*
X71833333Y-68138152D02*
X71785714Y-68233390D01*
X71785714Y-68233390D02*
X71738095Y-68281009D01*
X71738095Y-68281009D02*
X71642857Y-68328628D01*
X71642857Y-68328628D02*
X71261905Y-68328628D01*
X72404762Y-68233390D02*
X72309524Y-68185771D01*
X72309524Y-68185771D02*
X72261905Y-68138152D01*
X72261905Y-68138152D02*
X72214286Y-68042914D01*
X72214286Y-68042914D02*
X72214286Y-67995295D01*
X72214286Y-67995295D02*
X72261905Y-67900057D01*
X72261905Y-67900057D02*
X72309524Y-67852438D01*
X72309524Y-67852438D02*
X72404762Y-67804819D01*
X72404762Y-67804819D02*
X72595238Y-67804819D01*
X72595238Y-67804819D02*
X72690476Y-67852438D01*
X72690476Y-67852438D02*
X72738095Y-67900057D01*
X72738095Y-67900057D02*
X72785714Y-67995295D01*
X72785714Y-67995295D02*
X72785714Y-68042914D01*
X72785714Y-68042914D02*
X72738095Y-68138152D01*
X72738095Y-68138152D02*
X72690476Y-68185771D01*
X72690476Y-68185771D02*
X72595238Y-68233390D01*
X72595238Y-68233390D02*
X72404762Y-68233390D01*
X72404762Y-68233390D02*
X72309524Y-68281009D01*
X72309524Y-68281009D02*
X72261905Y-68328628D01*
X72261905Y-68328628D02*
X72214286Y-68423866D01*
X72214286Y-68423866D02*
X72214286Y-68614342D01*
X72214286Y-68614342D02*
X72261905Y-68709580D01*
X72261905Y-68709580D02*
X72309524Y-68757200D01*
X72309524Y-68757200D02*
X72404762Y-68804819D01*
X72404762Y-68804819D02*
X72595238Y-68804819D01*
X72595238Y-68804819D02*
X72690476Y-68757200D01*
X72690476Y-68757200D02*
X72738095Y-68709580D01*
X72738095Y-68709580D02*
X72785714Y-68614342D01*
X72785714Y-68614342D02*
X72785714Y-68423866D01*
X72785714Y-68423866D02*
X72738095Y-68328628D01*
X72738095Y-68328628D02*
X72690476Y-68281009D01*
X72690476Y-68281009D02*
X72595238Y-68233390D01*
X44261905Y-64304819D02*
X44261905Y-63304819D01*
X44261905Y-63304819D02*
X44500000Y-63304819D01*
X44500000Y-63304819D02*
X44642857Y-63352438D01*
X44642857Y-63352438D02*
X44738095Y-63447676D01*
X44738095Y-63447676D02*
X44785714Y-63542914D01*
X44785714Y-63542914D02*
X44833333Y-63733390D01*
X44833333Y-63733390D02*
X44833333Y-63876247D01*
X44833333Y-63876247D02*
X44785714Y-64066723D01*
X44785714Y-64066723D02*
X44738095Y-64161961D01*
X44738095Y-64161961D02*
X44642857Y-64257200D01*
X44642857Y-64257200D02*
X44500000Y-64304819D01*
X44500000Y-64304819D02*
X44261905Y-64304819D01*
X45785714Y-64304819D02*
X45214286Y-64304819D01*
X45500000Y-64304819D02*
X45500000Y-63304819D01*
X45500000Y-63304819D02*
X45404762Y-63447676D01*
X45404762Y-63447676D02*
X45309524Y-63542914D01*
X45309524Y-63542914D02*
X45214286Y-63590533D01*
X58804819Y-42642857D02*
X58328628Y-42976190D01*
X58804819Y-43214285D02*
X57804819Y-43214285D01*
X57804819Y-43214285D02*
X57804819Y-42833333D01*
X57804819Y-42833333D02*
X57852438Y-42738095D01*
X57852438Y-42738095D02*
X57900057Y-42690476D01*
X57900057Y-42690476D02*
X57995295Y-42642857D01*
X57995295Y-42642857D02*
X58138152Y-42642857D01*
X58138152Y-42642857D02*
X58233390Y-42690476D01*
X58233390Y-42690476D02*
X58281009Y-42738095D01*
X58281009Y-42738095D02*
X58328628Y-42833333D01*
X58328628Y-42833333D02*
X58328628Y-43214285D01*
X58804819Y-41690476D02*
X58804819Y-42261904D01*
X58804819Y-41976190D02*
X57804819Y-41976190D01*
X57804819Y-41976190D02*
X57947676Y-42071428D01*
X57947676Y-42071428D02*
X58042914Y-42166666D01*
X58042914Y-42166666D02*
X58090533Y-42261904D01*
X58804819Y-40738095D02*
X58804819Y-41309523D01*
X58804819Y-41023809D02*
X57804819Y-41023809D01*
X57804819Y-41023809D02*
X57947676Y-41119047D01*
X57947676Y-41119047D02*
X58042914Y-41214285D01*
X58042914Y-41214285D02*
X58090533Y-41309523D01*
X77954819Y-18738094D02*
X76954819Y-18738094D01*
X76954819Y-18738094D02*
X76954819Y-18499999D01*
X76954819Y-18499999D02*
X77002438Y-18357142D01*
X77002438Y-18357142D02*
X77097676Y-18261904D01*
X77097676Y-18261904D02*
X77192914Y-18214285D01*
X77192914Y-18214285D02*
X77383390Y-18166666D01*
X77383390Y-18166666D02*
X77526247Y-18166666D01*
X77526247Y-18166666D02*
X77716723Y-18214285D01*
X77716723Y-18214285D02*
X77811961Y-18261904D01*
X77811961Y-18261904D02*
X77907200Y-18357142D01*
X77907200Y-18357142D02*
X77954819Y-18499999D01*
X77954819Y-18499999D02*
X77954819Y-18738094D01*
X76954819Y-17309523D02*
X76954819Y-17499999D01*
X76954819Y-17499999D02*
X77002438Y-17595237D01*
X77002438Y-17595237D02*
X77050057Y-17642856D01*
X77050057Y-17642856D02*
X77192914Y-17738094D01*
X77192914Y-17738094D02*
X77383390Y-17785713D01*
X77383390Y-17785713D02*
X77764342Y-17785713D01*
X77764342Y-17785713D02*
X77859580Y-17738094D01*
X77859580Y-17738094D02*
X77907200Y-17690475D01*
X77907200Y-17690475D02*
X77954819Y-17595237D01*
X77954819Y-17595237D02*
X77954819Y-17404761D01*
X77954819Y-17404761D02*
X77907200Y-17309523D01*
X77907200Y-17309523D02*
X77859580Y-17261904D01*
X77859580Y-17261904D02*
X77764342Y-17214285D01*
X77764342Y-17214285D02*
X77526247Y-17214285D01*
X77526247Y-17214285D02*
X77431009Y-17261904D01*
X77431009Y-17261904D02*
X77383390Y-17309523D01*
X77383390Y-17309523D02*
X77335771Y-17404761D01*
X77335771Y-17404761D02*
X77335771Y-17595237D01*
X77335771Y-17595237D02*
X77383390Y-17690475D01*
X77383390Y-17690475D02*
X77431009Y-17738094D01*
X77431009Y-17738094D02*
X77526247Y-17785713D01*
X36833333Y-58679580D02*
X36785714Y-58727200D01*
X36785714Y-58727200D02*
X36642857Y-58774819D01*
X36642857Y-58774819D02*
X36547619Y-58774819D01*
X36547619Y-58774819D02*
X36404762Y-58727200D01*
X36404762Y-58727200D02*
X36309524Y-58631961D01*
X36309524Y-58631961D02*
X36261905Y-58536723D01*
X36261905Y-58536723D02*
X36214286Y-58346247D01*
X36214286Y-58346247D02*
X36214286Y-58203390D01*
X36214286Y-58203390D02*
X36261905Y-58012914D01*
X36261905Y-58012914D02*
X36309524Y-57917676D01*
X36309524Y-57917676D02*
X36404762Y-57822438D01*
X36404762Y-57822438D02*
X36547619Y-57774819D01*
X36547619Y-57774819D02*
X36642857Y-57774819D01*
X36642857Y-57774819D02*
X36785714Y-57822438D01*
X36785714Y-57822438D02*
X36833333Y-57870057D01*
X37166667Y-57774819D02*
X37785714Y-57774819D01*
X37785714Y-57774819D02*
X37452381Y-58155771D01*
X37452381Y-58155771D02*
X37595238Y-58155771D01*
X37595238Y-58155771D02*
X37690476Y-58203390D01*
X37690476Y-58203390D02*
X37738095Y-58251009D01*
X37738095Y-58251009D02*
X37785714Y-58346247D01*
X37785714Y-58346247D02*
X37785714Y-58584342D01*
X37785714Y-58584342D02*
X37738095Y-58679580D01*
X37738095Y-58679580D02*
X37690476Y-58727200D01*
X37690476Y-58727200D02*
X37595238Y-58774819D01*
X37595238Y-58774819D02*
X37309524Y-58774819D01*
X37309524Y-58774819D02*
X37214286Y-58727200D01*
X37214286Y-58727200D02*
X37166667Y-58679580D01*
X78804819Y-42642857D02*
X78328628Y-42976190D01*
X78804819Y-43214285D02*
X77804819Y-43214285D01*
X77804819Y-43214285D02*
X77804819Y-42833333D01*
X77804819Y-42833333D02*
X77852438Y-42738095D01*
X77852438Y-42738095D02*
X77900057Y-42690476D01*
X77900057Y-42690476D02*
X77995295Y-42642857D01*
X77995295Y-42642857D02*
X78138152Y-42642857D01*
X78138152Y-42642857D02*
X78233390Y-42690476D01*
X78233390Y-42690476D02*
X78281009Y-42738095D01*
X78281009Y-42738095D02*
X78328628Y-42833333D01*
X78328628Y-42833333D02*
X78328628Y-43214285D01*
X78804819Y-41690476D02*
X78804819Y-42261904D01*
X78804819Y-41976190D02*
X77804819Y-41976190D01*
X77804819Y-41976190D02*
X77947676Y-42071428D01*
X77947676Y-42071428D02*
X78042914Y-42166666D01*
X78042914Y-42166666D02*
X78090533Y-42261904D01*
X77900057Y-41309523D02*
X77852438Y-41261904D01*
X77852438Y-41261904D02*
X77804819Y-41166666D01*
X77804819Y-41166666D02*
X77804819Y-40928571D01*
X77804819Y-40928571D02*
X77852438Y-40833333D01*
X77852438Y-40833333D02*
X77900057Y-40785714D01*
X77900057Y-40785714D02*
X77995295Y-40738095D01*
X77995295Y-40738095D02*
X78090533Y-40738095D01*
X78090533Y-40738095D02*
X78233390Y-40785714D01*
X78233390Y-40785714D02*
X78804819Y-41357142D01*
X78804819Y-41357142D02*
X78804819Y-40738095D01*
X17126666Y-97774819D02*
X17126666Y-98489104D01*
X17126666Y-98489104D02*
X17079047Y-98631961D01*
X17079047Y-98631961D02*
X16983809Y-98727200D01*
X16983809Y-98727200D02*
X16840952Y-98774819D01*
X16840952Y-98774819D02*
X16745714Y-98774819D01*
X18031428Y-98108152D02*
X18031428Y-98774819D01*
X17793333Y-97727200D02*
X17555238Y-98441485D01*
X17555238Y-98441485D02*
X18174285Y-98441485D01*
X37126666Y-97774819D02*
X37126666Y-98489104D01*
X37126666Y-98489104D02*
X37079047Y-98631961D01*
X37079047Y-98631961D02*
X36983809Y-98727200D01*
X36983809Y-98727200D02*
X36840952Y-98774819D01*
X36840952Y-98774819D02*
X36745714Y-98774819D01*
X38079047Y-97774819D02*
X37602857Y-97774819D01*
X37602857Y-97774819D02*
X37555238Y-98251009D01*
X37555238Y-98251009D02*
X37602857Y-98203390D01*
X37602857Y-98203390D02*
X37698095Y-98155771D01*
X37698095Y-98155771D02*
X37936190Y-98155771D01*
X37936190Y-98155771D02*
X38031428Y-98203390D01*
X38031428Y-98203390D02*
X38079047Y-98251009D01*
X38079047Y-98251009D02*
X38126666Y-98346247D01*
X38126666Y-98346247D02*
X38126666Y-98584342D01*
X38126666Y-98584342D02*
X38079047Y-98679580D01*
X38079047Y-98679580D02*
X38031428Y-98727200D01*
X38031428Y-98727200D02*
X37936190Y-98774819D01*
X37936190Y-98774819D02*
X37698095Y-98774819D01*
X37698095Y-98774819D02*
X37602857Y-98727200D01*
X37602857Y-98727200D02*
X37555238Y-98679580D01*
X31238095Y-62054819D02*
X31238095Y-62864342D01*
X31238095Y-62864342D02*
X31285714Y-62959580D01*
X31285714Y-62959580D02*
X31333333Y-63007200D01*
X31333333Y-63007200D02*
X31428571Y-63054819D01*
X31428571Y-63054819D02*
X31619047Y-63054819D01*
X31619047Y-63054819D02*
X31714285Y-63007200D01*
X31714285Y-63007200D02*
X31761904Y-62959580D01*
X31761904Y-62959580D02*
X31809523Y-62864342D01*
X31809523Y-62864342D02*
X31809523Y-62054819D01*
X32809523Y-63054819D02*
X32238095Y-63054819D01*
X32523809Y-63054819D02*
X32523809Y-62054819D01*
X32523809Y-62054819D02*
X32428571Y-62197676D01*
X32428571Y-62197676D02*
X32333333Y-62292914D01*
X32333333Y-62292914D02*
X32238095Y-62340533D01*
X75261905Y-58804819D02*
X75261905Y-57804819D01*
X75261905Y-57804819D02*
X75500000Y-57804819D01*
X75500000Y-57804819D02*
X75642857Y-57852438D01*
X75642857Y-57852438D02*
X75738095Y-57947676D01*
X75738095Y-57947676D02*
X75785714Y-58042914D01*
X75785714Y-58042914D02*
X75833333Y-58233390D01*
X75833333Y-58233390D02*
X75833333Y-58376247D01*
X75833333Y-58376247D02*
X75785714Y-58566723D01*
X75785714Y-58566723D02*
X75738095Y-58661961D01*
X75738095Y-58661961D02*
X75642857Y-58757200D01*
X75642857Y-58757200D02*
X75500000Y-58804819D01*
X75500000Y-58804819D02*
X75261905Y-58804819D01*
X76166667Y-57804819D02*
X76833333Y-57804819D01*
X76833333Y-57804819D02*
X76404762Y-58804819D01*
X33738095Y-45806819D02*
X34309523Y-45806819D01*
X34023809Y-46806819D02*
X34023809Y-45806819D01*
X34642857Y-46806819D02*
X34642857Y-45806819D01*
X34642857Y-45806819D02*
X35023809Y-45806819D01*
X35023809Y-45806819D02*
X35119047Y-45854438D01*
X35119047Y-45854438D02*
X35166666Y-45902057D01*
X35166666Y-45902057D02*
X35214285Y-45997295D01*
X35214285Y-45997295D02*
X35214285Y-46140152D01*
X35214285Y-46140152D02*
X35166666Y-46235390D01*
X35166666Y-46235390D02*
X35119047Y-46283009D01*
X35119047Y-46283009D02*
X35023809Y-46330628D01*
X35023809Y-46330628D02*
X34642857Y-46330628D01*
X35690476Y-46806819D02*
X35880952Y-46806819D01*
X35880952Y-46806819D02*
X35976190Y-46759200D01*
X35976190Y-46759200D02*
X36023809Y-46711580D01*
X36023809Y-46711580D02*
X36119047Y-46568723D01*
X36119047Y-46568723D02*
X36166666Y-46378247D01*
X36166666Y-46378247D02*
X36166666Y-45997295D01*
X36166666Y-45997295D02*
X36119047Y-45902057D01*
X36119047Y-45902057D02*
X36071428Y-45854438D01*
X36071428Y-45854438D02*
X35976190Y-45806819D01*
X35976190Y-45806819D02*
X35785714Y-45806819D01*
X35785714Y-45806819D02*
X35690476Y-45854438D01*
X35690476Y-45854438D02*
X35642857Y-45902057D01*
X35642857Y-45902057D02*
X35595238Y-45997295D01*
X35595238Y-45997295D02*
X35595238Y-46235390D01*
X35595238Y-46235390D02*
X35642857Y-46330628D01*
X35642857Y-46330628D02*
X35690476Y-46378247D01*
X35690476Y-46378247D02*
X35785714Y-46425866D01*
X35785714Y-46425866D02*
X35976190Y-46425866D01*
X35976190Y-46425866D02*
X36071428Y-46378247D01*
X36071428Y-46378247D02*
X36119047Y-46330628D01*
X36119047Y-46330628D02*
X36166666Y-46235390D01*
X71833333Y-58804819D02*
X71500000Y-58328628D01*
X71261905Y-58804819D02*
X71261905Y-57804819D01*
X71261905Y-57804819D02*
X71642857Y-57804819D01*
X71642857Y-57804819D02*
X71738095Y-57852438D01*
X71738095Y-57852438D02*
X71785714Y-57900057D01*
X71785714Y-57900057D02*
X71833333Y-57995295D01*
X71833333Y-57995295D02*
X71833333Y-58138152D01*
X71833333Y-58138152D02*
X71785714Y-58233390D01*
X71785714Y-58233390D02*
X71738095Y-58281009D01*
X71738095Y-58281009D02*
X71642857Y-58328628D01*
X71642857Y-58328628D02*
X71261905Y-58328628D01*
X72166667Y-57804819D02*
X72833333Y-57804819D01*
X72833333Y-57804819D02*
X72404762Y-58804819D01*
X75261905Y-68804819D02*
X75261905Y-67804819D01*
X75261905Y-67804819D02*
X75500000Y-67804819D01*
X75500000Y-67804819D02*
X75642857Y-67852438D01*
X75642857Y-67852438D02*
X75738095Y-67947676D01*
X75738095Y-67947676D02*
X75785714Y-68042914D01*
X75785714Y-68042914D02*
X75833333Y-68233390D01*
X75833333Y-68233390D02*
X75833333Y-68376247D01*
X75833333Y-68376247D02*
X75785714Y-68566723D01*
X75785714Y-68566723D02*
X75738095Y-68661961D01*
X75738095Y-68661961D02*
X75642857Y-68757200D01*
X75642857Y-68757200D02*
X75500000Y-68804819D01*
X75500000Y-68804819D02*
X75261905Y-68804819D01*
X76404762Y-68233390D02*
X76309524Y-68185771D01*
X76309524Y-68185771D02*
X76261905Y-68138152D01*
X76261905Y-68138152D02*
X76214286Y-68042914D01*
X76214286Y-68042914D02*
X76214286Y-67995295D01*
X76214286Y-67995295D02*
X76261905Y-67900057D01*
X76261905Y-67900057D02*
X76309524Y-67852438D01*
X76309524Y-67852438D02*
X76404762Y-67804819D01*
X76404762Y-67804819D02*
X76595238Y-67804819D01*
X76595238Y-67804819D02*
X76690476Y-67852438D01*
X76690476Y-67852438D02*
X76738095Y-67900057D01*
X76738095Y-67900057D02*
X76785714Y-67995295D01*
X76785714Y-67995295D02*
X76785714Y-68042914D01*
X76785714Y-68042914D02*
X76738095Y-68138152D01*
X76738095Y-68138152D02*
X76690476Y-68185771D01*
X76690476Y-68185771D02*
X76595238Y-68233390D01*
X76595238Y-68233390D02*
X76404762Y-68233390D01*
X76404762Y-68233390D02*
X76309524Y-68281009D01*
X76309524Y-68281009D02*
X76261905Y-68328628D01*
X76261905Y-68328628D02*
X76214286Y-68423866D01*
X76214286Y-68423866D02*
X76214286Y-68614342D01*
X76214286Y-68614342D02*
X76261905Y-68709580D01*
X76261905Y-68709580D02*
X76309524Y-68757200D01*
X76309524Y-68757200D02*
X76404762Y-68804819D01*
X76404762Y-68804819D02*
X76595238Y-68804819D01*
X76595238Y-68804819D02*
X76690476Y-68757200D01*
X76690476Y-68757200D02*
X76738095Y-68709580D01*
X76738095Y-68709580D02*
X76785714Y-68614342D01*
X76785714Y-68614342D02*
X76785714Y-68423866D01*
X76785714Y-68423866D02*
X76738095Y-68328628D01*
X76738095Y-68328628D02*
X76690476Y-68281009D01*
X76690476Y-68281009D02*
X76595238Y-68233390D01*
X95190476Y-92804819D02*
X95190476Y-91804819D01*
X95190476Y-91804819D02*
X95523809Y-92519104D01*
X95523809Y-92519104D02*
X95857142Y-91804819D01*
X95857142Y-91804819D02*
X95857142Y-92804819D01*
X96333333Y-92804819D02*
X96333333Y-91804819D01*
X96904761Y-92804819D02*
X96476190Y-92233390D01*
X96904761Y-91804819D02*
X96333333Y-92376247D01*
X97761904Y-92138152D02*
X97761904Y-92804819D01*
X97523809Y-91757200D02*
X97285714Y-92471485D01*
X97285714Y-92471485D02*
X97904761Y-92471485D01*
X37954819Y-18738094D02*
X36954819Y-18738094D01*
X36954819Y-18738094D02*
X36954819Y-18499999D01*
X36954819Y-18499999D02*
X37002438Y-18357142D01*
X37002438Y-18357142D02*
X37097676Y-18261904D01*
X37097676Y-18261904D02*
X37192914Y-18214285D01*
X37192914Y-18214285D02*
X37383390Y-18166666D01*
X37383390Y-18166666D02*
X37526247Y-18166666D01*
X37526247Y-18166666D02*
X37716723Y-18214285D01*
X37716723Y-18214285D02*
X37811961Y-18261904D01*
X37811961Y-18261904D02*
X37907200Y-18357142D01*
X37907200Y-18357142D02*
X37954819Y-18499999D01*
X37954819Y-18499999D02*
X37954819Y-18738094D01*
X37288152Y-17309523D02*
X37954819Y-17309523D01*
X36907200Y-17547618D02*
X37621485Y-17785713D01*
X37621485Y-17785713D02*
X37621485Y-17166666D01*
X23738095Y-45806819D02*
X24309523Y-45806819D01*
X24023809Y-46806819D02*
X24023809Y-45806819D01*
X24642857Y-46806819D02*
X24642857Y-45806819D01*
X24642857Y-45806819D02*
X25023809Y-45806819D01*
X25023809Y-45806819D02*
X25119047Y-45854438D01*
X25119047Y-45854438D02*
X25166666Y-45902057D01*
X25166666Y-45902057D02*
X25214285Y-45997295D01*
X25214285Y-45997295D02*
X25214285Y-46140152D01*
X25214285Y-46140152D02*
X25166666Y-46235390D01*
X25166666Y-46235390D02*
X25119047Y-46283009D01*
X25119047Y-46283009D02*
X25023809Y-46330628D01*
X25023809Y-46330628D02*
X24642857Y-46330628D01*
X25785714Y-46235390D02*
X25690476Y-46187771D01*
X25690476Y-46187771D02*
X25642857Y-46140152D01*
X25642857Y-46140152D02*
X25595238Y-46044914D01*
X25595238Y-46044914D02*
X25595238Y-45997295D01*
X25595238Y-45997295D02*
X25642857Y-45902057D01*
X25642857Y-45902057D02*
X25690476Y-45854438D01*
X25690476Y-45854438D02*
X25785714Y-45806819D01*
X25785714Y-45806819D02*
X25976190Y-45806819D01*
X25976190Y-45806819D02*
X26071428Y-45854438D01*
X26071428Y-45854438D02*
X26119047Y-45902057D01*
X26119047Y-45902057D02*
X26166666Y-45997295D01*
X26166666Y-45997295D02*
X26166666Y-46044914D01*
X26166666Y-46044914D02*
X26119047Y-46140152D01*
X26119047Y-46140152D02*
X26071428Y-46187771D01*
X26071428Y-46187771D02*
X25976190Y-46235390D01*
X25976190Y-46235390D02*
X25785714Y-46235390D01*
X25785714Y-46235390D02*
X25690476Y-46283009D01*
X25690476Y-46283009D02*
X25642857Y-46330628D01*
X25642857Y-46330628D02*
X25595238Y-46425866D01*
X25595238Y-46425866D02*
X25595238Y-46616342D01*
X25595238Y-46616342D02*
X25642857Y-46711580D01*
X25642857Y-46711580D02*
X25690476Y-46759200D01*
X25690476Y-46759200D02*
X25785714Y-46806819D01*
X25785714Y-46806819D02*
X25976190Y-46806819D01*
X25976190Y-46806819D02*
X26071428Y-46759200D01*
X26071428Y-46759200D02*
X26119047Y-46711580D01*
X26119047Y-46711580D02*
X26166666Y-46616342D01*
X26166666Y-46616342D02*
X26166666Y-46425866D01*
X26166666Y-46425866D02*
X26119047Y-46330628D01*
X26119047Y-46330628D02*
X26071428Y-46283009D01*
X26071428Y-46283009D02*
X25976190Y-46235390D01*
X56009580Y-30166666D02*
X56057200Y-30214285D01*
X56057200Y-30214285D02*
X56104819Y-30357142D01*
X56104819Y-30357142D02*
X56104819Y-30452380D01*
X56104819Y-30452380D02*
X56057200Y-30595237D01*
X56057200Y-30595237D02*
X55961961Y-30690475D01*
X55961961Y-30690475D02*
X55866723Y-30738094D01*
X55866723Y-30738094D02*
X55676247Y-30785713D01*
X55676247Y-30785713D02*
X55533390Y-30785713D01*
X55533390Y-30785713D02*
X55342914Y-30738094D01*
X55342914Y-30738094D02*
X55247676Y-30690475D01*
X55247676Y-30690475D02*
X55152438Y-30595237D01*
X55152438Y-30595237D02*
X55104819Y-30452380D01*
X55104819Y-30452380D02*
X55104819Y-30357142D01*
X55104819Y-30357142D02*
X55152438Y-30214285D01*
X55152438Y-30214285D02*
X55200057Y-30166666D01*
X55104819Y-29309523D02*
X55104819Y-29499999D01*
X55104819Y-29499999D02*
X55152438Y-29595237D01*
X55152438Y-29595237D02*
X55200057Y-29642856D01*
X55200057Y-29642856D02*
X55342914Y-29738094D01*
X55342914Y-29738094D02*
X55533390Y-29785713D01*
X55533390Y-29785713D02*
X55914342Y-29785713D01*
X55914342Y-29785713D02*
X56009580Y-29738094D01*
X56009580Y-29738094D02*
X56057200Y-29690475D01*
X56057200Y-29690475D02*
X56104819Y-29595237D01*
X56104819Y-29595237D02*
X56104819Y-29404761D01*
X56104819Y-29404761D02*
X56057200Y-29309523D01*
X56057200Y-29309523D02*
X56009580Y-29261904D01*
X56009580Y-29261904D02*
X55914342Y-29214285D01*
X55914342Y-29214285D02*
X55676247Y-29214285D01*
X55676247Y-29214285D02*
X55581009Y-29261904D01*
X55581009Y-29261904D02*
X55533390Y-29309523D01*
X55533390Y-29309523D02*
X55485771Y-29404761D01*
X55485771Y-29404761D02*
X55485771Y-29595237D01*
X55485771Y-29595237D02*
X55533390Y-29690475D01*
X55533390Y-29690475D02*
X55581009Y-29738094D01*
X55581009Y-29738094D02*
X55676247Y-29785713D01*
X81730476Y-1134819D02*
X81730476Y-1849104D01*
X81730476Y-1849104D02*
X81682857Y-1991961D01*
X81682857Y-1991961D02*
X81587619Y-2087200D01*
X81587619Y-2087200D02*
X81444762Y-2134819D01*
X81444762Y-2134819D02*
X81349524Y-2134819D01*
X82730476Y-2134819D02*
X82159048Y-2134819D01*
X82444762Y-2134819D02*
X82444762Y-1134819D01*
X82444762Y-1134819D02*
X82349524Y-1277676D01*
X82349524Y-1277676D02*
X82254286Y-1372914D01*
X82254286Y-1372914D02*
X82159048Y-1420533D01*
X83682857Y-2134819D02*
X83111429Y-2134819D01*
X83397143Y-2134819D02*
X83397143Y-1134819D01*
X83397143Y-1134819D02*
X83301905Y-1277676D01*
X83301905Y-1277676D02*
X83206667Y-1372914D01*
X83206667Y-1372914D02*
X83111429Y-1420533D01*
X95190476Y195180D02*
X95190476Y1195180D01*
X95190476Y1195180D02*
X95523809Y480895D01*
X95523809Y480895D02*
X95857142Y1195180D01*
X95857142Y1195180D02*
X95857142Y195180D01*
X96333333Y195180D02*
X96333333Y1195180D01*
X96904761Y195180D02*
X96476190Y766609D01*
X96904761Y1195180D02*
X96333333Y623752D01*
X97285714Y1099942D02*
X97333333Y1147561D01*
X97333333Y1147561D02*
X97428571Y1195180D01*
X97428571Y1195180D02*
X97666666Y1195180D01*
X97666666Y1195180D02*
X97761904Y1147561D01*
X97761904Y1147561D02*
X97809523Y1099942D01*
X97809523Y1099942D02*
X97857142Y1004704D01*
X97857142Y1004704D02*
X97857142Y909466D01*
X97857142Y909466D02*
X97809523Y766609D01*
X97809523Y766609D02*
X97238095Y195180D01*
X97238095Y195180D02*
X97857142Y195180D01*
X17954819Y-18738094D02*
X16954819Y-18738094D01*
X16954819Y-18738094D02*
X16954819Y-18499999D01*
X16954819Y-18499999D02*
X17002438Y-18357142D01*
X17002438Y-18357142D02*
X17097676Y-18261904D01*
X17097676Y-18261904D02*
X17192914Y-18214285D01*
X17192914Y-18214285D02*
X17383390Y-18166666D01*
X17383390Y-18166666D02*
X17526247Y-18166666D01*
X17526247Y-18166666D02*
X17716723Y-18214285D01*
X17716723Y-18214285D02*
X17811961Y-18261904D01*
X17811961Y-18261904D02*
X17907200Y-18357142D01*
X17907200Y-18357142D02*
X17954819Y-18499999D01*
X17954819Y-18499999D02*
X17954819Y-18738094D01*
X16954819Y-17833332D02*
X16954819Y-17214285D01*
X16954819Y-17214285D02*
X17335771Y-17547618D01*
X17335771Y-17547618D02*
X17335771Y-17404761D01*
X17335771Y-17404761D02*
X17383390Y-17309523D01*
X17383390Y-17309523D02*
X17431009Y-17261904D01*
X17431009Y-17261904D02*
X17526247Y-17214285D01*
X17526247Y-17214285D02*
X17764342Y-17214285D01*
X17764342Y-17214285D02*
X17859580Y-17261904D01*
X17859580Y-17261904D02*
X17907200Y-17309523D01*
X17907200Y-17309523D02*
X17954819Y-17404761D01*
X17954819Y-17404761D02*
X17954819Y-17690475D01*
X17954819Y-17690475D02*
X17907200Y-17785713D01*
X17907200Y-17785713D02*
X17859580Y-17833332D01*
X51904761Y-58150057D02*
X51809523Y-58102438D01*
X51809523Y-58102438D02*
X51714285Y-58007200D01*
X51714285Y-58007200D02*
X51571428Y-57864342D01*
X51571428Y-57864342D02*
X51476190Y-57816723D01*
X51476190Y-57816723D02*
X51380952Y-57816723D01*
X51428571Y-58054819D02*
X51333333Y-58007200D01*
X51333333Y-58007200D02*
X51238095Y-57911961D01*
X51238095Y-57911961D02*
X51190476Y-57721485D01*
X51190476Y-57721485D02*
X51190476Y-57388152D01*
X51190476Y-57388152D02*
X51238095Y-57197676D01*
X51238095Y-57197676D02*
X51333333Y-57102438D01*
X51333333Y-57102438D02*
X51428571Y-57054819D01*
X51428571Y-57054819D02*
X51619047Y-57054819D01*
X51619047Y-57054819D02*
X51714285Y-57102438D01*
X51714285Y-57102438D02*
X51809523Y-57197676D01*
X51809523Y-57197676D02*
X51857142Y-57388152D01*
X51857142Y-57388152D02*
X51857142Y-57721485D01*
X51857142Y-57721485D02*
X51809523Y-57911961D01*
X51809523Y-57911961D02*
X51714285Y-58007200D01*
X51714285Y-58007200D02*
X51619047Y-58054819D01*
X51619047Y-58054819D02*
X51428571Y-58054819D01*
X52809523Y-58054819D02*
X52238095Y-58054819D01*
X52523809Y-58054819D02*
X52523809Y-57054819D01*
X52523809Y-57054819D02*
X52428571Y-57197676D01*
X52428571Y-57197676D02*
X52333333Y-57292914D01*
X52333333Y-57292914D02*
X52238095Y-57340533D01*
X16009580Y-30166666D02*
X16057200Y-30214285D01*
X16057200Y-30214285D02*
X16104819Y-30357142D01*
X16104819Y-30357142D02*
X16104819Y-30452380D01*
X16104819Y-30452380D02*
X16057200Y-30595237D01*
X16057200Y-30595237D02*
X15961961Y-30690475D01*
X15961961Y-30690475D02*
X15866723Y-30738094D01*
X15866723Y-30738094D02*
X15676247Y-30785713D01*
X15676247Y-30785713D02*
X15533390Y-30785713D01*
X15533390Y-30785713D02*
X15342914Y-30738094D01*
X15342914Y-30738094D02*
X15247676Y-30690475D01*
X15247676Y-30690475D02*
X15152438Y-30595237D01*
X15152438Y-30595237D02*
X15104819Y-30452380D01*
X15104819Y-30452380D02*
X15104819Y-30357142D01*
X15104819Y-30357142D02*
X15152438Y-30214285D01*
X15152438Y-30214285D02*
X15200057Y-30166666D01*
X15438152Y-29309523D02*
X16104819Y-29309523D01*
X15057200Y-29547618D02*
X15771485Y-29785713D01*
X15771485Y-29785713D02*
X15771485Y-29166666D01*
X29833333Y-54009580D02*
X29785714Y-54057200D01*
X29785714Y-54057200D02*
X29642857Y-54104819D01*
X29642857Y-54104819D02*
X29547619Y-54104819D01*
X29547619Y-54104819D02*
X29404762Y-54057200D01*
X29404762Y-54057200D02*
X29309524Y-53961961D01*
X29309524Y-53961961D02*
X29261905Y-53866723D01*
X29261905Y-53866723D02*
X29214286Y-53676247D01*
X29214286Y-53676247D02*
X29214286Y-53533390D01*
X29214286Y-53533390D02*
X29261905Y-53342914D01*
X29261905Y-53342914D02*
X29309524Y-53247676D01*
X29309524Y-53247676D02*
X29404762Y-53152438D01*
X29404762Y-53152438D02*
X29547619Y-53104819D01*
X29547619Y-53104819D02*
X29642857Y-53104819D01*
X29642857Y-53104819D02*
X29785714Y-53152438D01*
X29785714Y-53152438D02*
X29833333Y-53200057D01*
X30785714Y-54104819D02*
X30214286Y-54104819D01*
X30500000Y-54104819D02*
X30500000Y-53104819D01*
X30500000Y-53104819D02*
X30404762Y-53247676D01*
X30404762Y-53247676D02*
X30309524Y-53342914D01*
X30309524Y-53342914D02*
X30214286Y-53390533D01*
X23833333Y-63679580D02*
X23785714Y-63727200D01*
X23785714Y-63727200D02*
X23642857Y-63774819D01*
X23642857Y-63774819D02*
X23547619Y-63774819D01*
X23547619Y-63774819D02*
X23404762Y-63727200D01*
X23404762Y-63727200D02*
X23309524Y-63631961D01*
X23309524Y-63631961D02*
X23261905Y-63536723D01*
X23261905Y-63536723D02*
X23214286Y-63346247D01*
X23214286Y-63346247D02*
X23214286Y-63203390D01*
X23214286Y-63203390D02*
X23261905Y-63012914D01*
X23261905Y-63012914D02*
X23309524Y-62917676D01*
X23309524Y-62917676D02*
X23404762Y-62822438D01*
X23404762Y-62822438D02*
X23547619Y-62774819D01*
X23547619Y-62774819D02*
X23642857Y-62774819D01*
X23642857Y-62774819D02*
X23785714Y-62822438D01*
X23785714Y-62822438D02*
X23833333Y-62870057D01*
X24214286Y-62870057D02*
X24261905Y-62822438D01*
X24261905Y-62822438D02*
X24357143Y-62774819D01*
X24357143Y-62774819D02*
X24595238Y-62774819D01*
X24595238Y-62774819D02*
X24690476Y-62822438D01*
X24690476Y-62822438D02*
X24738095Y-62870057D01*
X24738095Y-62870057D02*
X24785714Y-62965295D01*
X24785714Y-62965295D02*
X24785714Y-63060533D01*
X24785714Y-63060533D02*
X24738095Y-63203390D01*
X24738095Y-63203390D02*
X24166667Y-63774819D01*
X24166667Y-63774819D02*
X24785714Y-63774819D01*
X22206666Y-1134819D02*
X22206666Y-1849104D01*
X22206666Y-1849104D02*
X22159047Y-1991961D01*
X22159047Y-1991961D02*
X22063809Y-2087200D01*
X22063809Y-2087200D02*
X21920952Y-2134819D01*
X21920952Y-2134819D02*
X21825714Y-2134819D01*
X22825714Y-1563390D02*
X22730476Y-1515771D01*
X22730476Y-1515771D02*
X22682857Y-1468152D01*
X22682857Y-1468152D02*
X22635238Y-1372914D01*
X22635238Y-1372914D02*
X22635238Y-1325295D01*
X22635238Y-1325295D02*
X22682857Y-1230057D01*
X22682857Y-1230057D02*
X22730476Y-1182438D01*
X22730476Y-1182438D02*
X22825714Y-1134819D01*
X22825714Y-1134819D02*
X23016190Y-1134819D01*
X23016190Y-1134819D02*
X23111428Y-1182438D01*
X23111428Y-1182438D02*
X23159047Y-1230057D01*
X23159047Y-1230057D02*
X23206666Y-1325295D01*
X23206666Y-1325295D02*
X23206666Y-1372914D01*
X23206666Y-1372914D02*
X23159047Y-1468152D01*
X23159047Y-1468152D02*
X23111428Y-1515771D01*
X23111428Y-1515771D02*
X23016190Y-1563390D01*
X23016190Y-1563390D02*
X22825714Y-1563390D01*
X22825714Y-1563390D02*
X22730476Y-1611009D01*
X22730476Y-1611009D02*
X22682857Y-1658628D01*
X22682857Y-1658628D02*
X22635238Y-1753866D01*
X22635238Y-1753866D02*
X22635238Y-1944342D01*
X22635238Y-1944342D02*
X22682857Y-2039580D01*
X22682857Y-2039580D02*
X22730476Y-2087200D01*
X22730476Y-2087200D02*
X22825714Y-2134819D01*
X22825714Y-2134819D02*
X23016190Y-2134819D01*
X23016190Y-2134819D02*
X23111428Y-2087200D01*
X23111428Y-2087200D02*
X23159047Y-2039580D01*
X23159047Y-2039580D02*
X23206666Y-1944342D01*
X23206666Y-1944342D02*
X23206666Y-1753866D01*
X23206666Y-1753866D02*
X23159047Y-1658628D01*
X23159047Y-1658628D02*
X23111428Y-1611009D01*
X23111428Y-1611009D02*
X23016190Y-1563390D01*
X4738095Y-57806819D02*
X5309523Y-57806819D01*
X5023809Y-58806819D02*
X5023809Y-57806819D01*
X5642857Y-58806819D02*
X5642857Y-57806819D01*
X5642857Y-57806819D02*
X6023809Y-57806819D01*
X6023809Y-57806819D02*
X6119047Y-57854438D01*
X6119047Y-57854438D02*
X6166666Y-57902057D01*
X6166666Y-57902057D02*
X6214285Y-57997295D01*
X6214285Y-57997295D02*
X6214285Y-58140152D01*
X6214285Y-58140152D02*
X6166666Y-58235390D01*
X6166666Y-58235390D02*
X6119047Y-58283009D01*
X6119047Y-58283009D02*
X6023809Y-58330628D01*
X6023809Y-58330628D02*
X5642857Y-58330628D01*
X7071428Y-58140152D02*
X7071428Y-58806819D01*
X6833333Y-57759200D02*
X6595238Y-58473485D01*
X6595238Y-58473485D02*
X7214285Y-58473485D01*
X56738095Y-67806819D02*
X57309523Y-67806819D01*
X57023809Y-68806819D02*
X57023809Y-67806819D01*
X57642857Y-68806819D02*
X57642857Y-67806819D01*
X57642857Y-67806819D02*
X58023809Y-67806819D01*
X58023809Y-67806819D02*
X58119047Y-67854438D01*
X58119047Y-67854438D02*
X58166666Y-67902057D01*
X58166666Y-67902057D02*
X58214285Y-67997295D01*
X58214285Y-67997295D02*
X58214285Y-68140152D01*
X58214285Y-68140152D02*
X58166666Y-68235390D01*
X58166666Y-68235390D02*
X58119047Y-68283009D01*
X58119047Y-68283009D02*
X58023809Y-68330628D01*
X58023809Y-68330628D02*
X57642857Y-68330628D01*
X59071428Y-67806819D02*
X58880952Y-67806819D01*
X58880952Y-67806819D02*
X58785714Y-67854438D01*
X58785714Y-67854438D02*
X58738095Y-67902057D01*
X58738095Y-67902057D02*
X58642857Y-68044914D01*
X58642857Y-68044914D02*
X58595238Y-68235390D01*
X58595238Y-68235390D02*
X58595238Y-68616342D01*
X58595238Y-68616342D02*
X58642857Y-68711580D01*
X58642857Y-68711580D02*
X58690476Y-68759200D01*
X58690476Y-68759200D02*
X58785714Y-68806819D01*
X58785714Y-68806819D02*
X58976190Y-68806819D01*
X58976190Y-68806819D02*
X59071428Y-68759200D01*
X59071428Y-68759200D02*
X59119047Y-68711580D01*
X59119047Y-68711580D02*
X59166666Y-68616342D01*
X59166666Y-68616342D02*
X59166666Y-68378247D01*
X59166666Y-68378247D02*
X59119047Y-68283009D01*
X59119047Y-68283009D02*
X59071428Y-68235390D01*
X59071428Y-68235390D02*
X58976190Y-68187771D01*
X58976190Y-68187771D02*
X58785714Y-68187771D01*
X58785714Y-68187771D02*
X58690476Y-68235390D01*
X58690476Y-68235390D02*
X58642857Y-68283009D01*
X58642857Y-68283009D02*
X58595238Y-68378247D01*
X61730476Y-1134819D02*
X61730476Y-1849104D01*
X61730476Y-1849104D02*
X61682857Y-1991961D01*
X61682857Y-1991961D02*
X61587619Y-2087200D01*
X61587619Y-2087200D02*
X61444762Y-2134819D01*
X61444762Y-2134819D02*
X61349524Y-2134819D01*
X62730476Y-2134819D02*
X62159048Y-2134819D01*
X62444762Y-2134819D02*
X62444762Y-1134819D01*
X62444762Y-1134819D02*
X62349524Y-1277676D01*
X62349524Y-1277676D02*
X62254286Y-1372914D01*
X62254286Y-1372914D02*
X62159048Y-1420533D01*
X63349524Y-1134819D02*
X63444762Y-1134819D01*
X63444762Y-1134819D02*
X63540000Y-1182438D01*
X63540000Y-1182438D02*
X63587619Y-1230057D01*
X63587619Y-1230057D02*
X63635238Y-1325295D01*
X63635238Y-1325295D02*
X63682857Y-1515771D01*
X63682857Y-1515771D02*
X63682857Y-1753866D01*
X63682857Y-1753866D02*
X63635238Y-1944342D01*
X63635238Y-1944342D02*
X63587619Y-2039580D01*
X63587619Y-2039580D02*
X63540000Y-2087200D01*
X63540000Y-2087200D02*
X63444762Y-2134819D01*
X63444762Y-2134819D02*
X63349524Y-2134819D01*
X63349524Y-2134819D02*
X63254286Y-2087200D01*
X63254286Y-2087200D02*
X63206667Y-2039580D01*
X63206667Y-2039580D02*
X63159048Y-1944342D01*
X63159048Y-1944342D02*
X63111429Y-1753866D01*
X63111429Y-1753866D02*
X63111429Y-1515771D01*
X63111429Y-1515771D02*
X63159048Y-1325295D01*
X63159048Y-1325295D02*
X63206667Y-1230057D01*
X63206667Y-1230057D02*
X63254286Y-1182438D01*
X63254286Y-1182438D02*
X63349524Y-1134819D01*
X42206666Y-1134819D02*
X42206666Y-1849104D01*
X42206666Y-1849104D02*
X42159047Y-1991961D01*
X42159047Y-1991961D02*
X42063809Y-2087200D01*
X42063809Y-2087200D02*
X41920952Y-2134819D01*
X41920952Y-2134819D02*
X41825714Y-2134819D01*
X42730476Y-2134819D02*
X42920952Y-2134819D01*
X42920952Y-2134819D02*
X43016190Y-2087200D01*
X43016190Y-2087200D02*
X43063809Y-2039580D01*
X43063809Y-2039580D02*
X43159047Y-1896723D01*
X43159047Y-1896723D02*
X43206666Y-1706247D01*
X43206666Y-1706247D02*
X43206666Y-1325295D01*
X43206666Y-1325295D02*
X43159047Y-1230057D01*
X43159047Y-1230057D02*
X43111428Y-1182438D01*
X43111428Y-1182438D02*
X43016190Y-1134819D01*
X43016190Y-1134819D02*
X42825714Y-1134819D01*
X42825714Y-1134819D02*
X42730476Y-1182438D01*
X42730476Y-1182438D02*
X42682857Y-1230057D01*
X42682857Y-1230057D02*
X42635238Y-1325295D01*
X42635238Y-1325295D02*
X42635238Y-1563390D01*
X42635238Y-1563390D02*
X42682857Y-1658628D01*
X42682857Y-1658628D02*
X42730476Y-1706247D01*
X42730476Y-1706247D02*
X42825714Y-1753866D01*
X42825714Y-1753866D02*
X43016190Y-1753866D01*
X43016190Y-1753866D02*
X43111428Y-1706247D01*
X43111428Y-1706247D02*
X43159047Y-1658628D01*
X43159047Y-1658628D02*
X43206666Y-1563390D01*
X57954819Y-18738094D02*
X56954819Y-18738094D01*
X56954819Y-18738094D02*
X56954819Y-18499999D01*
X56954819Y-18499999D02*
X57002438Y-18357142D01*
X57002438Y-18357142D02*
X57097676Y-18261904D01*
X57097676Y-18261904D02*
X57192914Y-18214285D01*
X57192914Y-18214285D02*
X57383390Y-18166666D01*
X57383390Y-18166666D02*
X57526247Y-18166666D01*
X57526247Y-18166666D02*
X57716723Y-18214285D01*
X57716723Y-18214285D02*
X57811961Y-18261904D01*
X57811961Y-18261904D02*
X57907200Y-18357142D01*
X57907200Y-18357142D02*
X57954819Y-18499999D01*
X57954819Y-18499999D02*
X57954819Y-18738094D01*
X56954819Y-17261904D02*
X56954819Y-17738094D01*
X56954819Y-17738094D02*
X57431009Y-17785713D01*
X57431009Y-17785713D02*
X57383390Y-17738094D01*
X57383390Y-17738094D02*
X57335771Y-17642856D01*
X57335771Y-17642856D02*
X57335771Y-17404761D01*
X57335771Y-17404761D02*
X57383390Y-17309523D01*
X57383390Y-17309523D02*
X57431009Y-17261904D01*
X57431009Y-17261904D02*
X57526247Y-17214285D01*
X57526247Y-17214285D02*
X57764342Y-17214285D01*
X57764342Y-17214285D02*
X57859580Y-17261904D01*
X57859580Y-17261904D02*
X57907200Y-17309523D01*
X57907200Y-17309523D02*
X57954819Y-17404761D01*
X57954819Y-17404761D02*
X57954819Y-17642856D01*
X57954819Y-17642856D02*
X57907200Y-17738094D01*
X57907200Y-17738094D02*
X57859580Y-17785713D01*
X31833333Y-50804819D02*
X31500000Y-50328628D01*
X31261905Y-50804819D02*
X31261905Y-49804819D01*
X31261905Y-49804819D02*
X31642857Y-49804819D01*
X31642857Y-49804819D02*
X31738095Y-49852438D01*
X31738095Y-49852438D02*
X31785714Y-49900057D01*
X31785714Y-49900057D02*
X31833333Y-49995295D01*
X31833333Y-49995295D02*
X31833333Y-50138152D01*
X31833333Y-50138152D02*
X31785714Y-50233390D01*
X31785714Y-50233390D02*
X31738095Y-50281009D01*
X31738095Y-50281009D02*
X31642857Y-50328628D01*
X31642857Y-50328628D02*
X31261905Y-50328628D01*
X32785714Y-50804819D02*
X32214286Y-50804819D01*
X32500000Y-50804819D02*
X32500000Y-49804819D01*
X32500000Y-49804819D02*
X32404762Y-49947676D01*
X32404762Y-49947676D02*
X32309524Y-50042914D01*
X32309524Y-50042914D02*
X32214286Y-50090533D01*
X1134819Y-42793333D02*
X1849104Y-42793333D01*
X1849104Y-42793333D02*
X1991961Y-42840952D01*
X1991961Y-42840952D02*
X2087200Y-42936190D01*
X2087200Y-42936190D02*
X2134819Y-43079047D01*
X2134819Y-43079047D02*
X2134819Y-43174285D01*
X1230057Y-42364761D02*
X1182438Y-42317142D01*
X1182438Y-42317142D02*
X1134819Y-42221904D01*
X1134819Y-42221904D02*
X1134819Y-41983809D01*
X1134819Y-41983809D02*
X1182438Y-41888571D01*
X1182438Y-41888571D02*
X1230057Y-41840952D01*
X1230057Y-41840952D02*
X1325295Y-41793333D01*
X1325295Y-41793333D02*
X1420533Y-41793333D01*
X1420533Y-41793333D02*
X1563390Y-41840952D01*
X1563390Y-41840952D02*
X2134819Y-42412380D01*
X2134819Y-42412380D02*
X2134819Y-41793333D01*
X47833333Y-73804819D02*
X47500000Y-73328628D01*
X47261905Y-73804819D02*
X47261905Y-72804819D01*
X47261905Y-72804819D02*
X47642857Y-72804819D01*
X47642857Y-72804819D02*
X47738095Y-72852438D01*
X47738095Y-72852438D02*
X47785714Y-72900057D01*
X47785714Y-72900057D02*
X47833333Y-72995295D01*
X47833333Y-72995295D02*
X47833333Y-73138152D01*
X47833333Y-73138152D02*
X47785714Y-73233390D01*
X47785714Y-73233390D02*
X47738095Y-73281009D01*
X47738095Y-73281009D02*
X47642857Y-73328628D01*
X47642857Y-73328628D02*
X47261905Y-73328628D01*
X48690476Y-72804819D02*
X48500000Y-72804819D01*
X48500000Y-72804819D02*
X48404762Y-72852438D01*
X48404762Y-72852438D02*
X48357143Y-72900057D01*
X48357143Y-72900057D02*
X48261905Y-73042914D01*
X48261905Y-73042914D02*
X48214286Y-73233390D01*
X48214286Y-73233390D02*
X48214286Y-73614342D01*
X48214286Y-73614342D02*
X48261905Y-73709580D01*
X48261905Y-73709580D02*
X48309524Y-73757200D01*
X48309524Y-73757200D02*
X48404762Y-73804819D01*
X48404762Y-73804819D02*
X48595238Y-73804819D01*
X48595238Y-73804819D02*
X48690476Y-73757200D01*
X48690476Y-73757200D02*
X48738095Y-73709580D01*
X48738095Y-73709580D02*
X48785714Y-73614342D01*
X48785714Y-73614342D02*
X48785714Y-73376247D01*
X48785714Y-73376247D02*
X48738095Y-73281009D01*
X48738095Y-73281009D02*
X48690476Y-73233390D01*
X48690476Y-73233390D02*
X48595238Y-73185771D01*
X48595238Y-73185771D02*
X48404762Y-73185771D01*
X48404762Y-73185771D02*
X48309524Y-73233390D01*
X48309524Y-73233390D02*
X48261905Y-73281009D01*
X48261905Y-73281009D02*
X48214286Y-73376247D01*
X38804819Y-42642857D02*
X38328628Y-42976190D01*
X38804819Y-43214285D02*
X37804819Y-43214285D01*
X37804819Y-43214285D02*
X37804819Y-42833333D01*
X37804819Y-42833333D02*
X37852438Y-42738095D01*
X37852438Y-42738095D02*
X37900057Y-42690476D01*
X37900057Y-42690476D02*
X37995295Y-42642857D01*
X37995295Y-42642857D02*
X38138152Y-42642857D01*
X38138152Y-42642857D02*
X38233390Y-42690476D01*
X38233390Y-42690476D02*
X38281009Y-42738095D01*
X38281009Y-42738095D02*
X38328628Y-42833333D01*
X38328628Y-42833333D02*
X38328628Y-43214285D01*
X38804819Y-41690476D02*
X38804819Y-42261904D01*
X38804819Y-41976190D02*
X37804819Y-41976190D01*
X37804819Y-41976190D02*
X37947676Y-42071428D01*
X37947676Y-42071428D02*
X38042914Y-42166666D01*
X38042914Y-42166666D02*
X38090533Y-42261904D01*
X37804819Y-41071428D02*
X37804819Y-40976190D01*
X37804819Y-40976190D02*
X37852438Y-40880952D01*
X37852438Y-40880952D02*
X37900057Y-40833333D01*
X37900057Y-40833333D02*
X37995295Y-40785714D01*
X37995295Y-40785714D02*
X38185771Y-40738095D01*
X38185771Y-40738095D02*
X38423866Y-40738095D01*
X38423866Y-40738095D02*
X38614342Y-40785714D01*
X38614342Y-40785714D02*
X38709580Y-40833333D01*
X38709580Y-40833333D02*
X38757200Y-40880952D01*
X38757200Y-40880952D02*
X38804819Y-40976190D01*
X38804819Y-40976190D02*
X38804819Y-41071428D01*
X38804819Y-41071428D02*
X38757200Y-41166666D01*
X38757200Y-41166666D02*
X38709580Y-41214285D01*
X38709580Y-41214285D02*
X38614342Y-41261904D01*
X38614342Y-41261904D02*
X38423866Y-41309523D01*
X38423866Y-41309523D02*
X38185771Y-41309523D01*
X38185771Y-41309523D02*
X37995295Y-41261904D01*
X37995295Y-41261904D02*
X37900057Y-41214285D01*
X37900057Y-41214285D02*
X37852438Y-41166666D01*
X37852438Y-41166666D02*
X37804819Y-41071428D01*
X36009580Y-30166666D02*
X36057200Y-30214285D01*
X36057200Y-30214285D02*
X36104819Y-30357142D01*
X36104819Y-30357142D02*
X36104819Y-30452380D01*
X36104819Y-30452380D02*
X36057200Y-30595237D01*
X36057200Y-30595237D02*
X35961961Y-30690475D01*
X35961961Y-30690475D02*
X35866723Y-30738094D01*
X35866723Y-30738094D02*
X35676247Y-30785713D01*
X35676247Y-30785713D02*
X35533390Y-30785713D01*
X35533390Y-30785713D02*
X35342914Y-30738094D01*
X35342914Y-30738094D02*
X35247676Y-30690475D01*
X35247676Y-30690475D02*
X35152438Y-30595237D01*
X35152438Y-30595237D02*
X35104819Y-30452380D01*
X35104819Y-30452380D02*
X35104819Y-30357142D01*
X35104819Y-30357142D02*
X35152438Y-30214285D01*
X35152438Y-30214285D02*
X35200057Y-30166666D01*
X35104819Y-29261904D02*
X35104819Y-29738094D01*
X35104819Y-29738094D02*
X35581009Y-29785713D01*
X35581009Y-29785713D02*
X35533390Y-29738094D01*
X35533390Y-29738094D02*
X35485771Y-29642856D01*
X35485771Y-29642856D02*
X35485771Y-29404761D01*
X35485771Y-29404761D02*
X35533390Y-29309523D01*
X35533390Y-29309523D02*
X35581009Y-29261904D01*
X35581009Y-29261904D02*
X35676247Y-29214285D01*
X35676247Y-29214285D02*
X35914342Y-29214285D01*
X35914342Y-29214285D02*
X36009580Y-29261904D01*
X36009580Y-29261904D02*
X36057200Y-29309523D01*
X36057200Y-29309523D02*
X36104819Y-29404761D01*
X36104819Y-29404761D02*
X36104819Y-29642856D01*
X36104819Y-29642856D02*
X36057200Y-29738094D01*
X36057200Y-29738094D02*
X36009580Y-29785713D01*
X47833333Y-58804819D02*
X47500000Y-58328628D01*
X47261905Y-58804819D02*
X47261905Y-57804819D01*
X47261905Y-57804819D02*
X47642857Y-57804819D01*
X47642857Y-57804819D02*
X47738095Y-57852438D01*
X47738095Y-57852438D02*
X47785714Y-57900057D01*
X47785714Y-57900057D02*
X47833333Y-57995295D01*
X47833333Y-57995295D02*
X47833333Y-58138152D01*
X47833333Y-58138152D02*
X47785714Y-58233390D01*
X47785714Y-58233390D02*
X47738095Y-58281009D01*
X47738095Y-58281009D02*
X47642857Y-58328628D01*
X47642857Y-58328628D02*
X47261905Y-58328628D01*
X48690476Y-58138152D02*
X48690476Y-58804819D01*
X48452381Y-57757200D02*
X48214286Y-58471485D01*
X48214286Y-58471485D02*
X48833333Y-58471485D01*
X51904761Y-68150057D02*
X51809523Y-68102438D01*
X51809523Y-68102438D02*
X51714285Y-68007200D01*
X51714285Y-68007200D02*
X51571428Y-67864342D01*
X51571428Y-67864342D02*
X51476190Y-67816723D01*
X51476190Y-67816723D02*
X51380952Y-67816723D01*
X51428571Y-68054819D02*
X51333333Y-68007200D01*
X51333333Y-68007200D02*
X51238095Y-67911961D01*
X51238095Y-67911961D02*
X51190476Y-67721485D01*
X51190476Y-67721485D02*
X51190476Y-67388152D01*
X51190476Y-67388152D02*
X51238095Y-67197676D01*
X51238095Y-67197676D02*
X51333333Y-67102438D01*
X51333333Y-67102438D02*
X51428571Y-67054819D01*
X51428571Y-67054819D02*
X51619047Y-67054819D01*
X51619047Y-67054819D02*
X51714285Y-67102438D01*
X51714285Y-67102438D02*
X51809523Y-67197676D01*
X51809523Y-67197676D02*
X51857142Y-67388152D01*
X51857142Y-67388152D02*
X51857142Y-67721485D01*
X51857142Y-67721485D02*
X51809523Y-67911961D01*
X51809523Y-67911961D02*
X51714285Y-68007200D01*
X51714285Y-68007200D02*
X51619047Y-68054819D01*
X51619047Y-68054819D02*
X51428571Y-68054819D01*
X52238095Y-67150057D02*
X52285714Y-67102438D01*
X52285714Y-67102438D02*
X52380952Y-67054819D01*
X52380952Y-67054819D02*
X52619047Y-67054819D01*
X52619047Y-67054819D02*
X52714285Y-67102438D01*
X52714285Y-67102438D02*
X52761904Y-67150057D01*
X52761904Y-67150057D02*
X52809523Y-67245295D01*
X52809523Y-67245295D02*
X52809523Y-67340533D01*
X52809523Y-67340533D02*
X52761904Y-67483390D01*
X52761904Y-67483390D02*
X52190476Y-68054819D01*
X52190476Y-68054819D02*
X52809523Y-68054819D01*
X53261905Y-45806819D02*
X53833333Y-45806819D01*
X53547619Y-46806819D02*
X53547619Y-45806819D01*
X54166667Y-46806819D02*
X54166667Y-45806819D01*
X54166667Y-45806819D02*
X54547619Y-45806819D01*
X54547619Y-45806819D02*
X54642857Y-45854438D01*
X54642857Y-45854438D02*
X54690476Y-45902057D01*
X54690476Y-45902057D02*
X54738095Y-45997295D01*
X54738095Y-45997295D02*
X54738095Y-46140152D01*
X54738095Y-46140152D02*
X54690476Y-46235390D01*
X54690476Y-46235390D02*
X54642857Y-46283009D01*
X54642857Y-46283009D02*
X54547619Y-46330628D01*
X54547619Y-46330628D02*
X54166667Y-46330628D01*
X55690476Y-46806819D02*
X55119048Y-46806819D01*
X55404762Y-46806819D02*
X55404762Y-45806819D01*
X55404762Y-45806819D02*
X55309524Y-45949676D01*
X55309524Y-45949676D02*
X55214286Y-46044914D01*
X55214286Y-46044914D02*
X55119048Y-46092533D01*
X56642857Y-46806819D02*
X56071429Y-46806819D01*
X56357143Y-46806819D02*
X56357143Y-45806819D01*
X56357143Y-45806819D02*
X56261905Y-45949676D01*
X56261905Y-45949676D02*
X56166667Y-46044914D01*
X56166667Y-46044914D02*
X56071429Y-46092533D01*
X83261905Y-45806819D02*
X83833333Y-45806819D01*
X83547619Y-46806819D02*
X83547619Y-45806819D01*
X84166667Y-46806819D02*
X84166667Y-45806819D01*
X84166667Y-45806819D02*
X84547619Y-45806819D01*
X84547619Y-45806819D02*
X84642857Y-45854438D01*
X84642857Y-45854438D02*
X84690476Y-45902057D01*
X84690476Y-45902057D02*
X84738095Y-45997295D01*
X84738095Y-45997295D02*
X84738095Y-46140152D01*
X84738095Y-46140152D02*
X84690476Y-46235390D01*
X84690476Y-46235390D02*
X84642857Y-46283009D01*
X84642857Y-46283009D02*
X84547619Y-46330628D01*
X84547619Y-46330628D02*
X84166667Y-46330628D01*
X85690476Y-46806819D02*
X85119048Y-46806819D01*
X85404762Y-46806819D02*
X85404762Y-45806819D01*
X85404762Y-45806819D02*
X85309524Y-45949676D01*
X85309524Y-45949676D02*
X85214286Y-46044914D01*
X85214286Y-46044914D02*
X85119048Y-46092533D01*
X86547619Y-46140152D02*
X86547619Y-46806819D01*
X86309524Y-45759200D02*
X86071429Y-46473485D01*
X86071429Y-46473485D02*
X86690476Y-46473485D01*
X63261905Y-45806819D02*
X63833333Y-45806819D01*
X63547619Y-46806819D02*
X63547619Y-45806819D01*
X64166667Y-46806819D02*
X64166667Y-45806819D01*
X64166667Y-45806819D02*
X64547619Y-45806819D01*
X64547619Y-45806819D02*
X64642857Y-45854438D01*
X64642857Y-45854438D02*
X64690476Y-45902057D01*
X64690476Y-45902057D02*
X64738095Y-45997295D01*
X64738095Y-45997295D02*
X64738095Y-46140152D01*
X64738095Y-46140152D02*
X64690476Y-46235390D01*
X64690476Y-46235390D02*
X64642857Y-46283009D01*
X64642857Y-46283009D02*
X64547619Y-46330628D01*
X64547619Y-46330628D02*
X64166667Y-46330628D01*
X65690476Y-46806819D02*
X65119048Y-46806819D01*
X65404762Y-46806819D02*
X65404762Y-45806819D01*
X65404762Y-45806819D02*
X65309524Y-45949676D01*
X65309524Y-45949676D02*
X65214286Y-46044914D01*
X65214286Y-46044914D02*
X65119048Y-46092533D01*
X66071429Y-45902057D02*
X66119048Y-45854438D01*
X66119048Y-45854438D02*
X66214286Y-45806819D01*
X66214286Y-45806819D02*
X66452381Y-45806819D01*
X66452381Y-45806819D02*
X66547619Y-45854438D01*
X66547619Y-45854438D02*
X66595238Y-45902057D01*
X66595238Y-45902057D02*
X66642857Y-45997295D01*
X66642857Y-45997295D02*
X66642857Y-46092533D01*
X66642857Y-46092533D02*
X66595238Y-46235390D01*
X66595238Y-46235390D02*
X66023810Y-46806819D01*
X66023810Y-46806819D02*
X66642857Y-46806819D01*
X2190476Y-92804819D02*
X2190476Y-91804819D01*
X2190476Y-91804819D02*
X2523809Y-92519104D01*
X2523809Y-92519104D02*
X2857142Y-91804819D01*
X2857142Y-91804819D02*
X2857142Y-92804819D01*
X3333333Y-92804819D02*
X3333333Y-91804819D01*
X3904761Y-92804819D02*
X3476190Y-92233390D01*
X3904761Y-91804819D02*
X3333333Y-92376247D01*
X4238095Y-91804819D02*
X4857142Y-91804819D01*
X4857142Y-91804819D02*
X4523809Y-92185771D01*
X4523809Y-92185771D02*
X4666666Y-92185771D01*
X4666666Y-92185771D02*
X4761904Y-92233390D01*
X4761904Y-92233390D02*
X4809523Y-92281009D01*
X4809523Y-92281009D02*
X4857142Y-92376247D01*
X4857142Y-92376247D02*
X4857142Y-92614342D01*
X4857142Y-92614342D02*
X4809523Y-92709580D01*
X4809523Y-92709580D02*
X4761904Y-92757200D01*
X4761904Y-92757200D02*
X4666666Y-92804819D01*
X4666666Y-92804819D02*
X4380952Y-92804819D01*
X4380952Y-92804819D02*
X4285714Y-92757200D01*
X4285714Y-92757200D02*
X4238095Y-92709580D01*
X76009580Y-30166666D02*
X76057200Y-30214285D01*
X76057200Y-30214285D02*
X76104819Y-30357142D01*
X76104819Y-30357142D02*
X76104819Y-30452380D01*
X76104819Y-30452380D02*
X76057200Y-30595237D01*
X76057200Y-30595237D02*
X75961961Y-30690475D01*
X75961961Y-30690475D02*
X75866723Y-30738094D01*
X75866723Y-30738094D02*
X75676247Y-30785713D01*
X75676247Y-30785713D02*
X75533390Y-30785713D01*
X75533390Y-30785713D02*
X75342914Y-30738094D01*
X75342914Y-30738094D02*
X75247676Y-30690475D01*
X75247676Y-30690475D02*
X75152438Y-30595237D01*
X75152438Y-30595237D02*
X75104819Y-30452380D01*
X75104819Y-30452380D02*
X75104819Y-30357142D01*
X75104819Y-30357142D02*
X75152438Y-30214285D01*
X75152438Y-30214285D02*
X75200057Y-30166666D01*
X75104819Y-29833332D02*
X75104819Y-29166666D01*
X75104819Y-29166666D02*
X76104819Y-29595237D01*
X13738095Y-45806819D02*
X14309523Y-45806819D01*
X14023809Y-46806819D02*
X14023809Y-45806819D01*
X14642857Y-46806819D02*
X14642857Y-45806819D01*
X14642857Y-45806819D02*
X15023809Y-45806819D01*
X15023809Y-45806819D02*
X15119047Y-45854438D01*
X15119047Y-45854438D02*
X15166666Y-45902057D01*
X15166666Y-45902057D02*
X15214285Y-45997295D01*
X15214285Y-45997295D02*
X15214285Y-46140152D01*
X15214285Y-46140152D02*
X15166666Y-46235390D01*
X15166666Y-46235390D02*
X15119047Y-46283009D01*
X15119047Y-46283009D02*
X15023809Y-46330628D01*
X15023809Y-46330628D02*
X14642857Y-46330628D01*
X15547619Y-45806819D02*
X16214285Y-45806819D01*
X16214285Y-45806819D02*
X15785714Y-46806819D01*
X47833333Y-68804819D02*
X47500000Y-68328628D01*
X47261905Y-68804819D02*
X47261905Y-67804819D01*
X47261905Y-67804819D02*
X47642857Y-67804819D01*
X47642857Y-67804819D02*
X47738095Y-67852438D01*
X47738095Y-67852438D02*
X47785714Y-67900057D01*
X47785714Y-67900057D02*
X47833333Y-67995295D01*
X47833333Y-67995295D02*
X47833333Y-68138152D01*
X47833333Y-68138152D02*
X47785714Y-68233390D01*
X47785714Y-68233390D02*
X47738095Y-68281009D01*
X47738095Y-68281009D02*
X47642857Y-68328628D01*
X47642857Y-68328628D02*
X47261905Y-68328628D01*
X48738095Y-67804819D02*
X48261905Y-67804819D01*
X48261905Y-67804819D02*
X48214286Y-68281009D01*
X48214286Y-68281009D02*
X48261905Y-68233390D01*
X48261905Y-68233390D02*
X48357143Y-68185771D01*
X48357143Y-68185771D02*
X48595238Y-68185771D01*
X48595238Y-68185771D02*
X48690476Y-68233390D01*
X48690476Y-68233390D02*
X48738095Y-68281009D01*
X48738095Y-68281009D02*
X48785714Y-68376247D01*
X48785714Y-68376247D02*
X48785714Y-68614342D01*
X48785714Y-68614342D02*
X48738095Y-68709580D01*
X48738095Y-68709580D02*
X48690476Y-68757200D01*
X48690476Y-68757200D02*
X48595238Y-68804819D01*
X48595238Y-68804819D02*
X48357143Y-68804819D01*
X48357143Y-68804819D02*
X48261905Y-68757200D01*
X48261905Y-68757200D02*
X48214286Y-68709580D01*
X1134819Y-19793333D02*
X1849104Y-19793333D01*
X1849104Y-19793333D02*
X1991961Y-19840952D01*
X1991961Y-19840952D02*
X2087200Y-19936190D01*
X2087200Y-19936190D02*
X2134819Y-20079047D01*
X2134819Y-20079047D02*
X2134819Y-20174285D01*
X2134819Y-18793333D02*
X2134819Y-19364761D01*
X2134819Y-19079047D02*
X1134819Y-19079047D01*
X1134819Y-19079047D02*
X1277676Y-19174285D01*
X1277676Y-19174285D02*
X1372914Y-19269523D01*
X1372914Y-19269523D02*
X1420533Y-19364761D01*
X43261905Y-45806819D02*
X43833333Y-45806819D01*
X43547619Y-46806819D02*
X43547619Y-45806819D01*
X44166667Y-46806819D02*
X44166667Y-45806819D01*
X44166667Y-45806819D02*
X44547619Y-45806819D01*
X44547619Y-45806819D02*
X44642857Y-45854438D01*
X44642857Y-45854438D02*
X44690476Y-45902057D01*
X44690476Y-45902057D02*
X44738095Y-45997295D01*
X44738095Y-45997295D02*
X44738095Y-46140152D01*
X44738095Y-46140152D02*
X44690476Y-46235390D01*
X44690476Y-46235390D02*
X44642857Y-46283009D01*
X44642857Y-46283009D02*
X44547619Y-46330628D01*
X44547619Y-46330628D02*
X44166667Y-46330628D01*
X45690476Y-46806819D02*
X45119048Y-46806819D01*
X45404762Y-46806819D02*
X45404762Y-45806819D01*
X45404762Y-45806819D02*
X45309524Y-45949676D01*
X45309524Y-45949676D02*
X45214286Y-46044914D01*
X45214286Y-46044914D02*
X45119048Y-46092533D01*
X46309524Y-45806819D02*
X46404762Y-45806819D01*
X46404762Y-45806819D02*
X46500000Y-45854438D01*
X46500000Y-45854438D02*
X46547619Y-45902057D01*
X46547619Y-45902057D02*
X46595238Y-45997295D01*
X46595238Y-45997295D02*
X46642857Y-46187771D01*
X46642857Y-46187771D02*
X46642857Y-46425866D01*
X46642857Y-46425866D02*
X46595238Y-46616342D01*
X46595238Y-46616342D02*
X46547619Y-46711580D01*
X46547619Y-46711580D02*
X46500000Y-46759200D01*
X46500000Y-46759200D02*
X46404762Y-46806819D01*
X46404762Y-46806819D02*
X46309524Y-46806819D01*
X46309524Y-46806819D02*
X46214286Y-46759200D01*
X46214286Y-46759200D02*
X46166667Y-46711580D01*
X46166667Y-46711580D02*
X46119048Y-46616342D01*
X46119048Y-46616342D02*
X46071429Y-46425866D01*
X46071429Y-46425866D02*
X46071429Y-46187771D01*
X46071429Y-46187771D02*
X46119048Y-45997295D01*
X46119048Y-45997295D02*
X46166667Y-45902057D01*
X46166667Y-45902057D02*
X46214286Y-45854438D01*
X46214286Y-45854438D02*
X46309524Y-45806819D01*
X23738095Y-25806819D02*
X24309523Y-25806819D01*
X24023809Y-26806819D02*
X24023809Y-25806819D01*
X24642857Y-26806819D02*
X24642857Y-25806819D01*
X24642857Y-25806819D02*
X25023809Y-25806819D01*
X25023809Y-25806819D02*
X25119047Y-25854438D01*
X25119047Y-25854438D02*
X25166666Y-25902057D01*
X25166666Y-25902057D02*
X25214285Y-25997295D01*
X25214285Y-25997295D02*
X25214285Y-26140152D01*
X25214285Y-26140152D02*
X25166666Y-26235390D01*
X25166666Y-26235390D02*
X25119047Y-26283009D01*
X25119047Y-26283009D02*
X25023809Y-26330628D01*
X25023809Y-26330628D02*
X24642857Y-26330628D01*
X25595238Y-25902057D02*
X25642857Y-25854438D01*
X25642857Y-25854438D02*
X25738095Y-25806819D01*
X25738095Y-25806819D02*
X25976190Y-25806819D01*
X25976190Y-25806819D02*
X26071428Y-25854438D01*
X26071428Y-25854438D02*
X26119047Y-25902057D01*
X26119047Y-25902057D02*
X26166666Y-25997295D01*
X26166666Y-25997295D02*
X26166666Y-26092533D01*
X26166666Y-26092533D02*
X26119047Y-26235390D01*
X26119047Y-26235390D02*
X25547619Y-26806819D01*
X25547619Y-26806819D02*
X26166666Y-26806819D01*
X2190476Y195180D02*
X2190476Y1195180D01*
X2190476Y1195180D02*
X2523809Y480895D01*
X2523809Y480895D02*
X2857142Y1195180D01*
X2857142Y1195180D02*
X2857142Y195180D01*
X3333333Y195180D02*
X3333333Y1195180D01*
X3904761Y195180D02*
X3476190Y766609D01*
X3904761Y1195180D02*
X3333333Y623752D01*
X4857142Y195180D02*
X4285714Y195180D01*
X4571428Y195180D02*
X4571428Y1195180D01*
X4571428Y1195180D02*
X4476190Y1052323D01*
X4476190Y1052323D02*
X4380952Y957085D01*
X4380952Y957085D02*
X4285714Y909466D01*
X44261905Y-70304819D02*
X44261905Y-69304819D01*
X44261905Y-69304819D02*
X44500000Y-69304819D01*
X44500000Y-69304819D02*
X44642857Y-69352438D01*
X44642857Y-69352438D02*
X44738095Y-69447676D01*
X44738095Y-69447676D02*
X44785714Y-69542914D01*
X44785714Y-69542914D02*
X44833333Y-69733390D01*
X44833333Y-69733390D02*
X44833333Y-69876247D01*
X44833333Y-69876247D02*
X44785714Y-70066723D01*
X44785714Y-70066723D02*
X44738095Y-70161961D01*
X44738095Y-70161961D02*
X44642857Y-70257200D01*
X44642857Y-70257200D02*
X44500000Y-70304819D01*
X44500000Y-70304819D02*
X44261905Y-70304819D01*
X45214286Y-69400057D02*
X45261905Y-69352438D01*
X45261905Y-69352438D02*
X45357143Y-69304819D01*
X45357143Y-69304819D02*
X45595238Y-69304819D01*
X45595238Y-69304819D02*
X45690476Y-69352438D01*
X45690476Y-69352438D02*
X45738095Y-69400057D01*
X45738095Y-69400057D02*
X45785714Y-69495295D01*
X45785714Y-69495295D02*
X45785714Y-69590533D01*
X45785714Y-69590533D02*
X45738095Y-69733390D01*
X45738095Y-69733390D02*
X45166667Y-70304819D01*
X45166667Y-70304819D02*
X45785714Y-70304819D01*
X77126666Y-97774819D02*
X77126666Y-98489104D01*
X77126666Y-98489104D02*
X77079047Y-98631961D01*
X77079047Y-98631961D02*
X76983809Y-98727200D01*
X76983809Y-98727200D02*
X76840952Y-98774819D01*
X76840952Y-98774819D02*
X76745714Y-98774819D01*
X77507619Y-97774819D02*
X78174285Y-97774819D01*
X78174285Y-97774819D02*
X77745714Y-98774819D01*
X18804819Y-42166666D02*
X18328628Y-42499999D01*
X18804819Y-42738094D02*
X17804819Y-42738094D01*
X17804819Y-42738094D02*
X17804819Y-42357142D01*
X17804819Y-42357142D02*
X17852438Y-42261904D01*
X17852438Y-42261904D02*
X17900057Y-42214285D01*
X17900057Y-42214285D02*
X17995295Y-42166666D01*
X17995295Y-42166666D02*
X18138152Y-42166666D01*
X18138152Y-42166666D02*
X18233390Y-42214285D01*
X18233390Y-42214285D02*
X18281009Y-42261904D01*
X18281009Y-42261904D02*
X18328628Y-42357142D01*
X18328628Y-42357142D02*
X18328628Y-42738094D01*
X18804819Y-41690475D02*
X18804819Y-41499999D01*
X18804819Y-41499999D02*
X18757200Y-41404761D01*
X18757200Y-41404761D02*
X18709580Y-41357142D01*
X18709580Y-41357142D02*
X18566723Y-41261904D01*
X18566723Y-41261904D02*
X18376247Y-41214285D01*
X18376247Y-41214285D02*
X17995295Y-41214285D01*
X17995295Y-41214285D02*
X17900057Y-41261904D01*
X17900057Y-41261904D02*
X17852438Y-41309523D01*
X17852438Y-41309523D02*
X17804819Y-41404761D01*
X17804819Y-41404761D02*
X17804819Y-41595237D01*
X17804819Y-41595237D02*
X17852438Y-41690475D01*
X17852438Y-41690475D02*
X17900057Y-41738094D01*
X17900057Y-41738094D02*
X17995295Y-41785713D01*
X17995295Y-41785713D02*
X18233390Y-41785713D01*
X18233390Y-41785713D02*
X18328628Y-41738094D01*
X18328628Y-41738094D02*
X18376247Y-41690475D01*
X18376247Y-41690475D02*
X18423866Y-41595237D01*
X18423866Y-41595237D02*
X18423866Y-41404761D01*
X18423866Y-41404761D02*
X18376247Y-41309523D01*
X18376247Y-41309523D02*
X18328628Y-41261904D01*
X18328628Y-41261904D02*
X18233390Y-41214285D01*
X57126666Y-97774819D02*
X57126666Y-98489104D01*
X57126666Y-98489104D02*
X57079047Y-98631961D01*
X57079047Y-98631961D02*
X56983809Y-98727200D01*
X56983809Y-98727200D02*
X56840952Y-98774819D01*
X56840952Y-98774819D02*
X56745714Y-98774819D01*
X58031428Y-97774819D02*
X57840952Y-97774819D01*
X57840952Y-97774819D02*
X57745714Y-97822438D01*
X57745714Y-97822438D02*
X57698095Y-97870057D01*
X57698095Y-97870057D02*
X57602857Y-98012914D01*
X57602857Y-98012914D02*
X57555238Y-98203390D01*
X57555238Y-98203390D02*
X57555238Y-98584342D01*
X57555238Y-98584342D02*
X57602857Y-98679580D01*
X57602857Y-98679580D02*
X57650476Y-98727200D01*
X57650476Y-98727200D02*
X57745714Y-98774819D01*
X57745714Y-98774819D02*
X57936190Y-98774819D01*
X57936190Y-98774819D02*
X58031428Y-98727200D01*
X58031428Y-98727200D02*
X58079047Y-98679580D01*
X58079047Y-98679580D02*
X58126666Y-98584342D01*
X58126666Y-98584342D02*
X58126666Y-98346247D01*
X58126666Y-98346247D02*
X58079047Y-98251009D01*
X58079047Y-98251009D02*
X58031428Y-98203390D01*
X58031428Y-98203390D02*
X57936190Y-98155771D01*
X57936190Y-98155771D02*
X57745714Y-98155771D01*
X57745714Y-98155771D02*
X57650476Y-98203390D01*
X57650476Y-98203390D02*
X57602857Y-98251009D01*
X57602857Y-98251009D02*
X57555238Y-98346247D01*
%TO.C,TP1*%
D11*
X24050000Y-21050000D02*
X25950000Y-21050000D01*
X24050000Y-22950000D02*
X24050000Y-21050000D01*
X25950000Y-21050000D02*
X25950000Y-22950000D01*
X25950000Y-22950000D02*
X24050000Y-22950000D01*
%TO.C,R3*%
X47772936Y-54265000D02*
X48227064Y-54265000D01*
X47772936Y-55735000D02*
X48227064Y-55735000D01*
%TO.C,TP5*%
X39050000Y-64050000D02*
X40950000Y-64050000D01*
X39050000Y-65950000D02*
X39050000Y-64050000D01*
X40950000Y-64050000D02*
X40950000Y-65950000D01*
X40950000Y-65950000D02*
X39050000Y-65950000D01*
%TO.C,TP13*%
X74050000Y-47050000D02*
X75950000Y-47050000D01*
X74050000Y-48950000D02*
X74050000Y-47050000D01*
X75950000Y-47050000D02*
X75950000Y-48950000D01*
X75950000Y-48950000D02*
X74050000Y-48950000D01*
%TO.C,R8*%
X71772936Y-69265000D02*
X72227064Y-69265000D01*
X71772936Y-70735000D02*
X72227064Y-70735000D01*
%TO.C,D1*%
X46610000Y-61150000D02*
X43950000Y-61150000D01*
X46610000Y-62850000D02*
X43950000Y-62850000D01*
X46610000Y-62850000D02*
X46610000Y-61150000D01*
%TO.C,R11*%
X59265000Y-42227064D02*
X59265000Y-41772936D01*
X60735000Y-42227064D02*
X60735000Y-41772936D01*
%TO.C,D6*%
X78350000Y-21510000D02*
X78350000Y-16000000D01*
X78350000Y-21510000D02*
X81650000Y-21510000D01*
X81650000Y-21510000D02*
X81650000Y-16000000D01*
%TO.C,C3*%
X36738748Y-59265000D02*
X37261252Y-59265000D01*
X36738748Y-60735000D02*
X37261252Y-60735000D01*
%TO.C,R12*%
X79265000Y-42227064D02*
X79265000Y-41772936D01*
X80735000Y-42227064D02*
X80735000Y-41772936D01*
%TO.C,J4*%
X12260000Y-87280000D02*
X19700000Y-87280000D01*
X12260000Y-97320000D02*
X12260000Y-87280000D01*
X20300000Y-87280000D02*
X22660000Y-87280000D01*
X22660000Y-87280000D02*
X22660000Y-97320000D01*
X22660000Y-87900000D02*
X12260000Y-87900000D01*
X22660000Y-89400000D02*
X12260000Y-89400000D01*
X22660000Y-94300000D02*
X12260000Y-94300000D01*
X22660000Y-97320000D02*
X12260000Y-97320000D01*
X20000000Y-87280000D02*
X19560000Y-86670000D01*
X20440000Y-86670000D01*
X20000000Y-87280000D01*
G36*
X20000000Y-87280000D02*
G01*
X19560000Y-86670000D01*
X20440000Y-86670000D01*
X20000000Y-87280000D01*
G37*
%TO.C,J5*%
X32260000Y-87280000D02*
X39700000Y-87280000D01*
X32260000Y-97320000D02*
X32260000Y-87280000D01*
X40300000Y-87280000D02*
X42660000Y-87280000D01*
X42660000Y-87280000D02*
X42660000Y-97320000D01*
X42660000Y-87900000D02*
X32260000Y-87900000D01*
X42660000Y-89400000D02*
X32260000Y-89400000D01*
X42660000Y-94300000D02*
X32260000Y-94300000D01*
X42660000Y-97320000D02*
X32260000Y-97320000D01*
X40000000Y-87280000D02*
X39560000Y-86670000D01*
X40440000Y-86670000D01*
X40000000Y-87280000D01*
G36*
X40000000Y-87280000D02*
G01*
X39560000Y-86670000D01*
X40440000Y-86670000D01*
X40000000Y-87280000D01*
G37*
%TO.C,U1*%
X29940000Y-63440000D02*
X34060000Y-63440000D01*
X29940000Y-63535000D02*
X29940000Y-63440000D01*
X29940000Y-68560000D02*
X29940000Y-68465000D01*
X34060000Y-63440000D02*
X34060000Y-63535000D01*
X34060000Y-68465000D02*
X34060000Y-68560000D01*
X34060000Y-68560000D02*
X29940000Y-68560000D01*
X29400000Y-63530000D02*
X29160000Y-63200000D01*
X29640000Y-63200000D01*
X29400000Y-63530000D01*
G36*
X29400000Y-63530000D02*
G01*
X29160000Y-63200000D01*
X29640000Y-63200000D01*
X29400000Y-63530000D01*
G37*
%TO.C,D7*%
X74315000Y-59040000D02*
X74315000Y-60960000D01*
X74315000Y-60960000D02*
X77000000Y-60960000D01*
X77000000Y-59040000D02*
X74315000Y-59040000D01*
%TO.C,TP9*%
X34050000Y-47050000D02*
X35950000Y-47050000D01*
X34050000Y-48950000D02*
X34050000Y-47050000D01*
X35950000Y-47050000D02*
X35950000Y-48950000D01*
X35950000Y-48950000D02*
X34050000Y-48950000D01*
%TO.C,R7*%
X71772936Y-59265000D02*
X72227064Y-59265000D01*
X71772936Y-60735000D02*
X72227064Y-60735000D01*
%TO.C,D8*%
X74315000Y-69040000D02*
X74315000Y-70960000D01*
X74315000Y-70960000D02*
X77000000Y-70960000D01*
X77000000Y-69040000D02*
X74315000Y-69040000D01*
%TO.C,D4*%
X38350000Y-21510000D02*
X38350000Y-16000000D01*
X38350000Y-21510000D02*
X41650000Y-21510000D01*
X41650000Y-21510000D02*
X41650000Y-16000000D01*
%TO.C,TP8*%
X24050000Y-47050000D02*
X25950000Y-47050000D01*
X24050000Y-48950000D02*
X24050000Y-47050000D01*
X25950000Y-47050000D02*
X25950000Y-48950000D01*
X25950000Y-48950000D02*
X24050000Y-48950000D01*
%TO.C,C6*%
X56590000Y-26590000D02*
X58940000Y-26590000D01*
X56590000Y-32345563D02*
X56590000Y-26590000D01*
X57654437Y-33410000D02*
X56590000Y-32345563D01*
X57654437Y-33410000D02*
X58940000Y-33410000D01*
X57758750Y-34043750D02*
X58546250Y-34043750D01*
X58152500Y-34437500D02*
X58152500Y-33650000D01*
X62345563Y-33410000D02*
X61060000Y-33410000D01*
X62345563Y-33410000D02*
X63410000Y-32345563D01*
X63410000Y-26590000D02*
X61060000Y-26590000D01*
X63410000Y-32345563D02*
X63410000Y-26590000D01*
%TO.C,J11*%
X77340000Y-2680000D02*
X87740000Y-2680000D01*
X77340000Y-5700000D02*
X87740000Y-5700000D01*
X77340000Y-10600000D02*
X87740000Y-10600000D01*
X77340000Y-12100000D02*
X87740000Y-12100000D01*
X77340000Y-12720000D02*
X77340000Y-2680000D01*
X79700000Y-12720000D02*
X77340000Y-12720000D01*
X87740000Y-2680000D02*
X87740000Y-12720000D01*
X87740000Y-12720000D02*
X80300000Y-12720000D01*
X80000000Y-12720000D02*
X80440000Y-13330000D01*
X79560000Y-13330000D01*
X80000000Y-12720000D01*
G36*
X80440000Y-13330000D02*
G01*
X79560000Y-13330000D01*
X80000000Y-12720000D01*
X80440000Y-13330000D01*
G37*
%TO.C,D3*%
X18350000Y-21510000D02*
X18350000Y-16000000D01*
X18350000Y-21510000D02*
X21650000Y-21510000D01*
X21650000Y-21510000D02*
X21650000Y-16000000D01*
%TO.C,Q1*%
X51240000Y-58440000D02*
X52760000Y-58440000D01*
X51240000Y-58490000D02*
X51240000Y-58440000D01*
X51240000Y-60390000D02*
X51240000Y-59610000D01*
X51240000Y-61560000D02*
X51240000Y-61510000D01*
X52760000Y-58440000D02*
X52760000Y-59440000D01*
X52760000Y-60560000D02*
X52760000Y-61560000D01*
X52760000Y-61560000D02*
X51240000Y-61560000D01*
X50700000Y-59620000D02*
X50940000Y-59950000D01*
X50460000Y-59950000D01*
X50700000Y-59620000D01*
G36*
X50940000Y-59950000D02*
G01*
X50460000Y-59950000D01*
X50700000Y-59620000D01*
X50940000Y-59950000D01*
G37*
%TO.C,C4*%
X16590000Y-26590000D02*
X18940000Y-26590000D01*
X16590000Y-32345563D02*
X16590000Y-26590000D01*
X17654437Y-33410000D02*
X16590000Y-32345563D01*
X17654437Y-33410000D02*
X18940000Y-33410000D01*
X17758750Y-34043750D02*
X18546250Y-34043750D01*
X18152500Y-34437500D02*
X18152500Y-33650000D01*
X22345563Y-33410000D02*
X21060000Y-33410000D01*
X22345563Y-33410000D02*
X23410000Y-32345563D01*
X23410000Y-26590000D02*
X21060000Y-26590000D01*
X23410000Y-32345563D02*
X23410000Y-26590000D01*
%TO.C,C1*%
X25562500Y-56152500D02*
X26350000Y-56152500D01*
X25956250Y-55758750D02*
X25956250Y-56546250D01*
X26590000Y-55654437D02*
X26590000Y-56940000D01*
X26590000Y-55654437D02*
X27654437Y-54590000D01*
X26590000Y-60345563D02*
X26590000Y-59060000D01*
X26590000Y-60345563D02*
X27654437Y-61410000D01*
X27654437Y-54590000D02*
X33410000Y-54590000D01*
X27654437Y-61410000D02*
X33410000Y-61410000D01*
X33410000Y-54590000D02*
X33410000Y-56940000D01*
X33410000Y-61410000D02*
X33410000Y-59060000D01*
%TO.C,C2*%
X23738748Y-64265000D02*
X24261252Y-64265000D01*
X23738748Y-65735000D02*
X24261252Y-65735000D01*
%TO.C,J8*%
X17340000Y-2680000D02*
X27740000Y-2680000D01*
X17340000Y-5700000D02*
X27740000Y-5700000D01*
X17340000Y-10600000D02*
X27740000Y-10600000D01*
X17340000Y-12100000D02*
X27740000Y-12100000D01*
X17340000Y-12720000D02*
X17340000Y-2680000D01*
X19700000Y-12720000D02*
X17340000Y-12720000D01*
X27740000Y-2680000D02*
X27740000Y-12720000D01*
X27740000Y-12720000D02*
X20300000Y-12720000D01*
X20000000Y-12720000D02*
X20440000Y-13330000D01*
X19560000Y-13330000D01*
X20000000Y-12720000D01*
G36*
X20440000Y-13330000D02*
G01*
X19560000Y-13330000D01*
X20000000Y-12720000D01*
X20440000Y-13330000D01*
G37*
%TO.C,TP4*%
X5050000Y-59050000D02*
X6950000Y-59050000D01*
X5050000Y-60950000D02*
X5050000Y-59050000D01*
X6950000Y-59050000D02*
X6950000Y-60950000D01*
X6950000Y-60950000D02*
X5050000Y-60950000D01*
%TO.C,TP6*%
X57050000Y-69050000D02*
X58950000Y-69050000D01*
X57050000Y-70950000D02*
X57050000Y-69050000D01*
X58950000Y-69050000D02*
X58950000Y-70950000D01*
X58950000Y-70950000D02*
X57050000Y-70950000D01*
%TO.C,J10*%
X57340000Y-2680000D02*
X67740000Y-2680000D01*
X57340000Y-5700000D02*
X67740000Y-5700000D01*
X57340000Y-10600000D02*
X67740000Y-10600000D01*
X57340000Y-12100000D02*
X67740000Y-12100000D01*
X57340000Y-12720000D02*
X57340000Y-2680000D01*
X59700000Y-12720000D02*
X57340000Y-12720000D01*
X67740000Y-2680000D02*
X67740000Y-12720000D01*
X67740000Y-12720000D02*
X60300000Y-12720000D01*
X60000000Y-12720000D02*
X60440000Y-13330000D01*
X59560000Y-13330000D01*
X60000000Y-12720000D01*
G36*
X60440000Y-13330000D02*
G01*
X59560000Y-13330000D01*
X60000000Y-12720000D01*
X60440000Y-13330000D01*
G37*
%TO.C,J3*%
X2680000Y-70260000D02*
X12720000Y-70260000D01*
X2680000Y-80660000D02*
X2680000Y-70260000D01*
X5700000Y-80660000D02*
X5700000Y-70260000D01*
X10600000Y-80660000D02*
X10600000Y-70260000D01*
X12100000Y-80660000D02*
X12100000Y-70260000D01*
X12720000Y-70260000D02*
X12720000Y-77700000D01*
X12720000Y-78300000D02*
X12720000Y-80660000D01*
X12720000Y-80660000D02*
X2680000Y-80660000D01*
X12720000Y-78000000D02*
X13330000Y-77560000D01*
X13330000Y-78440000D01*
X12720000Y-78000000D01*
G36*
X13330000Y-78440000D02*
G01*
X12720000Y-78000000D01*
X13330000Y-77560000D01*
X13330000Y-78440000D01*
G37*
%TO.C,J9*%
X37340000Y-2680000D02*
X47740000Y-2680000D01*
X37340000Y-5700000D02*
X47740000Y-5700000D01*
X37340000Y-10600000D02*
X47740000Y-10600000D01*
X37340000Y-12100000D02*
X47740000Y-12100000D01*
X37340000Y-12720000D02*
X37340000Y-2680000D01*
X39700000Y-12720000D02*
X37340000Y-12720000D01*
X47740000Y-2680000D02*
X47740000Y-12720000D01*
X47740000Y-12720000D02*
X40300000Y-12720000D01*
X40000000Y-12720000D02*
X40440000Y-13330000D01*
X39560000Y-13330000D01*
X40000000Y-12720000D01*
G36*
X40440000Y-13330000D02*
G01*
X39560000Y-13330000D01*
X40000000Y-12720000D01*
X40440000Y-13330000D01*
G37*
%TO.C,D5*%
X58350000Y-21510000D02*
X58350000Y-16000000D01*
X58350000Y-21510000D02*
X61650000Y-21510000D01*
X61650000Y-21510000D02*
X61650000Y-16000000D01*
%TO.C,R1*%
X31772936Y-51265000D02*
X32227064Y-51265000D01*
X31772936Y-52735000D02*
X32227064Y-52735000D01*
%TO.C,J2*%
X2680000Y-37260000D02*
X12720000Y-37260000D01*
X2680000Y-47660000D02*
X2680000Y-37260000D01*
X5700000Y-47660000D02*
X5700000Y-37260000D01*
X10600000Y-47660000D02*
X10600000Y-37260000D01*
X12100000Y-47660000D02*
X12100000Y-37260000D01*
X12720000Y-37260000D02*
X12720000Y-44700000D01*
X12720000Y-45300000D02*
X12720000Y-47660000D01*
X12720000Y-47660000D02*
X2680000Y-47660000D01*
X12720000Y-45000000D02*
X13330000Y-44560000D01*
X13330000Y-45440000D01*
X12720000Y-45000000D01*
G36*
X13330000Y-45440000D02*
G01*
X12720000Y-45000000D01*
X13330000Y-44560000D01*
X13330000Y-45440000D01*
G37*
%TO.C,TP3*%
X17050000Y-79050000D02*
X18950000Y-79050000D01*
X17050000Y-80950000D02*
X17050000Y-79050000D01*
X18950000Y-79050000D02*
X18950000Y-80950000D01*
X18950000Y-80950000D02*
X17050000Y-80950000D01*
%TO.C,R6*%
X47772936Y-74265000D02*
X48227064Y-74265000D01*
X47772936Y-75735000D02*
X48227064Y-75735000D01*
%TO.C,R10*%
X39265000Y-42227064D02*
X39265000Y-41772936D01*
X40735000Y-42227064D02*
X40735000Y-41772936D01*
%TO.C,C5*%
X36590000Y-26590000D02*
X38940000Y-26590000D01*
X36590000Y-32345563D02*
X36590000Y-26590000D01*
X37654437Y-33410000D02*
X36590000Y-32345563D01*
X37654437Y-33410000D02*
X38940000Y-33410000D01*
X37758750Y-34043750D02*
X38546250Y-34043750D01*
X38152500Y-34437500D02*
X38152500Y-33650000D01*
X42345563Y-33410000D02*
X41060000Y-33410000D01*
X42345563Y-33410000D02*
X43410000Y-32345563D01*
X43410000Y-26590000D02*
X41060000Y-26590000D01*
X43410000Y-32345563D02*
X43410000Y-26590000D01*
%TO.C,D9*%
X13510000Y-33350000D02*
X8000000Y-33350000D01*
X13510000Y-36650000D02*
X8000000Y-36650000D01*
X13510000Y-36650000D02*
X13510000Y-33350000D01*
%TO.C,R4*%
X47772936Y-59265000D02*
X48227064Y-59265000D01*
X47772936Y-60735000D02*
X48227064Y-60735000D01*
%TO.C,Q2*%
X51240000Y-68440000D02*
X52760000Y-68440000D01*
X51240000Y-68490000D02*
X51240000Y-68440000D01*
X51240000Y-70390000D02*
X51240000Y-69610000D01*
X51240000Y-71560000D02*
X51240000Y-71510000D01*
X52760000Y-68440000D02*
X52760000Y-69440000D01*
X52760000Y-70560000D02*
X52760000Y-71560000D01*
X52760000Y-71560000D02*
X51240000Y-71560000D01*
X50700000Y-69620000D02*
X50940000Y-69950000D01*
X50460000Y-69950000D01*
X50700000Y-69620000D01*
G36*
X50940000Y-69950000D02*
G01*
X50460000Y-69950000D01*
X50700000Y-69620000D01*
X50940000Y-69950000D01*
G37*
%TO.C,TP11*%
X54050000Y-47050000D02*
X55950000Y-47050000D01*
X54050000Y-48950000D02*
X54050000Y-47050000D01*
X55950000Y-47050000D02*
X55950000Y-48950000D01*
X55950000Y-48950000D02*
X54050000Y-48950000D01*
%TO.C,TP14*%
X84050000Y-47050000D02*
X85950000Y-47050000D01*
X84050000Y-48950000D02*
X84050000Y-47050000D01*
X85950000Y-47050000D02*
X85950000Y-48950000D01*
X85950000Y-48950000D02*
X84050000Y-48950000D01*
%TO.C,TP12*%
X64050000Y-47050000D02*
X65950000Y-47050000D01*
X64050000Y-48950000D02*
X64050000Y-47050000D01*
X65950000Y-47050000D02*
X65950000Y-48950000D01*
X65950000Y-48950000D02*
X64050000Y-48950000D01*
%TO.C,C7*%
X76590000Y-26590000D02*
X78940000Y-26590000D01*
X76590000Y-32345563D02*
X76590000Y-26590000D01*
X77654437Y-33410000D02*
X76590000Y-32345563D01*
X77654437Y-33410000D02*
X78940000Y-33410000D01*
X77758750Y-34043750D02*
X78546250Y-34043750D01*
X78152500Y-34437500D02*
X78152500Y-33650000D01*
X82345563Y-33410000D02*
X81060000Y-33410000D01*
X82345563Y-33410000D02*
X83410000Y-32345563D01*
X83410000Y-26590000D02*
X81060000Y-26590000D01*
X83410000Y-32345563D02*
X83410000Y-26590000D01*
%TO.C,R2*%
X24772936Y-66265000D02*
X25227064Y-66265000D01*
X24772936Y-67735000D02*
X25227064Y-67735000D01*
%TO.C,TP7*%
X14050000Y-47050000D02*
X15950000Y-47050000D01*
X14050000Y-48950000D02*
X14050000Y-47050000D01*
X15950000Y-47050000D02*
X15950000Y-48950000D01*
X15950000Y-48950000D02*
X14050000Y-48950000D01*
%TO.C,R5*%
X47772936Y-69265000D02*
X48227064Y-69265000D01*
X47772936Y-70735000D02*
X48227064Y-70735000D01*
%TO.C,J1*%
X2680000Y-14260000D02*
X12720000Y-14260000D01*
X2680000Y-24660000D02*
X2680000Y-14260000D01*
X5700000Y-24660000D02*
X5700000Y-14260000D01*
X10600000Y-24660000D02*
X10600000Y-14260000D01*
X12100000Y-24660000D02*
X12100000Y-14260000D01*
X12720000Y-14260000D02*
X12720000Y-21700000D01*
X12720000Y-22300000D02*
X12720000Y-24660000D01*
X12720000Y-24660000D02*
X2680000Y-24660000D01*
X12720000Y-22000000D02*
X13330000Y-21560000D01*
X13330000Y-22440000D01*
X12720000Y-22000000D01*
G36*
X13330000Y-22440000D02*
G01*
X12720000Y-22000000D01*
X13330000Y-21560000D01*
X13330000Y-22440000D01*
G37*
%TO.C,TP10*%
X44050000Y-47050000D02*
X45950000Y-47050000D01*
X44050000Y-48950000D02*
X44050000Y-47050000D01*
X45950000Y-47050000D02*
X45950000Y-48950000D01*
X45950000Y-48950000D02*
X44050000Y-48950000D01*
%TO.C,TP2*%
X24050000Y-27050000D02*
X25950000Y-27050000D01*
X24050000Y-28950000D02*
X24050000Y-27050000D01*
X25950000Y-27050000D02*
X25950000Y-28950000D01*
X25950000Y-28950000D02*
X24050000Y-28950000D01*
%TO.C,D2*%
X46610000Y-67150000D02*
X43950000Y-67150000D01*
X46610000Y-68850000D02*
X43950000Y-68850000D01*
X46610000Y-68850000D02*
X46610000Y-67150000D01*
%TO.C,J7*%
X72260000Y-87280000D02*
X79700000Y-87280000D01*
X72260000Y-97320000D02*
X72260000Y-87280000D01*
X80300000Y-87280000D02*
X82660000Y-87280000D01*
X82660000Y-87280000D02*
X82660000Y-97320000D01*
X82660000Y-87900000D02*
X72260000Y-87900000D01*
X82660000Y-89400000D02*
X72260000Y-89400000D01*
X82660000Y-94300000D02*
X72260000Y-94300000D01*
X82660000Y-97320000D02*
X72260000Y-97320000D01*
X80000000Y-87280000D02*
X79560000Y-86670000D01*
X80440000Y-86670000D01*
X80000000Y-87280000D01*
G36*
X80000000Y-87280000D02*
G01*
X79560000Y-86670000D01*
X80440000Y-86670000D01*
X80000000Y-87280000D01*
G37*
%TO.C,R9*%
X19265000Y-42227064D02*
X19265000Y-41772936D01*
X20735000Y-42227064D02*
X20735000Y-41772936D01*
%TO.C,J6*%
X52260000Y-87280000D02*
X59700000Y-87280000D01*
X52260000Y-97320000D02*
X52260000Y-87280000D01*
X60300000Y-87280000D02*
X62660000Y-87280000D01*
X62660000Y-87280000D02*
X62660000Y-97320000D01*
X62660000Y-87900000D02*
X52260000Y-87900000D01*
X62660000Y-89400000D02*
X52260000Y-89400000D01*
X62660000Y-94300000D02*
X52260000Y-94300000D01*
X62660000Y-97320000D02*
X52260000Y-97320000D01*
X60000000Y-87280000D02*
X59560000Y-86670000D01*
X60440000Y-86670000D01*
X60000000Y-87280000D01*
G36*
X60000000Y-87280000D02*
G01*
X59560000Y-86670000D01*
X60440000Y-86670000D01*
X60000000Y-87280000D01*
G37*
%TD*%
M02*
