M48
; DRILL file KiCad 10.0.2 date 2026-05-14T17:55:29
; FORMAT={-:-/ absolute / metric / decimal}
; #@! TF.CreationDate,2026-05-14T17:55:29-07:00
; #@! TF.GenerationSoftware,Kicad,Pcbnew,10.0.2
; #@! TF.FileFunction,Plated,1,2,PTH
FMAT,2
METRIC
; #@! TA.AperFunction,Plated,PTH,ViaDrill
T1C0.300
; #@! TA.AperFunction,Plated,PTH,ComponentDrill
T2C1.300
%
G90
G05
T1
X9.636Y-63.241
X13.162Y-62.464
X14.92Y-27.2
X14.92Y-51.471
X21.41Y-16.107
X34.92Y-41.087
X35.6Y-62.8
X37.681Y-76.061
X40.0Y-17.779
X47.828Y-53.662
X49.784Y-61.397
X58.591Y-16.108
X60.316Y-48.526
X78.592Y-16.108
X80.945Y-48.526
T2
X8.0Y-16.92
X8.0Y-22.0
X8.0Y-39.92
X8.0Y-45.0
X8.0Y-72.92
X8.0Y-78.0
X14.92Y-92.0
X20.0Y-8.0
X20.0Y-92.0
X25.08Y-8.0
X34.92Y-92.0
X40.0Y-8.0
X40.0Y-92.0
X45.08Y-8.0
X54.92Y-92.0
X60.0Y-8.0
X60.0Y-92.0
X65.08Y-8.0
X74.92Y-92.0
X80.0Y-8.0
X80.0Y-92.0
X85.08Y-8.0
M30
